<svg xmlns="http://www.w3.org/2000/svg" xmlns:xlink="http://www.w3.org/1999/xlink" width="128" height="128" viewBox="0 0 128 128">
  <defs>
    <filter id="Trazado_982547" x="0" y="0" width="128" height="128" filterUnits="userSpaceOnUse">
      <feOffset dy="3" input="SourceAlpha"/>
      <feGaussianBlur stdDeviation="3" result="blur"/>
      <feFlood flood-opacity="0.161"/>
      <feComposite operator="in" in2="blur"/>
      <feComposite in="SourceGraphic"/>
    </filter>
  </defs>
  <g id="Grupo_1177312" data-name="Grupo 1177312" transform="translate(-736 -919.317)">
    <g id="Grupo_1176900" data-name="Grupo 1176900" transform="translate(419.5 -2075.023)">
      <g id="Grupo_1176328" data-name="Grupo 1176328" transform="translate(127.467 1008.34)">
        <g id="Grupo_1172970" data-name="Grupo 1172970" transform="translate(198.033 1992)">
          <g id="Grupo_1171971" data-name="Grupo 1171971" transform="translate(0)">
            <g id="Grupo_1167337" data-name="Grupo 1167337">
              <g id="Grupo_1166720" data-name="Grupo 1166720">
                <g id="Grupo_1164305" data-name="Grupo 1164305">
                  <g id="Grupo_1163948" data-name="Grupo 1163948">
                    <g id="Grupo_1158168" data-name="Grupo 1158168">
                      <g id="Grupo_1152576" data-name="Grupo 1152576">
                        <g id="Grupo_1148633" data-name="Grupo 1148633">
                          <g id="Grupo_1148525" data-name="Grupo 1148525">
                            <g transform="matrix(1, 0, 0, 1, -9, -6)" filter="url(#Trazado_982547)">
                              <g id="Trazado_982547-2" data-name="Trazado 982547" transform="translate(9 6)" fill="#fbecfd">
                                <path d="M 54.99999618530273 108.5 C 47.77687454223633 108.5 40.77062606811523 107.0856704711914 34.17584228515625 104.2963180541992 C 27.80527305603027 101.6017990112305 22.0836124420166 97.74404144287109 17.16978073120117 92.83020782470703 C 12.25594997406006 87.9163818359375 8.398196220397949 82.19471740722656 5.703672885894775 75.82415008544922 C 2.914319276809692 69.22937774658203 1.499996185302734 62.22311782836914 1.499996185302734 54.99999618530273 C 1.499996185302734 47.77688980102539 2.914319276809692 40.77062606811523 5.703672885894775 34.17584228515625 C 8.398196220397949 27.80528831481934 12.25594997406006 22.08362770080566 17.16978073120117 17.16979598999023 C 22.0836124420166 12.25594997406006 27.80527305603027 8.398196220397949 34.17584228515625 5.703672885894775 C 40.77062606811523 2.914319276809692 47.77688980102539 1.499996185302734 54.99999618530273 1.499996185302734 C 62.22311782836914 1.499996185302734 69.22937774658203 2.914319276809692 75.82415008544922 5.703672885894775 C 82.19471740722656 8.398196220397949 87.9163818359375 12.25594997406006 92.83020782470703 17.16979598999023 C 97.74404144287109 22.08362770080566 101.6017990112305 27.80528831481934 104.2963180541992 34.17584228515625 C 107.0856704711914 40.77062606811523 108.5 47.77688980102539 108.5 54.99999618530273 C 108.5 62.22311782836914 107.0856704711914 69.22937774658203 104.2963180541992 75.82415008544922 C 101.6017990112305 82.19471740722656 97.74404144287109 87.9163818359375 92.83020782470703 92.83020782470703 C 87.9163818359375 97.74404144287109 82.19471740722656 101.6017990112305 75.82415008544922 104.2963180541992 C 69.22937774658203 107.0856704711914 62.22311782836914 108.5 54.99999618530273 108.5 Z" stroke="none"/>
                                <path d="M 54.99999618530273 2.999992370605469 C 47.97871398925781 2.999992370605469 41.16905975341797 4.374443054199219 34.76016235351562 7.085182189941406 C 28.56839752197266 9.704078674316406 23.00699615478516 13.45389556884766 18.23044586181641 18.23044586181641 C 13.45388031005859 23.00701141357422 9.704078674316406 28.56841278076172 7.085182189941406 34.76017761230469 C 4.374443054199219 41.16905975341797 2.999992370605469 47.97872924804688 2.999992370605469 54.99999618530273 C 2.999992370605469 62.02127838134766 4.374443054199219 68.8309326171875 7.085182189941406 75.23983001708984 C 9.704078674316406 81.43159484863281 13.45388031005859 86.99299621582031 18.23044586181641 91.76954650878906 C 23.00699615478516 96.54611206054688 28.56839752197266 100.2959136962891 34.76016235351562 102.9148101806641 C 41.16905975341797 105.6255493164062 47.97871398925781 107 54.99999618530273 107 C 62.02127838134766 107 68.8309326171875 105.6255493164062 75.23983001708984 102.9148101806641 C 81.43159484863281 100.2959136962891 86.99299621582031 96.54611206054688 91.76954650878906 91.76954650878906 C 96.54611206054688 86.99299621582031 100.2959136962891 81.43159484863281 102.9148101806641 75.23983001708984 C 105.6255493164062 68.8309326171875 107 62.02127838134766 107 54.99999618530273 C 107 47.97872924804688 105.6255493164062 41.16905975341797 102.9148101806641 34.76017761230469 C 100.2959136962891 28.56841278076172 96.54611206054688 23.00701141357422 91.76954650878906 18.23044586181641 C 86.99299621582031 13.45389556884766 81.43159484863281 9.704078674316406 75.23983001708984 7.085182189941406 C 68.8309326171875 4.374443054199219 62.02127838134766 2.999992370605469 54.99999618530273 2.999992370605469 M 54.99999618530273 -7.62939453125e-06 C 85.37566375732422 -7.62939453125e-06 110 24.62434387207031 110 54.99999618530273 C 110 85.37566375732422 85.37566375732422 110 54.99999618530273 110 C 24.62432861328125 110 -7.62939453125e-06 85.37566375732422 -7.62939453125e-06 54.99999618530273 C -7.62939453125e-06 24.62434387207031 24.62432861328125 -7.62939453125e-06 54.99999618530273 -7.62939453125e-06 Z" stroke="none" fill="#772d84"/>
                              </g>
                            </g>
                          </g>
                        </g>
                      </g>
                    </g>
                  </g>
                </g>
              </g>
            </g>
          </g>
        </g>
      </g>
    </g>
    <g id="stats_1350714" transform="translate(769.318 949.197)">
      <path id="Trazado_1035943" data-name="Trazado 1035943" d="M50.217,44.941l-6.025-6.026a20.09,20.09,0,1,0-5.276,5.276l6.026,6.025Zm0,0" transform="translate(-6.522 -6.522)" fill="#c6c5ca"/>
      <path id="Trazado_1035944" data-name="Trazado 1035944" d="M110.79,61.632a13.547,13.547,0,1,0,3.968,9.579,13.5,13.5,0,0,0-3.968-9.579Zm0,0" transform="translate(-76.226 -50.14)" fill="#898890"/>
      <path id="Trazado_1035945" data-name="Trazado 1035945" d="M283.09,291.338l8.24-8.24,20.242,20.242-8.24,8.24Zm0,0" transform="translate(-246.154 -246.16)" fill="#787680"/>
      <path id="Trazado_1035946" data-name="Trazado 1035946" d="M80.79,61.632a13.547,13.547,0,1,0-9.579,23.126V71.211Zm0,0" transform="translate(-50.14 -50.14)" fill="#ff7956"/>
      <path id="Trazado_1035947" data-name="Trazado 1035947" d="M161.492,175.038a13.5,13.5,0,0,0,9.579-3.968l-9.579-9.579Zm0,0" transform="translate(-140.421 -140.421)" fill="#57a4ff"/>
      <path id="Trazado_1035948" data-name="Trazado 1035948" d="M175.038,97.653a13.5,13.5,0,0,0-3.968-9.579l-9.579,9.579,9.579,9.579a13.5,13.5,0,0,0,3.968-9.579Zm0,0" transform="translate(-140.421 -76.583)" fill="#ffe477"/>
      <path id="Trazado_1035949" data-name="Trazado 1035949" d="M7.5,310.992h6.545v25.246H7.5Zm0,0" transform="translate(-6.521 -270.415)" fill="#b6e892"/>
      <path id="Trazado_1035950" data-name="Trazado 1035950" d="M87.664,394.992H94.21v14.287H87.664Zm0,0" transform="translate(-76.226 -343.455)" fill="#ff7956"/>
      <path id="Trazado_1035951" data-name="Trazado 1035951" d="M167.832,339.84h6.545v21.483h-6.545Zm0,0" transform="translate(-145.934 -295.499)" fill="#b6e892"/>
      <path id="Trazado_1035952" data-name="Trazado 1035952" d="M248,409.52h6.545v12.391H248Zm0,0" transform="translate(-215.639 -356.088)" fill="#ff7956"/>
      <path id="Trazado_1035953" data-name="Trazado 1035953" d="M345.806,60.19a2.593,2.593,0,1,1-2.593-2.593A2.593,2.593,0,0,1,345.806,60.19Zm0,0" transform="translate(-296.178 -50.083)" fill="#57a4ff"/>
      <path id="Trazado_1035954" data-name="Trazado 1035954" d="M407.869,143.741a2.593,2.593,0,1,1-2.593-2.593A2.593,2.593,0,0,1,407.869,143.741Zm0,0" transform="translate(-350.143 -122.732)" fill="#57a4ff"/>
      <path id="Trazado_1035955" data-name="Trazado 1035955" d="M469.931,101.968a2.593,2.593,0,1,1-2.593-2.593A2.593,2.593,0,0,1,469.931,101.968Zm0,0" transform="translate(-404.108 -86.409)" fill="#57a4ff"/>
      <g id="Grupo_1177311" data-name="Grupo 1177311" transform="translate(45.541 0.978)">
        <path id="Trazado_1035956" data-name="Trazado 1035956" d="M349.035,114.782V97.344h2.983l.006,17.438Zm0,0" transform="translate(-349.035 -85.622)" fill="#c6c5ca"/>
        <path id="Trazado_1035957" data-name="Trazado 1035957" d="M349.035,14.037V7.5h2.979l0,6.537Zm0,0" transform="translate(-349.035 -7.5)" fill="#c6c5ca"/>
        <path id="Trazado_1035958" data-name="Trazado 1035958" d="M414.088,7.5V24.938H411.1L411.1,7.5Zm0,0" transform="translate(-403 -7.5)" fill="#c6c5ca"/>
        <path id="Trazado_1035959" data-name="Trazado 1035959" d="M414.145,180.9v6.537h-2.979l0-6.537Zm0,0" transform="translate(-403.058 -158.271)" fill="#c6c5ca"/>
        <path id="Trazado_1035960" data-name="Trazado 1035960" d="M476.176,139.117V151.1H473.2l0-11.987Zm0,0" transform="translate(-456.996 -121.944)" fill="#c6c5ca"/>
        <path id="Trazado_1035961" data-name="Trazado 1035961" d="M476.176,7.5V19.487H473.2l0-11.987Zm0,0" transform="translate(-456.996 -7.5)" fill="#c6c5ca"/>
      </g>
      <path id="Trazado_1035962" data-name="Trazado 1035962" d="M11.414,27.592a20.094,20.094,0,0,1,18.135-20Q28.583,7.5,27.592,7.5a20.092,20.092,0,1,0,0,40.184q.99,0,1.957-.094a20.1,20.1,0,0,1-18.135-20Zm0,0" transform="translate(-6.521 -6.521)" fill="#898890"/>
      <path id="Trazado_1035963" data-name="Trazado 1035963" d="M261.8,288.707a20.08,20.08,0,0,1-2.471,1.443l4.583,4.583,1.957-1.957Zm0,0" transform="translate(-225.495 -251.038)" fill="#898890"/>
      <path id="Trazado_1035964" data-name="Trazado 1035964" d="M287.008,291.335l6.284-6.284-1.957-1.957-8.241,8.241,20.242,20.242,1.957-1.957Zm0,0" transform="translate(-246.157 -246.157)" fill="#57565c"/>
      <path id="Trazado_1035965" data-name="Trazado 1035965" d="M61.578,71.211A13.55,13.55,0,0,1,73.168,57.8a13.547,13.547,0,1,0-1.957,26.953v-.574a13.553,13.553,0,0,1-9.633-12.973Zm0,0" transform="translate(-50.14 -50.14)" fill="#ff3f62"/>
      <path id="Trazado_1035966" data-name="Trazado 1035966" d="M165.406,165.406l-3.914-3.914v13.547a13.561,13.561,0,0,0,3.914-.574Zm0,0" transform="translate(-140.421 -140.421)" fill="#006df0"/>
      <path id="Trazado_1035967" data-name="Trazado 1035967" d="M165.406,97.653l7.421-7.421a13.607,13.607,0,0,0-1.756-2.158l-9.579,9.579,9.579,9.579a13.6,13.6,0,0,0,1.756-2.158Zm0,0" transform="translate(-140.421 -76.583)" fill="#ffb655"/>
      <path id="Trazado_1035968" data-name="Trazado 1035968" d="M7.5,310.992h3.914v25.246H7.5Zm0,0" transform="translate(-6.521 -270.415)" fill="#7ccc92"/>
      <path id="Trazado_1035969" data-name="Trazado 1035969" d="M87.664,394.992h3.914v14.287H87.664Zm0,0" transform="translate(-76.226 -343.455)" fill="#ff3f62"/>
      <path id="Trazado_1035970" data-name="Trazado 1035970" d="M167.832,339.84h3.914v21.483h-3.914Zm0,0" transform="translate(-145.934 -295.499)" fill="#7ccc92"/>
      <path id="Trazado_1035971" data-name="Trazado 1035971" d="M248,409.52h3.914v12.391H248Zm0,0" transform="translate(-215.639 -356.088)" fill="#ff3f62"/>
      <path id="Trazado_1035972" data-name="Trazado 1035972" d="M342.578,60.19a2.593,2.593,0,0,1,1.614-2.4,2.593,2.593,0,1,0,0,4.8,2.594,2.594,0,0,1-1.614-2.4Zm0,0" transform="translate(-296.178 -50.083)" fill="#006df0"/>
      <path id="Trazado_1035973" data-name="Trazado 1035973" d="M404.641,143.741a2.594,2.594,0,0,1,1.614-2.4,2.593,2.593,0,1,0,0,4.8,2.593,2.593,0,0,1-1.614-2.4Zm0,0" transform="translate(-350.144 -122.732)" fill="#006df0"/>
      <path id="Trazado_1035974" data-name="Trazado 1035974" d="M466.7,101.968a2.6,2.6,0,0,1,1.614-2.4,2.593,2.593,0,1,0,0,4.8,2.593,2.593,0,0,1-1.614-2.4Zm0,0" transform="translate(-404.108 -86.409)" fill="#006df0"/>
      <path id="Trazado_1035975" data-name="Trazado 1035975" d="M349.035,97.344h1.3v17.438h-1.3Zm0,0" transform="translate(-303.495 -84.643)" fill="#898890"/>
      <path id="Trazado_1035976" data-name="Trazado 1035976" d="M349.035,7.5h1.3v6.537h-1.3Zm0,0" transform="translate(-303.495 -6.522)" fill="#898890"/>
      <path id="Trazado_1035977" data-name="Trazado 1035977" d="M411.125,7.5h1.3V24.938h-1.3Zm0,0" transform="translate(-357.483 -6.522)" fill="#898890"/>
      <path id="Trazado_1035978" data-name="Trazado 1035978" d="M412.471,187.427l0-6.537h-1.3l0,6.537h1.3Zm0,0" transform="translate(-357.517 -157.289)" fill="#898890"/>
      <path id="Trazado_1035979" data-name="Trazado 1035979" d="M473.2,139.117h1.3V151.1h-1.3Zm0,0" transform="translate(-411.462 -120.966)" fill="#898890"/>
      <path id="Trazado_1035980" data-name="Trazado 1035980" d="M473.2,7.5h1.3V19.487h-1.3Zm0,0" transform="translate(-411.462 -6.522)" fill="#898890"/>
      <path id="Trazado_1035981" data-name="Trazado 1035981" d="M282.113,272.488l-9.625,9.625,21.626,21.626,9.625-9.625Zm-3.749,12.732,3.253-3.252-1.384-1.384-3.253,3.253-1.724-1.724,6.857-6.857,18.858,18.858-6.857,6.857Zm0,0" transform="translate(-236.935 -236.935)"/>
      <path id="Trazado_1035982" data-name="Trazado 1035982" d="M1.957,305.449H6.545v21.658H8.5V303.492H0v23.616H1.957Zm0,0" transform="translate(0 -263.894)"/>
      <path id="Trazado_1035983" data-name="Trazado 1035983" d="M88.667,400.148V387.492h-8.5v12.656h1.957v-10.7H86.71v10.7Zm0,0" transform="translate(-69.705 -336.934)"/>
      <path id="Trazado_1035984" data-name="Trazado 1035984" d="M168.834,352.192V332.34h-8.5v19.852h1.957V334.3h4.588v17.894Zm0,0" transform="translate(-139.413 -288.978)"/>
      <path id="Trazado_1035985" data-name="Trazado 1035985" d="M249,412.779v-10.76h-8.5v10.76h1.957v-8.8h4.588v8.8Zm0,0" transform="translate(-209.117 -349.566)"/>
      <path id="Trazado_1035986" data-name="Trazado 1035986" d="M0,496.988H48.405v1.957H0Zm0,0" transform="translate(0 -432.143)"/>
      <path id="Trazado_1035987" data-name="Trazado 1035987" d="M336.692,57.24a3.571,3.571,0,1,0-3.571-3.571A3.575,3.575,0,0,0,336.692,57.24Zm0-5.185a1.614,1.614,0,1,1-1.614,1.614A1.616,1.616,0,0,1,336.692,52.055Zm0,0" transform="translate(-289.657 -43.561)"/>
      <path id="Trazado_1035988" data-name="Trazado 1035988" d="M398.755,140.791a3.571,3.571,0,1,0-3.571-3.571A3.575,3.575,0,0,0,398.755,140.791Zm0-5.185a1.614,1.614,0,1,1-1.614,1.614A1.616,1.616,0,0,1,398.755,135.606Zm0,0" transform="translate(-343.622 -116.211)"/>
      <path id="Trazado_1035989" data-name="Trazado 1035989" d="M460.817,99.017a3.571,3.571,0,1,0-3.571-3.571A3.575,3.575,0,0,0,460.817,99.017Zm0-5.185a1.614,1.614,0,1,1-1.614,1.614A1.616,1.616,0,0,1,460.817,93.832Zm0,0" transform="translate(-397.586 -79.887)"/>
      <path id="Trazado_1035990" data-name="Trazado 1035990" d="M341.535,112.34V128.8h4.947l-.007-16.46h-1.957l.006,14.5h-1.032v-14.5Zm0,0" transform="translate(-296.973 -97.682)"/>
      <path id="Trazado_1035991" data-name="Trazado 1035991" d="M343.492,1.957h1.022l0,3.6h1.957l0-5.557h-4.936V5.558h1.957Zm0,0" transform="translate(-296.973 0)"/>
      <path id="Trazado_1035992" data-name="Trazado 1035992" d="M405.561,16.459l-.006-14.5h1.032v14.5h1.957V0H403.6l.007,16.46Zm0,0" transform="translate(-350.938 0)"/>
      <path id="Trazado_1035993" data-name="Trazado 1035993" d="M405.623,199.492l0-3.6h-1.957l0,5.558H408.6V195.89h-1.957v3.6Zm0,0" transform="translate(-350.996 -170.332)"/>
      <path id="Trazado_1035994" data-name="Trazado 1035994" d="M467.655,163.165l0-9.052H465.7l0,11.009h4.936V154.114h-1.957v9.052Zm0,0" transform="translate(-404.934 -134.005)"/>
      <path id="Trazado_1035995" data-name="Trazado 1035995" d="M467.651,11.008l0-9.051h1.024v9.052h1.957V0h-4.939l0,11.009Zm0,0" transform="translate(-404.93 0)"/>
      <path id="Trazado_1035996" data-name="Trazado 1035996" d="M74.961,74.96a14.517,14.517,0,0,0,1.786-18.373L75.124,57.68a12.565,12.565,0,0,1-.881,15.177l-8.169-8.168,9.579-9.579-.692-.692a14.525,14.525,0,1,0-10.271,24.8h.979V67.051l8.6,8.6ZM63.711,77.219a12.568,12.568,0,1,1,9.147-22.083l-9.147,9.147Zm0,0" transform="translate(-43.619 -43.618)"/>
      <path id="Trazado_1035997" data-name="Trazado 1035997" d="M180.43,245.283a14.389,14.389,0,0,0,5.3-2.2l-1.093-1.623a12.439,12.439,0,0,1-4.587,1.9Zm0,0" transform="translate(-156.562 -209.956)"/>
      <path id="Trazado_1035998" data-name="Trazado 1035998" d="M21.071,42.141a20.957,20.957,0,0,0,11.194-3.218l3.618,3.618,1.384-1.384L33.9,37.789a21.193,21.193,0,0,0,2.3-2.049l-1.405-1.362a19.3,19.3,0,0,1-2.947,2.484h0a19.109,19.109,0,1,1,5.021-5.02l-.458.67,4.754,4.754,1.384-1.384-3.618-3.618a21.072,21.072,0,1,0-17.853,9.877Zm0,0" transform="translate(0 0)"/>
    </g>
  </g>
</svg>
