<svg xmlns="http://www.w3.org/2000/svg" xmlns:xlink="http://www.w3.org/1999/xlink" width="128" height="128" viewBox="0 0 128 128">
  <defs>
    <filter id="Trazado_982547" x="0" y="0" width="128" height="128" filterUnits="userSpaceOnUse">
      <feOffset dy="3" input="SourceAlpha"/>
      <feGaussianBlur stdDeviation="3" result="blur"/>
      <feFlood flood-opacity="0.161"/>
      <feComposite operator="in" in2="blur"/>
      <feComposite in="SourceGraphic"/>
    </filter>
  </defs>
  <g id="Grupo_1177313" data-name="Grupo 1177313" transform="translate(-1156 -919.317)">
    <g id="Grupo_1176901" data-name="Grupo 1176901" transform="translate(839.5 -2075.023)">
      <g id="Grupo_1176328" data-name="Grupo 1176328" transform="translate(127.467 1008.34)">
        <g id="Grupo_1172970" data-name="Grupo 1172970" transform="translate(198.033 1992)">
          <g id="Grupo_1171971" data-name="Grupo 1171971" transform="translate(0)">
            <g id="Grupo_1167337" data-name="Grupo 1167337">
              <g id="Grupo_1166720" data-name="Grupo 1166720">
                <g id="Grupo_1164305" data-name="Grupo 1164305">
                  <g id="Grupo_1163948" data-name="Grupo 1163948">
                    <g id="Grupo_1158168" data-name="Grupo 1158168">
                      <g id="Grupo_1152576" data-name="Grupo 1152576">
                        <g id="Grupo_1148633" data-name="Grupo 1148633">
                          <g id="Grupo_1148525" data-name="Grupo 1148525">
                            <g transform="matrix(1, 0, 0, 1, -9, -6)" filter="url(#Trazado_982547)">
                              <g id="Trazado_982547-2" data-name="Trazado 982547" transform="translate(9 6)" fill="#fbecfd">
                                <path d="M 54.99999618530273 108.5 C 47.77687454223633 108.5 40.77062606811523 107.0856704711914 34.17584228515625 104.2963180541992 C 27.80527305603027 101.6017990112305 22.0836124420166 97.74404144287109 17.16978073120117 92.83020782470703 C 12.25594997406006 87.9163818359375 8.398196220397949 82.19471740722656 5.703672885894775 75.82415008544922 C 2.914319276809692 69.22937774658203 1.499996185302734 62.22311782836914 1.499996185302734 54.99999618530273 C 1.499996185302734 47.77688980102539 2.914319276809692 40.77062606811523 5.703672885894775 34.17584228515625 C 8.398196220397949 27.80528831481934 12.25594997406006 22.08362770080566 17.16978073120117 17.16979598999023 C 22.0836124420166 12.25594997406006 27.80527305603027 8.398196220397949 34.17584228515625 5.703672885894775 C 40.77062606811523 2.914319276809692 47.77688980102539 1.499996185302734 54.99999618530273 1.499996185302734 C 62.22311782836914 1.499996185302734 69.22937774658203 2.914319276809692 75.82415008544922 5.703672885894775 C 82.19471740722656 8.398196220397949 87.9163818359375 12.25594997406006 92.83020782470703 17.16979598999023 C 97.74404144287109 22.08362770080566 101.6017990112305 27.80528831481934 104.2963180541992 34.17584228515625 C 107.0856704711914 40.77062606811523 108.5 47.77688980102539 108.5 54.99999618530273 C 108.5 62.22311782836914 107.0856704711914 69.22937774658203 104.2963180541992 75.82415008544922 C 101.6017990112305 82.19471740722656 97.74404144287109 87.9163818359375 92.83020782470703 92.83020782470703 C 87.9163818359375 97.74404144287109 82.19471740722656 101.6017990112305 75.82415008544922 104.2963180541992 C 69.22937774658203 107.0856704711914 62.22311782836914 108.5 54.99999618530273 108.5 Z" stroke="none"/>
                                <path d="M 54.99999618530273 2.999992370605469 C 47.97871398925781 2.999992370605469 41.16905975341797 4.374443054199219 34.76016235351562 7.085182189941406 C 28.56839752197266 9.704078674316406 23.00699615478516 13.45389556884766 18.23044586181641 18.23044586181641 C 13.45388031005859 23.00701141357422 9.704078674316406 28.56841278076172 7.085182189941406 34.76017761230469 C 4.374443054199219 41.16905975341797 2.999992370605469 47.97872924804688 2.999992370605469 54.99999618530273 C 2.999992370605469 62.02127838134766 4.374443054199219 68.8309326171875 7.085182189941406 75.23983001708984 C 9.704078674316406 81.43159484863281 13.45388031005859 86.99299621582031 18.23044586181641 91.76954650878906 C 23.00699615478516 96.54611206054688 28.56839752197266 100.2959136962891 34.76016235351562 102.9148101806641 C 41.16905975341797 105.6255493164062 47.97871398925781 107 54.99999618530273 107 C 62.02127838134766 107 68.8309326171875 105.6255493164062 75.23983001708984 102.9148101806641 C 81.43159484863281 100.2959136962891 86.99299621582031 96.54611206054688 91.76954650878906 91.76954650878906 C 96.54611206054688 86.99299621582031 100.2959136962891 81.43159484863281 102.9148101806641 75.23983001708984 C 105.6255493164062 68.8309326171875 107 62.02127838134766 107 54.99999618530273 C 107 47.97872924804688 105.6255493164062 41.16905975341797 102.9148101806641 34.76017761230469 C 100.2959136962891 28.56841278076172 96.54611206054688 23.00701141357422 91.76954650878906 18.23044586181641 C 86.99299621582031 13.45389556884766 81.43159484863281 9.704078674316406 75.23983001708984 7.085182189941406 C 68.8309326171875 4.374443054199219 62.02127838134766 2.999992370605469 54.99999618530273 2.999992370605469 M 54.99999618530273 -7.62939453125e-06 C 85.37566375732422 -7.62939453125e-06 110 24.62434387207031 110 54.99999618530273 C 110 85.37566375732422 85.37566375732422 110 54.99999618530273 110 C 24.62432861328125 110 -7.62939453125e-06 85.37566375732422 -7.62939453125e-06 54.99999618530273 C -7.62939453125e-06 24.62434387207031 24.62432861328125 -7.62939453125e-06 54.99999618530273 -7.62939453125e-06 Z" stroke="none" fill="#772d84"/>
                              </g>
                            </g>
                          </g>
                        </g>
                      </g>
                    </g>
                  </g>
                </g>
              </g>
            </g>
          </g>
        </g>
      </g>
    </g>
    <g id="project_2172586" transform="translate(1184.971 943.971)">
      <path id="Trazado_1035999" data-name="Trazado 1035999" d="M41.671,43.614v7l-2.859.677a17.1,17.1,0,0,1-2.019,4.877l1.54,2.5-4.947,4.947-2.5-1.54a17.1,17.1,0,0,1-4.877,2.019l-.677,2.859h-7l-.677-2.859a17.1,17.1,0,0,1-4.877-2.019l-2.5,1.54L5.337,58.666l1.54-2.5a17.1,17.1,0,0,1-2.019-4.877L2,50.615v-7l2.859-.677a17.1,17.1,0,0,1,2.019-4.877l-1.54-2.5L8.569,32.32l4.317,5.612a12.835,12.835,0,1,0,17.9,0L35.1,32.32l3.232,3.244-1.54,2.5a17.1,17.1,0,0,1,2.019,4.877Z" transform="translate(0.167 5.224)" fill="#ffc729"/>
      <path id="Trazado_1036000" data-name="Trazado 1036000" d="M28.335,42v1.167a8.167,8.167,0,1,1-16.335,0V42Z" transform="translate(1.835 6.838)" fill="#aab2bd"/>
      <path id="Trazado_1036001" data-name="Trazado 1036001" d="M28.335,38v4.667H12V38H28.335Z" transform="translate(1.835 6.171)" fill="#ccd1d9"/>
      <path id="Trazado_1036002" data-name="Trazado 1036002" d="M35.883,7.834A19.835,19.835,0,0,0,2,21.835v.257A19.788,19.788,0,0,0,6.119,34.18l2.45,3.2,4.317,5.612L13.668,44H30l.782-1.015L35.1,37.377l2.45-3.2a19,19,0,0,0,1.914-3.01,19.714,19.714,0,0,0,2.205-9.078v-.257A19.744,19.744,0,0,0,35.883,7.834Z" transform="translate(0.167 0.167)" fill="#ffeaa7"/>
      <path id="Trazado_1036003" data-name="Trazado 1036003" d="M27.974,14.027A3.5,3.5,0,0,1,25.5,20H22V16.5a3.5,3.5,0,0,1,5.974-2.474Z" transform="translate(3.502 2.001)" fill="#fcd770"/>
      <path id="Trazado_1036004" data-name="Trazado 1036004" d="M17,16.5V20H13.5A3.5,3.5,0,1,1,17,16.5Z" transform="translate(1.501 2.001)" fill="#fcd770"/>
      <path id="Trazado_1036005" data-name="Trazado 1036005" d="M65.336,33.334v9.334A2.34,2.34,0,0,1,63,45H44.334A2.34,2.34,0,0,1,42,42.668V33.334A2.34,2.34,0,0,1,44.334,31H63A2.34,2.34,0,0,1,65.336,33.334Z" transform="translate(6.838 5.004)" fill="#b4dd7f"/>
      <path id="Trazado_1036006" data-name="Trazado 1036006" d="M65.336,13.334v9.334A2.34,2.34,0,0,1,63,25H44.334A2.34,2.34,0,0,1,42,22.668V13.334A2.34,2.34,0,0,1,44.334,11H63A2.34,2.34,0,0,1,65.336,13.334Z" transform="translate(6.838 1.668)" fill="#b4dd7f"/>
      <path id="Trazado_1036007" data-name="Trazado 1036007" d="M0,0H2.944V2.332H0Z" transform="translate(29.661 35.299) rotate(-52.431)"/>
      <path id="Trazado_1036008" data-name="Trazado 1036008" d="M30.48,29.033a16.437,16.437,0,0,0,3.252-9.779V19H31.4v.254a14.09,14.09,0,0,1-2.786,8.382Z" transform="translate(4.605 3.002)"/>
      <path id="Trazado_1036009" data-name="Trazado 1036009" d="M17.2,7.5a14.2,14.2,0,0,1,2.156-.166V5a16.578,16.578,0,0,0-2.511.193Z" transform="translate(2.643 0.667)"/>
      <path id="Trazado_1036010" data-name="Trazado 1036010" d="M5,21.222H7.334A13.971,13.971,0,0,1,17.027,7.9l-.719-2.219A16.3,16.3,0,0,0,5,21.222Z" transform="translate(0.667 0.78)"/>
      <path id="Trazado_1036011" data-name="Trazado 1036011" d="M51.172,11.5a3.5,3.5,0,0,0-3.5,3.5v9.334a3.5,3.5,0,0,0,3.5,3.5H69.84a3.5,3.5,0,0,0,3.5-3.5V15a3.5,3.5,0,0,0-3.5-3.5H61.673V10.334a3.5,3.5,0,0,0-3.5-3.5H36.489A20.974,20.974,0,0,0,1,22v.254A21.113,21.113,0,0,0,5.356,35.062l1.835,2.387L4.022,40.617,5.685,43.3a18.594,18.594,0,0,0-1.611,3.888L1,47.914v8.849l3.074.723a18.531,18.531,0,0,0,1.611,3.888L4.023,64.061l6.257,6.257,2.686-1.664a18.546,18.546,0,0,0,3.888,1.611l.723,3.074h8.849l.723-3.074a18.546,18.546,0,0,0,3.888-1.611l2.686,1.664,6.257-6.257-1.663-2.687a18.5,18.5,0,0,0,1.611-3.888L43,56.763V47.914l-3.074-.723A18.531,18.531,0,0,0,38.318,43.3l1.663-2.687-3.169-3.168,1.835-2.387A20.857,20.857,0,0,0,40.316,32.5H58.172a1.168,1.168,0,0,1,1.167,1.167v1.167H51.172a3.5,3.5,0,0,0-3.5,3.5v9.334a3.5,3.5,0,0,0,3.5,3.5H69.84a3.5,3.5,0,0,0,3.5-3.5V38.337a3.5,3.5,0,0,0-3.5-3.5H61.673V33.67a3.5,3.5,0,0,0-3.5-3.5H41.435A21.063,21.063,0,0,0,43,22.257V22A20.876,20.876,0,0,0,38.589,9.168H58.172a1.168,1.168,0,0,1,1.167,1.167V11.5ZM71.007,38.337v9.334a1.168,1.168,0,0,1-1.167,1.167H51.172A1.168,1.168,0,0,1,50,47.671V38.337a1.168,1.168,0,0,1,1.167-1.167H69.84A1.168,1.168,0,0,1,71.007,38.337ZM37.024,40.96l-1.434,2.317.371.61a16.219,16.219,0,0,1,1.889,4.555l.17.694,2.65.625v5.153l-2.651.624-.17.694a16.179,16.179,0,0,1-1.889,4.555l-.371.61,1.434,2.317L33.379,67.36l-2.317-1.434-.611.371A16.2,16.2,0,0,1,25.9,68.184l-.694.17-.623,2.653H19.426L18.8,68.355l-.694-.17A16.216,16.216,0,0,1,13.552,66.3l-.611-.371-2.317,1.434L6.98,63.717,8.414,61.4l-.371-.61a16.219,16.219,0,0,1-1.889-4.555l-.17-.694-2.65-.625V49.762l2.651-.624.17-.694a16.185,16.185,0,0,1,1.889-4.555l.371-.61L6.981,40.961l1.646-1.646,2.9,3.768A13.844,13.844,0,0,0,8,52.339a14,14,0,1,0,28,0,13.854,13.854,0,0,0-3.524-9.257l2.9-3.768ZM29,45.338v2.334H15V45.338Zm-11.668-24.5H15A2.334,2.334,0,1,1,17.335,18.5Zm7,22.169H19.669V23.169h4.667ZM22,59.339A9.345,9.345,0,0,0,31.336,50V45.367a11.535,11.535,0,0,1,2.334,6.972,11.668,11.668,0,1,1-23.336,0,11.535,11.535,0,0,1,2.334-6.972V50A9.345,9.345,0,0,0,22,59.339ZM15,50H29a7,7,0,1,1-14,0ZM40.671,22.256A18.763,18.763,0,0,1,36.8,33.64L29.6,43H26.669V23.169H29A4.667,4.667,0,1,0,24.336,18.5v2.334H19.669V18.5A4.667,4.667,0,1,0,15,23.169h2.334V43H14.409L7.2,33.64A18.765,18.765,0,0,1,3.334,22.256V22a18.669,18.669,0,1,1,37.337,0Zm-14-1.421V18.5A2.334,2.334,0,1,1,29,20.835ZM71.007,15v9.334A1.168,1.168,0,0,1,69.84,25.5H51.172A1.168,1.168,0,0,1,50,24.336V15a1.168,1.168,0,0,1,1.167-1.167H69.84A1.168,1.168,0,0,1,71.007,15Z" transform="translate(0 0)"/>
      <path id="Trazado_1036012" data-name="Trazado 1036012" d="M45,14H61.335v2.334H45Z" transform="translate(7.339 2.168)"/>
      <path id="Trazado_1036013" data-name="Trazado 1036013" d="M57,18h2.334v2.334H57Z" transform="translate(9.34 2.835)"/>
      <path id="Trazado_1036014" data-name="Trazado 1036014" d="M45,18H56.668v2.334H45Z" transform="translate(7.339 2.835)"/>
      <path id="Trazado_1036015" data-name="Trazado 1036015" d="M45,34H61.335v2.334H45Z" transform="translate(7.339 5.504)"/>
      <path id="Trazado_1036016" data-name="Trazado 1036016" d="M57,38h2.334v2.334H57Z" transform="translate(9.34 6.171)"/>
      <path id="Trazado_1036017" data-name="Trazado 1036017" d="M45,38H56.668v2.334H45Z" transform="translate(7.339 6.171)"/>
    </g>
  </g>
</svg>
