<svg xmlns="http://www.w3.org/2000/svg" xmlns:xlink="http://www.w3.org/1999/xlink" width="113" height="113" viewBox="0 0 113 113">
  <defs>
    <filter id="Trazado_982547" x="0" y="0" width="113" height="113" filterUnits="userSpaceOnUse">
      <feOffset dy="3" input="SourceAlpha"/>
      <feGaussianBlur stdDeviation="3" result="blur"/>
      <feFlood flood-opacity="0.161"/>
      <feComposite operator="in" in2="blur"/>
      <feComposite in="SourceGraphic"/>
    </filter>
  </defs>
  <g id="Grupo_1177365" data-name="Grupo 1177365" transform="translate(-1313.436 -3488.308)">
    <g id="Grupo_1177185" data-name="Grupo 1177185" transform="translate(519.947 1998.873)">
      <g id="Grupo_1176922" data-name="Grupo 1176922" transform="translate(802.49 1495.435)">
        <g id="Grupo_1172322" data-name="Grupo 1172322" transform="translate(0 0)">
          <g id="Grupo_1164700" data-name="Grupo 1164700">
            <g id="Grupo_1160931" data-name="Grupo 1160931">
              <g id="Grupo_1160749" data-name="Grupo 1160749">
                <g id="Grupo_1158891" data-name="Grupo 1158891">
                  <g id="Grupo_1157406" data-name="Grupo 1157406">
                    <g id="Grupo_1155793" data-name="Grupo 1155793">
                      <g id="Grupo_1154704" data-name="Grupo 1154704">
                        <g id="Grupo_1150790" data-name="Grupo 1150790">
                          <g id="Grupo_1154214" data-name="Grupo 1154214">
                            <g id="Grupo_1152583" data-name="Grupo 1152583">
                              <g id="Grupo_1146973" data-name="Grupo 1146973">
                                <g id="Grupo_1146954" data-name="Grupo 1146954">
                                  <g transform="matrix(1, 0, 0, 1, -9, -6)" filter="url(#Trazado_982547)">
                                    <g id="Trazado_982547-2" data-name="Trazado 982547" transform="translate(9 6)" fill="#fbecfd">
                                      <path d="M 47.5000114440918 93.49987030029297 C 41.28938293457031 93.49987030029297 35.26534652709961 92.28384399414062 29.5951976776123 89.88558959960938 C 24.11773109436035 87.56881713867188 19.19814491271973 84.25183868408203 14.97310447692871 80.02680206298828 C 10.74805164337158 75.80176544189453 7.43107795715332 70.88218688964844 5.114304542541504 65.40472412109375 C 2.716038227081299 59.73458862304688 1.500011444091797 53.71054840087891 1.500011444091797 47.49993515014648 C 1.500011444091797 41.28932189941406 2.716038227081299 35.26528167724609 5.114304542541504 29.59514808654785 C 7.43107795715332 24.1176815032959 10.74805164337158 19.1981086730957 14.97310447692871 14.97306823730469 C 19.19814491271973 10.74802875518799 24.11773109436035 7.431055068969727 29.5951976776123 5.11428165435791 C 35.26534652709961 2.716028451919556 41.28938293457031 1.500001788139343 47.5000114440918 1.500001788139343 C 53.71063995361328 1.500001788139343 59.73467636108398 2.716028451919556 65.40482330322266 5.11428165435791 C 70.88229370117188 7.431055068969727 75.8018798828125 10.74802875518799 80.02691650390625 14.97306823730469 C 84.25196838378906 19.1981086730957 87.56894683837891 24.1176815032959 89.88571929931641 29.59514808654785 C 92.28398132324219 35.26528167724609 93.50001525878906 41.28932189941406 93.50001525878906 47.49993515014648 C 93.50001525878906 53.71054840087891 92.28398132324219 59.73458862304688 89.88571929931641 65.40472412109375 C 87.56894683837891 70.88218688964844 84.25196838378906 75.80176544189453 80.02691650390625 80.02680206298828 C 75.8018798828125 84.25183868408203 70.88229370117188 87.56881713867188 65.40482330322266 89.88558959960938 C 59.73467636108398 92.28384399414062 53.71063995361328 93.49987030029297 47.5000114440918 93.49987030029297 Z" stroke="none"/>
                                      <path d="M 47.5000114440918 3 C 41.49122619628906 3 35.66378021240234 4.1761474609375 30.17951965332031 6.495796203613281 C 24.880859375 8.7369384765625 20.12153625488281 11.94596862792969 16.03376770019531 16.03373718261719 C 11.94598388671875 20.12149047851562 8.736968994140625 24.88081359863281 6.495811462402344 30.17947387695312 C 4.176162719726562 35.66371917724609 3.000007629394531 41.49116516113281 3.000007629394531 47.49993515014648 C 3.000007629394531 53.50870513916016 4.176162719726562 59.33615112304688 6.495811462402344 64.82039642333984 C 8.736968994140625 70.11905670166016 11.94598388671875 74.87837982177734 16.03376770019531 78.96613311767578 C 20.12153625488281 83.05390167236328 24.880859375 86.26293182373047 30.17951965332031 88.50407409667969 C 35.66378021240234 90.82372283935547 41.49122619628906 91.99987030029297 47.5000114440918 91.99987030029297 C 53.50879669189453 91.99987030029297 59.33624267578125 90.82372283935547 64.82050323486328 88.50407409667969 C 70.11916351318359 86.26293182373047 74.87848663330078 83.05390167236328 78.96625518798828 78.96613311767578 C 83.05403900146484 74.87837982177734 86.2630615234375 70.11905670166016 88.50421142578125 64.82039642333984 C 90.82386016845703 59.33615112304688 92.00001525878906 53.50870513916016 92.00001525878906 47.49993515014648 C 92.00001525878906 41.49116516113281 90.82386016845703 35.66371917724609 88.50421142578125 30.17947387695312 C 86.2630615234375 24.88081359863281 83.05403900146484 20.12149047851562 78.96625518798828 16.03373718261719 C 74.87848663330078 11.94596862792969 70.11916351318359 8.7369384765625 64.82050323486328 6.495796203613281 C 59.33624267578125 4.1761474609375 53.50879669189453 3 47.5000114440918 3 M 47.5000114440918 0 C 73.73353576660156 0 95.00001525878906 21.26644134521484 95.00001525878906 47.49993515014648 C 95.00001525878906 73.73342895507812 73.73353576660156 94.99987030029297 47.5000114440918 94.99987030029297 C 21.26648712158203 94.99987030029297 7.62939453125e-06 73.73342895507812 7.62939453125e-06 47.49993515014648 C 7.62939453125e-06 21.26644134521484 21.26648712158203 0 47.5000114440918 0 Z" stroke="none" fill="#da53f2"/>
                                    </g>
                                  </g>
                                </g>
                              </g>
                            </g>
                          </g>
                        </g>
                      </g>
                    </g>
                  </g>
                </g>
              </g>
            </g>
          </g>
        </g>
      </g>
    </g>
    <g id="information-management_2849121" transform="translate(1339.043 3514.423)">
      <g id="Grupo_1177363" data-name="Grupo 1177363" transform="translate(1.904 1.904)">
        <g id="Grupo_1177345" data-name="Grupo 1177345" transform="translate(12.651)">
          <path id="Trazado_1036166" data-name="Trazado 1036166" d="M34.381,21.881a5.411,5.411,0,0,0,1.283,2.024l1.093.84-.009.009-.479,2.169a2.628,2.628,0,0,1-.868,1.446,2.718,2.718,0,0,1-1.247.624l-.1.018-1.4.28a7.228,7.228,0,0,0-5.811,7.085v2.675h-.316a19.263,19.263,0,0,0,.316-3.461V29.11A1.813,1.813,0,0,0,25.037,27.3a1.821,1.821,0,0,0-1.807,1.807V27.3A1.813,1.813,0,0,0,21.422,25.5,1.821,1.821,0,0,0,19.615,27.3V25.5a1.813,1.813,0,0,0-1.807-1.807A1.821,1.821,0,0,0,16,25.5V22.206a1.993,1.993,0,0,1,1.283-1.834c.009-.009.018-.009.036-.018a2.018,2.018,0,0,1,2.223.389l1.039,1.048,2.557-2.557-1.048-1.039a2.018,2.018,0,0,1-.389-2.223c.009-.018.009-.027.018-.036a1.993,1.993,0,0,1,1.834-1.283h1.482V11.037H23.555A1.993,1.993,0,0,1,21.72,9.754c-.009-.009-.009-.018-.018-.036a2.018,2.018,0,0,1,.389-2.223l1.048-1.039L20.582,3.9,19.542,4.946a2.018,2.018,0,0,1-2.223.389c-.018-.009-.027-.009-.036-.018A1.993,1.993,0,0,1,16,3.482V2H56.665a.906.906,0,0,1,.9.9V38.147a.906.906,0,0,1-.9.9H52.147V36.376a7.228,7.228,0,0,0-5.811-7.085l-1.4-.28-.1-.018a2.717,2.717,0,0,1-1.247-.624,2.628,2.628,0,0,1-.868-1.446l-.479-2.169-.009-.009a5.43,5.43,0,0,0,2.377-2.865h1.211A2.71,2.71,0,0,0,47.683,17.2l.452-1.356a7.775,7.775,0,0,0-7.374-10.23H38.23a7.775,7.775,0,0,0-7.374,10.23l.452,1.356a2.712,2.712,0,0,0,1.862,4.681Z" transform="translate(-16 -2)" fill="#e6e9ed"/>
        </g>
        <g id="Grupo_1177346" data-name="Grupo 1177346" transform="translate(0 0)">
          <path id="Trazado_1036167" data-name="Trazado 1036167" d="M20.354,9.717c.009.018.009.027.018.036a1.993,1.993,0,0,0,1.834,1.283h1.482v3.615H22.206a1.993,1.993,0,0,0-1.834,1.283c-.009.009-.009.018-.018.036a2.018,2.018,0,0,0,.389,2.223l1.048,1.039-2.557,2.557-1.039-1.048a2.018,2.018,0,0,0-2.223-.389c-.018.009-.027.009-.036.018a1.993,1.993,0,0,0-1.283,1.834v-3.94a1.664,1.664,0,0,0-.027-.3,5.422,5.422,0,1,0-3.56,0,1.664,1.664,0,0,0-.027.3v3.94a1.993,1.993,0,0,0-1.283-1.834l-.036-.018a2.09,2.09,0,0,0-2.286.461l-.976.976L3.9,19.233l.976-.976a2.09,2.09,0,0,0,.461-2.286l-.045-.117a1.973,1.973,0,0,0-1.807-1.2H2V11.037H3.4A2.066,2.066,0,0,0,5.316,9.754l.018-.036a2.09,2.09,0,0,0-.461-2.286L3.9,6.455,6.455,3.9l.976.976a2.09,2.09,0,0,0,2.286.461l.117-.045a1.973,1.973,0,0,0,1.2-1.807V2h3.615V3.482a1.993,1.993,0,0,0,1.283,1.834c.009.009.018.009.036.018a2.018,2.018,0,0,0,2.223-.389L19.233,3.9l2.557,2.557L20.742,7.494a2.018,2.018,0,0,0-.389,2.223Z" transform="translate(-2 -2)" fill="#fcd770"/>
        </g>
        <g id="Grupo_1177347" data-name="Grupo 1177347" transform="translate(27.11 3.615)">
          <path id="Trazado_1036168" data-name="Trazado 1036168" d="M39.428,12.606l-2.106.849a2.7,2.7,0,0,0-1.708,2.512v.877h-.9a2.718,2.718,0,0,0-1.862.741L32.4,16.23A7.775,7.775,0,0,1,39.772,6H42.3a7.775,7.775,0,0,1,7.374,10.23l-.452,1.356a2.718,2.718,0,0,0-1.862-.741h-.9a1.813,1.813,0,0,0-1.807-1.807H42.844A3.609,3.609,0,0,1,39.428,12.606Z" transform="translate(-32 -6)" fill="#656d78"/>
        </g>
        <g id="Grupo_1177348" data-name="Grupo 1177348" transform="translate(23.496 27.011)">
          <path id="Trazado_1036169" data-name="Trazado 1036169" d="M36.061,36.562l.976,5.368H28V39.255a7.228,7.228,0,0,1,5.811-7.085l1.4-.28Z" transform="translate(-28 -31.89)" fill="#4fc1e9"/>
        </g>
        <g id="Grupo_1177349" data-name="Grupo 1177349" transform="translate(39.762 27.011)">
          <path id="Trazado_1036170" data-name="Trazado 1036170" d="M55.037,39.255V41.93H46l.976-5.368.849-4.672,1.4.28A7.228,7.228,0,0,1,55.037,39.255Z" transform="translate(-46 -31.89)" fill="#4fc1e9"/>
        </g>
        <g id="Grupo_1177350" data-name="Grupo 1177350" transform="translate(33.436 31.629)">
          <path id="Trazado_1036171" data-name="Trazado 1036171" d="M42.615,37l1.807,5.422H39L40.807,37Z" transform="translate(-39 -37)" fill="#fcd770"/>
        </g>
        <g id="Grupo_1177351" data-name="Grupo 1177351" transform="translate(33.635 28.014)">
          <path id="Trazado_1036172" data-name="Trazado 1036172" d="M41.732,33l2.512,2.006-1.609,1.609H40.829L39.22,35.006Z" transform="translate(-39.22 -33)" fill="#ffc729"/>
        </g>
        <g id="Grupo_1177352" data-name="Grupo 1177352" transform="translate(31.556 30.02)">
          <path id="Trazado_1036173" data-name="Trazado 1036173" d="M40.607,36.829,38.8,42.251h-.9l-.976-5.368L39,35.22Z" transform="translate(-36.92 -35.22)" fill="#ff826e"/>
        </g>
        <g id="Grupo_1177353" data-name="Grupo 1177353" transform="translate(37.051 30.02)">
          <path id="Trazado_1036174" data-name="Trazado 1036174" d="M46.687,36.883l-.976,5.368h-.9L43,36.829l1.609-1.609Z" transform="translate(-43 -35.22)" fill="#ff826e"/>
        </g>
        <g id="Grupo_1177354" data-name="Grupo 1177354" transform="translate(36.147 26.369)">
          <path id="Trazado_1036175" data-name="Trazado 1036175" d="M47.44,31.822l-.849,4.672-2.078-1.663L42,32.825l4.094-1.636V31.18a2.717,2.717,0,0,0,1.247.624Z" transform="translate(-42 -31.18)" fill="#fc6e51"/>
        </g>
        <g id="Grupo_1177355" data-name="Grupo 1177355" transform="translate(30.707 26.369)">
          <path id="Trazado_1036176" data-name="Trazado 1036176" d="M36.829,36.494l-.849-4.672.1-.018a2.718,2.718,0,0,0,1.247-.624v.009l4.094,1.636-2.512,2.006Z" transform="translate(-35.98 -31.18)" fill="#fc6e51"/>
        </g>
        <g id="Grupo_1177356" data-name="Grupo 1177356" transform="translate(20.785 41.569)">
          <path id="Trazado_1036177" data-name="Trazado 1036177" d="M58.436,54.326,48.5,60.651V57.94H25V50.711H48.5V48Z" transform="translate(-25 -48)" fill="#ccd1d9"/>
        </g>
        <g id="Grupo_1177357" data-name="Grupo 1177357" transform="translate(5.422 41.569)">
          <path id="Trazado_1036178" data-name="Trazado 1036178" d="M23.362,50.711v9.94H8V49.807A17.056,17.056,0,0,1,15.654,48h.054a17.056,17.056,0,0,1,7.654,1.807Z" transform="translate(-8 -48)" fill="#b4dd7f"/>
        </g>
        <g id="Grupo_1177358" data-name="Grupo 1177358" transform="translate(1.807 14.459)">
          <path id="Trazado_1036179" data-name="Trazado 1036179" d="M22.074,30.651a1.821,1.821,0,0,1,1.807-1.807,1.813,1.813,0,0,1,1.807,1.807v6.479a19.263,19.263,0,0,1-.316,3.461c-.1.542-.226,1.084-.371,1.618a19.35,19.35,0,0,1-2.024,4.708,17.056,17.056,0,0,0-7.654-1.807h-.054a17.056,17.056,0,0,0-7.654,1.807A16.5,16.5,0,0,1,4,36.616V27.94a.906.906,0,0,1,.9-.9,2.707,2.707,0,0,1,2.711,2.711V35.17a1.821,1.821,0,0,0,1.807,1.807,1.813,1.813,0,0,0,1.807-1.807V19.807a1.664,1.664,0,0,1,.027-.3,1.79,1.79,0,0,1,.506-.976A1.767,1.767,0,0,1,13.037,18a1.806,1.806,0,0,1,1.78,1.509,1.664,1.664,0,0,1,.027.3v7.229a1.821,1.821,0,0,1,1.807-1.807,1.813,1.813,0,0,1,1.807,1.807v1.807a1.821,1.821,0,0,1,1.807-1.807,1.813,1.813,0,0,1,1.807,1.807Z" transform="translate(-4 -18)" fill="#f0d0b4"/>
        </g>
        <g id="Grupo_1177359" data-name="Grupo 1177359" transform="translate(41.262 14.459)">
          <path id="Trazado_1036180" data-name="Trazado 1036180" d="M50.787,22.627a2.7,2.7,0,0,1-1.916.8H47.66a5.461,5.461,0,0,0,.307-1.807V18h.9a2.709,2.709,0,0,1,1.916,4.627Z" transform="translate(-47.66 -18)" fill="#f0d0b4"/>
        </g>
        <g id="Grupo_1177360" data-name="Grupo 1177360" transform="translate(32.053 22.746)">
          <path id="Trazado_1036181" data-name="Trazado 1036181" d="M44.79,29.348a2.628,2.628,0,0,0,.868,1.446V30.8l-4.094,1.636L37.47,30.8v-.009a2.628,2.628,0,0,0,.868-1.446l.479-2.169.009-.009a5.373,5.373,0,0,0,5.476,0l.009.009Z" transform="translate(-37.47 -27.17)" fill="#f0d0b4"/>
        </g>
        <g id="Grupo_1177361" data-name="Grupo 1177361" transform="translate(30.725 10.221)">
          <path id="Trazado_1036182" data-name="Trazado 1036182" d="M39.814,13.31a3.609,3.609,0,0,0,3.416,2.431h1.807a1.813,1.813,0,0,1,1.807,1.807v3.615a5.383,5.383,0,0,1-2.684,4.672,5.373,5.373,0,0,1-5.476,0l-1.093-.84A5.37,5.37,0,0,1,36,21.163V16.672a2.7,2.7,0,0,1,1.708-2.512Z" transform="translate(-36 -13.31)" fill="#f0d0b4"/>
        </g>
        <g id="Grupo_1177362" data-name="Grupo 1177362" transform="translate(27.11 14.459)">
          <path id="Trazado_1036183" data-name="Trazado 1036183" d="M35.615,21.615a5.461,5.461,0,0,0,.307,1.807H34.711a2.711,2.711,0,0,1,0-5.422h.9Z" transform="translate(-32 -18)" fill="#f0d0b4"/>
        </g>
      </g>
      <g id="Grupo_1177364" data-name="Grupo 1177364" transform="translate(1 1)">
        <path id="Trazado_1036184" data-name="Trazado 1036184" d="M57.808,49.8,45.28,41.826V45.28H23.725a19.9,19.9,0,0,0,2.083-5.422H55.221a1.809,1.809,0,0,0,1.807-1.807V2.807A1.809,1.809,0,0,0,55.221,1H10.037V3.385a1.05,1.05,0,0,1-.649.972l-.11.046a1.185,1.185,0,0,1-1.3-.259L6.361,2.522,2.522,6.361,4.144,7.975a1.2,1.2,0,0,1,.245,1.337,1.176,1.176,0,0,1-1.088.725H1v5.422H3.385a1.05,1.05,0,0,1,.972.649l.046.11a1.186,1.186,0,0,1-.259,1.3L2.522,19.135l3.839,3.839,1.615-1.622a1.2,1.2,0,0,1,1.338-.244,1.1,1.1,0,0,1,.723,1V33.532a.9.9,0,0,1-1.807,0V28.11A3.618,3.618,0,0,0,4.615,24.5,1.809,1.809,0,0,0,2.807,26.3v8.673A17.466,17.466,0,0,0,6.422,45.593V57.028h17.17V54.317H45.28v3.454ZM31.725,17.266v2.711a6.349,6.349,0,0,0,.072.9h-.072a1.807,1.807,0,0,1,0-3.615Zm0-1.807h0a3.6,3.6,0,0,0-1.366.272l-.089-.265a6.872,6.872,0,0,1,6.519-9.044h2.523a6.872,6.872,0,0,1,6.519,9.044l-.089.265a3.6,3.6,0,0,0-1.366-.272H44.21a2.707,2.707,0,0,0-2.545-1.807H39.858a2.714,2.714,0,0,1-2.711-2.711V8.229H35.34V10.94a4.591,4.591,0,0,0,.044.635L34,12.131A3.6,3.6,0,0,0,31.727,15.459Zm12.65,4.518V17.266a1.807,1.807,0,1,1,0,3.615H44.3A6.349,6.349,0,0,0,44.376,19.977Zm-10.844-4.49a1.8,1.8,0,0,1,1.136-1.678l1.325-.53a4.52,4.52,0,0,0,3.865,2.18h1.807a.905.905,0,0,1,.9.9v3.615a4.518,4.518,0,1,1-9.037,0Zm2.415,10.449a6.215,6.215,0,0,0,4.208,0l.244,1.09a3.59,3.59,0,0,0,.316.853l-2.664,1.065-2.664-1.065a3.589,3.589,0,0,0,.316-.853ZM49.8,38.051h-7.05l1.468-8.072.5.1a6.343,6.343,0,0,1,5.085,6.2Zm-9.171-4.914,1.027.821-.567,3.119-1.1-3.3Zm-2.048-.508H37.521L36.893,32l1.158-.926L39.208,32Zm-3.107.508.64.64-1.1,3.3-.567-3.119Zm2.325,1.3h.5l1.2,3.615H36.593Zm4.224-2.5-2.2-1.757,2.2-.88a3.591,3.591,0,0,0,.433.229ZM34.073,29.3l2.2.88-2.2,1.757-.437-2.408A3.58,3.58,0,0,0,34.073,29.3Zm-2.187.679,1.468,8.072H26.3V36.281a6.342,6.342,0,0,1,5.085-6.2Zm23.335,8.072H51.606V36.281a8.155,8.155,0,0,0-6.538-7.975l-1.5-.3a1.809,1.809,0,0,1-1.409-1.377l-.353-1.576a6.357,6.357,0,0,0,1.948-2.366h.62a3.618,3.618,0,0,0,3.615-3.615,3.575,3.575,0,0,0-.736-2.162l.291-.873A8.678,8.678,0,0,0,39.312,4.615H36.789a8.679,8.679,0,0,0-8.233,11.423l.291.873a3.575,3.575,0,0,0-.736,2.162,3.618,3.618,0,0,0,3.615,3.615h.619a6.365,6.365,0,0,0,1.948,2.366l-.353,1.576a1.809,1.809,0,0,1-1.41,1.377l-1.5.3A8.117,8.117,0,0,0,26.3,31.185V29.014a2.7,2.7,0,0,0-3.72-2.512,2.687,2.687,0,0,0-3.614-1.807,2.666,2.666,0,0,0-3.51-1.84v-.744a1.22,1.22,0,0,1,2-.824l1.68,1.687,3.839-3.839-1.687-1.679a1.139,1.139,0,0,1-.179-1.274,1.1,1.1,0,0,1,1-.723H24.5V10.037H22.111a1.12,1.12,0,0,1-1.019-.761,1.117,1.117,0,0,1,.2-1.235l1.687-1.68L19.421,2.807h35.8ZM10.5,16.657a4.518,4.518,0,1,1,4.5,0,2.708,2.708,0,0,0-4.5,0Zm4.959-13.85h3.392l-1.4,1.4a1.141,1.141,0,0,1-1.274.179,1.1,1.1,0,0,1-.723-1ZM9.974,19.424a2.987,2.987,0,0,0-3.279.652l-.337.339L5.081,19.138,5.42,18.8a2.988,2.988,0,0,0,.652-3.279l-.047-.11a2.852,2.852,0,0,0-2.64-1.759H2.807V11.844H3.3A3.02,3.02,0,0,0,5.42,6.695l-.339-.337L6.358,5.081l.337.339a2.989,2.989,0,0,0,3.279.652l.11-.046a2.854,2.854,0,0,0,1.759-2.641V2.807h1.807v.577A2.926,2.926,0,0,0,15.52,6.071a2.917,2.917,0,0,0,3.217-.586l.4-.4,1.277,1.277-.4.4a2.929,2.929,0,0,0-.573,3.246,2.909,2.909,0,0,0,2.671,1.838h.577v1.807h-.577a3.024,3.024,0,0,0-2.1,5.086l.4.4-1.277,1.277-.4-.4a2.934,2.934,0,0,0-3.246-.574l-.032.015V18.446a6.326,6.326,0,1,0-5.422,0v1.011c-.021-.011-.041-.024-.062-.033ZM4.615,34.976V26.3A1.809,1.809,0,0,1,6.422,28.11v5.422a2.711,2.711,0,0,0,5.422,0V18.17a.9.9,0,0,1,1.807,0V34.436h1.807V25.4a.9.9,0,0,1,1.807,0v9.037h1.807V27.207a.9.9,0,0,1,1.807,0v7.229h1.807V29.014a.9.9,0,0,1,1.807,0v6.478a18.117,18.117,0,0,1-2.191,8.616,18.508,18.508,0,0,0-14.688.042A15.649,15.649,0,0,1,4.615,34.976ZM8.229,55.221V45.858a16.638,16.638,0,0,1,13.555,0v9.363ZM23.592,52.51V47.087h23.5V45.119L54.441,49.8l-7.353,4.679V52.51Z" transform="translate(-1 -1)"/>
        <path id="Trazado_1036185" data-name="Trazado 1036185" d="M32,54h1.807v1.807H32Z" transform="translate(-3.986 -6.105)"/>
        <path id="Trazado_1036186" data-name="Trazado 1036186" d="M38,54h1.807v1.807H38Z" transform="translate(-4.564 -6.105)"/>
        <path id="Trazado_1036187" data-name="Trazado 1036187" d="M44,54h1.807v1.807H44Z" transform="translate(-5.142 -6.105)"/>
      </g>
    </g>
  </g>
</svg>
