<svg xmlns="http://www.w3.org/2000/svg" xmlns:xlink="http://www.w3.org/1999/xlink" width="118" height="118" viewBox="0 0 118 118">
  <defs>
    <filter id="Trazado_982547" x="0" y="0" width="118" height="118" filterUnits="userSpaceOnUse">
      <feOffset dy="3" input="SourceAlpha"/>
      <feGaussianBlur stdDeviation="3" result="blur"/>
      <feFlood flood-opacity="0.161"/>
      <feComposite operator="in" in2="blur"/>
      <feComposite in="SourceGraphic"/>
    </filter>
  </defs>
  <g id="Grupo_1177315" data-name="Grupo 1177315" transform="translate(-269 -4125.328)">
    <g id="Grupo_1176832" data-name="Grupo 1176832" transform="translate(0 -5533)">
      <g id="Grupo_1176356" data-name="Grupo 1176356" transform="translate(278 9664.328)">
        <g id="Grupo_1172970" data-name="Grupo 1172970" transform="translate(0)">
          <g id="Grupo_1171971" data-name="Grupo 1171971">
            <g id="Grupo_1167337" data-name="Grupo 1167337">
              <g id="Grupo_1166720" data-name="Grupo 1166720">
                <g id="Grupo_1164305" data-name="Grupo 1164305">
                  <g id="Grupo_1163948" data-name="Grupo 1163948">
                    <g id="Grupo_1158168" data-name="Grupo 1158168">
                      <g id="Grupo_1152576" data-name="Grupo 1152576">
                        <g id="Grupo_1148633" data-name="Grupo 1148633">
                          <g id="Grupo_1148525" data-name="Grupo 1148525">
                            <g transform="matrix(1, 0, 0, 1, -9, -6)" filter="url(#Trazado_982547)">
                              <g id="Trazado_982547-2" data-name="Trazado 982547" transform="translate(9 6)" fill="#fbecfd">
                                <path d="M 50 98.5 C 43.45188522338867 98.5 37.10042953491211 97.21787261962891 31.12207221984863 94.68923950195312 C 25.34691429138184 92.24655914306641 20.15995788574219 88.74932861328125 15.70532894134521 84.29468536376953 C 11.2506856918335 79.84004211425781 7.753442764282227 74.65309906005859 5.310757160186768 68.87794494628906 C 2.782128572463989 62.89958572387695 1.5 56.54813003540039 1.5 50 C 1.5 43.45188522338867 2.782128572463989 37.10042953491211 5.310757160186768 31.12207221984863 C 7.753442764282227 25.34691429138184 11.2506856918335 20.15997123718262 15.70532894134521 15.70532894134521 C 20.15997123718262 11.2506856918335 25.34691429138184 7.753442764282227 31.12207221984863 5.310757160186768 C 37.10042953491211 2.782128572463989 43.45188522338867 1.5 50 1.5 C 56.54813003540039 1.5 62.89958572387695 2.782128572463989 68.87794494628906 5.310757160186768 C 74.65309906005859 7.753442764282227 79.84004211425781 11.2506856918335 84.29468536376953 15.70532894134521 C 88.74932861328125 20.15995788574219 92.24655914306641 25.34691429138184 94.68923950195312 31.12207221984863 C 97.21787261962891 37.10042953491211 98.5 43.45188522338867 98.5 50 C 98.5 56.54813003540039 97.21787261962891 62.89958572387695 94.68923950195312 68.87794494628906 C 92.24655914306641 74.65309906005859 88.74932861328125 79.84004211425781 84.29468536376953 84.29468536376953 C 79.84004211425781 88.74932861328125 74.65309906005859 92.24655914306641 68.87794494628906 94.68923950195312 C 62.89958572387695 97.21787261962891 56.54813003540039 98.5 50 98.5 Z" stroke="none"/>
                                <path d="M 50 3 C 43.65372467041016 3 37.49886322021484 4.242263793945312 31.70639801025391 6.6922607421875 C 26.11003112792969 9.059326171875 21.08335113525391 12.44861602783203 16.76598358154297 16.76598358154297 C 12.44861602783203 21.08335113525391 9.059326171875 26.11003112792969 6.6922607421875 31.70639801025391 C 4.242263793945312 37.49886322021484 3 43.65372467041016 3 50 C 3 56.34629058837891 4.242263793945312 62.50115203857422 6.6922607421875 68.29361724853516 C 9.059326171875 73.88998413085938 12.44861602783203 78.91666412353516 16.76598358154297 83.23403167724609 C 21.08335113525391 87.55138397216797 26.11003112792969 90.940673828125 31.70639801025391 93.3077392578125 C 37.49886322021484 95.75773620605469 43.65372467041016 97 50 97 C 56.34629058837891 97 62.50115203857422 95.75773620605469 68.29361724853516 93.3077392578125 C 73.88998413085938 90.940673828125 78.91666412353516 87.55138397216797 83.23403167724609 83.23403167724609 C 87.55138397216797 78.91666412353516 90.940673828125 73.88998413085938 93.3077392578125 68.29361724853516 C 95.75773620605469 62.50115203857422 97 56.34629058837891 97 50 C 97 43.65372467041016 95.75773620605469 37.49886322021484 93.3077392578125 31.70639801025391 C 90.940673828125 26.11003112792969 87.55138397216797 21.08335113525391 83.23403167724609 16.76598358154297 C 78.91666412353516 12.44861602783203 73.88998413085938 9.059326171875 68.29361724853516 6.6922607421875 C 62.50115203857422 4.242263793945312 56.34629058837891 3 50 3 M 50 0 C 77.6142578125 0 100 22.38577270507812 100 50 C 100 77.6142578125 77.6142578125 100 50 100 C 22.38577270507812 100 0 77.6142578125 0 50 C 0 22.38577270507812 22.38577270507812 0 50 0 Z" stroke="none" fill="#772d84"/>
                              </g>
                            </g>
                          </g>
                        </g>
                      </g>
                    </g>
                  </g>
                </g>
              </g>
            </g>
          </g>
        </g>
      </g>
    </g>
    <g id="demand_13064628" transform="translate(279.928 4121.098)">
      <path id="Trazado_1036018" data-name="Trazado 1036018" d="M49.369,61.629l-3.683,4.107h8.436a3.326,3.326,0,0,1,.8,6.554L52.787,86.462a4.661,4.661,0,0,1-1.557,2.844A4.564,4.564,0,0,1,48.21,90.4H25.263A4.571,4.571,0,0,1,22.239,89.3a4.64,4.64,0,0,1-1.553-2.846L18.6,72.3a3.326,3.326,0,0,1,.748-6.566h8.436l-5.746-6.408q-.065-.072-.095-.11a2.64,2.64,0,0,1,.294-3.645v0l.057-.049,0,0,.052-.042a2.885,2.885,0,0,1,3.927.321l8.641,9.636h0c.025.028.057.066.095.113q.075.093.141.191h3.163q.066-.1.141-.191c.02-.025.052-.062.095-.11L44.1,59.251a16.012,16.012,0,0,1-1.251-25.374l.009-.009h0l.056-.048a16,16,0,0,1,22.506,1.892l.009.009h0l.047.056a16.025,16.025,0,0,1,.812,19.562l.067.08.005.005.047.056a2.141,2.141,0,0,1,.456,1.844l3.555,4.2a2.193,2.193,0,0,1,2.392.664l6.634,7.883h0l0,0a2.847,2.847,0,0,1-.351,4.008v0L76.339,76.4a2.854,2.854,0,0,1-4.016-.351L65.69,68.166h0l0,0a2.187,2.187,0,0,1-.215-2.505l-3.555-4.2a2.14,2.14,0,0,1-1.707-.767l-.12-.143A16.023,16.023,0,0,1,50.135,61.8q-.384-.075-.765-.169Zm7.362-5.893V47.1a.853.853,0,0,1,.853-.853h3.593a.853.853,0,0,1,.853.853v4.364a10.223,10.223,0,1,0-17.77-.65V44.924a.853.853,0,0,1,.853-.853h3.593a.853.853,0,0,1,.853.853V55.6q.458.182.937.32V42.277a.853.853,0,0,1,.853-.853h3.593a.853.853,0,0,1,.853.853v13.74q.477-.118.937-.28ZM24.445,75.475H29.11l-.3-3.088H23.99l.454,3.088ZM43.432,81.9l-.257,2.687h2.67a2.117,2.117,0,0,0,1.4-.5,2.165,2.165,0,0,0,.715-1.325l.131-.867Zm-1.966,2.687.257-2.687H37.589v2.687ZM31.434,81.9l.257,2.687h4.193V81.9Zm-1.45,2.687L29.726,81.9H25.391l.128.87a2.147,2.147,0,0,0,.712,1.32,2.123,2.123,0,0,0,1.407.5Zm-.71-7.41H24.7L25.14,80.2h4.423Zm6.609,0h-4.9L31.27,80.2h4.613V77.181Zm6.293,0H37.589V80.2h4.3l.289-3.017Zm6.63,0H43.884L43.595,80.2h4.757Zm-4.759-1.706h5.016l.465-3.088H44.343l-.3,3.088Zm-6.458,0h4.75l.3-3.088H37.589v3.088Zm-6.771,0h5.065V72.387H30.522Z" transform="translate(0 0)" fill="#121209" fill-rule="evenodd"/>
      <path id="Trazado_1036019" data-name="Trazado 1036019" d="M192.385,46.239a14.316,14.316,0,0,0,15.959,23.567.851.851,0,0,1,1.085.254l.514.611a.464.464,0,0,0,.634.056l2.857-2.4a.842.842,0,0,1,.091-.079.469.469,0,0,0,.049-.564.84.84,0,0,1-.081-.1l-.5-.594a.849.849,0,0,1-.021-1.068l0,0A14.315,14.315,0,0,0,212.663,48a.827.827,0,0,1-.1-.116A14.324,14.324,0,0,0,192.5,46.142a.823.823,0,0,1-.116.1Zm13.986,21.929-.041.017a11.847,11.847,0,0,1-2.811.776l-.034,0a12.052,12.052,0,0,1-3.845-.067l-.013,0a11.843,11.843,0,0,1-2.822-.887l-.034-.016a11.953,11.953,0,0,1-3.438-2.4q-.208-.208-.4-.426l-.025-.027a11.929,11.929,0,1,1,17.33.422l-.021.021-.009.009A11.948,11.948,0,0,1,206.371,68.168Z" transform="translate(-148.438 -11.068)" fill="#d9a12a" fill-rule="evenodd"/>
      <path id="Trazado_1036020" data-name="Trazado 1036020" d="M192.4,46.243a14.317,14.317,0,0,0,11.97,24.967q.774-1.372,1.435-2.813a11.858,11.858,0,0,1-2.271.568l-.034,0a12.051,12.051,0,0,1-3.845-.067l-.013,0a11.844,11.844,0,0,1-2.822-.887L196.789,68a11.953,11.953,0,0,1-3.438-2.4q-.208-.208-.4-.426l-.025-.027a11.929,11.929,0,0,1,15.9-17.618q-.221-1.567-.568-3.092a14.342,14.342,0,0,0-15.731,1.709A.825.825,0,0,1,192.4,46.243Z" transform="translate(-148.456 -11.072)" fill="#fccb68" fill-rule="evenodd"/>
      <path id="Trazado_1036021" data-name="Trazado 1036021" d="M374.847,250.686l2.333-1.958-3.174-3.745-2.332,1.959Z" transform="translate(-308.16 -186.223)" fill="#f0ac25" fill-rule="evenodd"/>
      <path id="Trazado_1036022" data-name="Trazado 1036022" d="M400.8,277.669l-3.768,3.161,0,0a.5.5,0,0,0-.057.689l0,0L403.6,289.4a1.166,1.166,0,0,0,1.624.138l2.76-2.316,0,0a1.159,1.159,0,0,0,.136-1.614l0,0,0,0-6.633-7.881a.5.5,0,0,0-.7-.058Z" transform="translate(-329.982 -214.448)" fill="#f0ac25" fill-rule="evenodd"/>
      <path id="Trazado_1036023" data-name="Trazado 1036023" d="M77.9,355.8c0,.021-.006.042-.009.062l-.273,1.814a3.875,3.875,0,0,1-1.3,2.364,3.794,3.794,0,0,1-2.51.909H55.6a3.8,3.8,0,0,1-2.514-.91,3.859,3.859,0,0,1-1.292-2.366L51.55,356a.85.85,0,0,1-.052-.294c0-.017,0-.033,0-.05l-1.268-8.614H48.3l2.035,13.825a2.929,2.929,0,0,0,.973,1.8,2.893,2.893,0,0,0,1.917.68H76.173a2.886,2.886,0,0,0,1.914-.679,2.952,2.952,0,0,0,.977-1.805l2.082-13.822H79.215Z" transform="translate(-27.963 -274.656)" fill="#4298d4" fill-rule="evenodd"/>
      <path id="Trazado_1036024" data-name="Trazado 1036024" d="M51.239,353.894l-1.008-6.85H48.3l1,6.8q.946.047,1.9.048Z" transform="translate(-27.963 -274.656)" fill="#69b1e2" fill-rule="evenodd"/>
      <path id="Trazado_1036025" data-name="Trazado 1036025" d="M69.835,228.485a1.16,1.16,0,0,0-.824.241l-.04.035h0a.95.95,0,0,0-.315.633.96.96,0,0,0,.214.681l.035.043,6.968,7.77a.857.857,0,0,1,.1.115l1.571,1.752a1.2,1.2,0,0,0,1.6.128l.043-.035a.948.948,0,0,0,.27-1.008q-.013-.031-.024-.063a.986.986,0,0,0-.144-.243l-.035-.04v0l-8.643-9.637A1.157,1.157,0,0,0,69.835,228.485Z" transform="translate(-45.596 -171.923)" fill="#6baee0" fill-rule="evenodd"/>
      <path id="Trazado_1036026" data-name="Trazado 1036026" d="M55.2,310.006l-1.366,1.523a2.884,2.884,0,0,1-3.928.321q-.038-.03-.109-.095a2.65,2.65,0,0,1-.88-1.749H46.645a2.651,2.651,0,0,1-.88,1.749c-.047.042-.084.074-.109.095l-.065.053-.007,0a2.886,2.886,0,0,1-3.856-.377l-1.366-1.523H30.4a1.62,1.62,0,1,0,0,3.239H65.169a1.62,1.62,0,1,0,0-3.24Z" transform="translate(-11.046 -242.564)" fill="#428dc9" fill-rule="evenodd"/>
      <path id="Trazado_1036027" data-name="Trazado 1036027" d="M55.2,310.006l-1.366,1.523a2.884,2.884,0,0,1-3.928.321c-.025-.02-.062-.052-.109-.095a2.65,2.65,0,0,1-.88-1.749H46.645a2.651,2.651,0,0,1-.88,1.749c-.047.042-.084.074-.109.095l-.065.053-.007,0a2.886,2.886,0,0,1-3.856-.377l-1.366-1.523H30.4a1.62,1.62,0,1,0,0,3.239H58.131a37.712,37.712,0,0,0,3.456-3.239Z" transform="translate(-11.046 -242.564)" fill="#6baee0" fill-rule="evenodd"/>
      <path id="Trazado_1036028" data-name="Trazado 1036028" d="M198.331,255.446l-5.749,6.411-.035.043a.988.988,0,0,0-.144.243q-.01.032-.023.063a.948.948,0,0,0,.27,1.008l.043.035a1.2,1.2,0,0,0,1.6-.128l1.572-1.752a.858.858,0,0,1,.1-.115l4.384-4.889A15.939,15.939,0,0,1,198.331,255.446Z" transform="translate(-152.762 -195.289)" fill="#6baee0" fill-rule="evenodd"/>
      <path id="Trazado_1036029" data-name="Trazado 1036029" d="M242.13,156.7v-8.948h-1.887v7.405q.067.07.135.138A10.267,10.267,0,0,0,242.13,156.7Z" transform="translate(-194.277 -101.976)" fill="#99c9ed" fill-rule="evenodd"/>
      <path id="Trazado_1036030" data-name="Trazado 1036030" d="M288.831,141.084V127.927h-1.887V141.05a10.327,10.327,0,0,0,1.129.062q.383,0,.759-.028Z" transform="translate(-234.743 -84.797)" fill="#78b9e6" fill-rule="evenodd"/>
      <path id="Trazado_1036031" data-name="Trazado 1036031" d="M335.532,169.637v-5.6h-1.887v7a10.259,10.259,0,0,0,1.887-1.4Z" transform="translate(-275.208 -116.089)" fill="#0c6bb0" fill-rule="evenodd"/>
      <path id="Trazado_1036032" data-name="Trazado 1036032" d="M335.429,164.041h-1.784v6.745A37.236,37.236,0,0,0,335.429,164.041Z" transform="translate(-275.208 -116.089)" fill="#4298d4" fill-rule="evenodd"/>
    </g>
  </g>
</svg>
