<svg xmlns="http://www.w3.org/2000/svg" xmlns:xlink="http://www.w3.org/1999/xlink" width="118" height="118" viewBox="0 0 118 118">
  <defs>
    <filter id="Trazado_982547" x="0" y="0" width="118" height="118" filterUnits="userSpaceOnUse">
      <feOffset dy="3" input="SourceAlpha"/>
      <feGaussianBlur stdDeviation="3" result="blur"/>
      <feFlood flood-opacity="0.161"/>
      <feComposite operator="in" in2="blur"/>
      <feComposite in="SourceGraphic"/>
    </filter>
  </defs>
  <g id="Grupo_1177316" data-name="Grupo 1177316" transform="translate(-584 -4125.328)">
    <g id="Grupo_1176845" data-name="Grupo 1176845" transform="translate(0 -5533)">
      <g id="Grupo_1176357" data-name="Grupo 1176357" transform="translate(593 9664.328)">
        <g id="Grupo_1172970" data-name="Grupo 1172970" transform="translate(0)">
          <g id="Grupo_1171971" data-name="Grupo 1171971" transform="translate(0)">
            <g id="Grupo_1167337" data-name="Grupo 1167337">
              <g id="Grupo_1166720" data-name="Grupo 1166720">
                <g id="Grupo_1164305" data-name="Grupo 1164305">
                  <g id="Grupo_1163948" data-name="Grupo 1163948">
                    <g id="Grupo_1158168" data-name="Grupo 1158168">
                      <g id="Grupo_1152576" data-name="Grupo 1152576">
                        <g id="Grupo_1148633" data-name="Grupo 1148633">
                          <g id="Grupo_1148525" data-name="Grupo 1148525">
                            <g transform="matrix(1, 0, 0, 1, -9, -6)" filter="url(#Trazado_982547)">
                              <g id="Trazado_982547-2" data-name="Trazado 982547" transform="translate(9 6)" fill="#fbecfd">
                                <path d="M 50 98.5 C 43.45188522338867 98.5 37.10042953491211 97.21787261962891 31.12207221984863 94.68923950195312 C 25.34691429138184 92.24655914306641 20.15995788574219 88.74932861328125 15.70532894134521 84.29468536376953 C 11.2506856918335 79.84004211425781 7.753442764282227 74.65309906005859 5.310757160186768 68.87794494628906 C 2.782128572463989 62.89958572387695 1.5 56.54813003540039 1.5 50 C 1.5 43.45188522338867 2.782128572463989 37.10042953491211 5.310757160186768 31.12207221984863 C 7.753442764282227 25.34691429138184 11.2506856918335 20.15997123718262 15.70532894134521 15.70532894134521 C 20.15997123718262 11.2506856918335 25.34691429138184 7.753442764282227 31.12207221984863 5.310757160186768 C 37.10042953491211 2.782128572463989 43.45188522338867 1.5 50 1.5 C 56.54813003540039 1.5 62.89958572387695 2.782128572463989 68.87794494628906 5.310757160186768 C 74.65309906005859 7.753442764282227 79.84004211425781 11.2506856918335 84.29468536376953 15.70532894134521 C 88.74932861328125 20.15995788574219 92.24655914306641 25.34691429138184 94.68923950195312 31.12207221984863 C 97.21787261962891 37.10042953491211 98.5 43.45188522338867 98.5 50 C 98.5 56.54813003540039 97.21787261962891 62.89958572387695 94.68923950195312 68.87794494628906 C 92.24655914306641 74.65309906005859 88.74932861328125 79.84004211425781 84.29468536376953 84.29468536376953 C 79.84004211425781 88.74932861328125 74.65309906005859 92.24655914306641 68.87794494628906 94.68923950195312 C 62.89958572387695 97.21787261962891 56.54813003540039 98.5 50 98.5 Z" stroke="none"/>
                                <path d="M 50 3 C 43.65372467041016 3 37.49886322021484 4.242263793945312 31.70639801025391 6.6922607421875 C 26.11003112792969 9.059326171875 21.08335113525391 12.44861602783203 16.76598358154297 16.76598358154297 C 12.44861602783203 21.08335113525391 9.059326171875 26.11003112792969 6.6922607421875 31.70639801025391 C 4.242263793945312 37.49886322021484 3 43.65372467041016 3 50 C 3 56.34629058837891 4.242263793945312 62.50115203857422 6.6922607421875 68.29361724853516 C 9.059326171875 73.88998413085938 12.44861602783203 78.91666412353516 16.76598358154297 83.23403167724609 C 21.08335113525391 87.55138397216797 26.11003112792969 90.940673828125 31.70639801025391 93.3077392578125 C 37.49886322021484 95.75773620605469 43.65372467041016 97 50 97 C 56.34629058837891 97 62.50115203857422 95.75773620605469 68.29361724853516 93.3077392578125 C 73.88998413085938 90.940673828125 78.91666412353516 87.55138397216797 83.23403167724609 83.23403167724609 C 87.55138397216797 78.91666412353516 90.940673828125 73.88998413085938 93.3077392578125 68.29361724853516 C 95.75773620605469 62.50115203857422 97 56.34629058837891 97 50 C 97 43.65372467041016 95.75773620605469 37.49886322021484 93.3077392578125 31.70639801025391 C 90.940673828125 26.11003112792969 87.55138397216797 21.08335113525391 83.23403167724609 16.76598358154297 C 78.91666412353516 12.44861602783203 73.88998413085938 9.059326171875 68.29361724853516 6.6922607421875 C 62.50115203857422 4.242263793945312 56.34629058837891 3 50 3 M 50 0 C 77.6142578125 0 100 22.38577270507812 100 50 C 100 77.6142578125 77.6142578125 100 50 100 C 22.38577270507812 100 0 77.6142578125 0 50 C 0 22.38577270507812 22.38577270507812 0 50 0 Z" stroke="none" fill="#772d84"/>
                              </g>
                            </g>
                          </g>
                        </g>
                      </g>
                    </g>
                  </g>
                </g>
              </g>
            </g>
          </g>
        </g>
      </g>
    </g>
    <g id="strategic-plan_4838786" transform="translate(595.028 4137.323)">
      <path id="Trazado_1036033" data-name="Trazado 1036033" d="M45.969,209.746a9.667,9.667,0,0,0-.738-1.738l2.16-2.16-3.9-3.9-2.16,2.16a9.666,9.666,0,0,0-1.738-.738V200H33.746v3.371a9.667,9.667,0,0,0-1.738.738l-2.16-2.16-3.9,3.9,2.16,2.16a9.668,9.668,0,0,0-.738,1.738H24v5.848h3.371a9.667,9.667,0,0,0,.738,1.738l-2.16,2.16,3.9,3.9,2.16-2.16a9.666,9.666,0,0,0,1.738.738v3.371h5.848v-3.371a9.666,9.666,0,0,0,1.738-.738l2.16,2.16,3.9-3.9-2.16-2.16a9.667,9.667,0,0,0,.738-1.738H49.34v-5.848Z" transform="translate(-7.025 -161.584)" fill="#3397e8"/>
      <circle id="Elipse_12438" data-name="Elipse 12438" cx="6.954" cy="6.954" r="6.954" transform="translate(22.77 44.168)" fill="#e9eef2"/>
      <circle id="Elipse_12439" data-name="Elipse 12439" cx="2.675" cy="2.675" r="2.675" transform="translate(27.05 48.448)" fill="#2978b8"/>
      <path id="Trazado_1036034" data-name="Trazado 1036034" d="M174.984,80.527a3.9,3.9,0,0,0,3.9-3.9V24H136V80.527Z" transform="translate(-105.381 -7.025)" fill="#e9eef2"/>
      <path id="Trazado_1036035" data-name="Trazado 1036035" d="M48.91,42.566A7.8,7.8,0,0,0,46.9,39.1L32.83,25.034A3.529,3.529,0,0,0,30.335,24h0a3.529,3.529,0,0,0-2.5,1.034l-2.806,2.806a3.529,3.529,0,0,0,0,4.991L39.1,46.9a7.8,7.8,0,0,0,3.462,2.009l8.723,2.379Z" transform="translate(-7.026 -7.025)" fill="#fbe9d8"/>
      <path id="Trazado_1036036" data-name="Trazado 1036036" d="M27.839,25.034l-2.806,2.806A3.529,3.529,0,0,0,24,30.335h0a3.529,3.529,0,0,0,1.034,2.5L27.9,35.7l7.8-7.8-2.865-2.865A3.529,3.529,0,0,0,30.335,24h0a3.529,3.529,0,0,0-2.5,1.034Z" transform="translate(-7.025 -7.025)" fill="#eb423f"/>
      <path id="Trazado_1036037" data-name="Trazado 1036037" d="M104,408h38.984v5.848a3.9,3.9,0,0,0,3.9,3.9H107.9a3.9,3.9,0,0,1-3.9-3.9Z" transform="translate(-77.279 -344.244)" fill="#dadcde"/>
      <rect id="Rectángulo_415921" data-name="Rectángulo 415921" width="8.559" height="17.118" transform="translate(59.147 22.77)" fill="#dadcde"/>
      <path id="Trazado_1036038" data-name="Trazado 1036038" d="M197.72,202.174l6.125,1.671-1.671-6.125Z" transform="translate(-159.582 -159.582)" fill="#414649"/>
      <path id="Trazado_1036039" data-name="Trazado 1036039" d="M56,63.8,67.206,75l0,0,7.8-7.8,0,0L63.8,56Z" transform="translate(-35.127 -35.127)" fill="#3397e8"/>
      <rect id="Rectángulo_415922" data-name="Rectángulo 415922" width="4.135" height="16.54" transform="translate(22.822 25.746) rotate(-45)" fill="#2978b8"/>
      <circle id="Elipse_12440" data-name="Elipse 12440" cx="1.605" cy="1.605" r="1.605" transform="translate(50.588 50.588)" fill="#3397e8"/>
      <rect id="Rectángulo_415923" data-name="Rectángulo 415923" width="9.629" height="7.489" transform="translate(36.679 48.448)" fill="#eb423f"/>
      <rect id="Rectángulo_415924" data-name="Rectángulo 415924" width="9.629" height="7.489" transform="translate(58.077 48.448)" fill="#3dc285"/>
      <rect id="Rectángulo_415925" data-name="Rectángulo 415925" width="9.629" height="3.21" transform="translate(47.378 60.217)" fill="#ffd33a"/>
      <rect id="Rectángulo_415926" data-name="Rectángulo 415926" width="11.027" height="2.757" transform="translate(18.924 26.721) rotate(-45)" fill="#ffd33a"/>
      <path id="Trazado_1036040" data-name="Trazado 1036040" d="M73.5,16H30.619a.975.975,0,0,0-.975.975v3.495l-3.15-3.15a4.5,4.5,0,0,0-6.37,0l-2.805,2.805a4.5,4.5,0,0,0,0,6.37L28.266,37.441H26.721a.975.975,0,0,0-.975.975V41.1q-.289.113-.571.242l-1.663-1.663a.975.975,0,0,0-1.378,0l-3.9,3.9a.975.975,0,0,0,0,1.378L19.9,46.616q-.129.282-.242.571H16.975a.975.975,0,0,0-.975.975V54.01a.975.975,0,0,0,.975.975h2.681q.113.289.242.571l-1.663,1.663a.975.975,0,0,0,0,1.378l3.9,3.9a.975.975,0,0,0,1.378,0l1.663-1.663q.282.129.571.242V69.6a4.879,4.879,0,0,0,4.873,4.873H69.6A4.879,4.879,0,0,0,74.477,69.6V16.975A.975.975,0,0,0,73.5,16Zm-35,16.081-1.058,1.058-9.83-9.83,1.058-1.058Zm4.375,10.794-2.86-.78L42.1,40.014ZM37.848,41.5,35.8,40.944a6.834,6.834,0,0,1-2.287-1.117l6.317-6.317A6.834,6.834,0,0,1,40.944,35.8l.559,2.051ZM20.3,26.721,26.721,20.3l.571.571-6.419,6.419Zm5.931-2.033,9.83,9.83-1.545,1.545-9.83-9.83ZM18.7,21.5,21.5,18.7a2.555,2.555,0,0,1,3.613,0l.226.226-6.419,6.419-.226-.226a2.555,2.555,0,0,1,0-3.613Zm4.612,6.109,9.83,9.83L32.081,38.5l-9.83-9.83Zm6.335,25.423a1.949,1.949,0,0,1,0-3.9Zm0-5.848a3.9,3.9,0,0,0,0,7.8v1.949a5.848,5.848,0,1,1,0-11.7Zm-4.2,11.6a.975.975,0,0,0-1.156.166l-1.471,1.471-2.52-2.52,1.471-1.471a.975.975,0,0,0,.166-1.156,8.7,8.7,0,0,1-.664-1.563.975.975,0,0,0-.93-.683h-2.4v-3.9h2.4a.975.975,0,0,0,.93-.683,8.7,8.7,0,0,1,.664-1.563.975.975,0,0,0-.166-1.156L20.3,44.264l2.52-2.52,1.471,1.471a.975.975,0,0,0,1.156.166,8.7,8.7,0,0,1,1.563-.664.975.975,0,0,0,.683-.93v-2.4h1.949v3.9a7.8,7.8,0,1,0,0,15.594v3.9H27.7v-2.4a.975.975,0,0,0-.683-.93,8.705,8.705,0,0,1-1.563-.664Zm5.17,13.736A2.927,2.927,0,0,1,27.7,69.6V64.73H64.731V69.6a4.848,4.848,0,0,0,.977,2.924ZM51.086,52.06a.975.975,0,1,1,.975.975.975.975,0,0,1-.975-.975Zm4.873,8.771v1.949h-7.8V60.832ZM72.527,69.6a2.924,2.924,0,0,1-5.848,0V63.756a.975.975,0,0,0-.975-.975h-7.8V59.857a.975.975,0,0,0-.975-.975h-3.9V54.817a2.938,2.938,0,0,0,1.782-1.782h2.117v2.924a.975.975,0,0,0,.975.975h9.746a.975.975,0,0,0,.975-.975v-7.8a.975.975,0,0,0-.975-.975H57.908a.975.975,0,0,0-.975.975v2.924H54.817a2.924,2.924,0,0,0-5.512,0H47.188V48.162a.975.975,0,0,0-.975-.975H36.467a.975.975,0,0,0-.975.975v7.8a.975.975,0,0,0,.975.975h9.746a.975.975,0,0,0,.975-.975V53.035H49.3a2.938,2.938,0,0,0,1.782,1.782v4.066h-3.9a.975.975,0,0,0-.975.975v2.924H31.594V40.762a8.788,8.788,0,0,0,3.69,2.063L44.007,45.2a.971.971,0,0,0,.257.034H59.857a.975.975,0,0,0,.975-.975V41.34h6.822a.975.975,0,0,0,.975-.975V22.822a.975.975,0,0,0-.975-.975h-7.8a.975.975,0,0,0-.975.975V43.289H45.008l-1.063-3.9H54.01a.975.975,0,0,0,0-1.949h-10.6l-.532-1.949H54.01a.975.975,0,0,0,0-1.949H42.142a8.785,8.785,0,0,0-1.379-1.949h3.5a.975.975,0,1,0,0-1.949h-3.9a.975.975,0,0,0-.912.633l-7.86-7.86V17.949H72.527ZM58.883,54.984V49.137h7.8v5.848ZM45.238,49.137v5.848h-7.8V49.137Zm15.594-9.746V23.8H66.68V39.391Z" transform="translate(0 0)"/>
      <path id="Trazado_1036041" data-name="Trazado 1036041" d="M224.975,65.949h3.9a.975.975,0,1,0,0-1.949h-3.9a.975.975,0,0,0,0,1.949Z" transform="translate(-182.66 -42.152)"/>
      <path id="Trazado_1036042" data-name="Trazado 1036042" d="M208.975,97.949h13.645a.975.975,0,1,0,0-1.949H208.975a.975.975,0,1,0,0,1.949Z" transform="translate(-168.609 -70.254)"/>
      <path id="Trazado_1036043" data-name="Trazado 1036043" d="M288.975,65.949h3.9a.975.975,0,1,0,0-1.949h-3.9a.975.975,0,0,0,0,1.949Z" transform="translate(-238.863 -42.152)"/>
      <path id="Trazado_1036044" data-name="Trazado 1036044" d="M278.822,128h-5.848a.975.975,0,1,0,0,1.949h5.848a.975.975,0,0,0,0-1.949Z" transform="translate(-224.812 -98.356)"/>
    </g>
  </g>
</svg>
