<svg xmlns="http://www.w3.org/2000/svg" xmlns:xlink="http://www.w3.org/1999/xlink" width="108" height="108" viewBox="0 0 108 108">
  <defs>
    <filter id="Trazado_904820" x="0" y="0" width="108" height="108" filterUnits="userSpaceOnUse">
      <feOffset dy="3" input="SourceAlpha"/>
      <feGaussianBlur stdDeviation="3" result="blur"/>
      <feFlood flood-opacity="0.161"/>
      <feComposite operator="in" in2="blur"/>
      <feComposite in="SourceGraphic"/>
    </filter>
  </defs>
  <g id="Grupo_1177250" data-name="Grupo 1177250" transform="translate(9 6)">
    <g id="Grupo_1173585" data-name="Grupo 1173585" transform="translate(0 0)">
      <g id="Grupo_1173428" data-name="Grupo 1173428">
        <g id="Grupo_1171958" data-name="Grupo 1171958">
          <g id="Grupo_1167341" data-name="Grupo 1167341">
            <g id="Grupo_1166792" data-name="Grupo 1166792">
              <g transform="matrix(1, 0, 0, 1, -9, -6)" filter="url(#Trazado_904820)">
                <g id="Trazado_904820-2" data-name="Trazado 904820" transform="translate(9 6)" fill="#fef9e7">
                  <path d="M 44.99999618530273 88.49999237060547 C 39.12687301635742 88.49999237060547 33.43022155761719 87.35006713867188 28.06829643249512 85.08216857910156 C 22.88852119445801 82.89130401611328 18.23629570007324 79.75457763671875 14.24084663391113 75.75914001464844 C 10.24540901184082 71.76369476318359 7.108683586120605 67.11146545410156 4.917821407318115 61.93169403076172 C 2.649921178817749 56.56976699829102 1.499996185302734 50.87311553955078 1.499996185302734 44.99999237060547 C 1.499996185302734 39.12686920166016 2.649921178817749 33.43021774291992 4.917821407318115 28.06829261779785 C 7.108683586120605 22.88851737976074 10.24540901184082 18.23630523681641 14.24084663391113 14.24085521697998 C 18.23629570007324 10.24540519714355 22.88852119445801 7.108692169189453 28.06829643249512 4.917829990386963 C 33.43022155761719 2.649929761886597 39.12687301635742 1.500004887580872 44.99999618530273 1.500004887580872 C 50.87311935424805 1.500004887580872 56.56977081298828 2.649929761886597 61.93169784545898 4.917829990386963 C 67.11147308349609 7.108692169189453 71.76369476318359 10.24540519714355 75.75914764404297 14.24085521697998 C 79.75458526611328 18.23630523681641 82.89131164550781 22.88851737976074 85.08216857910156 28.06829261779785 C 87.35007476806641 33.43021774291992 88.5 39.12686920166016 88.5 44.99999237060547 C 88.5 50.87311553955078 87.35007476806641 56.56976699829102 85.08216857910156 61.93169403076172 C 82.89131164550781 67.11146545410156 79.75458526611328 71.76369476318359 75.75914764404297 75.75914001464844 C 71.76369476318359 79.75457763671875 67.11147308349609 82.89130401611328 61.93169784545898 85.08216857910156 C 56.56977081298828 87.35006713867188 50.87311935424805 88.49999237060547 44.99999618530273 88.49999237060547 Z" stroke="none"/>
                  <path d="M 44.99999618530273 2.999992370605469 C 39.32870864868164 2.999992370605469 33.82865142822266 4.11004638671875 28.65262603759766 6.299331665039062 C 23.65165710449219 8.414566040039062 19.15968322753906 11.44333648681641 15.301513671875 15.30150604248047 C 11.44333648681641 19.15967559814453 8.414566040039062 23.65164947509766 6.299339294433594 28.65262222290039 C 4.110054016113281 33.82864761352539 2.999992370605469 39.32870483398438 2.999992370605469 44.99999237060547 C 2.999992370605469 50.67127990722656 4.110054016113281 56.17132186889648 6.299339294433594 61.34736633300781 C 8.414566040039062 66.34833526611328 11.44333648681641 70.84029388427734 15.301513671875 74.69846343994141 C 19.15968322753906 78.55663299560547 23.65165710449219 81.58540344238281 28.65262603759766 83.70063781738281 C 33.82865142822266 85.88992309570312 39.32870864868164 86.99997711181641 44.99999618530273 86.99997711181641 C 50.67128372192383 86.99997711181641 56.17134094238281 85.88992309570312 61.34736633300781 83.70063781738281 C 66.34834289550781 81.58540344238281 70.84030914306641 78.55663299560547 74.69847869873047 74.69846343994141 C 78.55665588378906 70.84029388427734 81.58542633056641 66.34833526611328 83.70065307617188 61.34736633300781 C 85.88993835449219 56.17132186889648 87 50.67127990722656 87 44.99999237060547 C 87 39.32870483398438 85.88993835449219 33.82864761352539 83.70065307617188 28.65262222290039 C 81.58542633056641 23.65164947509766 78.55665588378906 19.15967559814453 74.69847869873047 15.30150604248047 C 70.84030914306641 11.44333648681641 66.34834289550781 8.414566040039062 61.34736633300781 6.299331665039062 C 56.17134094238281 4.11004638671875 50.67128372192383 2.999992370605469 44.99999618530273 2.999992370605469 M 44.99999618530273 -7.62939453125e-06 C 69.85281372070312 -7.62939453125e-06 90 20.14717864990234 90 44.99999237060547 C 90 69.85279083251953 69.85281372070312 89.99997711181641 44.99999618530273 89.99997711181641 C 20.14717864990234 89.99997711181641 -7.62939453125e-06 69.85279083251953 -7.62939453125e-06 44.99999237060547 C -7.62939453125e-06 20.14717864990234 20.14717864990234 -7.62939453125e-06 44.99999618530273 -7.62939453125e-06 Z" stroke="none" fill="#f8ce24"/>
                </g>
              </g>
            </g>
          </g>
        </g>
      </g>
    </g>
    <g id="time-management_7435627" transform="translate(9.524 5.523)">
      <path id="Trazado_1036077" data-name="Trazado 1036077" d="M62.952,49.864,58.86,46.54a15.082,15.082,0,0,0,0-5.771l4.092-3.324A1.916,1.916,0,0,0,63.4,35l-2.13-3.689a1.916,1.916,0,0,0-2.343-.832L54,32.36a14.969,14.969,0,0,0-5-2.889l-.833-5.2a1.916,1.916,0,0,0-1.892-1.613H42.023a1.916,1.916,0,0,0-1.892,1.613l-.833,5.2a14.968,14.968,0,0,0-5,2.889l-4.927-1.882a1.916,1.916,0,0,0-2.343.832L24.9,35a1.916,1.916,0,0,0,.451,2.445l4.092,3.324a15.077,15.077,0,0,0,0,5.771l-4.092,3.324a1.916,1.916,0,0,0-.451,2.445L27.032,56a1.916,1.916,0,0,0,2.343.832L34.3,54.947a14.97,14.97,0,0,0,5,2.889l.833,5.2a1.916,1.916,0,0,0,1.892,1.613h4.259a1.916,1.916,0,0,0,1.892-1.613l.833-5.2a14.97,14.97,0,0,0,5-2.889l4.927,1.882A1.916,1.916,0,0,0,61.273,56l2.13-3.688A1.915,1.915,0,0,0,62.952,49.864Z" transform="translate(-15.215 -9.447)" fill="#01c0fa"/>
      <path id="Trazado_1036078" data-name="Trazado 1036078" d="M160.369,22.656a1.916,1.916,0,0,0-1.892,1.613l-.723,4.519a14.936,14.936,0,0,0-2.948.683l.833-5.2a1.915,1.915,0,0,1,1.891-1.613Z" transform="translate(-130.723 -9.448)" fill="#08a9f1"/>
      <path id="Trazado_1036079" data-name="Trazado 1036079" d="M160.369,341.978H157.53a1.915,1.915,0,0,1-1.891-1.612l-.833-5.2a14.935,14.935,0,0,0,2.948.683l.723,4.52A1.916,1.916,0,0,0,160.369,341.978Z" transform="translate(-130.723 -286.773)" fill="#08a9f1"/>
      <path id="Trazado_1036080" data-name="Trazado 1036080" d="M35.7,91.954a20.958,20.958,0,0,0,0,24.744,14.651,14.651,0,0,1-1.394-1.079L29.378,117.5a1.916,1.916,0,0,1-2.343-.832l-2.13-3.688a1.917,1.917,0,0,1,.451-2.445l4.092-3.324a15.081,15.081,0,0,1,0-5.772l-4.092-3.324a1.917,1.917,0,0,1-.451-2.445l2.13-3.688a1.916,1.916,0,0,1,2.343-.832l4.927,1.882A14.655,14.655,0,0,1,35.7,91.954Z" transform="translate(-15.218 -70.12)" fill="#08a9f1"/>
      <path id="Trazado_1036081" data-name="Trazado 1036081" d="M104.01,32.089l.722.276a14.956,14.956,0,0,1,5-2.889l.833-5.2a1.915,1.915,0,0,1,1.892-1.613h4.258a1.915,1.915,0,0,1,1.892,1.613l.833,5.2a14.956,14.956,0,0,1,5,2.889l4.928-1.882a1.915,1.915,0,0,1,2.343.832L133.833,35a1.918,1.918,0,0,1-.451,2.445l-4.091,3.323a15.12,15.12,0,0,1,0,5.773l3.985,3.237" transform="translate(-85.645 -9.451)" fill="none" stroke="#000" stroke-linecap="round" stroke-linejoin="round" stroke-miterlimit="10" stroke-width="1.5"/>
      <path id="Trazado_1036082" data-name="Trazado 1036082" d="M29.935,91.367l-.56-.214a1.915,1.915,0,0,0-2.343.832L24.9,95.673a1.916,1.916,0,0,0,.45,2.445l4.091,3.323a15.121,15.121,0,0,0,0,5.773l-4.091,3.323a1.916,1.916,0,0,0-.45,2.445l2.129,3.688a1.914,1.914,0,0,0,2.343.832l4.928-1.881a14.972,14.972,0,0,0,5,2.888l.833,5.2a1.915,1.915,0,0,0,1.892,1.613h4.258a1.915,1.915,0,0,0,1.892-1.613l.833-5.2a14.972,14.972,0,0,0,5-2.888l.3.115" transform="translate(-15.216 -70.122)" fill="none" stroke="#000" stroke-linecap="round" stroke-linejoin="round" stroke-miterlimit="10" stroke-width="1.5"/>
      <circle id="Elipse_12445" data-name="Elipse 12445" cx="10.241" cy="10.241" r="10.241" transform="translate(18.697 23.966)" fill="#dff6fd"/>
      <path id="Trazado_1036083" data-name="Trazado 1036083" d="M119.421,138.453a10.241,10.241,0,1,1,0-20,10.243,10.243,0,0,0,0,20Z" transform="translate(-88.26 -94.248)" fill="#c8effe"/>
      <circle id="Elipse_12446" data-name="Elipse 12446" cx="10.241" cy="10.241" r="10.241" transform="translate(18.697 23.966)" fill="none" stroke="#000" stroke-linecap="round" stroke-linejoin="round" stroke-miterlimit="10" stroke-width="1.5"/>
      <path id="Trazado_1036084" data-name="Trazado 1036084" d="M7.5,312.406a24.375,24.375,0,0,0,21.437,12.759" transform="translate(0 -266.579)" fill="none" stroke="#000" stroke-linecap="round" stroke-linejoin="round" stroke-miterlimit="10" stroke-width="1.5"/>
      <line id="Línea_985" data-name="Línea 985" y2="1.896" transform="translate(28.937 23.966)" fill="none" stroke="#000" stroke-linecap="round" stroke-linejoin="round" stroke-miterlimit="10" stroke-width="1.5"/>
      <line id="Línea_986" data-name="Línea 986" y2="1.896" transform="translate(28.937 42.551)" fill="none" stroke="#000" stroke-linecap="round" stroke-linejoin="round" stroke-miterlimit="10" stroke-width="1.5"/>
      <line id="Línea_987" data-name="Línea 987" x1="1.896" transform="translate(37.282 34.206)" fill="none" stroke="#000" stroke-linecap="round" stroke-linejoin="round" stroke-miterlimit="10" stroke-width="1.5"/>
      <line id="Línea_988" data-name="Línea 988" x1="1.896" transform="translate(18.697 34.206)" fill="none" stroke="#000" stroke-linecap="round" stroke-linejoin="round" stroke-miterlimit="10" stroke-width="1.5"/>
      <path id="Trazado_1036085" data-name="Trazado 1036085" d="M162.141,173.4l4.028,4.028,2.847-2.847" transform="translate(-137.232 -143.222)" fill="none" stroke="#000" stroke-linecap="round" stroke-linejoin="round" stroke-miterlimit="10" stroke-width="1.5"/>
      <path id="Trazado_1036086" data-name="Trazado 1036086" d="M288,268.7l-2.9-.391a9.969,9.969,0,0,0-.889-2.143l1.775-2.328a1.357,1.357,0,0,0-.119-1.784l-1.38-1.38a1.357,1.357,0,0,0-1.784-.12l-2.329,1.776a9.8,9.8,0,0,0-2.143-.889l-.39-2.9a1.358,1.358,0,0,0-1.346-1.176h-1.952a1.358,1.358,0,0,0-1.346,1.176l-.391,2.9a9.849,9.849,0,0,0-2.143.889l-2.328-1.776a1.357,1.357,0,0,0-1.784.12l-1.38,1.38a1.357,1.357,0,0,0-.119,1.784l1.775,2.328a9.914,9.914,0,0,0-.889,2.143l-2.9.391a1.357,1.357,0,0,0-1.177,1.346v1.951a1.357,1.357,0,0,0,1.177,1.346l2.9.391a9.909,9.909,0,0,0,.889,2.143l-1.775,2.328a1.359,1.359,0,0,0,.119,1.785l1.38,1.378a1.357,1.357,0,0,0,1.784.12l2.328-1.776a9.91,9.91,0,0,0,2.143.89l.391,2.9a1.358,1.358,0,0,0,1.346,1.176H276.5a1.358,1.358,0,0,0,1.346-1.176l.39-2.9a9.857,9.857,0,0,0,2.143-.89l2.329,1.776a1.357,1.357,0,0,0,1.784-.12l1.38-1.378a1.359,1.359,0,0,0,.119-1.785l-1.775-2.328a9.981,9.981,0,0,0,.889-2.143l2.9-.391a1.357,1.357,0,0,0,1.177-1.346v-1.951A1.357,1.357,0,0,0,288,268.7Zm-12.48,7.619a5.3,5.3,0,1,1,5.3-5.3A5.3,5.3,0,0,1,275.524,276.316Z" transform="translate(-225.731 -217.731)" fill="#7a6d79"/>
      <path id="Trazado_1036087" data-name="Trazado 1036087" d="M267.587,293.971a12.286,12.286,0,0,1,4.117-9.192,9.842,9.842,0,0,0-1.031.5l-2.329-1.777a1.357,1.357,0,0,0-1.784.12L265.182,285a1.356,1.356,0,0,0-.119,1.784l1.774,2.329a9.9,9.9,0,0,0-.889,2.142l-2.9.392a1.355,1.355,0,0,0-1.177,1.345v1.951a1.355,1.355,0,0,0,1.177,1.345l2.9.392a9.9,9.9,0,0,0,.889,2.142l-1.774,2.329a1.358,1.358,0,0,0,.119,1.785l1.379,1.378a1.358,1.358,0,0,0,1.784.121l2.329-1.777a9.891,9.891,0,0,0,1.031.5A12.287,12.287,0,0,1,267.587,293.971Z" transform="translate(-225.735 -240.683)" fill="#685e68"/>
      <path id="Trazado_1036088" data-name="Trazado 1036088" d="M288.005,268.693l-2.9-.391a9.89,9.89,0,0,0-.889-2.143l1.776-2.328a1.358,1.358,0,0,0-.12-1.784l-1.38-1.38a1.358,1.358,0,0,0-1.784-.12l-2.328,1.776a9.891,9.891,0,0,0-2.143-.889l-.391-2.9a1.358,1.358,0,0,0-1.346-1.177h-1.951a1.358,1.358,0,0,0-1.346,1.177l-.391,2.9a9.892,9.892,0,0,0-2.143.889l-2.328-1.776a1.358,1.358,0,0,0-1.784.12l-1.38,1.38a1.358,1.358,0,0,0-.12,1.784l1.776,2.328a9.893,9.893,0,0,0-.889,2.143l-2.9.391a1.358,1.358,0,0,0-1.177,1.346v1.951a1.358,1.358,0,0,0,1.177,1.346l2.9.391a9.89,9.89,0,0,0,.889,2.143l-1.776,2.328a1.358,1.358,0,0,0,.12,1.784l1.38,1.38a1.358,1.358,0,0,0,1.784.12l2.328-1.776a9.891,9.891,0,0,0,2.143.889l.391,2.9a1.358,1.358,0,0,0,1.346,1.177H276.5a1.358,1.358,0,0,0,1.346-1.177l.391-2.9a9.888,9.888,0,0,0,2.143-.889l2.328,1.776a1.358,1.358,0,0,0,1.784-.12l1.38-1.38a1.358,1.358,0,0,0,.12-1.784l-1.776-2.329a9.891,9.891,0,0,0,.889-2.143l2.9-.391a1.358,1.358,0,0,0,1.177-1.346v-1.951A1.358,1.358,0,0,0,288.005,268.693Z" transform="translate(-225.731 -217.727)" fill="none" stroke="#000" stroke-linecap="round" stroke-linejoin="round" stroke-miterlimit="10" stroke-width="1.5"/>
      <path id="Trazado_1036089" data-name="Trazado 1036089" d="M339.787,341.953a5.3,5.3,0,1,0-3-2.458" transform="translate(-291.616 -283.62)" fill="none" stroke="#000" stroke-linecap="round" stroke-linejoin="round" stroke-miterlimit="10" stroke-width="1.5"/>
      <path id="Trazado_1036090" data-name="Trazado 1036090" d="M399.167,146.94a1.794,1.794,0,0,1-1.45-.738l-3.969-5.45a1.794,1.794,0,1,1,2.9-2.112l2.209,3.032,3.2-6.607a1.794,1.794,0,1,1,3.229,1.563l-4.5,9.3a1.794,1.794,0,0,1-1.455,1C399.274,146.938,399.22,146.94,399.167,146.94Z" transform="translate(-342.46 -108.304)" fill="#86e8d0"/>
      <path id="Trazado_1036091" data-name="Trazado 1036091" d="M404.33,138.6l.957-1.977a1.794,1.794,0,0,0-3.229-1.563l-3.2,6.607-2.209-3.033a1.794,1.794,0,1,0-2.9,2.112l3.969,5.451a1.792,1.792,0,0,0,1.45.737c.053,0,.106,0,.16-.007a1.8,1.8,0,0,0,1.455-1.005l1.852-3.825" transform="translate(-342.462 -108.303)" fill="none" stroke="#000" stroke-linecap="round" stroke-linejoin="round" stroke-miterlimit="10" stroke-width="1.5"/>
      <path id="Trazado_1036092" data-name="Trazado 1036092" d="M301.934,27.478A24.448,24.448,0,0,0,288.891,12.6" transform="translate(-249.713 -0.522)" fill="none" stroke="#000" stroke-linecap="round" stroke-linejoin="round" stroke-miterlimit="10" stroke-width="1.5"/>
      <path id="Trazado_1036093" data-name="Trazado 1036093" d="M19.861,383.028a28.013,28.013,0,0,0,11.715,7.185" transform="translate(-10.969 -329.25)" fill="none" stroke="#000" stroke-linecap="round" stroke-linejoin="round" stroke-miterlimit="10" stroke-width="1.5"/>
      <path id="Trazado_1036094" data-name="Trazado 1036094" d="M356.84,20.023a28.155,28.155,0,0,0-7.07-8.014" transform="translate(-303.738 0)" fill="none" stroke="#000" stroke-linecap="round" stroke-linejoin="round" stroke-miterlimit="10" stroke-width="1.5"/>
    </g>
  </g>
</svg>
