<svg xmlns="http://www.w3.org/2000/svg" xmlns:xlink="http://www.w3.org/1999/xlink" width="113" height="113" viewBox="0 0 113 113">
  <defs>
    <filter id="Trazado_982547" x="0" y="0" width="113" height="113" filterUnits="userSpaceOnUse">
      <feOffset dy="3" input="SourceAlpha"/>
      <feGaussianBlur stdDeviation="3" result="blur"/>
      <feFlood flood-opacity="0.161"/>
      <feComposite operator="in" in2="blur"/>
      <feComposite in="SourceGraphic"/>
    </filter>
  </defs>
  <g id="Grupo_1177425" data-name="Grupo 1177425" transform="translate(-9486 -2654.308)">
    <g id="Grupo_1177307" data-name="Grupo 1177307" transform="translate(9495 2660.308)">
      <g id="Grupo_1176923" data-name="Grupo 1176923" transform="translate(0 0)">
        <g id="Grupo_1172323" data-name="Grupo 1172323">
          <g id="Grupo_1166163" data-name="Grupo 1166163">
            <g id="Grupo_1164700" data-name="Grupo 1164700">
              <g id="Grupo_1160931" data-name="Grupo 1160931">
                <g id="Grupo_1160749" data-name="Grupo 1160749">
                  <g id="Grupo_1158891" data-name="Grupo 1158891">
                    <g id="Grupo_1157406" data-name="Grupo 1157406">
                      <g id="Grupo_1155793" data-name="Grupo 1155793">
                        <g id="Grupo_1154704" data-name="Grupo 1154704">
                          <g id="Grupo_1150790" data-name="Grupo 1150790">
                            <g id="Grupo_1154214" data-name="Grupo 1154214">
                              <g id="Grupo_1152583" data-name="Grupo 1152583">
                                <g id="Grupo_1146973" data-name="Grupo 1146973">
                                  <g id="Grupo_1146954" data-name="Grupo 1146954">
                                    <g transform="matrix(1, 0, 0, 1, -9, -6)" filter="url(#Trazado_982547)">
                                      <g id="Trazado_982547-2" data-name="Trazado 982547" transform="translate(9 6)" fill="#fbecfd">
                                        <path d="M 47.5000114440918 93.49987030029297 C 41.28938293457031 93.49987030029297 35.26534652709961 92.28384399414062 29.5951976776123 89.88558959960938 C 24.11773109436035 87.56881713867188 19.19814491271973 84.25183868408203 14.97310447692871 80.02680206298828 C 10.74805164337158 75.80176544189453 7.43107795715332 70.88218688964844 5.114304542541504 65.40472412109375 C 2.716038227081299 59.73458862304688 1.500011444091797 53.71054840087891 1.500011444091797 47.49993515014648 C 1.500011444091797 41.28932189941406 2.716038227081299 35.26528167724609 5.114304542541504 29.59514808654785 C 7.43107795715332 24.1176815032959 10.74805164337158 19.1981086730957 14.97310447692871 14.97306823730469 C 19.19814491271973 10.74802875518799 24.11773109436035 7.431055068969727 29.5951976776123 5.11428165435791 C 35.26534652709961 2.716028451919556 41.28938293457031 1.500001788139343 47.5000114440918 1.500001788139343 C 53.71063995361328 1.500001788139343 59.73467636108398 2.716028451919556 65.40482330322266 5.11428165435791 C 70.88229370117188 7.431055068969727 75.8018798828125 10.74802875518799 80.02691650390625 14.97306823730469 C 84.25196838378906 19.1981086730957 87.56894683837891 24.1176815032959 89.88571929931641 29.59514808654785 C 92.28398132324219 35.26528167724609 93.50001525878906 41.28932189941406 93.50001525878906 47.49993515014648 C 93.50001525878906 53.71054840087891 92.28398132324219 59.73458862304688 89.88571929931641 65.40472412109375 C 87.56894683837891 70.88218688964844 84.25196838378906 75.80176544189453 80.02691650390625 80.02680206298828 C 75.8018798828125 84.25183868408203 70.88229370117188 87.56881713867188 65.40482330322266 89.88558959960938 C 59.73467636108398 92.28384399414062 53.71063995361328 93.49987030029297 47.5000114440918 93.49987030029297 Z" stroke="none"/>
                                        <path d="M 47.5000114440918 3 C 41.49122619628906 3 35.66378021240234 4.1761474609375 30.17951965332031 6.495796203613281 C 24.880859375 8.7369384765625 20.12153625488281 11.94596862792969 16.03376770019531 16.03373718261719 C 11.94598388671875 20.12149047851562 8.736968994140625 24.88081359863281 6.495811462402344 30.17947387695312 C 4.176162719726562 35.66371917724609 3.000007629394531 41.49116516113281 3.000007629394531 47.49993515014648 C 3.000007629394531 53.50870513916016 4.176162719726562 59.33615112304688 6.495811462402344 64.82039642333984 C 8.736968994140625 70.11905670166016 11.94598388671875 74.87837982177734 16.03376770019531 78.96613311767578 C 20.12153625488281 83.05390167236328 24.880859375 86.26293182373047 30.17951965332031 88.50407409667969 C 35.66378021240234 90.82372283935547 41.49122619628906 91.99987030029297 47.5000114440918 91.99987030029297 C 53.50879669189453 91.99987030029297 59.33624267578125 90.82372283935547 64.82050323486328 88.50407409667969 C 70.11916351318359 86.26293182373047 74.87848663330078 83.05390167236328 78.96625518798828 78.96613311767578 C 83.05403900146484 74.87837982177734 86.2630615234375 70.11905670166016 88.50421142578125 64.82039642333984 C 90.82386016845703 59.33615112304688 92.00001525878906 53.50870513916016 92.00001525878906 47.49993515014648 C 92.00001525878906 41.49116516113281 90.82386016845703 35.66371917724609 88.50421142578125 30.17947387695312 C 86.2630615234375 24.88081359863281 83.05403900146484 20.12149047851562 78.96625518798828 16.03373718261719 C 74.87848663330078 11.94596862792969 70.11916351318359 8.7369384765625 64.82050323486328 6.495796203613281 C 59.33624267578125 4.1761474609375 53.50879669189453 3 47.5000114440918 3 M 47.5000114440918 0 C 73.73353576660156 0 95.00001525878906 21.26644134521484 95.00001525878906 47.49993515014648 C 95.00001525878906 73.73342895507812 73.73353576660156 94.99987030029297 47.5000114440918 94.99987030029297 C 21.26648712158203 94.99987030029297 7.62939453125e-06 73.73342895507812 7.62939453125e-06 47.49993515014648 C 7.62939453125e-06 21.26644134521484 21.26648712158203 0 47.5000114440918 0 Z" stroke="none" fill="#da53f2"/>
                                      </g>
                                    </g>
                                  </g>
                                </g>
                              </g>
                            </g>
                          </g>
                        </g>
                      </g>
                    </g>
                  </g>
                </g>
              </g>
            </g>
          </g>
        </g>
      </g>
    </g>
    <g id="financial-report_10063852" transform="translate(9492.775 2669.119)">
      <g id="Grupo_1177424" data-name="Grupo 1177424" transform="translate(21.101 9.022)">
        <g id="Grupo_1177419" data-name="Grupo 1177419" transform="translate(0 0)">
          <path id="Trazado_1036284" data-name="Trazado 1036284" d="M68.61,16H35.273a1.05,1.05,0,0,0-.769.319L28.4,22.424a1.05,1.05,0,0,0-.318.769V68.852a1.09,1.09,0,0,0,1.087,1.088H68.61A1.09,1.09,0,0,0,69.7,68.852V17.088A1.09,1.09,0,0,0,68.61,16Z" transform="translate(-28.08 -16)" fill="#eceff1" fill-rule="evenodd"/>
          <path id="Trazado_1036285" data-name="Trazado 1036285" d="M331.691,16H329.7V69.94h1.989a1.09,1.09,0,0,0,1.088-1.088V17.088A1.09,1.09,0,0,0,331.691,16Z" transform="translate(-291.162 -16)" fill="#d1d1d6" fill-rule="evenodd"/>
          <path id="Trazado_1036286" data-name="Trazado 1036286" d="M35.466,16.738a1.09,1.09,0,0,0-.319.224l-6.106,6.106a1.09,1.09,0,0,0-.224.319h6.1a.545.545,0,0,0,.544-.544v-6.1Z" transform="translate(-28.723 -16.644)" fill="#a79ba7" fill-rule="evenodd"/>
        </g>
        <g id="Grupo_1177420" data-name="Grupo 1177420" transform="translate(4.155 23.912)">
          <path id="Trazado_1036287" data-name="Trazado 1036287" d="M61.45,304.3h3.358a.857.857,0,0,1,.856.856v8.192a.857.857,0,0,1-.856.856H61.45a.857.857,0,0,1-.856-.856v-8.192A.857.857,0,0,1,61.45,304.3Z" transform="translate(-60.594 -291.376)" fill="#fe646f" fill-rule="evenodd"/>
          <path id="Trazado_1036288" data-name="Trazado 1036288" d="M83.584,304.3H84.86a.857.857,0,0,1,.856.856v8.192a.857.857,0,0,1-.856.856H83.584a.857.857,0,0,0,.856-.856v-8.192A.857.857,0,0,0,83.584,304.3Z" transform="translate(-80.646 -291.376)" fill="#fd4755" fill-rule="evenodd"/>
          <path id="Trazado_1036289" data-name="Trazado 1036289" d="M135.116,255.183h3.358a.857.857,0,0,1,.856.856v14.469a.857.857,0,0,1-.856.856h-3.358a.857.857,0,0,1-.856-.856V256.039A.857.857,0,0,1,135.116,255.183Z" transform="translate(-124.847 -248.533)" fill="#ffe177" fill-rule="evenodd"/>
          <path id="Trazado_1036290" data-name="Trazado 1036290" d="M157.25,255.183h1.276a.857.857,0,0,1,.856.856v14.469a.857.857,0,0,1-.856.856H157.25a.857.857,0,0,0,.856-.856V256.039A.857.857,0,0,0,157.25,255.183Z" transform="translate(-144.9 -248.533)" fill="#ffd064" fill-rule="evenodd"/>
          <path id="Trazado_1036291" data-name="Trazado 1036291" d="M208.782,271.719h3.358a.857.857,0,0,1,.856.856v12.356a.857.857,0,0,1-.856.856h-3.358a.857.857,0,0,1-.856-.856V272.575A.858.858,0,0,1,208.782,271.719Z" transform="translate(-189.1 -262.956)" fill="#6cf5c2" fill-rule="evenodd"/>
          <path id="Trazado_1036292" data-name="Trazado 1036292" d="M230.916,271.719h1.276a.857.857,0,0,1,.856.856v12.356a.857.857,0,0,1-.856.856h-1.276a.857.857,0,0,0,.856-.856V272.575A.857.857,0,0,0,230.916,271.719Z" transform="translate(-209.153 -262.956)" fill="#00e499" fill-rule="evenodd"/>
          <path id="Trazado_1036293" data-name="Trazado 1036293" d="M282.448,203.142h3.358a.857.857,0,0,1,.856.856v21.118a.857.857,0,0,1-.856.856h-3.358a.857.857,0,0,1-.856-.856V204A.857.857,0,0,1,282.448,203.142Z" transform="translate(-253.354 -203.142)" fill="#8ac9fe" fill-rule="evenodd"/>
          <path id="Trazado_1036294" data-name="Trazado 1036294" d="M304.581,203.142h1.276a.857.857,0,0,1,.856.856v21.118a.857.857,0,0,1-.856.856h-1.276a.857.857,0,0,0,.856-.856V204A.857.857,0,0,0,304.581,203.142Z" transform="translate(-273.405 -203.142)" fill="#60b7ff" fill-rule="evenodd"/>
        </g>
        <g id="Grupo_1177421" data-name="Grupo 1177421" transform="translate(27.28 30.367)">
          <circle id="Elipse_12455" data-name="Elipse 12455" cx="15.483" cy="15.483" r="15.483" fill="#8d9ca8"/>
          <path id="Trazado_1036295" data-name="Trazado 1036295" d="M355.982,253.655a15.483,15.483,0,0,1,0,30.966c-.333,0-.663-.012-.991-.032a15.482,15.482,0,0,0,0-30.9C355.319,253.667,355.649,253.655,355.982,253.655Z" transform="translate(-340.499 -253.655)" fill="#8192a5" fill-rule="evenodd"/>
        </g>
        <g id="Grupo_1177423" data-name="Grupo 1177423" transform="translate(33.687 33.532)">
          <path id="Trazado_1036296" data-name="Trazado 1036296" d="M296.055,349.2q.011,11.271,0,11.254h-3.746a.593.593,0,0,1-.591-.591V349.79a.592.592,0,0,1,.591-.591h3.746Z" transform="translate(-291.718 -340.156)" fill="#d1d1d6" fill-rule="evenodd"/>
          <path id="Trazado_1036297" data-name="Trazado 1036297" d="M291.718,359.862a.593.593,0,0,0,.591.591h3.75V349.2h-.591v10.662h-3.75Z" transform="translate(-291.718 -340.157)" fill="#b1b1b5" fill-rule="evenodd"/>
          <path id="Trazado_1036298" data-name="Trazado 1036298" d="M334.4,299.853c-4.362.751-6.9,1.3-9.433-1.128V287.471c2-1.5,4.638-2.787,4.638-5.626v-3.416a4.109,4.109,0,0,1,4.1,4.1v2.65a3.943,3.943,0,0,1-1.136,2.086C338.911,288.893,336.21,299.931,334.4,299.853Z" transform="translate(-320.719 -278.428)" fill="#f6dccd" fill-rule="evenodd"/>
          <path id="Trazado_1036299" data-name="Trazado 1036299" d="M325.962,299.528a7.135,7.135,0,0,1-1-.8V287.471c2-1.5,4.638-2.787,4.638-5.626v-3.416a4.084,4.084,0,0,1,2.863,1.173,4.064,4.064,0,0,0-2.1-.581v3.416c0,2.839-2.639,4.125-4.638,5.627v11.254Q325.847,299.426,325.962,299.528Z" transform="translate(-320.719 -278.428)" fill="#f1cbbc" fill-rule="evenodd"/>
          <path id="Trazado_1036300" data-name="Trazado 1036300" d="M386.877,357.8h2.628a1.628,1.628,0,1,0,0-3.256h.971a1.628,1.628,0,0,0,0-3.256h1.142a1.628,1.628,0,1,0,0-3.256h-.686a1.628,1.628,0,1,0,0-3.256h-4.056a1.628,1.628,0,0,0,0,3.256h-.686a1.628,1.628,0,1,0,0,3.256h.686a3.641,3.641,0,0,1-1.628,4.884,1.632,1.632,0,0,0,1.628,1.628Z" transform="translate(-372.7 -336.302)" fill="#f6dccd" fill-rule="evenodd"/>
          <g id="Grupo_1177422" data-name="Grupo 1177422" transform="translate(11.863 10.106)">
            <path id="Trazado_1036301" data-name="Trazado 1036301" d="M391.558,435.6h2.628a1.633,1.633,0,0,0,1.628-1.628H389.93A1.633,1.633,0,0,0,391.558,435.6Z" transform="translate(-389.244 -424.202)" fill="#f1cbbc" fill-rule="evenodd"/>
            <path id="Trazado_1036302" data-name="Trazado 1036302" d="M394.184,410.115h.971a1.633,1.633,0,0,0,1.628-1.628h-6.855a1.633,1.633,0,0,0,1.628,1.628Z" transform="translate(-389.242 -401.975)" fill="#f1cbbc" fill-rule="evenodd"/>
            <path id="Trazado_1036303" data-name="Trazado 1036303" d="M390.474,384.633h1.142a1.633,1.633,0,0,0,1.628-1.628h-8.684a1.633,1.633,0,0,0,1.628,1.628h4.285Z" transform="translate(-384.561 -379.749)" fill="#f1cbbc" fill-rule="evenodd"/>
            <path id="Trazado_1036304" data-name="Trazado 1036304" d="M395.614,359.149a1.633,1.633,0,0,0,1.628-1.628H389.93a1.633,1.633,0,0,0,1.628,1.628Z" transform="translate(-389.244 -357.521)" fill="#f1cbbc" fill-rule="evenodd"/>
          </g>
        </g>
      </g>
      <path id="Trazado_1036305" data-name="Trazado 1036305" d="M73.723,56.53H68.285a.609.609,0,0,1,0-1.218h5.437a.609.609,0,0,1,0,1.218Zm-1.145,3.262H68.973a.609.609,0,0,1,0-1.218h3.605a.609.609,0,0,1,0,1.218Zm-.973,3.262H68.973a.617.617,0,0,1-.608-.609.612.612,0,0,1,.609-.608h2.633a.609.609,0,0,1,0,1.218Zm-11.464-.638c0-.075,0-6.807,0-10.305.166-.118.335-.239.511-.362,1.9-1.337,4.045-2.852,4.045-5.792V43.732a3.088,3.088,0,0,1,2.061,2.908v2.572a3.027,3.027,0,0,1-.839,1.449,1.023,1.023,0,0,0-.121,1.3,2.209,2.209,0,0,1,.458,1.77,4.394,4.394,0,0,1-2.132,2.311,1.023,1.023,0,1,0,1.018,1.774A9.069,9.069,0,0,0,66,57.258a2.661,2.661,0,0,0,.614.718,2.65,2.65,0,0,0,.272,2.838,2.635,2.635,0,0,0-.417,2.489c-3.078.5-4.679.513-6.323-.887Zm-4.349-9.8h2.3c0,5.313,0,7.977,0,9.229H55.793V52.616Zm17.243-.565a.608.608,0,1,1,0,1.216H68.973a.608.608,0,1,1,0-1.216Zm3.34,3.87a2.65,2.65,0,0,0-.978-2.056,2.652,2.652,0,0,0-2.363-3.859H68.973a2.684,2.684,0,0,0-.321.02,3.633,3.633,0,0,0,.138-.593,1.076,1.076,0,0,0,.009-.141V46.64a5.133,5.133,0,0,0-5.127-5.127,1.022,1.022,0,0,0-1.022,1.022v3.422c0,1.88-1.473,2.918-3.179,4.121-.228.16-.46.326-.69.493H54.771a1.022,1.022,0,0,0-1.022,1.022V62.868a1.022,1.022,0,0,0,1.022,1.022h3.947a6.785,6.785,0,0,0,4.8,1.77,28.132,28.132,0,0,0,4.6-.562l.317-.055a2.573,2.573,0,0,0,.539.056h2.633a2.657,2.657,0,0,0,2.653-2.654,2.63,2.63,0,0,0-.217-1.049,2.652,2.652,0,0,0,1.008-3.177,2.653,2.653,0,0,0,1.326-2.3ZM63.864,69.333A14.46,14.46,0,1,0,49.4,54.873,14.477,14.477,0,0,0,63.864,69.333ZM45.1,54.743V42.72h3.025v7.169a16.426,16.426,0,0,0-.768,4.854ZM57.542,39.627a16.442,16.442,0,0,0-3.025,1.65v-7.32h3.025ZM22.189,61.94H48.951a16.381,16.381,0,0,1-1.48-5.153H44.082a1.023,1.023,0,0,1-1.022-1.022V41.7a1.022,1.022,0,0,1,1.022-1.022h5.069A1.022,1.022,0,0,1,50.173,41.7v3.966a16.641,16.641,0,0,1,2.3-2.724v-10a1.022,1.022,0,0,1,1.022-1.022h5.069a1.022,1.022,0,0,1,1.022,1.022v6A16.316,16.316,0,0,1,61.7,38.51V10.11a.068.068,0,0,0-.065-.066H28.866v5.178A1.568,1.568,0,0,1,27.3,16.788H22.124V61.875A.067.067,0,0,0,22.189,61.94Zm4.633-50.45v3.253H23.569ZM63.864,38.368h-.123V10.11A2.113,2.113,0,0,0,61.632,8H28.294a2.067,2.067,0,0,0-1.492.618L20.7,14.724a2.071,2.071,0,0,0-.618,1.492V61.875a2.112,2.112,0,0,0,2.11,2.109H50.11A16.5,16.5,0,1,0,63.864,38.368ZM36.585,15.231a1.022,1.022,0,0,1,1.022-1.022H51.38a1.022,1.022,0,0,1,0,2.045H37.607A1.022,1.022,0,0,1,36.585,15.231Zm-5.451,0a1.022,1.022,0,0,1,1.022-1.022h1.472a1.022,1.022,0,1,1,0,2.045H32.157A1.022,1.022,0,0,1,31.134,15.231Zm5.451,4.607a1.022,1.022,0,0,1,1.022-1.022H51.38a1.022,1.022,0,1,1,0,2.044H37.607A1.022,1.022,0,0,1,36.585,19.838Zm-5.451,0a1.022,1.022,0,0,1,1.022-1.022h1.472a1.022,1.022,0,1,1,0,2.044H32.157A1.022,1.022,0,0,1,31.134,19.838Zm5.451,4.608a1.022,1.022,0,0,1,1.022-1.022H51.38a1.022,1.022,0,1,1,0,2.044H37.607A1.022,1.022,0,0,1,36.585,24.446Zm-5.451,0a1.022,1.022,0,0,1,1.022-1.022h1.472a1.022,1.022,0,1,1,0,2.044H32.157A1.022,1.022,0,0,1,31.134,24.446Zm-4.15,16.791a1.023,1.023,0,0,1,.179-1.435l9.413-7.329a1.022,1.022,0,0,1,.943-.166l8.815,2.857,7-7.065-.284.024a1.022,1.022,0,1,1-.178-2.037l3.064-.268a1.022,1.022,0,0,1,1.105,1.132L56.7,30.007a1.023,1.023,0,0,1-1.015.91.926.926,0,0,1-.115-.008,1.021,1.021,0,0,1-.9-1.128l.015-.138-7.345,7.407A1.023,1.023,0,0,1,46.3,37.3l-8.9-2.884-8.985,7a1.023,1.023,0,0,1-1.435-.178ZM29.3,54.743H26.279v-7.86H29.3Zm1.022-9.9a1.023,1.023,0,0,1,1.022,1.023v9.9a1.023,1.023,0,0,1-1.022,1.022H25.256a1.023,1.023,0,0,1-1.022-1.022v-9.9a1.023,1.023,0,0,1,1.022-1.023Zm8.391,9.9H35.691V40.606h3.025Zm1.022-16.181a1.023,1.023,0,0,1,1.022,1.022V55.765a1.022,1.022,0,0,1-1.022,1.022H34.669a1.022,1.022,0,0,1-1.022-1.022V39.584a1.023,1.023,0,0,1,1.022-1.022Z" fill-rule="evenodd"/>
    </g>
  </g>
</svg>
