<svg xmlns="http://www.w3.org/2000/svg" xmlns:xlink="http://www.w3.org/1999/xlink" width="128" height="128" viewBox="0 0 128 128">
  <defs>
    <filter id="Trazado_982547" x="0" y="0" width="128" height="128" filterUnits="userSpaceOnUse">
      <feOffset dy="3" input="SourceAlpha"/>
      <feGaussianBlur stdDeviation="3" result="blur"/>
      <feFlood flood-opacity="0.161"/>
      <feComposite operator="in" in2="blur"/>
      <feComposite in="SourceGraphic"/>
    </filter>
    <clipPath id="clip-path">
      <path id="path495" d="M0-682.665H75.237v75.237H0Z" transform="translate(0 682.665)"/>
    </clipPath>
  </defs>
  <g id="Grupo_1177310" data-name="Grupo 1177310" transform="translate(-316.5 -919.317)">
    <g id="Grupo_1176902" data-name="Grupo 1176902" transform="translate(0 -2075.023)">
      <g id="Grupo_1176328" data-name="Grupo 1176328" transform="translate(127.467 1008.34)">
        <g id="Grupo_1172970" data-name="Grupo 1172970" transform="translate(198.033 1992)">
          <g id="Grupo_1171971" data-name="Grupo 1171971" transform="translate(0)">
            <g id="Grupo_1167337" data-name="Grupo 1167337">
              <g id="Grupo_1166720" data-name="Grupo 1166720">
                <g id="Grupo_1164305" data-name="Grupo 1164305">
                  <g id="Grupo_1163948" data-name="Grupo 1163948">
                    <g id="Grupo_1158168" data-name="Grupo 1158168">
                      <g id="Grupo_1152576" data-name="Grupo 1152576">
                        <g id="Grupo_1148633" data-name="Grupo 1148633">
                          <g id="Grupo_1148525" data-name="Grupo 1148525">
                            <g transform="matrix(1, 0, 0, 1, -9, -6)" filter="url(#Trazado_982547)">
                              <g id="Trazado_982547-2" data-name="Trazado 982547" transform="translate(9 6)" fill="#fbecfd">
                                <path d="M 54.99999618530273 108.5 C 47.77687454223633 108.5 40.77062606811523 107.0856704711914 34.17584228515625 104.2963180541992 C 27.80527305603027 101.6017990112305 22.0836124420166 97.74404144287109 17.16978073120117 92.83020782470703 C 12.25594997406006 87.9163818359375 8.398196220397949 82.19471740722656 5.703672885894775 75.82415008544922 C 2.914319276809692 69.22937774658203 1.499996185302734 62.22311782836914 1.499996185302734 54.99999618530273 C 1.499996185302734 47.77688980102539 2.914319276809692 40.77062606811523 5.703672885894775 34.17584228515625 C 8.398196220397949 27.80528831481934 12.25594997406006 22.08362770080566 17.16978073120117 17.16979598999023 C 22.0836124420166 12.25594997406006 27.80527305603027 8.398196220397949 34.17584228515625 5.703672885894775 C 40.77062606811523 2.914319276809692 47.77688980102539 1.499996185302734 54.99999618530273 1.499996185302734 C 62.22311782836914 1.499996185302734 69.22937774658203 2.914319276809692 75.82415008544922 5.703672885894775 C 82.19471740722656 8.398196220397949 87.9163818359375 12.25594997406006 92.83020782470703 17.16979598999023 C 97.74404144287109 22.08362770080566 101.6017990112305 27.80528831481934 104.2963180541992 34.17584228515625 C 107.0856704711914 40.77062606811523 108.5 47.77688980102539 108.5 54.99999618530273 C 108.5 62.22311782836914 107.0856704711914 69.22937774658203 104.2963180541992 75.82415008544922 C 101.6017990112305 82.19471740722656 97.74404144287109 87.9163818359375 92.83020782470703 92.83020782470703 C 87.9163818359375 97.74404144287109 82.19471740722656 101.6017990112305 75.82415008544922 104.2963180541992 C 69.22937774658203 107.0856704711914 62.22311782836914 108.5 54.99999618530273 108.5 Z" stroke="none"/>
                                <path d="M 54.99999618530273 2.999992370605469 C 47.97871398925781 2.999992370605469 41.16905975341797 4.374443054199219 34.76016235351562 7.085182189941406 C 28.56839752197266 9.704078674316406 23.00699615478516 13.45389556884766 18.23044586181641 18.23044586181641 C 13.45388031005859 23.00701141357422 9.704078674316406 28.56841278076172 7.085182189941406 34.76017761230469 C 4.374443054199219 41.16905975341797 2.999992370605469 47.97872924804688 2.999992370605469 54.99999618530273 C 2.999992370605469 62.02127838134766 4.374443054199219 68.8309326171875 7.085182189941406 75.23983001708984 C 9.704078674316406 81.43159484863281 13.45388031005859 86.99299621582031 18.23044586181641 91.76954650878906 C 23.00699615478516 96.54611206054688 28.56839752197266 100.2959136962891 34.76016235351562 102.9148101806641 C 41.16905975341797 105.6255493164062 47.97871398925781 107 54.99999618530273 107 C 62.02127838134766 107 68.8309326171875 105.6255493164062 75.23983001708984 102.9148101806641 C 81.43159484863281 100.2959136962891 86.99299621582031 96.54611206054688 91.76954650878906 91.76954650878906 C 96.54611206054688 86.99299621582031 100.2959136962891 81.43159484863281 102.9148101806641 75.23983001708984 C 105.6255493164062 68.8309326171875 107 62.02127838134766 107 54.99999618530273 C 107 47.97872924804688 105.6255493164062 41.16905975341797 102.9148101806641 34.76017761230469 C 100.2959136962891 28.56841278076172 96.54611206054688 23.00701141357422 91.76954650878906 18.23044586181641 C 86.99299621582031 13.45389556884766 81.43159484863281 9.704078674316406 75.23983001708984 7.085182189941406 C 68.8309326171875 4.374443054199219 62.02127838134766 2.999992370605469 54.99999618530273 2.999992370605469 M 54.99999618530273 -7.62939453125e-06 C 85.37566375732422 -7.62939453125e-06 110 24.62434387207031 110 54.99999618530273 C 110 85.37566375732422 85.37566375732422 110 54.99999618530273 110 C 24.62432861328125 110 -7.62939453125e-06 85.37566375732422 -7.62939453125e-06 54.99999618530273 C -7.62939453125e-06 24.62434387207031 24.62432861328125 -7.62939453125e-06 54.99999618530273 -7.62939453125e-06 Z" stroke="none" fill="#772d84"/>
                              </g>
                            </g>
                          </g>
                        </g>
                      </g>
                    </g>
                  </g>
                </g>
              </g>
            </g>
          </g>
        </g>
      </g>
    </g>
    <g id="g489" transform="translate(342.382 1626.364)">
      <g id="g491" transform="translate(0 -682.665)">
        <g id="g493" clip-path="url(#clip-path)">
          <g id="g499" transform="translate(4.187 6.054)">
            <path id="path501" d="M-523.992-262.93a32.45,32.45,0,0,1-32.569,32.33,32.45,32.45,0,0,1-32.333-32.567,32.45,32.45,0,0,1,32.569-32.33,32.45,32.45,0,0,1,32.333,32.567" transform="translate(588.894 295.497)" fill="#fb2b3a"/>
          </g>
          <g id="g503" transform="translate(4.187 6.054)">
            <path id="path505" d="M-29.661-261.022A32.45,32.45,0,0,1,.965-293.3q-.86-.048-1.731-.052a32.45,32.45,0,0,0-32.569,32.33A32.45,32.45,0,0,0-1-228.455c.652,0,1.3-.017,1.943-.052a32.451,32.451,0,0,1-30.6-32.514" transform="translate(33.335 293.352)" fill="#e41f2d"/>
          </g>
          <g id="g507" transform="translate(4.187 6.054)">
            <path id="path509" d="M-523.992-262.93a32.45,32.45,0,0,1-32.569,32.33,32.45,32.45,0,0,1-32.333-32.567,32.45,32.45,0,0,1,32.569-32.33A32.45,32.45,0,0,1-523.992-262.93Z" transform="translate(588.894 295.497)" fill="none" stroke="#000" stroke-linecap="round" stroke-linejoin="round" stroke-miterlimit="10" stroke-width="1.5"/>
          </g>
          <g id="g511" transform="translate(11.043 12.909)">
            <path id="path513" d="M-205.891-413.254a25.428,25.428,0,0,1-18.071-7.562,25.425,25.425,0,0,1-7.431-18.124,25.641,25.641,0,0,1,25.592-25.5h.1a25.428,25.428,0,0,1,18.071,7.562,25.423,25.423,0,0,1,7.43,18.124,25.641,25.641,0,0,1-25.592,25.5Z" transform="translate(231.393 464.44)" fill="#fff"/>
          </g>
          <g id="g515" transform="translate(11.043 12.909)">
            <path id="path517" d="M-89.653-352.2a25.425,25.425,0,0,1-7.431-18.124,25.647,25.647,0,0,1,23.762-25.433c-.579-.041-1.161-.064-1.747-.066h-.1a25.641,25.641,0,0,0-25.593,25.5A25.425,25.425,0,0,0-93.327-352.2a25.428,25.428,0,0,0,18.071,7.562h.1c.616,0,1.226-.023,1.832-.066a25.4,25.4,0,0,1-16.325-7.5" transform="translate(100.757 395.827)" fill="#efe2dd"/>
          </g>
          <g id="g519" transform="translate(11.043 12.909)">
            <path id="path521" d="M-205.891-413.254a25.428,25.428,0,0,1-18.071-7.562,25.425,25.425,0,0,1-7.431-18.124,25.641,25.641,0,0,1,25.592-25.5h.1a25.428,25.428,0,0,1,18.071,7.562,25.423,25.423,0,0,1,7.43,18.124,25.641,25.641,0,0,1-25.592,25.5Z" transform="translate(231.393 464.44)" fill="none" stroke="#000" stroke-linecap="round" stroke-linejoin="round" stroke-miterlimit="10" stroke-width="1.5"/>
          </g>
          <g id="g523" transform="translate(17.899 19.764)">
            <path id="path525" d="M-150.672-302.561a18.612,18.612,0,0,1-13.222-5.536,18.613,18.613,0,0,1-5.44-13.269,18.773,18.773,0,0,1,18.737-18.67h.08A18.612,18.612,0,0,1-137.3-334.5a18.612,18.612,0,0,1,5.44,13.269,18.773,18.773,0,0,1-18.727,18.67Z" transform="translate(169.334 340.036)" fill="#fb2b3a"/>
          </g>
          <g id="g527" transform="translate(17.899 19.764)">
            <path id="path529" d="M-79.514-257.862a18.613,18.613,0,0,1-5.44-13.269,18.78,18.78,0,0,1,16.544-18.54,19.039,19.039,0,0,0-2.136-.129h-.08a18.773,18.773,0,0,0-18.737,18.67,18.613,18.613,0,0,0,5.44,13.269A18.613,18.613,0,0,0-70.7-252.325h.089a18.8,18.8,0,0,0,2.183-.129,18.6,18.6,0,0,1-11.086-5.407" transform="translate(89.362 289.801)" fill="#e41f2d"/>
          </g>
          <g id="g531" transform="translate(17.899 19.764)">
            <path id="path533" d="M-150.672-302.561a18.612,18.612,0,0,1-13.222-5.536,18.613,18.613,0,0,1-5.44-13.269,18.773,18.773,0,0,1,18.737-18.67h.08A18.612,18.612,0,0,1-137.3-334.5a18.612,18.612,0,0,1,5.44,13.269,18.773,18.773,0,0,1-18.727,18.67Z" transform="translate(169.334 340.036)" fill="none" stroke="#000" stroke-linecap="round" stroke-linejoin="round" stroke-miterlimit="10" stroke-width="1.5"/>
          </g>
          <g id="g535" transform="translate(24.755 26.62)">
            <path id="path537" d="M-95.462-191.868a11.792,11.792,0,0,1-8.374-3.511,11.8,11.8,0,0,1-3.45-8.414A11.9,11.9,0,0,1-95.4-215.633h.06a11.791,11.791,0,0,1,8.376,3.511,11.8,11.8,0,0,1,3.45,8.415,11.906,11.906,0,0,1-11.866,11.84Z" transform="translate(107.286 215.633)" fill="#fff"/>
          </g>
          <g id="g539" transform="translate(24.755 26.62)">
            <path id="path541" d="M-57.512-163.522a11.8,11.8,0,0,1-3.45-8.414,11.912,11.912,0,0,1,10.055-11.7,11.994,11.994,0,0,0-1.788-.141h-.06a11.9,11.9,0,0,0-11.881,11.839,11.8,11.8,0,0,0,3.45,8.414,11.792,11.792,0,0,0,8.374,3.511h.077a11.858,11.858,0,0,0,1.811-.141,11.793,11.793,0,0,1-6.588-3.37" transform="translate(64.635 183.776)" fill="#efe2dd"/>
          </g>
          <g id="g543" transform="translate(24.755 26.62)">
            <path id="path545" d="M-95.462-191.868a11.792,11.792,0,0,1-8.374-3.511,11.8,11.8,0,0,1-3.45-8.414A11.9,11.9,0,0,1-95.4-215.633h.06a11.791,11.791,0,0,1,8.376,3.511,11.8,11.8,0,0,1,3.45,8.415,11.906,11.906,0,0,1-11.866,11.84Z" transform="translate(107.286 215.633)" fill="none" stroke="#000" stroke-linecap="round" stroke-linejoin="round" stroke-miterlimit="10" stroke-width="1.5"/>
          </g>
          <g id="g547" transform="translate(31.611 33.475)">
            <path id="path549" d="M-40.267-81.172A4.905,4.905,0,0,1-43.8-82.658a4.928,4.928,0,0,1-1.459-3.56,5.036,5.036,0,0,1,5.015-5.009h.044a4.912,4.912,0,0,1,3.536,1.485,4.927,4.927,0,0,1,1.459,3.56,5.037,5.037,0,0,1-5.007,5.009Z" transform="translate(45.255 91.226)" fill="#fb2b3a"/>
          </g>
          <g id="g551" transform="translate(31.611 33.475)">
            <path id="path553" d="M-35.511-69.182a4.929,4.929,0,0,1-1.459-3.56A5.04,5.04,0,0,1-33.4-77.535a5.045,5.045,0,0,0-1.453-.215h-.044a5.036,5.036,0,0,0-5.015,5.009,4.929,4.929,0,0,0,1.459,3.56A4.906,4.906,0,0,0-34.922-67.7h.06a4.988,4.988,0,0,0,1.432-.215,4.959,4.959,0,0,1-2.081-1.27" transform="translate(39.91 77.75)" fill="#e41f2d"/>
          </g>
          <g id="g555" transform="translate(31.611 33.475)">
            <path id="path557" d="M-40.267-81.172A4.905,4.905,0,0,1-43.8-82.658a4.928,4.928,0,0,1-1.459-3.56,5.036,5.036,0,0,1,5.015-5.009h.044a4.912,4.912,0,0,1,3.536,1.485,4.927,4.927,0,0,1,1.459,3.56,5.037,5.037,0,0,1-5.007,5.009Z" transform="translate(45.255 91.226)" fill="none" stroke="#000" stroke-linecap="round" stroke-linejoin="round" stroke-miterlimit="10" stroke-width="1.5"/>
          </g>
          <g id="g559" transform="translate(36.638 2.969)">
            <path id="path561" d="M0,0V11.654" fill="none" stroke="#000" stroke-linecap="round" stroke-linejoin="round" stroke-miterlimit="10" stroke-width="1.5"/>
          </g>
          <g id="g563" transform="translate(36.638 62.382)">
            <path id="path565" d="M0,0V11.654" fill="none" stroke="#000" stroke-linecap="round" stroke-linejoin="round" stroke-miterlimit="10" stroke-width="1.5"/>
          </g>
          <g id="g567" transform="translate(1.102 38.502)">
            <path id="path569" d="M0,0H11.655" fill="none" stroke="#000" stroke-linecap="round" stroke-linejoin="round" stroke-miterlimit="10" stroke-width="1.5"/>
          </g>
          <g id="g571" transform="translate(60.52 38.502)">
            <path id="path573" d="M0,0H11.655" fill="none" stroke="#000" stroke-linecap="round" stroke-linejoin="round" stroke-miterlimit="10" stroke-width="1.5"/>
          </g>
          <g id="g575" transform="translate(55.302 1.201)">
            <path id="path577" d="M-101.7-56.182a1.225,1.225,0,0,1-.76-.755l-1.683-5.906a.331.331,0,0,0-.6-.156l-9.247,9.2a1.169,1.169,0,0,0-.276,1.024l1.612,5.988a1.18,1.18,0,0,0,.753.749l6.02,1.6a1.185,1.185,0,0,0,1.029-.274l9.247-9.2a.329.329,0,0,0-.157-.6Z" transform="translate(114.295 63.141)" fill="#62dbfb"/>
          </g>
          <g id="g579" transform="translate(55.302 1.201)">
            <path id="path581" d="M-39.587-140.873l-1.714-6.365a1.243,1.243,0,0,1,.293-1.088l7.351-7.313-.679-2.385a.331.331,0,0,0-.6-.156l-9.248,9.2a1.169,1.169,0,0,0-.276,1.024l1.612,5.988a1.18,1.18,0,0,0,.753.749l2.709.722a1.064,1.064,0,0,1-.2-.375" transform="translate(44.49 158.322)" fill="#01d0fb"/>
          </g>
          <g id="g583" transform="translate(60.494 5.677)">
            <path id="path585" d="M0,0,1.776,6.594a1.134,1.134,0,0,0,.724.722L9.143,9.087" fill="none" stroke="#000" stroke-linecap="round" stroke-linejoin="round" stroke-miterlimit="10" stroke-width="1.5"/>
          </g>
          <g id="g587" transform="translate(55.302 1.201)">
            <path id="path589" d="M-101.7-56.182a1.225,1.225,0,0,1-.76-.755l-1.683-5.906a.331.331,0,0,0-.6-.156l-9.247,9.2a1.169,1.169,0,0,0-.276,1.024l1.612,5.988a1.18,1.18,0,0,0,.753.749l6.02,1.6a1.185,1.185,0,0,0,1.029-.274l9.247-9.2a.329.329,0,0,0-.157-.6Z" transform="translate(114.295 63.141)" fill="none" stroke="#000" stroke-linecap="round" stroke-linejoin="round" stroke-miterlimit="10" stroke-width="1.5"/>
          </g>
          <g id="g591" transform="translate(36.638 5.236)">
            <path id="path593" d="M0-268.575l33.44-33.266" transform="translate(0 301.841)" fill="none" stroke="#000" stroke-linecap="round" stroke-linejoin="round" stroke-miterlimit="10" stroke-width="1.5"/>
          </g>
          <g id="g595" transform="translate(49.68 51.624)">
            <path id="path597" d="M-179.957-90.47A11.175,11.175,0,0,1-191.1-79.264,11.175,11.175,0,0,1-202.246-90.47,11.176,11.176,0,0,1-191.1-101.676,11.176,11.176,0,0,1-179.957-90.47" transform="translate(202.246 101.676)" fill="#97d729"/>
          </g>
          <g id="g599" transform="translate(49.68 51.624)">
            <path id="path601" d="M-38.242-90.47a11.194,11.194,0,0,1,8.777-10.95,11.123,11.123,0,0,0-2.368-.256A11.176,11.176,0,0,0-42.979-90.47,11.175,11.175,0,0,0-31.834-79.264a11.123,11.123,0,0,0,2.368-.256,11.194,11.194,0,0,1-8.777-10.95" transform="translate(42.979 101.676)" fill="#8bc727"/>
          </g>
          <g id="g603" transform="translate(49.68 51.624)">
            <path id="path605" d="M-179.957-90.47A11.175,11.175,0,0,1-191.1-79.264,11.175,11.175,0,0,1-202.246-90.47,11.176,11.176,0,0,1-191.1-101.676,11.176,11.176,0,0,1-179.957-90.47Z" transform="translate(202.246 101.676)" fill="none" stroke="#000" stroke-linecap="round" stroke-linejoin="round" stroke-miterlimit="10" stroke-width="1.5"/>
          </g>
          <g id="g607" transform="translate(56.252 59.859)">
            <path id="path609" d="M0-21.7l3.236,3.254,5.909-5.942" transform="translate(0 24.389)" fill="none" stroke="#000" stroke-linecap="round" stroke-linejoin="round" stroke-miterlimit="10" stroke-width="1.5"/>
          </g>
        </g>
      </g>
    </g>
  </g>
</svg>
