<svg xmlns="http://www.w3.org/2000/svg" xmlns:xlink="http://www.w3.org/1999/xlink" width="106" height="106" viewBox="0 0 106 106">
  <defs>
    <filter id="Trazado_982547" x="0" y="0" width="106" height="106" filterUnits="userSpaceOnUse">
      <feOffset dy="3" input="SourceAlpha"/>
      <feGaussianBlur stdDeviation="3" result="blur"/>
      <feFlood flood-opacity="0.161"/>
      <feComposite operator="in" in2="blur"/>
      <feComposite in="SourceGraphic"/>
    </filter>
  </defs>
  <g id="Grupo_1177266" data-name="Grupo 1177266" transform="translate(-171 -2007)">
    <g id="Grupo_1174730" data-name="Grupo 1174730" transform="translate(0 625)">
      <g id="Grupo_1173169" data-name="Grupo 1173169" transform="translate(0 -2329)">
        <g id="Grupo_1172017" data-name="Grupo 1172017" transform="translate(0 2654)">
          <g id="Grupo_1167337" data-name="Grupo 1167337" transform="translate(180 1063)">
            <g id="Grupo_1166720" data-name="Grupo 1166720" transform="translate(0)">
              <g id="Grupo_1164305" data-name="Grupo 1164305">
                <g id="Grupo_1163948" data-name="Grupo 1163948">
                  <g id="Grupo_1158168" data-name="Grupo 1158168">
                    <g id="Grupo_1152576" data-name="Grupo 1152576">
                      <g id="Grupo_1148633" data-name="Grupo 1148633">
                        <g id="Grupo_1148525" data-name="Grupo 1148525">
                          <g transform="matrix(1, 0, 0, 1, -9, -6)" filter="url(#Trazado_982547)">
                            <g id="Trazado_982547-2" data-name="Trazado 982547" transform="translate(9 6)" fill="#fbecfd">
                              <path d="M 44 86.5 C 38.26187515258789 86.5 32.69618606567383 85.37651062011719 27.45755004882812 83.16075897216797 C 22.3968505859375 81.020263671875 17.85157585144043 77.95565032958984 13.94796276092529 74.05204010009766 C 10.04434967041016 70.1484375 6.979737281799316 65.6031494140625 4.839250087738037 60.54246139526367 C 2.62348747253418 55.30381393432617 1.5 49.73812484741211 1.5 44 C 1.5 38.26187515258789 2.62348747253418 32.69618606567383 4.839250087738037 27.45755004882812 C 6.979737281799316 22.3968505859375 10.04434967041016 17.85157585144043 13.94796276092529 13.94796276092529 C 17.85157585144043 10.04434967041016 22.3968505859375 6.979737281799316 27.45755004882812 4.839250087738037 C 32.69618606567383 2.62348747253418 38.26187515258789 1.5 44 1.5 C 49.73812484741211 1.5 55.30381393432617 2.62348747253418 60.54246139526367 4.839250087738037 C 65.6031494140625 6.979737281799316 70.1484375 10.04434967041016 74.05204010009766 13.94796276092529 C 77.95565032958984 17.85157585144043 81.020263671875 22.3968505859375 83.16075897216797 27.45755004882812 C 85.37651062011719 32.69618606567383 86.5 38.26187515258789 86.5 44 C 86.5 49.73812484741211 85.37651062011719 55.30381393432617 83.16075897216797 60.54246139526367 C 81.020263671875 65.6031494140625 77.95565032958984 70.1484375 74.05204010009766 74.05204010009766 C 70.1484375 77.95565032958984 65.6031494140625 81.020263671875 60.54246139526367 83.16075897216797 C 55.30381393432617 85.37651062011719 49.73812484741211 86.5 44 86.5 Z" stroke="none"/>
                              <path d="M 44 3 C 38.46371459960938 3 33.09462738037109 4.083610534667969 28.0418701171875 6.220756530761719 C 23.15997314453125 8.285614013671875 18.77495574951172 11.24228668212891 15.00862884521484 15.00862884521484 C 11.24228668212891 18.77495574951172 8.285614013671875 23.15997314453125 6.220756530761719 28.0418701171875 C 4.083610534667969 33.09462738037109 3 38.46371459960938 3 44 C 3 49.53628540039062 4.083610534667969 54.9053840637207 6.220756530761719 59.9581298828125 C 8.285614013671875 64.84002685546875 11.24228668212891 69.22504425048828 15.00862884521484 72.99138641357422 C 18.77495574951172 76.75771331787109 23.15997314453125 79.71438598632812 28.0418701171875 81.77925872802734 C 33.09462738037109 83.9163818359375 38.46371459960938 85 44 85 C 49.53628540039062 85 54.9053840637207 83.9163818359375 59.95814514160156 81.77925872802734 C 64.84002685546875 79.71438598632812 69.22504425048828 76.75771331787109 72.99138641357422 72.99138641357422 C 76.75771331787109 69.22504425048828 79.71438598632812 64.84002685546875 81.77925872802734 59.95814514160156 C 83.9163818359375 54.9053840637207 85 49.53628540039062 85 44 C 85 38.46371459960938 83.9163818359375 33.09462738037109 81.77925872802734 28.0418701171875 C 79.71438598632812 23.15997314453125 76.75771331787109 18.77495574951172 72.99138641357422 15.00862884521484 C 69.22504425048828 11.24228668212891 64.84002685546875 8.285614013671875 59.9581298828125 6.220756530761719 C 54.9053840637207 4.083610534667969 49.53628540039062 3 44 3 M 44 0 C 68.30054473876953 0 88 19.69947052001953 88 44 C 88 68.30054473876953 68.30054473876953 88 44 88 C 19.69947052001953 88 0 68.30054473876953 0 44 C 0 19.69947052001953 19.69947052001953 0 44 0 Z" stroke="none" fill="#da53f2"/>
                            </g>
                          </g>
                        </g>
                      </g>
                    </g>
                  </g>
                </g>
              </g>
            </g>
          </g>
        </g>
      </g>
    </g>
    <g id="stats_1350714" transform="translate(198.581 2030.581)">
      <path id="Trazado_1035943" data-name="Trazado 1035943" d="M41.288,37.114l-4.766-4.766a15.89,15.89,0,1,0-4.173,4.173l4.766,4.766Zm0,0" transform="translate(-6.727 -6.726)" fill="#c6c5ca"/>
      <path id="Trazado_1035944" data-name="Trazado 1035944" d="M105.955,60.8a10.715,10.715,0,1,0,3.138,7.576,10.681,10.681,0,0,0-3.138-7.576Zm0,0" transform="translate(-78.617 -51.713)" fill="#898890"/>
      <path id="Trazado_1035945" data-name="Trazado 1035945" d="M283.09,289.616l6.518-6.518,16.011,16.01-6.518,6.518Zm0,0" transform="translate(-253.875 -253.882)" fill="#787680"/>
      <path id="Trazado_1035946" data-name="Trazado 1035946" d="M75.955,60.8a10.715,10.715,0,1,0-7.576,18.291V68.379Zm0,0" transform="translate(-51.713 -51.713)" fill="#ff7956"/>
      <path id="Trazado_1035947" data-name="Trazado 1035947" d="M161.492,172.206a10.681,10.681,0,0,0,7.576-3.138l-7.576-7.576Zm0,0" transform="translate(-144.826 -144.826)" fill="#57a4ff"/>
      <path id="Trazado_1035948" data-name="Trazado 1035948" d="M172.206,95.651a10.682,10.682,0,0,0-3.138-7.577l-7.576,7.577,7.576,7.576a10.681,10.681,0,0,0,3.138-7.576Zm0,0" transform="translate(-144.826 -78.985)" fill="#ffe477"/>
      <path id="Trazado_1035949" data-name="Trazado 1035949" d="M7.5,310.992h5.177v19.969H7.5Zm0,0" transform="translate(-6.726 -278.898)" fill="#b6e892"/>
      <path id="Trazado_1035950" data-name="Trazado 1035950" d="M87.664,394.992h5.177v11.3H87.664Zm0,0" transform="translate(-78.617 -354.229)" fill="#ff7956"/>
      <path id="Trazado_1035951" data-name="Trazado 1035951" d="M167.832,339.84h5.177v16.992h-5.177Zm0,0" transform="translate(-150.512 -304.768)" fill="#b6e892"/>
      <path id="Trazado_1035952" data-name="Trazado 1035952" d="M248,409.52h5.177v9.8H248Zm0,0" transform="translate(-222.403 -367.257)" fill="#ff7956"/>
      <path id="Trazado_1035953" data-name="Trazado 1035953" d="M344.722,59.648a2.051,2.051,0,1,1-2.051-2.051A2.051,2.051,0,0,1,344.722,59.648Zm0,0" transform="translate(-305.469 -51.654)" fill="#57a4ff"/>
      <path id="Trazado_1035954" data-name="Trazado 1035954" d="M406.785,143.2a2.051,2.051,0,1,1-2.051-2.051A2.051,2.051,0,0,1,406.785,143.2Zm0,0" transform="translate(-361.127 -126.581)" fill="#57a4ff"/>
      <path id="Trazado_1035955" data-name="Trazado 1035955" d="M468.847,101.426a2.051,2.051,0,1,1-2.051-2.051A2.051,2.051,0,0,1,468.847,101.426Zm0,0" transform="translate(-416.784 -89.119)" fill="#57a4ff"/>
      <g id="Grupo_1177311" data-name="Grupo 1177311" transform="translate(36.021 0.774)">
        <path id="Trazado_1035956" data-name="Trazado 1035956" d="M349.035,111.137V97.344h2.359l0,13.793Zm0,0" transform="translate(-349.035 -88.072)" fill="#c6c5ca"/>
        <path id="Trazado_1035957" data-name="Trazado 1035957" d="M349.035,12.67V7.5h2.356l0,5.17Zm0,0" transform="translate(-349.035 -7.5)" fill="#c6c5ca"/>
        <path id="Trazado_1035958" data-name="Trazado 1035958" d="M413.463,7.5V21.293H411.1L411.1,7.5Zm0,0" transform="translate(-404.693 -7.5)" fill="#c6c5ca"/>
        <path id="Trazado_1035959" data-name="Trazado 1035959" d="M413.522,180.9v5.17h-2.356l0-5.17Zm0,0" transform="translate(-404.753 -163.001)" fill="#c6c5ca"/>
        <path id="Trazado_1035960" data-name="Trazado 1035960" d="M475.553,139.117V148.6H473.2l0-9.482Zm0,0" transform="translate(-460.382 -125.534)" fill="#c6c5ca"/>
        <path id="Trazado_1035961" data-name="Trazado 1035961" d="M475.553,7.5v9.482H473.2l0-9.482Zm0,0" transform="translate(-460.382 -7.5)" fill="#c6c5ca"/>
      </g>
      <path id="Trazado_1035962" data-name="Trazado 1035962" d="M10.6,23.391A15.894,15.894,0,0,1,24.94,7.574Q24.176,7.5,23.392,7.5a15.892,15.892,0,1,0,0,31.784q.783,0,1.548-.075A15.894,15.894,0,0,1,10.6,23.391Zm0,0" transform="translate(-6.726 -6.725)" fill="#898890"/>
      <path id="Trazado_1035963" data-name="Trazado 1035963" d="M261.286,288.707a15.884,15.884,0,0,1-1.955,1.141l3.625,3.625,1.548-1.548Zm0,0" transform="translate(-232.568 -258.912)" fill="#898890"/>
      <path id="Trazado_1035964" data-name="Trazado 1035964" d="M286.19,289.612l4.97-4.97-1.548-1.548-6.518,6.518L299.1,305.623l1.548-1.548Zm0,0" transform="translate(-253.879 -253.878)" fill="#57565c"/>
      <path id="Trazado_1035965" data-name="Trazado 1035965" d="M60.76,68.379a10.717,10.717,0,0,1,9.167-10.6,10.715,10.715,0,1,0-1.548,21.319V78.64A10.72,10.72,0,0,1,60.76,68.379Zm0,0" transform="translate(-51.713 -51.713)" fill="#ff3f62"/>
      <path id="Trazado_1035966" data-name="Trazado 1035966" d="M164.588,164.588l-3.1-3.1v10.715a10.726,10.726,0,0,0,3.1-.454Zm0,0" transform="translate(-144.826 -144.826)" fill="#006df0"/>
      <path id="Trazado_1035967" data-name="Trazado 1035967" d="M164.588,95.651l5.87-5.87a10.762,10.762,0,0,0-1.389-1.707l-7.576,7.577,7.576,7.576a10.759,10.759,0,0,0,1.389-1.707Zm0,0" transform="translate(-144.826 -78.985)" fill="#ffb655"/>
      <path id="Trazado_1035968" data-name="Trazado 1035968" d="M7.5,310.992h3.1v19.969H7.5Zm0,0" transform="translate(-6.726 -278.898)" fill="#7ccc92"/>
      <path id="Trazado_1035969" data-name="Trazado 1035969" d="M87.664,394.992h3.1v11.3h-3.1Zm0,0" transform="translate(-78.617 -354.229)" fill="#ff3f62"/>
      <path id="Trazado_1035970" data-name="Trazado 1035970" d="M167.832,339.84h3.1v16.992h-3.1Zm0,0" transform="translate(-150.512 -304.768)" fill="#7ccc92"/>
      <path id="Trazado_1035971" data-name="Trazado 1035971" d="M248,409.52h3.1v9.8H248Zm0,0" transform="translate(-222.403 -367.257)" fill="#ff3f62"/>
      <path id="Trazado_1035972" data-name="Trazado 1035972" d="M342.169,59.648a2.051,2.051,0,0,1,1.277-1.9,2.051,2.051,0,1,0,0,3.8,2.051,2.051,0,0,1-1.277-1.9Zm0,0" transform="translate(-305.469 -51.654)" fill="#006df0"/>
      <path id="Trazado_1035973" data-name="Trazado 1035973" d="M404.232,143.2a2.051,2.051,0,0,1,1.277-1.9,2.051,2.051,0,1,0,0,3.8,2.051,2.051,0,0,1-1.277-1.9Zm0,0" transform="translate(-361.127 -126.581)" fill="#006df0"/>
      <path id="Trazado_1035974" data-name="Trazado 1035974" d="M466.294,101.426a2.052,2.052,0,0,1,1.277-1.9,2.051,2.051,0,1,0,0,3.8,2.051,2.051,0,0,1-1.277-1.9Zm0,0" transform="translate(-416.784 -89.119)" fill="#006df0"/>
      <path id="Trazado_1035975" data-name="Trazado 1035975" d="M349.035,97.344h1.032v13.793h-1.032Zm0,0" transform="translate(-313.014 -87.298)" fill="#898890"/>
      <path id="Trazado_1035976" data-name="Trazado 1035976" d="M349.035,7.5h1.032v5.17h-1.032Zm0,0" transform="translate(-313.014 -6.726)" fill="#898890"/>
      <path id="Trazado_1035977" data-name="Trazado 1035977" d="M411.125,7.5h1.032V21.293h-1.032Zm0,0" transform="translate(-368.697 -6.726)" fill="#898890"/>
      <path id="Trazado_1035978" data-name="Trazado 1035978" d="M412.2,186.061l0-5.171h-1.032l0,5.171H412.2Zm0,0" transform="translate(-368.732 -162.222)" fill="#898890"/>
      <path id="Trazado_1035979" data-name="Trazado 1035979" d="M473.2,139.117h1.032V148.6H473.2Zm0,0" transform="translate(-424.368 -124.76)" fill="#898890"/>
      <path id="Trazado_1035980" data-name="Trazado 1035980" d="M473.2,7.5h1.032v9.482H473.2Zm0,0" transform="translate(-424.368 -6.726)" fill="#898890"/>
      <path id="Trazado_1035981" data-name="Trazado 1035981" d="M280.1,272.488l-7.613,7.613,17.105,17.105,7.613-7.613Zm-2.965,10.071,2.573-2.572-1.094-1.095-2.573,2.573-1.363-1.364,5.423-5.423,14.916,14.916-5.423,5.423Zm0,0" transform="translate(-244.367 -244.367)"/>
      <path id="Trazado_1035982" data-name="Trazado 1035982" d="M1.548,305.04H5.177v17.131H6.725V303.492H0v18.679H1.548Zm0,0" transform="translate(0 -272.172)"/>
      <path id="Trazado_1035983" data-name="Trazado 1035983" d="M86.889,397.5v-10.01H80.164V397.5h1.548V389.04h3.629V397.5Zm0,0" transform="translate(-71.891 -347.503)"/>
      <path id="Trazado_1035984" data-name="Trazado 1035984" d="M167.057,348.042v-15.7h-6.725v15.7h1.548V333.888h3.629v14.154Zm0,0" transform="translate(-143.786 -298.042)"/>
      <path id="Trazado_1035985" data-name="Trazado 1035985" d="M247.221,410.53v-8.511H240.5v8.511h1.548v-6.963h3.629v6.963Zm0,0" transform="translate(-215.677 -360.531)"/>
      <path id="Trazado_1035986" data-name="Trazado 1035986" d="M0,496.988H38.287v1.548H0Zm0,0" transform="translate(0 -445.699)"/>
      <path id="Trazado_1035987" data-name="Trazado 1035987" d="M335.946,55.747a2.825,2.825,0,1,0-2.825-2.825A2.828,2.828,0,0,0,335.946,55.747Zm0-4.1a1.277,1.277,0,1,1-1.277,1.277A1.278,1.278,0,0,1,335.946,51.646Zm0,0" transform="translate(-298.743 -44.928)"/>
      <path id="Trazado_1035988" data-name="Trazado 1035988" d="M398.009,139.3a2.825,2.825,0,1,0-2.825-2.825A2.828,2.828,0,0,0,398.009,139.3Zm0-4.1a1.277,1.277,0,1,1-1.277,1.277A1.278,1.278,0,0,1,398.009,135.2Zm0,0" transform="translate(-354.401 -119.856)"/>
      <path id="Trazado_1035989" data-name="Trazado 1035989" d="M460.071,97.524a2.825,2.825,0,1,0-2.825-2.825A2.828,2.828,0,0,0,460.071,97.524Zm0-4.1a1.277,1.277,0,1,1-1.277,1.277A1.278,1.278,0,0,1,460.071,93.423Zm0,0" transform="translate(-410.058 -82.393)"/>
      <path id="Trazado_1035990" data-name="Trazado 1035990" d="M341.535,112.34v13.019h3.913l-.005-13.019h-1.548l0,11.471h-.816V112.34Zm0,0" transform="translate(-306.288 -100.746)"/>
      <path id="Trazado_1035991" data-name="Trazado 1035991" d="M343.083,1.548h.809V4.4h1.548l0-4.4h-3.9V4.4h1.548Zm0,0" transform="translate(-306.288 0)"/>
      <path id="Trazado_1035992" data-name="Trazado 1035992" d="M405.15,13.019l0-11.471h.816V13.019h1.548V0H403.6l.005,13.019Zm0,0" transform="translate(-361.946 0)"/>
      <path id="Trazado_1035993" data-name="Trazado 1035993" d="M405.214,198.739l0-2.848h-1.548l0,4.4h3.9v-4.4h-1.548v2.848Zm0,0" transform="translate(-362.006 -175.674)"/>
      <path id="Trazado_1035994" data-name="Trazado 1035994" d="M467.245,161.273l0-7.16H465.7l0,8.708h3.9v-8.708h-1.548v7.16Zm0,0" transform="translate(-417.635 -138.209)"/>
      <path id="Trazado_1035995" data-name="Trazado 1035995" d="M467.241,8.707l0-7.159h.81v7.16H469.6V0h-3.906l0,8.708Zm0,0" transform="translate(-417.632 0)"/>
      <path id="Trazado_1035996" data-name="Trazado 1035996" d="M69.777,69.776A11.482,11.482,0,0,0,71.19,55.244l-1.284.864a9.938,9.938,0,0,1-.7,12l-6.461-6.461,7.577-7.577-.547-.547a11.489,11.489,0,1,0-8.124,19.613h.774v-9.62l6.8,6.8Zm-8.9,1.787A9.941,9.941,0,1,1,68.114,54.1l-7.235,7.235Zm0,0" transform="translate(-44.987 -44.987)"/>
      <path id="Trazado_1035997" data-name="Trazado 1035997" d="M180.352,244.484a11.381,11.381,0,0,0,4.2-1.739l-.864-1.284a9.839,9.839,0,0,1-3.628,1.5Zm0,0" transform="translate(-161.473 -216.542)"/>
      <path id="Trazado_1035998" data-name="Trazado 1035998" d="M16.666,33.332a16.576,16.576,0,0,0,8.854-2.545l2.861,2.862,1.094-1.095-2.665-2.665a16.763,16.763,0,0,0,1.819-1.621l-1.111-1.078a15.263,15.263,0,0,1-2.331,1.965h0a15.115,15.115,0,1,1,3.971-3.971l-.362.53,3.76,3.76,1.094-1.094L30.788,25.52a16.667,16.667,0,1,0-14.121,7.812Zm0,0" transform="translate(0 0)"/>
    </g>
  </g>
</svg>
