<svg xmlns="http://www.w3.org/2000/svg" xmlns:xlink="http://www.w3.org/1999/xlink" width="113" height="113" viewBox="0 0 113 113">
  <defs>
    <filter id="Trazado_982547" x="0" y="0" width="113" height="113" filterUnits="userSpaceOnUse">
      <feOffset dy="3" input="SourceAlpha"/>
      <feGaussianBlur stdDeviation="3" result="blur"/>
      <feFlood flood-opacity="0.161"/>
      <feComposite operator="in" in2="blur"/>
      <feComposite in="SourceGraphic"/>
    </filter>
  </defs>
  <g id="Grupo_1177406" data-name="Grupo 1177406" transform="translate(-376 -2199.308)">
    <g id="Grupo_1177302" data-name="Grupo 1177302" transform="translate(385 2205.308)">
      <g id="Grupo_1176922" data-name="Grupo 1176922" transform="translate(0 0)">
        <g id="Grupo_1172322" data-name="Grupo 1172322">
          <g id="Grupo_1164700" data-name="Grupo 1164700">
            <g id="Grupo_1160931" data-name="Grupo 1160931">
              <g id="Grupo_1160749" data-name="Grupo 1160749">
                <g id="Grupo_1158891" data-name="Grupo 1158891">
                  <g id="Grupo_1157406" data-name="Grupo 1157406">
                    <g id="Grupo_1155793" data-name="Grupo 1155793">
                      <g id="Grupo_1154704" data-name="Grupo 1154704">
                        <g id="Grupo_1150790" data-name="Grupo 1150790">
                          <g id="Grupo_1154214" data-name="Grupo 1154214">
                            <g id="Grupo_1152583" data-name="Grupo 1152583">
                              <g id="Grupo_1146973" data-name="Grupo 1146973">
                                <g id="Grupo_1146954" data-name="Grupo 1146954">
                                  <g transform="matrix(1, 0, 0, 1, -9, -6)" filter="url(#Trazado_982547)">
                                    <g id="Trazado_982547-2" data-name="Trazado 982547" transform="translate(9 6)" fill="#fbecfd">
                                      <path d="M 47.5000114440918 93.49987030029297 C 41.28938293457031 93.49987030029297 35.26534652709961 92.28384399414062 29.5951976776123 89.88558959960938 C 24.11773109436035 87.56881713867188 19.19814491271973 84.25183868408203 14.97310447692871 80.02680206298828 C 10.74805164337158 75.80176544189453 7.43107795715332 70.88218688964844 5.114304542541504 65.40472412109375 C 2.716038227081299 59.73458862304688 1.500011444091797 53.71054840087891 1.500011444091797 47.49993515014648 C 1.500011444091797 41.28932189941406 2.716038227081299 35.26528167724609 5.114304542541504 29.59514808654785 C 7.43107795715332 24.1176815032959 10.74805164337158 19.1981086730957 14.97310447692871 14.97306823730469 C 19.19814491271973 10.74802875518799 24.11773109436035 7.431055068969727 29.5951976776123 5.11428165435791 C 35.26534652709961 2.716028451919556 41.28938293457031 1.500001788139343 47.5000114440918 1.500001788139343 C 53.71063995361328 1.500001788139343 59.73467636108398 2.716028451919556 65.40482330322266 5.11428165435791 C 70.88229370117188 7.431055068969727 75.8018798828125 10.74802875518799 80.02691650390625 14.97306823730469 C 84.25196838378906 19.1981086730957 87.56894683837891 24.1176815032959 89.88571929931641 29.59514808654785 C 92.28398132324219 35.26528167724609 93.50001525878906 41.28932189941406 93.50001525878906 47.49993515014648 C 93.50001525878906 53.71054840087891 92.28398132324219 59.73458862304688 89.88571929931641 65.40472412109375 C 87.56894683837891 70.88218688964844 84.25196838378906 75.80176544189453 80.02691650390625 80.02680206298828 C 75.8018798828125 84.25183868408203 70.88229370117188 87.56881713867188 65.40482330322266 89.88558959960938 C 59.73467636108398 92.28384399414062 53.71063995361328 93.49987030029297 47.5000114440918 93.49987030029297 Z" stroke="none"/>
                                      <path d="M 47.5000114440918 3 C 41.49122619628906 3 35.66378021240234 4.1761474609375 30.17951965332031 6.495796203613281 C 24.880859375 8.7369384765625 20.12153625488281 11.94596862792969 16.03376770019531 16.03373718261719 C 11.94598388671875 20.12149047851562 8.736968994140625 24.88081359863281 6.495811462402344 30.17947387695312 C 4.176162719726562 35.66371917724609 3.000007629394531 41.49116516113281 3.000007629394531 47.49993515014648 C 3.000007629394531 53.50870513916016 4.176162719726562 59.33615112304688 6.495811462402344 64.82039642333984 C 8.736968994140625 70.11905670166016 11.94598388671875 74.87837982177734 16.03376770019531 78.96613311767578 C 20.12153625488281 83.05390167236328 24.880859375 86.26293182373047 30.17951965332031 88.50407409667969 C 35.66378021240234 90.82372283935547 41.49122619628906 91.99987030029297 47.5000114440918 91.99987030029297 C 53.50879669189453 91.99987030029297 59.33624267578125 90.82372283935547 64.82050323486328 88.50407409667969 C 70.11916351318359 86.26293182373047 74.87848663330078 83.05390167236328 78.96625518798828 78.96613311767578 C 83.05403900146484 74.87837982177734 86.2630615234375 70.11905670166016 88.50421142578125 64.82039642333984 C 90.82386016845703 59.33615112304688 92.00001525878906 53.50870513916016 92.00001525878906 47.49993515014648 C 92.00001525878906 41.49116516113281 90.82386016845703 35.66371917724609 88.50421142578125 30.17947387695312 C 86.2630615234375 24.88081359863281 83.05403900146484 20.12149047851562 78.96625518798828 16.03373718261719 C 74.87848663330078 11.94596862792969 70.11916351318359 8.7369384765625 64.82050323486328 6.495796203613281 C 59.33624267578125 4.1761474609375 53.50879669189453 3 47.5000114440918 3 M 47.5000114440918 0 C 73.73353576660156 0 95.00001525878906 21.26644134521484 95.00001525878906 47.49993515014648 C 95.00001525878906 73.73342895507812 73.73353576660156 94.99987030029297 47.5000114440918 94.99987030029297 C 21.26648712158203 94.99987030029297 7.62939453125e-06 73.73342895507812 7.62939453125e-06 47.49993515014648 C 7.62939453125e-06 21.26644134521484 21.26648712158203 0 47.5000114440918 0 Z" stroke="none" fill="#da53f2"/>
                                    </g>
                                  </g>
                                </g>
                              </g>
                            </g>
                          </g>
                        </g>
                      </g>
                    </g>
                  </g>
                </g>
              </g>
            </g>
          </g>
        </g>
      </g>
    </g>
    <g id="observation_12871425" transform="translate(379.38 2191.27)">
      <g id="Grupo_1177373" data-name="Grupo 1177373" transform="translate(39.26 48.656)">
        <circle id="Elipse_12453" data-name="Elipse 12453" cx="3.658" cy="3.658" r="3.658" transform="translate(0 6.76) rotate(-67.486)" fill="#46b1fb"/>
      </g>
      <g id="Grupo_1177374" data-name="Grupo 1177374" transform="translate(35.52 46.505)">
        <path id="Trazado_1036207" data-name="Trazado 1036207" d="M108.112,123.949a3.658,3.658,0,1,1-3.658,3.658,3.658,3.658,0,0,1,3.658-3.658Zm8.512.95a10.7,10.7,0,0,0-17.024,0,3.657,3.657,0,0,1,0,5.417,10.7,10.7,0,0,0,17.024,0,3.657,3.657,0,0,1,0-5.417Z" transform="translate(-99.6 -120.68)" fill="#fff"/>
      </g>
      <g id="Grupo_1177375" data-name="Grupo 1177375" transform="translate(51.344 50.723)">
        <path id="Trazado_1036208" data-name="Trazado 1036208" d="M217.419,151.77a3.657,3.657,0,0,0,0,5.417,10.664,10.664,0,0,0,1.5-2.708A10.664,10.664,0,0,0,217.419,151.77Z" transform="translate(-216.22 -151.77)" fill="#fdc29c"/>
      </g>
      <g id="Grupo_1177376" data-name="Grupo 1177376" transform="translate(34.018 50.723)">
        <path id="Trazado_1036209" data-name="Trazado 1036209" d="M91.232,154.478a3.648,3.648,0,0,0-1.2-2.708,10.664,10.664,0,0,0-1.5,2.708,10.664,10.664,0,0,0,1.5,2.708A3.648,3.648,0,0,0,91.232,154.478Z" transform="translate(-88.53 -151.77)" fill="#fdc29c"/>
      </g>
      <g id="Grupo_1177377" data-name="Grupo 1177377" transform="translate(30.808 40.208)">
        <path id="Trazado_1036210" data-name="Trazado 1036210" d="M69.587,84.79A10.7,10.7,0,0,1,88.112,87.5a10.7,10.7,0,0,1-20.028,0,10.664,10.664,0,0,1,1.5-2.708Zm17.862-6.642a13.223,13.223,0,1,0,0,18.7A13.223,13.223,0,0,0,87.449,78.148Z" transform="translate(-64.875 -74.275)" fill="aqua"/>
      </g>
      <g id="Grupo_1177378" data-name="Grupo 1177378" transform="translate(26.111 35.511)">
        <path id="Trazado_1036211" data-name="Trazado 1036211" d="M38.826,48.226a13.223,13.223,0,1,1,0,18.7,13.223,13.223,0,0,1,0-18.7ZM60.848,70.248a17.909,17.909,0,1,0-6.675,4.22A17.847,17.847,0,0,0,60.848,70.248Z" transform="translate(-30.255 -39.655)" fill="#34495e"/>
      </g>
      <g id="Grupo_1177379" data-name="Grupo 1177379" transform="translate(50.029 59.429)">
        <path id="Trazado_1036212" data-name="Trazado 1036212" d="M217.424,215.93a17.963,17.963,0,0,1-10.894,10.894l.569.569a5.82,5.82,0,0,0,8.206,0l1.343-1.343,1.343-1.343a5.822,5.822,0,0,0,0-8.208Z" transform="translate(-206.53 -215.93)" fill="#485b6e"/>
      </g>
      <g id="Grupo_1177380" data-name="Grupo 1177380" transform="translate(63.64 73.04)">
        <path id="Trazado_1036213" data-name="Trazado 1036213" d="M314.482,317.547a4.48,4.48,0,0,0-6.335,6.335l9.719,9.719a4.48,4.48,0,0,0,6.335-6.335Z" transform="translate(-306.84 -316.24)" fill="#ff8e31"/>
      </g>
      <g id="Grupo_1177381" data-name="Grupo 1177381" transform="translate(55.563 77.986)">
        <path id="Trazado_1036214" data-name="Trazado 1036214" d="M247.31,352.69H251.3v13.722H247.31Z" transform="translate(-247.31 -352.69)" fill="#ffdf40"/>
      </g>
      <g id="Grupo_1177382" data-name="Grupo 1177382" transform="translate(47.269 82.279)">
        <path id="Trazado_1036215" data-name="Trazado 1036215" d="M186.19,384.33h3.989v9.429H186.19Z" transform="translate(-186.19 -384.33)" fill="#ff4756"/>
      </g>
      <g id="Grupo_1177383" data-name="Grupo 1177383" transform="translate(38.976 75.45)">
        <path id="Trazado_1036216" data-name="Trazado 1036216" d="M125.07,334h3.989v16.258H125.07Z" transform="translate(-125.07 -334)" fill="#f28a29"/>
      </g>
      <g id="Grupo_1177384" data-name="Grupo 1177384" transform="translate(30.684 72.619)">
        <path id="Trazado_1036217" data-name="Trazado 1036217" d="M63.96,313.14h3.989v19.089H63.96Z" transform="translate(-63.96 -313.14)" fill="#0193fa"/>
      </g>
      <g id="Grupo_1177405" data-name="Grupo 1177405" transform="translate(25.46 34.86)">
        <g id="Grupo_1177385" data-name="Grupo 1177385" transform="translate(0 0.001)">
          <path id="Trazado_1036218" data-name="Trazado 1036218" d="M44.032,72a18.556,18.556,0,1,1,13.132-5.43A18.514,18.514,0,0,1,44.032,72Zm0-35.833A17.271,17.271,0,1,0,56.242,41.23a17.151,17.151,0,0,0-12.211-5.058Z" transform="translate(-25.46 -34.87)"/>
        </g>
        <g id="Grupo_1177386" data-name="Grupo 1177386" transform="translate(4.698 4.698)">
          <path id="Trazado_1036219" data-name="Trazado 1036219" d="M73.954,97.228a13.875,13.875,0,1,1,9.81-4.064A13.784,13.784,0,0,1,73.954,97.228Zm0-26.446a12.573,12.573,0,1,0,8.889,3.683,12.488,12.488,0,0,0-8.889-3.683Z" transform="translate(-60.08 -69.48)"/>
        </g>
        <g id="Grupo_1177387" data-name="Grupo 1177387" transform="translate(23.917 23.918)">
          <path id="Trazado_1036220" data-name="Trazado 1036220" d="M207.044,225.585a6.41,6.41,0,0,1-4.565-1.883l-.569-.569a.651.651,0,1,1,.921-.921l.569.569a5.169,5.169,0,0,0,7.286,0l2.687-2.687a5.169,5.169,0,0,0,0-7.286l-.569-.569a.651.651,0,0,1,.921-.921l.569.569a6.473,6.473,0,0,1,0,9.129l-2.687,2.687A6.41,6.41,0,0,1,207.044,225.585Z" transform="translate(-201.72 -211.127)"/>
        </g>
        <g id="Grupo_1177388" data-name="Grupo 1177388" transform="translate(34.039 34.037)">
          <path id="Trazado_1036221" data-name="Trazado 1036221" d="M281.766,291.808a.645.645,0,0,1-.46-.191l-4.8-4.8a.651.651,0,0,1,.921-.921l4.8,4.8a.652.652,0,0,1-.461,1.113Z" transform="translate(-276.317 -285.708)"/>
        </g>
        <g id="Grupo_1177389" data-name="Grupo 1177389" transform="translate(37.525 37.525)">
          <path id="Trazado_1036222" data-name="Trazado 1036222" d="M316.863,331.389a5.094,5.094,0,0,1-3.628-1.5l-9.719-9.719a5.131,5.131,0,1,1,7.257-7.257l9.719,9.719a5.126,5.126,0,0,1-3.628,8.755Zm-12.886-18.013.46.46a3.834,3.834,0,0,0,0,5.415l9.719,9.719a3.829,3.829,0,0,0,5.414-5.415l-9.719-9.719a3.833,3.833,0,0,0-5.414,0Z" transform="translate(-302.015 -311.415)"/>
        </g>
        <g id="Grupo_1177390" data-name="Grupo 1177390" transform="translate(7.907 10.994)">
          <path id="Trazado_1036223" data-name="Trazado 1036223" d="M94.4,131.036a11.406,11.406,0,0,1-10.623-7.349.651.651,0,0,1,0-.459,11.352,11.352,0,0,1,21.246,0,.651.651,0,0,1,0,.459A11.406,11.406,0,0,1,94.4,131.036Zm-9.314-7.578a10.051,10.051,0,0,0,18.63,0,10.051,10.051,0,0,0-18.63,0Z" transform="translate(-83.732 -115.88)"/>
        </g>
        <g id="Grupo_1177391" data-name="Grupo 1177391" transform="translate(9.409 15.212)">
          <path id="Trazado_1036224" data-name="Trazado 1036224" d="M95.454,153.686a.651.651,0,0,1-.437-1.133,3.006,3.006,0,0,0,0-4.453.651.651,0,1,1,.875-.965,4.312,4.312,0,0,1,0,6.383A.653.653,0,0,1,95.454,153.686Z" transform="translate(-94.803 -146.967)"/>
        </g>
        <g id="Grupo_1177392" data-name="Grupo 1177392" transform="translate(25.233 15.21)">
          <path id="Trazado_1036225" data-name="Trazado 1036225" d="M213.271,153.675a.648.648,0,0,1-.438-.17,4.312,4.312,0,0,1,0-6.383.651.651,0,0,1,.875.965,3.006,3.006,0,0,0,0,4.453.652.652,0,0,1,.045.92A.643.643,0,0,1,213.271,153.675Z" transform="translate(-211.42 -146.953)"/>
        </g>
        <g id="Grupo_1177393" data-name="Grupo 1177393" transform="translate(14.262 14.264)">
          <path id="Trazado_1036226" data-name="Trazado 1036226" d="M134.879,148.6a4.309,4.309,0,1,1,4.309-4.309A4.315,4.315,0,0,1,134.879,148.6Zm0-7.318a3.007,3.007,0,1,0,3.007,3.007A3.01,3.01,0,0,0,134.879,141.281Z" transform="translate(-130.57 -139.98)"/>
        </g>
        <g id="Grupo_1177394" data-name="Grupo 1177394" transform="translate(44.948 28.294)">
          <path id="Trazado_1036227" data-name="Trazado 1036227" d="M371.041,244.683H357.371a.651.651,0,0,1,0-1.3h13.669a.651.651,0,0,1,0,1.3Z" transform="translate(-356.72 -243.38)"/>
        </g>
        <g id="Grupo_1177395" data-name="Grupo 1177395" transform="translate(39.69 22.634)">
          <path id="Trazado_1036228" data-name="Trazado 1036228" d="M337.549,202.973H318.621a.651.651,0,0,1,0-1.3h18.927a.651.651,0,0,1,0,1.3Z" transform="translate(-317.97 -201.67)"/>
        </g>
        <g id="Grupo_1177396" data-name="Grupo 1177396" transform="translate(39.69 16.976)">
          <path id="Trazado_1036229" data-name="Trazado 1036229" d="M337.549,161.273H318.621a.651.651,0,0,1,0-1.3h18.927a.651.651,0,1,1,0,1.3Z" transform="translate(-317.97 -159.97)"/>
        </g>
        <g id="Grupo_1177397" data-name="Grupo 1177397" transform="translate(39.69 11.318)">
          <path id="Trazado_1036230" data-name="Trazado 1036230" d="M337.549,119.573H318.621a.651.651,0,1,1,0-1.3h18.927a.651.651,0,1,1,0,1.3Z" transform="translate(-317.97 -118.27)"/>
        </g>
        <g id="Grupo_1177398" data-name="Grupo 1177398" transform="translate(39.69 5.658)">
          <path id="Trazado_1036231" data-name="Trazado 1036231" d="M337.549,77.863H318.621a.651.651,0,1,1,0-1.3h18.927a.651.651,0,0,1,0,1.3Z" transform="translate(-317.97 -76.56)"/>
        </g>
        <g id="Grupo_1177399" data-name="Grupo 1177399" transform="translate(29.48)">
          <path id="Trazado_1036232" data-name="Trazado 1036232" d="M272.509,36.163H243.371a.651.651,0,1,1,0-1.3h29.138a.651.651,0,0,1,0,1.3Z" transform="translate(-242.72 -34.86)"/>
        </g>
        <g id="Grupo_1177400" data-name="Grupo 1177400" transform="translate(1.64 56.197)">
          <path id="Trazado_1036233" data-name="Trazado 1036233" d="M72.934,450.323H38.2a.651.651,0,0,1,0-1.3H72.934a.651.651,0,0,1,0,1.3Z" transform="translate(-37.55 -449.02)"/>
        </g>
        <g id="Grupo_1177401" data-name="Grupo 1177401" transform="translate(4.573 37.108)">
          <path id="Trazado_1036234" data-name="Trazado 1036234" d="M63.8,328.731a.651.651,0,0,1-.651-.651V309.643H60.463V328.08a.651.651,0,0,1-1.3,0V308.991a.651.651,0,0,1,.651-.651H63.8a.651.651,0,0,1,.651.651V328.08A.651.651,0,0,1,63.8,328.731Z" transform="translate(-59.16 -308.34)"/>
        </g>
        <g id="Grupo_1177402" data-name="Grupo 1177402" transform="translate(12.866 39.939)">
          <path id="Trazado_1036235" data-name="Trazado 1036235" d="M124.921,346.761a.651.651,0,0,1-.651-.651V330.5h-2.687v15.607a.651.651,0,0,1-1.3,0V329.851a.651.651,0,0,1,.651-.651h3.989a.651.651,0,0,1,.651.651V346.11a.651.651,0,0,1-.651.651Z" transform="translate(-120.28 -329.2)"/>
        </g>
        <g id="Grupo_1177403" data-name="Grupo 1177403" transform="translate(21.159 46.768)">
          <path id="Trazado_1036236" data-name="Trazado 1036236" d="M186.041,390.262a.651.651,0,0,1-.651-.651v-8.778H182.7v8.778a.651.651,0,1,1-1.3,0v-9.429a.651.651,0,0,1,.651-.651h3.989a.651.651,0,0,1,.651.651v9.429A.651.651,0,0,1,186.041,390.262Z" transform="translate(-181.4 -379.53)"/>
        </g>
        <g id="Grupo_1177404" data-name="Grupo 1177404" transform="translate(29.451 42.475)">
          <path id="Trazado_1036237" data-name="Trazado 1036237" d="M247.151,362.915a.651.651,0,0,1-.651-.651V349.193h-2.687v13.071a.651.651,0,1,1-1.3,0V348.541a.651.651,0,0,1,.651-.651h3.989a.651.651,0,0,1,.651.651v13.722A.651.651,0,0,1,247.151,362.915Z" transform="translate(-242.51 -347.89)"/>
        </g>
      </g>
    </g>
  </g>
</svg>
