<svg xmlns="http://www.w3.org/2000/svg" xmlns:xlink="http://www.w3.org/1999/xlink" width="113" height="113" viewBox="0 0 113 113">
  <defs>
    <filter id="Trazado_982547" x="0" y="0" width="113" height="113" filterUnits="userSpaceOnUse">
      <feOffset dy="3" input="SourceAlpha"/>
      <feGaussianBlur stdDeviation="3" result="blur"/>
      <feFlood flood-opacity="0.161"/>
      <feComposite operator="in" in2="blur"/>
      <feComposite in="SourceGraphic"/>
    </filter>
  </defs>
  <g id="Grupo_1177412" data-name="Grupo 1177412" transform="translate(-692 -2199.308)">
    <g id="Grupo_1177303" data-name="Grupo 1177303" transform="translate(701 2205.308)">
      <g id="Grupo_1176923" data-name="Grupo 1176923" transform="translate(0 0)">
        <g id="Grupo_1172323" data-name="Grupo 1172323">
          <g id="Grupo_1166163" data-name="Grupo 1166163">
            <g id="Grupo_1164700" data-name="Grupo 1164700">
              <g id="Grupo_1160931" data-name="Grupo 1160931">
                <g id="Grupo_1160749" data-name="Grupo 1160749">
                  <g id="Grupo_1158891" data-name="Grupo 1158891">
                    <g id="Grupo_1157406" data-name="Grupo 1157406">
                      <g id="Grupo_1155793" data-name="Grupo 1155793">
                        <g id="Grupo_1154704" data-name="Grupo 1154704">
                          <g id="Grupo_1150790" data-name="Grupo 1150790">
                            <g id="Grupo_1154214" data-name="Grupo 1154214">
                              <g id="Grupo_1152583" data-name="Grupo 1152583">
                                <g id="Grupo_1146973" data-name="Grupo 1146973">
                                  <g id="Grupo_1146954" data-name="Grupo 1146954">
                                    <g transform="matrix(1, 0, 0, 1, -9, -6)" filter="url(#Trazado_982547)">
                                      <g id="Trazado_982547-2" data-name="Trazado 982547" transform="translate(9 6)" fill="#fbecfd">
                                        <path d="M 47.5000114440918 93.49987030029297 C 41.28938293457031 93.49987030029297 35.26534652709961 92.28384399414062 29.5951976776123 89.88558959960938 C 24.11773109436035 87.56881713867188 19.19814491271973 84.25183868408203 14.97310447692871 80.02680206298828 C 10.74805164337158 75.80176544189453 7.43107795715332 70.88218688964844 5.114304542541504 65.40472412109375 C 2.716038227081299 59.73458862304688 1.500011444091797 53.71054840087891 1.500011444091797 47.49993515014648 C 1.500011444091797 41.28932189941406 2.716038227081299 35.26528167724609 5.114304542541504 29.59514808654785 C 7.43107795715332 24.1176815032959 10.74805164337158 19.1981086730957 14.97310447692871 14.97306823730469 C 19.19814491271973 10.74802875518799 24.11773109436035 7.431055068969727 29.5951976776123 5.11428165435791 C 35.26534652709961 2.716028451919556 41.28938293457031 1.500001788139343 47.5000114440918 1.500001788139343 C 53.71063995361328 1.500001788139343 59.73467636108398 2.716028451919556 65.40482330322266 5.11428165435791 C 70.88229370117188 7.431055068969727 75.8018798828125 10.74802875518799 80.02691650390625 14.97306823730469 C 84.25196838378906 19.1981086730957 87.56894683837891 24.1176815032959 89.88571929931641 29.59514808654785 C 92.28398132324219 35.26528167724609 93.50001525878906 41.28932189941406 93.50001525878906 47.49993515014648 C 93.50001525878906 53.71054840087891 92.28398132324219 59.73458862304688 89.88571929931641 65.40472412109375 C 87.56894683837891 70.88218688964844 84.25196838378906 75.80176544189453 80.02691650390625 80.02680206298828 C 75.8018798828125 84.25183868408203 70.88229370117188 87.56881713867188 65.40482330322266 89.88558959960938 C 59.73467636108398 92.28384399414062 53.71063995361328 93.49987030029297 47.5000114440918 93.49987030029297 Z" stroke="none"/>
                                        <path d="M 47.5000114440918 3 C 41.49122619628906 3 35.66378021240234 4.1761474609375 30.17951965332031 6.495796203613281 C 24.880859375 8.7369384765625 20.12153625488281 11.94596862792969 16.03376770019531 16.03373718261719 C 11.94598388671875 20.12149047851562 8.736968994140625 24.88081359863281 6.495811462402344 30.17947387695312 C 4.176162719726562 35.66371917724609 3.000007629394531 41.49116516113281 3.000007629394531 47.49993515014648 C 3.000007629394531 53.50870513916016 4.176162719726562 59.33615112304688 6.495811462402344 64.82039642333984 C 8.736968994140625 70.11905670166016 11.94598388671875 74.87837982177734 16.03376770019531 78.96613311767578 C 20.12153625488281 83.05390167236328 24.880859375 86.26293182373047 30.17951965332031 88.50407409667969 C 35.66378021240234 90.82372283935547 41.49122619628906 91.99987030029297 47.5000114440918 91.99987030029297 C 53.50879669189453 91.99987030029297 59.33624267578125 90.82372283935547 64.82050323486328 88.50407409667969 C 70.11916351318359 86.26293182373047 74.87848663330078 83.05390167236328 78.96625518798828 78.96613311767578 C 83.05403900146484 74.87837982177734 86.2630615234375 70.11905670166016 88.50421142578125 64.82039642333984 C 90.82386016845703 59.33615112304688 92.00001525878906 53.50870513916016 92.00001525878906 47.49993515014648 C 92.00001525878906 41.49116516113281 90.82386016845703 35.66371917724609 88.50421142578125 30.17947387695312 C 86.2630615234375 24.88081359863281 83.05403900146484 20.12149047851562 78.96625518798828 16.03373718261719 C 74.87848663330078 11.94596862792969 70.11916351318359 8.7369384765625 64.82050323486328 6.495796203613281 C 59.33624267578125 4.1761474609375 53.50879669189453 3 47.5000114440918 3 M 47.5000114440918 0 C 73.73353576660156 0 95.00001525878906 21.26644134521484 95.00001525878906 47.49993515014648 C 95.00001525878906 73.73342895507812 73.73353576660156 94.99987030029297 47.5000114440918 94.99987030029297 C 21.26648712158203 94.99987030029297 7.62939453125e-06 73.73342895507812 7.62939453125e-06 47.49993515014648 C 7.62939453125e-06 21.26644134521484 21.26648712158203 0 47.5000114440918 0 Z" stroke="none" fill="#da53f2"/>
                                      </g>
                                    </g>
                                  </g>
                                </g>
                              </g>
                            </g>
                          </g>
                        </g>
                      </g>
                    </g>
                  </g>
                </g>
              </g>
            </g>
          </g>
        </g>
      </g>
    </g>
    <g id="problem-solving_11532812" transform="translate(670.91 2211.007)">
      <g id="Grupo_1177411" data-name="Grupo 1177411" transform="translate(49.573 16.06)">
        <g id="Grupo_1177407" data-name="Grupo 1177407" transform="translate(23.142)">
          <path id="Trazado_1036238" data-name="Trazado 1036238" d="M286.934,299.023h5.879v2.99a1.788,1.788,0,0,1-1.783,1.783h-2.314a1.788,1.788,0,0,1-1.783-1.783Z" transform="translate(-278.843 -267.417)" fill="#b1b1b5" fill-rule="evenodd"/>
          <path id="Trazado_1036239" data-name="Trazado 1036239" d="M273.519,267.435h9.536v3.73a1.788,1.788,0,0,1-1.783,1.783H275.3a1.788,1.788,0,0,1-1.783-1.783Z" transform="translate(-267.256 -240.135)" fill="#d1d1d6" fill-rule="evenodd"/>
          <path id="Trazado_1036240" data-name="Trazado 1036240" d="M316.951,281.712v1.783a1.768,1.768,0,0,1-.1.576,1.79,1.79,0,0,1-1.687,1.207h2.077a1.788,1.788,0,0,0,1.783-1.783v-1.784h-2.077Z" transform="translate(-303.229 -252.465)" fill="#b1b1b5" fill-rule="evenodd"/>
          <path id="Trazado_1036241" data-name="Trazado 1036241" d="M260,242.492h13.1v3.564a1.788,1.788,0,0,1-1.783,1.783h-9.536A1.788,1.788,0,0,1,260,246.056v-3.564Z" transform="translate(-255.581 -218.591)" fill="#eceff1" fill-rule="evenodd"/>
          <path id="Trazado_1036242" data-name="Trazado 1036242" d="M329.594,255.555v1.783a1.788,1.788,0,0,1-1.783,1.783h2.136a1.788,1.788,0,0,0,1.723-1.782v-1.783h-2.077Z" transform="translate(-314.148 -229.874)" fill="#d1d1d6" fill-rule="evenodd"/>
          <path id="Trazado_1036243" data-name="Trazado 1036243" d="M238.54,67.133A10.971,10.971,0,0,1,249.511,78.1c0,6.093-3.892,5.729-4.42,14.71h-13.1c-.528-8.981-4.42-8.617-4.42-14.71A10.971,10.971,0,0,1,238.54,67.133Z" transform="translate(-227.569 -67.133)" fill="#ffe177" fill-rule="evenodd"/>
          <path id="Trazado_1036244" data-name="Trazado 1036244" d="M300.446,67.182A10.972,10.972,0,0,1,310.379,78.1c0,5.66-3.358,5.748-4.259,12.93-.069.55-.124,1.142-.161,1.781h2.077c.528-8.981,4.42-8.617,4.42-14.71a10.971,10.971,0,0,0-10.971-10.971Q300.959,67.133,300.446,67.182Z" transform="translate(-290.513 -67.133)" fill="#ffd064" fill-rule="evenodd"/>
        </g>
        <g id="Grupo_1177408" data-name="Grupo 1177408" transform="translate(0 36.994)">
          <path id="Trazado_1036245" data-name="Trazado 1036245" d="M82.455,345.777l9.981-5.783c1.873-1.085,3.778-1.855,5.837-1.187a70.171,70.171,0,0,0,9.867,3.032,2.773,2.773,0,0,1,1.918,3.322,2.684,2.684,0,0,1-3.322,1.918l1.336.214a6.222,6.222,0,0,0,4.278-.745l9.6-5.589c7.46-4.345,8.555,2.339,6.075,3.866l-17.415,10.724a6.386,6.386,0,0,1-5.171.729L92.8,352.893l-4.678,2.7a1.889,1.889,0,0,1-2.576-.69l-3.783-6.552a1.89,1.89,0,0,1,.688-2.575Z" transform="translate(-78.281 -338.558)" fill="#f6dccd" fill-rule="evenodd"/>
          <path id="Trazado_1036246" data-name="Trazado 1036246" d="M225.47,376.294a2.739,2.739,0,0,1-3.094,1.32c-2.069-.547-4.136-1.108-6.2-1.662a1.038,1.038,0,1,1,.537-2.005Z" transform="translate(-193.919 -369.093)" fill="#f1cbbc" fill-rule="evenodd"/>
          <path id="Trazado_1036247" data-name="Trazado 1036247" d="M82.456,345.777l9.981-5.783c1.873-1.085,3.778-1.855,5.837-1.187,1.228.4,2.872,1.041,4.721,1.658L83.66,351.629l-1.892-3.277a1.889,1.889,0,0,1,.688-2.575Z" transform="translate(-78.281 -338.558)" fill="#f1cbbc" fill-rule="evenodd"/>
          <path id="Trazado_1036248" data-name="Trazado 1036248" d="M63.112,365.883l7.916,13.987a1.417,1.417,0,0,1-.534,1.926L67.8,383.319a1.417,1.417,0,0,1-1.926-.534L57.96,368.8a1.417,1.417,0,0,1,.534-1.926l2.693-1.524A1.417,1.417,0,0,1,63.112,365.883Z" transform="translate(-57.778 -361.54)" fill="#d1d1d6" fill-rule="evenodd"/>
          <path id="Trazado_1036249" data-name="Trazado 1036249" d="M90.65,375.492l1.4,2.476,1.386,2.448a1.417,1.417,0,0,1-.53,1.923l.962-.544a1.417,1.417,0,0,0,.534-1.926l-1.39-2.456-2.791-4.932-2.795-4.938-.94-1.661a1.419,1.419,0,0,0-1.646-.654l1.627,2.875,2.791,4.932,1.39,2.456Z" transform="translate(-81.152 -361.54)" fill="#b1b1b5" fill-rule="evenodd"/>
        </g>
        <g id="Grupo_1177410" data-name="Grupo 1177410" transform="translate(38.835 15.824)">
          <g id="Grupo_1177409" data-name="Grupo 1177409">
            <circle id="Elipse_12454" data-name="Elipse 12454" cx="7.599" cy="7.599" r="7.599" fill="#fe646f"/>
            <path id="Trazado_1036250" data-name="Trazado 1036250" d="M394.148,183.237a7.6,7.6,0,0,1,0,15.2c-.23,0-.457-.011-.681-.031a7.6,7.6,0,0,0,0-15.137C393.692,183.248,393.919,183.237,394.148,183.237Z" transform="translate(-386.549 -183.237)" fill="#fd4755" fill-rule="evenodd"/>
          </g>
        </g>
      </g>
      <path id="Trazado_1036251" data-name="Trazado 1036251" d="M97.419,43.291a1.091,1.091,0,0,1-1.09,1.09H96.1a1.09,1.09,0,1,1,0-2.18h.233A1.09,1.09,0,0,1,97.419,43.291Zm2.343-6.161a3.393,3.393,0,0,1-1.438,2.523c-.524.474-.823.762-.846,1.16a1.09,1.09,0,0,1-1.087,1.026h-.065A1.091,1.091,0,0,1,95.3,40.685a3.84,3.84,0,0,1,1.565-2.651c.488-.439.717-.672.717-.9a1.369,1.369,0,1,0-2.738,0,1.09,1.09,0,1,1-2.18,0,3.55,3.55,0,1,1,7.1,0Zm-3.549,8.36a6.509,6.509,0,1,0-6.51-6.508,6.515,6.515,0,0,0,6.51,6.508ZM85.08,51.85H82.7a.751.751,0,0,1-.742-.741v-.743h3.862v.743a.751.751,0,0,1-.742.741Zm1.848-23.406v-1.53a1.529,1.529,0,1,1,1.529,1.53Zm-2.18,12.413H83.034V30.625h1.713ZM80.854,28.444H79.325a1.53,1.53,0,1,1,1.529-1.53ZM78.99,44.522a.752.752,0,0,1-.741-.742v-.741H88.531a8.781,8.781,0,0,0,.8,1.24.745.745,0,0,1-.543.243Zm7.968,3.663H80.824a.742.742,0,0,1-.741-.742V46.7H87.7v.741A.743.743,0,0,1,86.958,48.185ZM73.708,26.832A9.4,9.4,0,0,0,75.4,32.341a18.131,18.131,0,0,1,2.768,8.517h2.684V30.625H79.325a3.711,3.711,0,1,1,3.71-3.711v1.531h1.713v-1.53a3.71,3.71,0,1,1,3.71,3.711H86.928V40.858h.8a8.677,8.677,0,0,1,5.487-10.034,8.52,8.52,0,0,0,.857-3.992,10.183,10.183,0,1,0-20.367,0Zm22.506,3.46c-.149,0-.3,0-.442.011a11.432,11.432,0,0,0,.484-3.47,12.364,12.364,0,1,0-24.728,0,11.45,11.45,0,0,0,1.993,6.61,16.314,16.314,0,0,1,2.549,8.542v1.8A2.928,2.928,0,0,0,77.9,46.49v.954a2.926,2.926,0,0,0,1.878,2.727v.938A2.926,2.926,0,0,0,82.7,54.031H85.08A2.926,2.926,0,0,0,88,51.109v-.938a2.923,2.923,0,0,0,1.878-2.727V46.49a2.9,2.9,0,0,0,.993-.661,8.687,8.687,0,1,0,5.339-15.538Zm1.462-9.5a1.089,1.089,0,0,1,.4-1.488l2.3-1.329a1.091,1.091,0,0,1,1.09,1.889l-2.3,1.327a1.085,1.085,0,0,1-1.489-.4Zm-6.226-7.315,1.329-2.3a1.09,1.09,0,0,1,1.888,1.09l-1.328,2.3a1.091,1.091,0,0,1-1.889-1.09Zm-25.531,4.9a1.09,1.09,0,0,1,1.489-.4l2.3,1.329a1.09,1.09,0,0,1-1.091,1.887l-2.3-1.327A1.092,1.092,0,0,1,65.919,18.376Zm7.2-6.106A1.09,1.09,0,1,1,75,11.18l1.328,2.3a1.09,1.09,0,1,1-1.888,1.09Zm9.684-.523V9.09a1.09,1.09,0,1,1,2.18,0v2.657a1.09,1.09,0,0,1-2.18,0ZM54.038,59.612a.974.974,0,1,1-1.105-.822.974.974,0,0,1,1.105.822Zm45.3-1.643L81.7,68.832a5.4,5.4,0,0,1-4.385.613L64.524,66.018a1.086,1.086,0,0,0-.828.109L61.95,67.134l-4.585-8.1,7.051-4.082c1.575-.912,3.275-1.678,5.029-1.11.588.191,1.267.436,2.053.721a50.548,50.548,0,0,0,8,2.372,1.7,1.7,0,0,1,1.162,2.024c-.239.9-.911,1.288-1.994,1.167-1.418-.293-2.77-.678-4.2-1.087-.683-.2-1.39-.4-2.118-.592a1.091,1.091,0,0,0-.565,2.107c.71.19,1.408.389,2.084.583,1.488.425,2.894.825,4.411,1.136l.022,0,.022.005,1.209.2a7.361,7.361,0,0,0,5.055-.888l9.718-5.662c2.636-1.536,4.726-1.737,5.452-.524a2.053,2.053,0,0,1-.418,2.568Zm-37.47,13.66a.334.334,0,0,0-.03-.259L53.824,57.2a.34.34,0,0,0-.206-.16.419.419,0,0,0-.094-.012.332.332,0,0,0-.165.042l-2.727,1.544a.346.346,0,0,0-.128.464L58.522,73.25a.345.345,0,0,0,.465.128l2.727-1.542A.338.338,0,0,0,61.872,71.629ZM93.212,54.04,83.491,59.7a5.29,5.29,0,0,1-.934.433,4.39,4.39,0,0,0,.214-.613,3.913,3.913,0,0,0-2.659-4.684,1.054,1.054,0,0,0-.143-.035,48.469,48.469,0,0,1-7.731-2.293c-.771-.278-1.5-.542-2.12-.743-2.574-.835-4.88.186-6.8,1.295L56.29,57.135l-.568-1a2.526,2.526,0,0,0-3.438-.952L49.557,56.72a2.525,2.525,0,0,0-.952,3.437l8.017,14.167a2.526,2.526,0,0,0,3.438.952l2.727-1.544a2.524,2.524,0,0,0,.951-3.436l-.715-1.264,1.372-.792,12.358,3.313a8.107,8.107,0,0,0,2.1.283,7.536,7.536,0,0,0,3.99-1.147l17.641-10.862a4.207,4.207,0,0,0,1.146-5.546c-.537-.9-2.727-3.556-8.42-.241Z" transform="translate(0 0)" fill="#242222" fill-rule="evenodd"/>
    </g>
  </g>
</svg>
