<svg xmlns="http://www.w3.org/2000/svg" xmlns:xlink="http://www.w3.org/1999/xlink" width="113" height="113" viewBox="0 0 113 113">
  <defs>
    <filter id="Trazado_982547" x="0" y="0" width="113" height="113" filterUnits="userSpaceOnUse">
      <feOffset dy="3" input="SourceAlpha"/>
      <feGaussianBlur stdDeviation="3" result="blur"/>
      <feFlood flood-opacity="0.161"/>
      <feComposite operator="in" in2="blur"/>
      <feComposite in="SourceGraphic"/>
    </filter>
  </defs>
  <g id="Grupo_1177415" data-name="Grupo 1177415" transform="translate(-9170 -2200.308)">
    <g id="Grupo_1177305" data-name="Grupo 1177305" transform="translate(9179 2206.308)">
      <g id="Grupo_1176922" data-name="Grupo 1176922" transform="translate(0 0)">
        <g id="Grupo_1172322" data-name="Grupo 1172322">
          <g id="Grupo_1164700" data-name="Grupo 1164700">
            <g id="Grupo_1160931" data-name="Grupo 1160931">
              <g id="Grupo_1160749" data-name="Grupo 1160749">
                <g id="Grupo_1158891" data-name="Grupo 1158891">
                  <g id="Grupo_1157406" data-name="Grupo 1157406">
                    <g id="Grupo_1155793" data-name="Grupo 1155793">
                      <g id="Grupo_1154704" data-name="Grupo 1154704">
                        <g id="Grupo_1150790" data-name="Grupo 1150790">
                          <g id="Grupo_1154214" data-name="Grupo 1154214">
                            <g id="Grupo_1152583" data-name="Grupo 1152583">
                              <g id="Grupo_1146973" data-name="Grupo 1146973">
                                <g id="Grupo_1146954" data-name="Grupo 1146954">
                                  <g transform="matrix(1, 0, 0, 1, -9, -6)" filter="url(#Trazado_982547)">
                                    <g id="Trazado_982547-2" data-name="Trazado 982547" transform="translate(9 6)" fill="#fbecfd">
                                      <path d="M 47.5000114440918 93.49987030029297 C 41.28938293457031 93.49987030029297 35.26534652709961 92.28384399414062 29.5951976776123 89.88558959960938 C 24.11773109436035 87.56881713867188 19.19814491271973 84.25183868408203 14.97310447692871 80.02680206298828 C 10.74805164337158 75.80176544189453 7.43107795715332 70.88218688964844 5.114304542541504 65.40472412109375 C 2.716038227081299 59.73458862304688 1.500011444091797 53.71054840087891 1.500011444091797 47.49993515014648 C 1.500011444091797 41.28932189941406 2.716038227081299 35.26528167724609 5.114304542541504 29.59514808654785 C 7.43107795715332 24.1176815032959 10.74805164337158 19.1981086730957 14.97310447692871 14.97306823730469 C 19.19814491271973 10.74802875518799 24.11773109436035 7.431055068969727 29.5951976776123 5.11428165435791 C 35.26534652709961 2.716028451919556 41.28938293457031 1.500001788139343 47.5000114440918 1.500001788139343 C 53.71063995361328 1.500001788139343 59.73467636108398 2.716028451919556 65.40482330322266 5.11428165435791 C 70.88229370117188 7.431055068969727 75.8018798828125 10.74802875518799 80.02691650390625 14.97306823730469 C 84.25196838378906 19.1981086730957 87.56894683837891 24.1176815032959 89.88571929931641 29.59514808654785 C 92.28398132324219 35.26528167724609 93.50001525878906 41.28932189941406 93.50001525878906 47.49993515014648 C 93.50001525878906 53.71054840087891 92.28398132324219 59.73458862304688 89.88571929931641 65.40472412109375 C 87.56894683837891 70.88218688964844 84.25196838378906 75.80176544189453 80.02691650390625 80.02680206298828 C 75.8018798828125 84.25183868408203 70.88229370117188 87.56881713867188 65.40482330322266 89.88558959960938 C 59.73467636108398 92.28384399414062 53.71063995361328 93.49987030029297 47.5000114440918 93.49987030029297 Z" stroke="none"/>
                                      <path d="M 47.5000114440918 3 C 41.49122619628906 3 35.66378021240234 4.1761474609375 30.17951965332031 6.495796203613281 C 24.880859375 8.7369384765625 20.12153625488281 11.94596862792969 16.03376770019531 16.03373718261719 C 11.94598388671875 20.12149047851562 8.736968994140625 24.88081359863281 6.495811462402344 30.17947387695312 C 4.176162719726562 35.66371917724609 3.000007629394531 41.49116516113281 3.000007629394531 47.49993515014648 C 3.000007629394531 53.50870513916016 4.176162719726562 59.33615112304688 6.495811462402344 64.82039642333984 C 8.736968994140625 70.11905670166016 11.94598388671875 74.87837982177734 16.03376770019531 78.96613311767578 C 20.12153625488281 83.05390167236328 24.880859375 86.26293182373047 30.17951965332031 88.50407409667969 C 35.66378021240234 90.82372283935547 41.49122619628906 91.99987030029297 47.5000114440918 91.99987030029297 C 53.50879669189453 91.99987030029297 59.33624267578125 90.82372283935547 64.82050323486328 88.50407409667969 C 70.11916351318359 86.26293182373047 74.87848663330078 83.05390167236328 78.96625518798828 78.96613311767578 C 83.05403900146484 74.87837982177734 86.2630615234375 70.11905670166016 88.50421142578125 64.82039642333984 C 90.82386016845703 59.33615112304688 92.00001525878906 53.50870513916016 92.00001525878906 47.49993515014648 C 92.00001525878906 41.49116516113281 90.82386016845703 35.66371917724609 88.50421142578125 30.17947387695312 C 86.2630615234375 24.88081359863281 83.05403900146484 20.12149047851562 78.96625518798828 16.03373718261719 C 74.87848663330078 11.94596862792969 70.11916351318359 8.7369384765625 64.82050323486328 6.495796203613281 C 59.33624267578125 4.1761474609375 53.50879669189453 3 47.5000114440918 3 M 47.5000114440918 0 C 73.73353576660156 0 95.00001525878906 21.26644134521484 95.00001525878906 47.49993515014648 C 95.00001525878906 73.73342895507812 73.73353576660156 94.99987030029297 47.5000114440918 94.99987030029297 C 21.26648712158203 94.99987030029297 7.62939453125e-06 73.73342895507812 7.62939453125e-06 47.49993515014648 C 7.62939453125e-06 21.26644134521484 21.26648712158203 0 47.5000114440918 0 Z" stroke="none" fill="#da53f2"/>
                                    </g>
                                  </g>
                                </g>
                              </g>
                            </g>
                          </g>
                        </g>
                      </g>
                    </g>
                  </g>
                </g>
              </g>
            </g>
          </g>
        </g>
      </g>
    </g>
    <g id="calculation_10946693" transform="translate(9186.408 2221.996)">
      <g id="Grupo_1177414" data-name="Grupo 1177414" transform="translate(12.498 0.906)">
        <path id="Trazado_1036252" data-name="Trazado 1036252" d="M87.645,38.141V17.62a.633.633,0,0,1,.63-.63h2.472a.628.628,0,0,0,.444-1.072L83.47,8.2a.632.632,0,0,0-.89,0l-7.722,7.722A.628.628,0,0,0,75.3,16.99h2.476a.63.63,0,0,1,.627.63V38.141a.631.631,0,0,0,.63.63h7.982A.631.631,0,0,0,87.645,38.141Z" transform="translate(-68.473 -8.012)" fill="#70da40"/>
        <g id="Grupo_1177413" data-name="Grupo 1177413" transform="translate(0 14.384)">
          <path id="Trazado_1036253" data-name="Trazado 1036253" d="M34.131,274.473A14.551,14.551,0,1,0,19.58,259.921,14.578,14.578,0,0,0,34.131,274.473Z" transform="translate(-19.58 -233.045)" fill="#fea832" fill-rule="evenodd"/>
          <path id="Trazado_1036254" data-name="Trazado 1036254" d="M73.01,283.832a10.584,10.584,0,1,1-14.968,0A10.614,10.614,0,0,1,73.01,283.832Z" transform="translate(-50.974 -264.439)" fill="#ffd23b" fill-rule="evenodd"/>
          <path id="Trazado_1036255" data-name="Trazado 1036255" d="M260.911,177.268H236.262a2.217,2.217,0,0,1-2.212-2.209V138.052a2.218,2.218,0,0,1,2.212-2.212h24.649a2.218,2.218,0,0,1,2.212,2.212v37.006A2.217,2.217,0,0,1,260.911,177.268Z" transform="translate(-209.916 -135.84)" fill="#345b77" fill-rule="evenodd"/>
          <path id="Trazado_1036256" data-name="Trazado 1036256" d="M289.6,178.874H269.657a.627.627,0,0,1-.627-.627v-6.98a.627.627,0,0,1,.627-.627H289.6a.627.627,0,0,1,.627.627v6.98A.626.626,0,0,1,289.6,178.874Z" transform="translate(-240.959 -166.724)" fill="#b3dafe" fill-rule="evenodd"/>
          <path id="Trazado_1036257" data-name="Trazado 1036257" d="M426.881,286.472h-3.17a.331.331,0,0,1-.331-.331v-3.173a.331.331,0,0,1,.331-.327h3.17a.331.331,0,0,1,.331.327v3.173A.331.331,0,0,1,426.881,286.472Z" transform="translate(-377.94 -266.121)" fill="#ffd23b" fill-rule="evenodd"/>
          <path id="Trazado_1036258" data-name="Trazado 1036258" d="M349.694,286.472h-3.173a.331.331,0,0,1-.331-.331v-3.173a.331.331,0,0,1,.331-.327h3.173a.331.331,0,0,1,.331.327v3.173A.331.331,0,0,1,349.694,286.472Z" transform="translate(-309.436 -266.121)" fill="#ffd23b" fill-rule="evenodd"/>
          <path id="Trazado_1036259" data-name="Trazado 1036259" d="M272.531,286.472h-3.17a.331.331,0,0,1-.331-.331v-3.173a.331.331,0,0,1,.331-.327h3.17a.331.331,0,0,1,.331.327v3.173A.331.331,0,0,1,272.531,286.472Z" transform="translate(-240.959 -266.121)" fill="#ffd23b" fill-rule="evenodd"/>
          <path id="Trazado_1036260" data-name="Trazado 1036260" d="M349.694,363.632h-3.173a.331.331,0,0,1-.331-.327v-3.173a.331.331,0,0,1,.331-.331h3.173a.331.331,0,0,1,.331.331V363.3A.331.331,0,0,1,349.694,363.632Z" transform="translate(-309.436 -334.598)" fill="#ffd23b" fill-rule="evenodd"/>
          <path id="Trazado_1036261" data-name="Trazado 1036261" d="M349.694,440.822h-3.173a.331.331,0,0,1-.331-.331v-3.173a.331.331,0,0,1,.331-.327h3.173a.331.331,0,0,1,.331.327v3.173A.331.331,0,0,1,349.694,440.822Z" transform="translate(-309.436 -403.102)" fill="#ffd23b" fill-rule="evenodd"/>
          <path id="Trazado_1036262" data-name="Trazado 1036262" d="M426.881,372.318h-3.17a.331.331,0,0,1-.331-.331V360.131a.331.331,0,0,1,.331-.331h3.17a.331.331,0,0,1,.331.331v11.856A.331.331,0,0,1,426.881,372.318Z" transform="translate(-377.94 -334.598)" fill="#ff4155" fill-rule="evenodd"/>
          <path id="Trazado_1036263" data-name="Trazado 1036263" d="M272.531,363.632h-3.17a.331.331,0,0,1-.331-.327v-3.173a.331.331,0,0,1,.331-.331h3.17a.331.331,0,0,1,.331.331V363.3A.331.331,0,0,1,272.531,363.632Z" transform="translate(-240.959 -334.598)" fill="#ffd23b" fill-rule="evenodd"/>
          <path id="Trazado_1036264" data-name="Trazado 1036264" d="M272.531,440.822h-3.17a.331.331,0,0,1-.331-.331v-3.173a.331.331,0,0,1,.331-.327h3.17a.331.331,0,0,1,.331.327v3.173A.331.331,0,0,1,272.531,440.822Z" transform="translate(-240.959 -403.102)" fill="#ffd23b" fill-rule="evenodd"/>
        </g>
        <path id="Trazado_1036265" data-name="Trazado 1036265" d="M83.868,8.594l-.4-.4a.632.632,0,0,0-.89,0l-7.722,7.722A.628.628,0,0,0,75.3,16.99h1.69a.628.628,0,0,1-.444-1.072Zm-6.09,8.4a.63.63,0,0,1,.627.63V35.474a14.274,14.274,0,0,1,1.687-.455V17.62a.63.63,0,0,0-.627-.63Z" transform="translate(-68.473 -8.012)" fill="#65c43a"/>
        <path id="Trazado_1036266" data-name="Trazado 1036266" d="M34.131,245.38c.34,0,.68.012,1.014.037a14.549,14.549,0,0,0,0,29.028c-.334.025-.674.037-1.014.037a14.551,14.551,0,0,1,0-29.1Z" transform="translate(-19.58 -218.669)" fill="#e5972d" fill-rule="evenodd"/>
        <path id="Trazado_1036267" data-name="Trazado 1036267" d="M237.949,177.268h-1.687a2.218,2.218,0,0,1-2.212-2.212v-37a2.218,2.218,0,0,1,2.212-2.212h1.687a2.218,2.218,0,0,0-2.212,2.212v37A2.218,2.218,0,0,0,237.949,177.268Z" transform="translate(-209.916 -121.456)" fill="#2f526b" fill-rule="evenodd"/>
        <path id="Trazado_1036268" data-name="Trazado 1036268" d="M271.175,178.874h-1.518a.627.627,0,0,1-.627-.627v-6.98a.627.627,0,0,1,.627-.627h1.517a.627.627,0,0,0-.625.627v6.98A.629.629,0,0,0,271.175,178.874Z" transform="translate(-240.959 -152.339)" fill="#a1c4e5" fill-rule="evenodd"/>
      </g>
      <path id="Trazado_1036269" data-name="Trazado 1036269" d="M30.039,42.451a2.854,2.854,0,0,1,.889,2.346,3.1,3.1,0,0,1-1.385,2.262,3.979,3.979,0,0,1-1.6.594v1.152a.9.9,0,1,1-1.8,0v-1.27c-.034-.009-.069-.017-.1-.027a4.5,4.5,0,0,1-2.82-2.662.9.9,0,1,1,1.661-.693,2.679,2.679,0,0,0,1.688,1.636,2.413,2.413,0,0,0,1.982-.233,1.277,1.277,0,0,0,.581-.927,1.068,1.068,0,0,0-.352-.887,3.8,3.8,0,0,0-1.514-.555,5.608,5.608,0,0,1-2.908-1.337,3.044,3.044,0,0,1,1.3-4.97,4.214,4.214,0,0,1,.484-.133V35.53a.9.9,0,0,1,1.8,0v1.178a4.027,4.027,0,0,1,1.236.424,3.15,3.15,0,0,1,1.59,2.051.9.9,0,1,1-1.746.43,1.356,1.356,0,0,0-.708-.9,2.744,2.744,0,0,0-2.076-.127,1.246,1.246,0,0,0-.86.9,1.215,1.215,0,0,0,.269,1.112,4.175,4.175,0,0,0,2.032.842A4.8,4.8,0,0,1,30.039,42.451ZM66.6,17.5V54.51a3.114,3.114,0,0,1-3.11,3.11H38.844a3.113,3.113,0,0,1-3.081-2.692A15.451,15.451,0,1,1,21.53,27.736V10.783h-2.2a1.509,1.509,0,0,1-1.412-.94,1.535,1.535,0,0,1,.325-1.665L25.97.452a1.53,1.53,0,0,1,2.162,0l7.72,7.72a1.529,1.529,0,0,1-1.08,2.611h-2.2V27.736a15.515,15.515,0,0,1,3.164,1.652V17.5a3.114,3.114,0,0,1,3.11-3.11H63.5A3.113,3.113,0,0,1,66.6,17.5ZM35.734,37.894A9.563,9.563,0,0,0,33.9,35.321a9.683,9.683,0,1,0,0,13.693,9.563,9.563,0,0,0,1.839-2.571ZM23.329,10.511V27.169a15.454,15.454,0,0,1,7.442,0V10.511A1.53,1.53,0,0,1,32.3,8.983h1.818L27.049,1.915l-7.07,7.068H21.8A1.53,1.53,0,0,1,23.329,10.511Zm3.719,45.308A13.652,13.652,0,0,0,35.734,52.7V49.675c-.182.21-.37.415-.567.612a11.483,11.483,0,1,1,0-16.24c.2.2.385.4.566.611V31.633a13.652,13.652,0,1,0-8.686,24.186ZM64.807,17.5A1.313,1.313,0,0,0,63.5,16.19H38.844A1.313,1.313,0,0,0,37.533,17.5V54.51a1.313,1.313,0,0,0,1.311,1.311H63.494a1.313,1.313,0,0,0,1.311-1.311V17.5Zm-2.138,2.332v6.982a1.527,1.527,0,0,1-1.525,1.525H41.2a1.528,1.528,0,0,1-1.528-1.525V19.832A1.53,1.53,0,0,1,41.2,18.3H61.145A1.528,1.528,0,0,1,62.668,19.832Zm-1.8.271h-19.4V26.54h19.4Zm1.8,12.035v3.174a1.229,1.229,0,0,1-1.228,1.228H58.266a1.229,1.229,0,0,1-1.228-1.228V32.139a1.229,1.229,0,0,1,1.228-1.228h3.174A1.228,1.228,0,0,1,62.668,32.139Zm-1.8.571H58.838v2.032H60.87Zm-6.887-.571v3.174a1.229,1.229,0,0,1-1.228,1.228H49.581a1.229,1.229,0,0,1-1.228-1.228V32.139a1.229,1.229,0,0,1,1.228-1.228h3.174A1.229,1.229,0,0,1,53.983,32.139Zm-1.8.571H50.152v2.032h2.032ZM45.3,32.139v3.174a1.231,1.231,0,0,1-1.231,1.228H40.9a1.231,1.231,0,0,1-1.231-1.228V32.139A1.231,1.231,0,0,1,40.9,30.911h3.171A1.231,1.231,0,0,1,45.3,32.139Zm-1.8.571H41.467v2.032H43.5Zm10.482,8.116V44a1.231,1.231,0,0,1-1.228,1.231H49.581A1.231,1.231,0,0,1,48.353,44V40.825a1.231,1.231,0,0,1,1.228-1.231h3.174A1.23,1.23,0,0,1,53.983,40.825Zm-1.8.567H50.152v2.035h2.032Zm1.8,8.116v3.174a1.229,1.229,0,0,1-1.228,1.228H49.581a1.229,1.229,0,0,1-1.228-1.228V49.508a1.229,1.229,0,0,1,1.228-1.228h3.174A1.228,1.228,0,0,1,53.983,49.508Zm-1.8.571H50.152V52.11h2.032Zm10.484-9.253V52.681a1.229,1.229,0,0,1-1.228,1.228H58.266a1.229,1.229,0,0,1-1.228-1.228V40.825a1.231,1.231,0,0,1,1.228-1.231h3.174A1.229,1.229,0,0,1,62.668,40.825Zm-1.8.567H58.838V52.109H60.87ZM45.3,40.825V44a1.233,1.233,0,0,1-1.231,1.231H40.9A1.233,1.233,0,0,1,39.667,44V40.825A1.233,1.233,0,0,1,40.9,39.594h3.171A1.231,1.231,0,0,1,45.3,40.825Zm-1.8.567H41.467v2.035H43.5Zm1.8,8.116v3.174a1.231,1.231,0,0,1-1.231,1.228H40.9a1.231,1.231,0,0,1-1.231-1.228V49.508A1.231,1.231,0,0,1,40.9,48.28h3.171A1.23,1.23,0,0,1,45.3,49.508Zm-1.8.571H41.467V52.11H43.5Z"/>
    </g>
  </g>
</svg>
