<svg xmlns="http://www.w3.org/2000/svg" xmlns:xlink="http://www.w3.org/1999/xlink" width="113" height="113" viewBox="0 0 113 113">
  <defs>
    <filter id="Trazado_982547" x="0" y="0" width="113" height="113" filterUnits="userSpaceOnUse">
      <feOffset dy="3" input="SourceAlpha"/>
      <feGaussianBlur stdDeviation="3" result="blur"/>
      <feFlood flood-opacity="0.161"/>
      <feComposite operator="in" in2="blur"/>
      <feComposite in="SourceGraphic"/>
    </filter>
  </defs>
  <g id="Grupo_1177417" data-name="Grupo 1177417" transform="translate(-9486 -2200.308)">
    <g id="Grupo_1177304" data-name="Grupo 1177304" transform="translate(9495 2206.308)">
      <g id="Grupo_1176923" data-name="Grupo 1176923" transform="translate(0 0)">
        <g id="Grupo_1172323" data-name="Grupo 1172323">
          <g id="Grupo_1166163" data-name="Grupo 1166163">
            <g id="Grupo_1164700" data-name="Grupo 1164700">
              <g id="Grupo_1160931" data-name="Grupo 1160931">
                <g id="Grupo_1160749" data-name="Grupo 1160749">
                  <g id="Grupo_1158891" data-name="Grupo 1158891">
                    <g id="Grupo_1157406" data-name="Grupo 1157406">
                      <g id="Grupo_1155793" data-name="Grupo 1155793">
                        <g id="Grupo_1154704" data-name="Grupo 1154704">
                          <g id="Grupo_1150790" data-name="Grupo 1150790">
                            <g id="Grupo_1154214" data-name="Grupo 1154214">
                              <g id="Grupo_1152583" data-name="Grupo 1152583">
                                <g id="Grupo_1146973" data-name="Grupo 1146973">
                                  <g id="Grupo_1146954" data-name="Grupo 1146954">
                                    <g transform="matrix(1, 0, 0, 1, -9, -6)" filter="url(#Trazado_982547)">
                                      <g id="Trazado_982547-2" data-name="Trazado 982547" transform="translate(9 6)" fill="#fbecfd">
                                        <path d="M 47.5000114440918 93.49987030029297 C 41.28938293457031 93.49987030029297 35.26534652709961 92.28384399414062 29.5951976776123 89.88558959960938 C 24.11773109436035 87.56881713867188 19.19814491271973 84.25183868408203 14.97310447692871 80.02680206298828 C 10.74805164337158 75.80176544189453 7.43107795715332 70.88218688964844 5.114304542541504 65.40472412109375 C 2.716038227081299 59.73458862304688 1.500011444091797 53.71054840087891 1.500011444091797 47.49993515014648 C 1.500011444091797 41.28932189941406 2.716038227081299 35.26528167724609 5.114304542541504 29.59514808654785 C 7.43107795715332 24.1176815032959 10.74805164337158 19.1981086730957 14.97310447692871 14.97306823730469 C 19.19814491271973 10.74802875518799 24.11773109436035 7.431055068969727 29.5951976776123 5.11428165435791 C 35.26534652709961 2.716028451919556 41.28938293457031 1.500001788139343 47.5000114440918 1.500001788139343 C 53.71063995361328 1.500001788139343 59.73467636108398 2.716028451919556 65.40482330322266 5.11428165435791 C 70.88229370117188 7.431055068969727 75.8018798828125 10.74802875518799 80.02691650390625 14.97306823730469 C 84.25196838378906 19.1981086730957 87.56894683837891 24.1176815032959 89.88571929931641 29.59514808654785 C 92.28398132324219 35.26528167724609 93.50001525878906 41.28932189941406 93.50001525878906 47.49993515014648 C 93.50001525878906 53.71054840087891 92.28398132324219 59.73458862304688 89.88571929931641 65.40472412109375 C 87.56894683837891 70.88218688964844 84.25196838378906 75.80176544189453 80.02691650390625 80.02680206298828 C 75.8018798828125 84.25183868408203 70.88229370117188 87.56881713867188 65.40482330322266 89.88558959960938 C 59.73467636108398 92.28384399414062 53.71063995361328 93.49987030029297 47.5000114440918 93.49987030029297 Z" stroke="none"/>
                                        <path d="M 47.5000114440918 3 C 41.49122619628906 3 35.66378021240234 4.1761474609375 30.17951965332031 6.495796203613281 C 24.880859375 8.7369384765625 20.12153625488281 11.94596862792969 16.03376770019531 16.03373718261719 C 11.94598388671875 20.12149047851562 8.736968994140625 24.88081359863281 6.495811462402344 30.17947387695312 C 4.176162719726562 35.66371917724609 3.000007629394531 41.49116516113281 3.000007629394531 47.49993515014648 C 3.000007629394531 53.50870513916016 4.176162719726562 59.33615112304688 6.495811462402344 64.82039642333984 C 8.736968994140625 70.11905670166016 11.94598388671875 74.87837982177734 16.03376770019531 78.96613311767578 C 20.12153625488281 83.05390167236328 24.880859375 86.26293182373047 30.17951965332031 88.50407409667969 C 35.66378021240234 90.82372283935547 41.49122619628906 91.99987030029297 47.5000114440918 91.99987030029297 C 53.50879669189453 91.99987030029297 59.33624267578125 90.82372283935547 64.82050323486328 88.50407409667969 C 70.11916351318359 86.26293182373047 74.87848663330078 83.05390167236328 78.96625518798828 78.96613311767578 C 83.05403900146484 74.87837982177734 86.2630615234375 70.11905670166016 88.50421142578125 64.82039642333984 C 90.82386016845703 59.33615112304688 92.00001525878906 53.50870513916016 92.00001525878906 47.49993515014648 C 92.00001525878906 41.49116516113281 90.82386016845703 35.66371917724609 88.50421142578125 30.17947387695312 C 86.2630615234375 24.88081359863281 83.05403900146484 20.12149047851562 78.96625518798828 16.03373718261719 C 74.87848663330078 11.94596862792969 70.11916351318359 8.7369384765625 64.82050323486328 6.495796203613281 C 59.33624267578125 4.1761474609375 53.50879669189453 3 47.5000114440918 3 M 47.5000114440918 0 C 73.73353576660156 0 95.00001525878906 21.26644134521484 95.00001525878906 47.49993515014648 C 95.00001525878906 73.73342895507812 73.73353576660156 94.99987030029297 47.5000114440918 94.99987030029297 C 21.26648712158203 94.99987030029297 7.62939453125e-06 73.73342895507812 7.62939453125e-06 47.49993515014648 C 7.62939453125e-06 21.26644134521484 21.26648712158203 0 47.5000114440918 0 Z" stroke="none" fill="#da53f2"/>
                                      </g>
                                    </g>
                                  </g>
                                </g>
                              </g>
                            </g>
                          </g>
                        </g>
                      </g>
                    </g>
                  </g>
                </g>
              </g>
            </g>
          </g>
        </g>
      </g>
    </g>
    <g id="statistical-analysis_18716577" transform="translate(9498.402 2208.188)">
      <g id="Grupo_1177416" data-name="Grupo 1177416" transform="translate(16 17.16)">
        <path id="Trazado_1036270" data-name="Trazado 1036270" d="M65.276,61.122a3.139,3.139,0,0,1,2.027.913l6.109,6.11a3.148,3.148,0,0,1-4.454,4.45l-6.109-6.109a3.134,3.134,0,0,1-.913-2.023l-2.1-2.1v9.959a2.889,2.889,0,0,1-2.887,2.884H18.884A2.887,2.887,0,0,1,16,72.326V27.259a.666.666,0,0,1,.2-.479l9.418-9.418a.667.667,0,0,1,.478-.2H56.954a2.887,2.887,0,0,1,2.883,2.884V43.323a11.246,11.246,0,0,1,2.824,15.191Z" transform="translate(-16 -17.16)" fill-rule="evenodd"/>
        <path id="Trazado_1036271" data-name="Trazado 1036271" d="M41.911,35.93,34.76,43.079h5.6a1.552,1.552,0,0,0,1.548-1.551Z" transform="translate(-32.48 -33.649)" fill="#a19c91" fill-rule="evenodd"/>
        <path id="Trazado_1036272" data-name="Trazado 1036272" d="M250.713,225.73a9.9,9.9,0,1,0,9.9,9.9,9.9,9.9,0,0,0-9.9-9.9Zm-5.391,4.512a7.622,7.622,0,1,1-1.215,9.2,7.621,7.621,0,0,1,1.215-9.2Z" transform="translate(-213.49 -200.384)" fill="#cc3" fill-rule="evenodd"/>
        <path id="Trazado_1036273" data-name="Trazado 1036273" d="M220.321,347.4a11.223,11.223,0,0,1-1.378-2.287H216.32v12.213h4Z" transform="translate(-191.976 -305.256)" fill="#ffa71b" fill-rule="evenodd"/>
        <path id="Trazado_1036274" data-name="Trazado 1036274" d="M293.081,394.315a11.271,11.271,0,0,1-4-.745v6.319h4Z" transform="translate(-255.894 -347.827)" fill="#24809d" fill-rule="evenodd"/>
        <path id="Trazado_1036275" data-name="Trazado 1036275" d="M54.939,54.125a11.245,11.245,0,0,1,13.229-1.976V29.707a1.551,1.551,0,0,0-1.551-1.547H36.429V34.7a2.887,2.887,0,0,1-2.884,2.883H27v44.4a1.552,1.552,0,0,0,1.548,1.547H66.617a1.551,1.551,0,0,0,1.547-1.547V72a11.192,11.192,0,0,1-3.978,1.24v6.319a.667.667,0,0,1-.668.667H58.186a.668.668,0,0,1-.668-.667V71.95A11.257,11.257,0,0,1,55.343,70.4v9.154a.667.667,0,0,1-.668.667H49.339a.668.668,0,0,1-.668-.667V66.009a.668.668,0,0,1,.668-.668h2.8a11.235,11.235,0,0,1,2.807-11.216ZM31.645,68.8h5.336a.668.668,0,0,1,.668.668V79.554a.667.667,0,0,1-.668.667H31.645a.667.667,0,0,1-.668-.667V69.468A.668.668,0,0,1,31.645,68.8Zm8.845-7.927h5.336a.667.667,0,0,1,.668.667v18.02a.667.667,0,0,1-.668.667H40.489a.667.667,0,0,1-.668-.667V61.539a.667.667,0,0,1,.668-.667ZM46.555,51.7l8.924-8.924-1.517-1.517a1.9,1.9,0,0,1,1.353-3.245l7.548.032a1.893,1.893,0,0,1,1.893,1.886l.032,7.548a1.9,1.9,0,0,1-3.245,1.353l-1.517-1.512L48.845,58.5a3.24,3.24,0,0,1-4.573,0L42.3,56.52l-6.464,6.466a3.185,3.185,0,0,1-5.177-1.178,2.894,2.894,0,0,1,.632-3.367l8.721-8.721a3.239,3.239,0,0,1,4.573,0L46.557,51.7ZM44.9,29.884a7.14,7.14,0,1,1-7.14,7.14,7.14,7.14,0,0,1,7.14-7.14Z" transform="translate(-25.663 -26.823)" fill="#efeff0" fill-rule="evenodd"/>
        <path id="Trazado_1036276" data-name="Trazado 1036276" d="M276.813,255.48a6.286,6.286,0,1,1-.007,0Zm4.217,6.291a.666.666,0,1,1-1.331-.058c.01-.215.019-.425.028-.625l-2.586,2.587a.667.667,0,0,1-.944,0l-.817-.817-1.732,1.732a.668.668,0,1,1-.944-.944l2.2-2.2a.668.668,0,0,1,.944,0l.817.817,2.112-2.112-.628.024a.666.666,0,0,1-.046-1.331l2.27-.087a.666.666,0,0,1,.742.739C281.108,259.733,281.077,260.719,281.03,261.771Z" transform="translate(-239.589 -226.518)" fill="#99e6fc" fill-rule="evenodd"/>
        <path id="Trazado_1036277" data-name="Trazado 1036277" d="M406.731,389.85a1.814,1.814,0,0,0-1.282,3.094l6.109,6.109a1.814,1.814,0,0,0,2.562-2.569l-6.105-6.105A1.81,1.81,0,0,0,406.731,389.85Z" transform="translate(-357.656 -344.559)" fill="#993" fill-rule="evenodd"/>
        <path id="Trazado_1036278" data-name="Trazado 1036278" d="M383.888,368.807a3.122,3.122,0,0,1,.851-.608L382.9,366.37a11.386,11.386,0,0,1-1.452,1.452l1.834,1.833A3.125,3.125,0,0,1,383.888,368.807Z" transform="translate(-337.039 -323.932)" fill="#996" fill-rule="evenodd"/>
        <path id="Trazado_1036279" data-name="Trazado 1036279" d="M91.028,124.054l-9.868,9.868a.668.668,0,0,1-.945,0l-2.446-2.446a1.9,1.9,0,0,0-2.684,0L66.366,140.2c-1.632,1.632,1.024,4.289,2.657,2.66l6.937-6.938a.668.668,0,0,1,.944,0l2.448,2.448a1.886,1.886,0,0,0,2.674,0L93.68,126.709a.668.668,0,0,1,.944,0l2.014,2.015a.569.569,0,0,0,.944-.429l-.032-7.547a.576.576,0,0,0-.566-.566l-7.547-.032a.568.568,0,0,0-.4.972l1.994,1.988A.668.668,0,0,1,91.028,124.054Z" transform="translate(-59.796 -107.634)" fill="#337cdb" fill-rule="evenodd"/>
      </g>
      <path id="Trazado_1036280" data-name="Trazado 1036280" d="M70.72,373.57h4v8.755h-4Z" transform="translate(-48.07 -313.097)" fill="#e43f39"/>
      <path id="Trazado_1036281" data-name="Trazado 1036281" d="M143.52,308.33h4v16.683h-4Z" transform="translate(-112.023 -255.786)" fill="#204a5d"/>
      <path id="Trazado_1036282" data-name="Trazado 1036282" d="M179.78,59.041l4.66,2.692a5.81,5.81,0,0,0-4.66-8.073Z" transform="translate(-143.877 -32.064)" fill="#e43f39" fill-rule="evenodd"/>
      <path id="Trazado_1036283" data-name="Trazado 1036283" d="M136.994,62.884l-4.974-2.872a.665.665,0,0,1-.351-.587V53.66a5.8,5.8,0,1,0,5.325,9.224Z" transform="translate(-97.096 -32.064)" fill="#ffa71b" fill-rule="evenodd"/>
    </g>
  </g>
</svg>
