<svg xmlns="http://www.w3.org/2000/svg" xmlns:xlink="http://www.w3.org/1999/xlink" width="113" height="113" viewBox="0 0 113 113">
  <defs>
    <filter id="Trazado_982547" x="0" y="0" width="113" height="113" filterUnits="userSpaceOnUse">
      <feOffset dy="3" input="SourceAlpha"/>
      <feGaussianBlur stdDeviation="3" result="blur"/>
      <feFlood flood-opacity="0.161"/>
      <feComposite operator="in" in2="blur"/>
      <feComposite in="SourceGraphic"/>
    </filter>
    <clipPath id="clip-path">
      <path id="path7317" d="M0-682.665H65.695v65.695H0Z" transform="translate(0 682.665)"/>
    </clipPath>
  </defs>
  <g id="Grupo_1177418" data-name="Grupo 1177418" transform="translate(-9170 -2654.308)">
    <g id="Grupo_1177306" data-name="Grupo 1177306" transform="translate(9179 2660.308)">
      <g id="Grupo_1176922" data-name="Grupo 1176922" transform="translate(0 0)">
        <g id="Grupo_1172322" data-name="Grupo 1172322">
          <g id="Grupo_1164700" data-name="Grupo 1164700">
            <g id="Grupo_1160931" data-name="Grupo 1160931">
              <g id="Grupo_1160749" data-name="Grupo 1160749">
                <g id="Grupo_1158891" data-name="Grupo 1158891">
                  <g id="Grupo_1157406" data-name="Grupo 1157406">
                    <g id="Grupo_1155793" data-name="Grupo 1155793">
                      <g id="Grupo_1154704" data-name="Grupo 1154704">
                        <g id="Grupo_1150790" data-name="Grupo 1150790">
                          <g id="Grupo_1154214" data-name="Grupo 1154214">
                            <g id="Grupo_1152583" data-name="Grupo 1152583">
                              <g id="Grupo_1146973" data-name="Grupo 1146973">
                                <g id="Grupo_1146954" data-name="Grupo 1146954">
                                  <g transform="matrix(1, 0, 0, 1, -9, -6)" filter="url(#Trazado_982547)">
                                    <g id="Trazado_982547-2" data-name="Trazado 982547" transform="translate(9 6)" fill="#fbecfd">
                                      <path d="M 47.5000114440918 93.49987030029297 C 41.28938293457031 93.49987030029297 35.26534652709961 92.28384399414062 29.5951976776123 89.88558959960938 C 24.11773109436035 87.56881713867188 19.19814491271973 84.25183868408203 14.97310447692871 80.02680206298828 C 10.74805164337158 75.80176544189453 7.43107795715332 70.88218688964844 5.114304542541504 65.40472412109375 C 2.716038227081299 59.73458862304688 1.500011444091797 53.71054840087891 1.500011444091797 47.49993515014648 C 1.500011444091797 41.28932189941406 2.716038227081299 35.26528167724609 5.114304542541504 29.59514808654785 C 7.43107795715332 24.1176815032959 10.74805164337158 19.1981086730957 14.97310447692871 14.97306823730469 C 19.19814491271973 10.74802875518799 24.11773109436035 7.431055068969727 29.5951976776123 5.11428165435791 C 35.26534652709961 2.716028451919556 41.28938293457031 1.500001788139343 47.5000114440918 1.500001788139343 C 53.71063995361328 1.500001788139343 59.73467636108398 2.716028451919556 65.40482330322266 5.11428165435791 C 70.88229370117188 7.431055068969727 75.8018798828125 10.74802875518799 80.02691650390625 14.97306823730469 C 84.25196838378906 19.1981086730957 87.56894683837891 24.1176815032959 89.88571929931641 29.59514808654785 C 92.28398132324219 35.26528167724609 93.50001525878906 41.28932189941406 93.50001525878906 47.49993515014648 C 93.50001525878906 53.71054840087891 92.28398132324219 59.73458862304688 89.88571929931641 65.40472412109375 C 87.56894683837891 70.88218688964844 84.25196838378906 75.80176544189453 80.02691650390625 80.02680206298828 C 75.8018798828125 84.25183868408203 70.88229370117188 87.56881713867188 65.40482330322266 89.88558959960938 C 59.73467636108398 92.28384399414062 53.71063995361328 93.49987030029297 47.5000114440918 93.49987030029297 Z" stroke="none"/>
                                      <path d="M 47.5000114440918 3 C 41.49122619628906 3 35.66378021240234 4.1761474609375 30.17951965332031 6.495796203613281 C 24.880859375 8.7369384765625 20.12153625488281 11.94596862792969 16.03376770019531 16.03373718261719 C 11.94598388671875 20.12149047851562 8.736968994140625 24.88081359863281 6.495811462402344 30.17947387695312 C 4.176162719726562 35.66371917724609 3.000007629394531 41.49116516113281 3.000007629394531 47.49993515014648 C 3.000007629394531 53.50870513916016 4.176162719726562 59.33615112304688 6.495811462402344 64.82039642333984 C 8.736968994140625 70.11905670166016 11.94598388671875 74.87837982177734 16.03376770019531 78.96613311767578 C 20.12153625488281 83.05390167236328 24.880859375 86.26293182373047 30.17951965332031 88.50407409667969 C 35.66378021240234 90.82372283935547 41.49122619628906 91.99987030029297 47.5000114440918 91.99987030029297 C 53.50879669189453 91.99987030029297 59.33624267578125 90.82372283935547 64.82050323486328 88.50407409667969 C 70.11916351318359 86.26293182373047 74.87848663330078 83.05390167236328 78.96625518798828 78.96613311767578 C 83.05403900146484 74.87837982177734 86.2630615234375 70.11905670166016 88.50421142578125 64.82039642333984 C 90.82386016845703 59.33615112304688 92.00001525878906 53.50870513916016 92.00001525878906 47.49993515014648 C 92.00001525878906 41.49116516113281 90.82386016845703 35.66371917724609 88.50421142578125 30.17947387695312 C 86.2630615234375 24.88081359863281 83.05403900146484 20.12149047851562 78.96625518798828 16.03373718261719 C 74.87848663330078 11.94596862792969 70.11916351318359 8.7369384765625 64.82050323486328 6.495796203613281 C 59.33624267578125 4.1761474609375 53.50879669189453 3 47.5000114440918 3 M 47.5000114440918 0 C 73.73353576660156 0 95.00001525878906 21.26644134521484 95.00001525878906 47.49993515014648 C 95.00001525878906 73.73342895507812 73.73353576660156 94.99987030029297 47.5000114440918 94.99987030029297 C 21.26648712158203 94.99987030029297 7.62939453125e-06 73.73342895507812 7.62939453125e-06 47.49993515014648 C 7.62939453125e-06 21.26644134521484 21.26648712158203 0 47.5000114440918 0 Z" stroke="none" fill="#da53f2"/>
                                    </g>
                                  </g>
                                </g>
                              </g>
                            </g>
                          </g>
                        </g>
                      </g>
                    </g>
                  </g>
                </g>
              </g>
            </g>
          </g>
        </g>
      </g>
    </g>
    <g id="g7311" transform="translate(9193.652 3359.625)">
      <g id="g7313" transform="translate(0 -682.665)">
        <g id="g7315" clip-path="url(#clip-path)">
          <g id="g7321" transform="translate(22.919 55.318)">
            <path id="path7323" d="M-47.31-88.416h-.33a4.707,4.707,0,0,1-4.707-4.707,4.707,4.707,0,0,1,4.707-4.707h.33A4.707,4.707,0,0,1-42.6-93.123a4.707,4.707,0,0,1-4.707,4.707" transform="translate(52.348 97.83)" fill="#e2dee2"/>
          </g>
          <g id="g7325" transform="translate(22.919 59.391)">
            <path id="path7327" d="M-37.814-5.959h0a4.725,4.725,0,0,1,.045-.634H-41.8a4.746,4.746,0,0,0-.044.634,4.707,4.707,0,0,0,4.707,4.707h.33a4.691,4.691,0,0,0,1.848-.377,4.708,4.708,0,0,1-2.859-4.33" transform="translate(41.84 6.593)" fill="#cbc4cb"/>
          </g>
          <g id="g7329" transform="translate(22.919 55.318)">
            <path id="path7331" d="M-47.31-88.416h-.33a4.707,4.707,0,0,1-4.707-4.707,4.707,4.707,0,0,1,4.707-4.707h.33A4.707,4.707,0,0,1-42.6-93.123,4.707,4.707,0,0,1-47.31-88.416Z" transform="translate(52.348 97.83)" fill="none" stroke="#000" stroke-linecap="round" stroke-linejoin="round" stroke-miterlimit="10" stroke-width="1.2"/>
          </g>
          <g id="g7333" transform="translate(10.614 8.982)">
            <path id="path7335" d="M-322.639-161.319A17.177,17.177,0,0,0-339.607-178.5a17.3,17.3,0,0,0-17.387,17.176,17.158,17.158,0,0,0,7.518,14.205,5.538,5.538,0,0,1,2.364,3.638l1.267,7.44h12.057l1.257-7.384a5.643,5.643,0,0,1,2.391-3.707,17.158,17.158,0,0,0,7.5-14.193" transform="translate(356.994 178.496)" fill="#fed402"/>
          </g>
          <g id="g7337" transform="translate(27.709 30.543)">
            <path id="path7339" d="M0,0V22.628" fill="none" stroke="#000" stroke-linecap="round" stroke-linejoin="round" stroke-miterlimit="10" stroke-width="1.2"/>
          </g>
          <g id="g7341" transform="translate(10.614 9.38)">
            <path id="path7343" d="M-92.807-325.158l.35,2.053h4.6l-.622-3.652a5.537,5.537,0,0,0-2.364-3.638A17.158,17.158,0,0,1-98.36-344.6a17.284,17.284,0,0,1,9.209-15.18A17.326,17.326,0,0,0-102.689-343,17.158,17.158,0,0,0-95.171-328.8a5.537,5.537,0,0,1,2.364,3.638" transform="translate(102.689 359.78)" fill="#fac600"/>
          </g>
          <g id="g7345" transform="translate(10.614 8.982)">
            <path id="path7347" d="M-322.639-161.319A17.177,17.177,0,0,0-339.607-178.5a17.3,17.3,0,0,0-17.387,17.176,17.158,17.158,0,0,0,7.518,14.205,5.538,5.538,0,0,1,2.364,3.638l1.267,7.44h12.057l1.257-7.384a5.643,5.643,0,0,1,2.391-3.707A17.158,17.158,0,0,0-322.639-161.319Z" transform="translate(356.994 178.496)" fill="none" stroke="#000" stroke-linecap="round" stroke-linejoin="round" stroke-miterlimit="10" stroke-width="1.2"/>
          </g>
          <g id="g7349" transform="translate(17.964 50.5)">
            <path id="path7351" d="M-163.714-41.747h-15.21a2.223,2.223,0,0,1-2.222-2.222,2.223,2.223,0,0,1,2.222-2.223h15.21a2.223,2.223,0,0,1,2.222,2.223,2.223,2.223,0,0,1-2.222,2.222" transform="translate(181.146 46.192)" fill="#a79ca7"/>
          </g>
          <g id="g7353" transform="translate(17.964 50.501)">
            <path id="path7355" d="M-50.607-20.873h0A2.223,2.223,0,0,1-48.385-23.1h-5.389A2.223,2.223,0,0,0-56-20.873a2.222,2.222,0,0,0,2.222,2.222h5.389a2.222,2.222,0,0,1-2.222-2.222" transform="translate(55.996 23.096)" fill="#918291"/>
          </g>
          <g id="g7357" transform="translate(17.227 15.678)">
            <path id="path7359" d="M-196.875-98.437a10.481,10.481,0,0,1-10.482,10.482,10.482,10.482,0,0,1-10.482-10.482,10.482,10.482,0,0,1,10.482-10.482,10.482,10.482,0,0,1,10.482,10.482" transform="translate(217.838 108.918)" fill="#fff"/>
          </g>
          <g id="g7361" transform="translate(17.227 15.678)">
            <path id="path7363" d="M-50.3-98.437a10.485,10.485,0,0,1,7.8-10.135,10.493,10.493,0,0,0-2.678-.347A10.482,10.482,0,0,0-55.652-98.437,10.481,10.481,0,0,0-45.17-87.955a10.493,10.493,0,0,0,2.678-.347,10.485,10.485,0,0,1-7.8-10.135" transform="translate(55.652 108.918)" fill="#f3f0f3"/>
          </g>
          <g id="g7365" transform="translate(17.227 15.678)">
            <path id="path7367" d="M-195.216-80.51a10.483,10.483,0,0,0-10.3-8.573A10.482,10.482,0,0,0-216-78.6a10.482,10.482,0,0,0,10.482,10.482,10.485,10.485,0,0,0,10.16-7.9" transform="translate(216.002 89.082)" fill="none" stroke="#000" stroke-linecap="round" stroke-linejoin="round" stroke-miterlimit="10" stroke-width="1.2"/>
          </g>
          <g id="g7369" transform="translate(17.964 46.055)">
            <path id="path7371" d="M-163.714-41.746h-15.21a2.222,2.222,0,0,1-2.222-2.222,2.223,2.223,0,0,1,2.222-2.223h15.21a2.223,2.223,0,0,1,2.222,2.223,2.222,2.222,0,0,1-2.222,2.222" transform="translate(181.146 46.191)" fill="#918291"/>
          </g>
          <g id="g7373" transform="translate(17.964 46.056)">
            <path id="path7375" d="M-50.607-20.872h0a2.222,2.222,0,0,1,2.222-2.222h-5.389A2.222,2.222,0,0,0-56-20.872a2.222,2.222,0,0,0,2.222,2.222h5.389a2.222,2.222,0,0,1-2.222-2.222" transform="translate(55.996 23.095)" fill="#7a6d79"/>
          </g>
          <g id="g7377" transform="translate(17.964 46.055)">
            <path id="path7379" d="M-142.189-41.746h2.292a2.223,2.223,0,0,0,2.223-2.222,2.223,2.223,0,0,0-2.223-2.223h-15.21a2.223,2.223,0,0,0-2.222,2.223,2.222,2.222,0,0,0,2.222,2.222h8.427" transform="translate(157.329 46.191)" fill="none" stroke="#000" stroke-linecap="round" stroke-linejoin="round" stroke-miterlimit="10" stroke-width="1.2"/>
          </g>
          <g id="g7381" transform="translate(17.964 50.501)">
            <path id="path7383" d="M-163.714,0a2.223,2.223,0,0,1,2.222,2.223,2.223,2.223,0,0,1-2.222,2.223h-15.21a2.223,2.223,0,0,1-2.222-2.223A2.223,2.223,0,0,1-178.924,0" transform="translate(181.146)" fill="none" stroke="#000" stroke-linecap="round" stroke-linejoin="round" stroke-miterlimit="10" stroke-width="1.2"/>
          </g>
          <g id="g7385" transform="translate(17.964 54.946)">
            <path id="path7387" d="M-163.714-41.746h-15.21a2.222,2.222,0,0,1-2.222-2.222,2.223,2.223,0,0,1,2.222-2.223h15.21a2.223,2.223,0,0,1,2.222,2.223,2.222,2.222,0,0,1-2.222,2.222" transform="translate(181.146 46.191)" fill="#918291"/>
          </g>
          <g id="g7389" transform="translate(17.964 54.946)">
            <path id="path7391" d="M-50.607-20.872h0a2.222,2.222,0,0,1,2.222-2.222h-5.389A2.222,2.222,0,0,0-56-20.872a2.222,2.222,0,0,0,2.222,2.222h5.389a2.222,2.222,0,0,1-2.222-2.222" transform="translate(55.996 23.095)" fill="#7a6d79"/>
          </g>
          <g id="g7393" transform="translate(17.964 54.946)">
            <path id="path7395" d="M-163.714-41.746h-15.21a2.222,2.222,0,0,1-2.222-2.222,2.223,2.223,0,0,1,2.222-2.223h15.21a2.223,2.223,0,0,1,2.222,2.223A2.222,2.222,0,0,1-163.714-41.746Z" transform="translate(181.146 46.191)" fill="none" stroke="#000" stroke-linecap="round" stroke-linejoin="round" stroke-miterlimit="10" stroke-width="1.2"/>
          </g>
          <g id="g7397" transform="translate(23.435 23.592)">
            <path id="path7399" d="M0-19.265l3.248,3.248,5.3-5.3" transform="translate(0 21.316)" fill="none" stroke="#000" stroke-linecap="round" stroke-linejoin="round" stroke-miterlimit="10" stroke-width="1.2"/>
          </g>
          <g id="g7401" transform="translate(2.594 26.16)">
            <path id="path7403" d="M0,0H4.064" fill="none" stroke="#000" stroke-linecap="round" stroke-linejoin="round" stroke-miterlimit="10" stroke-width="1.2"/>
          </g>
          <g id="g7405" transform="translate(27.791 0.962)">
            <path id="path7407" d="M0,0V4.064" fill="none" stroke="#000" stroke-linecap="round" stroke-linejoin="round" stroke-miterlimit="10" stroke-width="1.2"/>
          </g>
          <g id="g7409" transform="translate(5.97 36.726)">
            <path id="path7411" d="M0-19.084l3.52-2.032" transform="translate(0 21.116)" fill="none" stroke="#000" stroke-linecap="round" stroke-linejoin="round" stroke-miterlimit="10" stroke-width="1.2"/>
          </g>
          <g id="g7413" transform="translate(15.193 4.338)">
            <path id="path7415" d="M0,0,2.032,3.52" fill="none" stroke="#000" stroke-linecap="round" stroke-linejoin="round" stroke-miterlimit="10" stroke-width="1.2"/>
          </g>
          <g id="g7417" transform="translate(38.358 4.338)">
            <path id="path7419" d="M0-33.055l2.032-3.52" transform="translate(0 36.575)" fill="none" stroke="#000" stroke-linecap="round" stroke-linejoin="round" stroke-miterlimit="10" stroke-width="1.2"/>
          </g>
          <g id="g7421" transform="translate(5.97 13.561)">
            <path id="path7423" d="M0,0,3.52,2.032" fill="none" stroke="#000" stroke-linecap="round" stroke-linejoin="round" stroke-miterlimit="10" stroke-width="1.2"/>
          </g>
          <g id="g7425" transform="translate(41.532 14.501)">
            <path id="path7427" d="M-50.641-121.813v-10.274a2.7,2.7,0,0,0-2.7-2.7,2.7,2.7,0,0,0-2.7,2.7v20.767a4.372,4.372,0,0,0,4.081,4.362v7.3h13.408v-7.3a4.372,4.372,0,0,0,4.081-4.362v-10.493Z" transform="translate(56.033 134.784)" fill="#f6a96c"/>
          </g>
          <g id="g7429" transform="translate(41.532 14.501)">
            <path id="path7431" d="M-24.359-220.357v-20.768a2.7,2.7,0,0,1,1.4-2.363,2.682,2.682,0,0,0-1.3-.333,2.7,2.7,0,0,0-2.7,2.7v20.768A4.372,4.372,0,0,0-22.873-216v7.3h2.594V-216a4.372,4.372,0,0,1-4.081-4.361" transform="translate(26.953 243.821)" fill="#ea9b58"/>
          </g>
          <g id="g7433" transform="translate(41.532 14.501)">
            <path id="path7435" d="M-50.641-121.813v-10.274a2.7,2.7,0,0,0-2.7-2.7,2.7,2.7,0,0,0-2.7,2.7v20.767a4.372,4.372,0,0,0,4.081,4.362v7.3h13.408v-7.3a4.372,4.372,0,0,0,4.081-4.362v-10.493Z" transform="translate(56.033 134.784)" fill="none" stroke="#000" stroke-linecap="round" stroke-linejoin="round" stroke-miterlimit="10" stroke-width="1.2"/>
          </g>
          <g id="g7437" transform="translate(46.924 24.411)">
            <path id="path7439" d="M-50.641-90.333h-5.392v-6.922a2.7,2.7,0,0,1,2.7-2.7,2.7,2.7,0,0,1,2.7,2.7Z" transform="translate(56.033 99.952)" fill="#f6a96c"/>
          </g>
          <g id="g7441" transform="translate(46.924 24.411)">
            <path id="path7443" d="M-37.546-3.151a2.683,2.683,0,0,0-1.3-.336h0a2.7,2.7,0,0,0-2.7,2.7V6.132h2.6V-.791a2.694,2.694,0,0,1,1.394-2.361" transform="translate(41.544 3.487)" fill="#ea9b58"/>
          </g>
          <g id="g7445" transform="translate(46.924 24.411)">
            <path id="path7447" d="M-50.641-90.333h-5.392v-6.922a2.7,2.7,0,0,1,2.7-2.7,2.7,2.7,0,0,1,2.7,2.7Z" transform="translate(56.033 99.952)" fill="none" stroke="#000" stroke-linecap="round" stroke-linejoin="round" stroke-miterlimit="10" stroke-width="1.2"/>
          </g>
          <g id="g7449" transform="translate(52.316 24.411)">
            <path id="path7451" d="M-25.32-90.333h-2.7v-6.922a2.7,2.7,0,0,1,2.7-2.7h0a2.7,2.7,0,0,1,2.7,2.7v4.226a2.7,2.7,0,0,1-2.7,2.7" transform="translate(28.016 99.952)" fill="#f6a96c"/>
          </g>
          <g id="g7453" transform="translate(52.316 24.411)">
            <path id="path7455" d="M-37.532-3.141a2.684,2.684,0,0,0-1.3-.335,2.7,2.7,0,0,0-2.7,2.7V6.143h2.6V-.78a2.7,2.7,0,0,1,1.4-2.362" transform="translate(41.528 3.476)" fill="#ea9b58"/>
          </g>
          <g id="g7457" transform="translate(52.316 24.411)">
            <path id="path7459" d="M-25.32-90.333h-2.7v-6.922a2.7,2.7,0,0,1,2.7-2.7h0a2.7,2.7,0,0,1,2.7,2.7v4.226A2.7,2.7,0,0,1-25.32-90.333Z" transform="translate(28.016 99.952)" fill="none" stroke="#000" stroke-linecap="round" stroke-linejoin="round" stroke-miterlimit="10" stroke-width="1.2"/>
          </g>
          <g id="g7461" transform="translate(57.709 24.411)">
            <path id="path7463" d="M-25.321-90.333h0a2.7,2.7,0,0,1-2.7-2.7v-4.226a2.7,2.7,0,0,1,2.7-2.7,2.7,2.7,0,0,1,2.7,2.7v4.226a2.7,2.7,0,0,1-2.7,2.7" transform="translate(28.017 99.952)" fill="#f6a96c"/>
          </g>
          <g id="g7465" transform="translate(57.709 24.411)">
            <path id="path7467" d="M-24.39-65.012v-4.226a2.7,2.7,0,0,1,1.4-2.363,2.683,2.683,0,0,0-1.3-.333,2.7,2.7,0,0,0-2.7,2.7v4.226a2.7,2.7,0,0,0,2.7,2.7,2.684,2.684,0,0,0,1.3-.334,2.7,2.7,0,0,1-1.4-2.363" transform="translate(26.987 71.934)" fill="#ea9b58"/>
          </g>
          <g id="g7469" transform="translate(57.709 24.411)">
            <path id="path7471" d="M-25.321-90.333h0a2.7,2.7,0,0,1-2.7-2.7v-4.226a2.7,2.7,0,0,1,2.7-2.7,2.7,2.7,0,0,1,2.7,2.7v4.226A2.7,2.7,0,0,1-25.321-90.333Z" transform="translate(28.017 99.952)" fill="none" stroke="#000" stroke-linecap="round" stroke-linejoin="round" stroke-miterlimit="10" stroke-width="1.2"/>
          </g>
          <g id="g7473" transform="translate(41.532 30.678)">
            <path id="path7475" d="M-97.861,0h-7.724a2.7,2.7,0,0,0-2.7,2.7V7.287a4.372,4.372,0,0,0,4.372,4.372h1.02V5.392h5.028a2.7,2.7,0,0,0,2.7-2.7,2.7,2.7,0,0,0-2.7-2.7" transform="translate(108.281)" fill="#f6a96c"/>
          </g>
          <g id="g7477" transform="translate(41.532 30.678)">
            <path id="path7479" d="M-41.06-109.5a4.372,4.372,0,0,1-4.372-4.372v-4.591a2.7,2.7,0,0,1,2.7-2.7h7.724a2.7,2.7,0,0,1,2.7,2.7,2.7,2.7,0,0,1-2.7,2.7H-40.04v2.04" transform="translate(45.432 121.154)" fill="none" stroke="#000" stroke-linecap="round" stroke-linejoin="round" stroke-miterlimit="10" stroke-width="1.2"/>
          </g>
          <g id="g7481" transform="translate(42.989 46.63)">
            <path id="path7483" d="M0-10.534v6.288A1.122,1.122,0,0,0,1.122-3.125H17.533a1.122,1.122,0,0,0,1.122-1.122v-6.288a1.122,1.122,0,0,0-1.122-1.122H1.122A1.122,1.122,0,0,0,0-10.534" transform="translate(0 11.656)" fill="#8ac9fe"/>
          </g>
          <g id="g7485" transform="translate(42.989 46.63)">
            <path id="path7487" d="M-50.561-69.589v-6.288A1.122,1.122,0,0,1-49.44-77h-5.384a1.122,1.122,0,0,0-1.122,1.122v6.288a1.122,1.122,0,0,0,1.122,1.122h5.384a1.122,1.122,0,0,1-1.122-1.122" transform="translate(55.945 76.998)" fill="#60b8fe"/>
          </g>
          <g id="g7489" transform="translate(42.989 46.63)">
            <path id="path7491" d="M-145.758-80.123h2.012a1.122,1.122,0,0,0,1.122-1.122v-6.288a1.122,1.122,0,0,0-1.122-1.122h-16.411a1.122,1.122,0,0,0-1.122,1.122v6.288a1.122,1.122,0,0,0,1.122,1.122h9.908" transform="translate(161.278 88.654)" fill="none" stroke="#000" stroke-linecap="round" stroke-linejoin="round" stroke-miterlimit="10" stroke-width="1.2"/>
          </g>
        </g>
      </g>
    </g>
  </g>
</svg>
