<svg xmlns="http://www.w3.org/2000/svg" xmlns:xlink="http://www.w3.org/1999/xlink" width="113" height="113" viewBox="0 0 113 113">
  <defs>
    <filter id="Trazado_982547" x="0" y="0" width="113" height="113" filterUnits="userSpaceOnUse">
      <feOffset dy="3" input="SourceAlpha"/>
      <feGaussianBlur stdDeviation="3" result="blur"/>
      <feFlood flood-opacity="0.161"/>
      <feComposite operator="in" in2="blur"/>
      <feComposite in="SourceGraphic"/>
    </filter>
  </defs>
  <g id="Grupo_1177337" data-name="Grupo 1177337" transform="translate(-797.49 -3042.308)">
    <g id="Grupo_1177172" data-name="Grupo 1177172" transform="translate(4 1552.873)">
      <g id="Grupo_1176922" data-name="Grupo 1176922" transform="translate(802.49 1495.435)">
        <g id="Grupo_1172322" data-name="Grupo 1172322" transform="translate(0 0)">
          <g id="Grupo_1164700" data-name="Grupo 1164700">
            <g id="Grupo_1160931" data-name="Grupo 1160931">
              <g id="Grupo_1160749" data-name="Grupo 1160749">
                <g id="Grupo_1158891" data-name="Grupo 1158891">
                  <g id="Grupo_1157406" data-name="Grupo 1157406">
                    <g id="Grupo_1155793" data-name="Grupo 1155793">
                      <g id="Grupo_1154704" data-name="Grupo 1154704">
                        <g id="Grupo_1150790" data-name="Grupo 1150790">
                          <g id="Grupo_1154214" data-name="Grupo 1154214">
                            <g id="Grupo_1152583" data-name="Grupo 1152583">
                              <g id="Grupo_1146973" data-name="Grupo 1146973">
                                <g id="Grupo_1146954" data-name="Grupo 1146954">
                                  <g transform="matrix(1, 0, 0, 1, -9, -6)" filter="url(#Trazado_982547)">
                                    <g id="Trazado_982547-2" data-name="Trazado 982547" transform="translate(9 6)" fill="#fbecfd">
                                      <path d="M 47.5000114440918 93.49987030029297 C 41.28938293457031 93.49987030029297 35.26534652709961 92.28384399414062 29.5951976776123 89.88558959960938 C 24.11773109436035 87.56881713867188 19.19814491271973 84.25183868408203 14.97310447692871 80.02680206298828 C 10.74805164337158 75.80176544189453 7.43107795715332 70.88218688964844 5.114304542541504 65.40472412109375 C 2.716038227081299 59.73458862304688 1.500011444091797 53.71054840087891 1.500011444091797 47.49993515014648 C 1.500011444091797 41.28932189941406 2.716038227081299 35.26528167724609 5.114304542541504 29.59514808654785 C 7.43107795715332 24.1176815032959 10.74805164337158 19.1981086730957 14.97310447692871 14.97306823730469 C 19.19814491271973 10.74802875518799 24.11773109436035 7.431055068969727 29.5951976776123 5.11428165435791 C 35.26534652709961 2.716028451919556 41.28938293457031 1.500001788139343 47.5000114440918 1.500001788139343 C 53.71063995361328 1.500001788139343 59.73467636108398 2.716028451919556 65.40482330322266 5.11428165435791 C 70.88229370117188 7.431055068969727 75.8018798828125 10.74802875518799 80.02691650390625 14.97306823730469 C 84.25196838378906 19.1981086730957 87.56894683837891 24.1176815032959 89.88571929931641 29.59514808654785 C 92.28398132324219 35.26528167724609 93.50001525878906 41.28932189941406 93.50001525878906 47.49993515014648 C 93.50001525878906 53.71054840087891 92.28398132324219 59.73458862304688 89.88571929931641 65.40472412109375 C 87.56894683837891 70.88218688964844 84.25196838378906 75.80176544189453 80.02691650390625 80.02680206298828 C 75.8018798828125 84.25183868408203 70.88229370117188 87.56881713867188 65.40482330322266 89.88558959960938 C 59.73467636108398 92.28384399414062 53.71063995361328 93.49987030029297 47.5000114440918 93.49987030029297 Z" stroke="none"/>
                                      <path d="M 47.5000114440918 3 C 41.49122619628906 3 35.66378021240234 4.1761474609375 30.17951965332031 6.495796203613281 C 24.880859375 8.7369384765625 20.12153625488281 11.94596862792969 16.03376770019531 16.03373718261719 C 11.94598388671875 20.12149047851562 8.736968994140625 24.88081359863281 6.495811462402344 30.17947387695312 C 4.176162719726562 35.66371917724609 3.000007629394531 41.49116516113281 3.000007629394531 47.49993515014648 C 3.000007629394531 53.50870513916016 4.176162719726562 59.33615112304688 6.495811462402344 64.82039642333984 C 8.736968994140625 70.11905670166016 11.94598388671875 74.87837982177734 16.03376770019531 78.96613311767578 C 20.12153625488281 83.05390167236328 24.880859375 86.26293182373047 30.17951965332031 88.50407409667969 C 35.66378021240234 90.82372283935547 41.49122619628906 91.99987030029297 47.5000114440918 91.99987030029297 C 53.50879669189453 91.99987030029297 59.33624267578125 90.82372283935547 64.82050323486328 88.50407409667969 C 70.11916351318359 86.26293182373047 74.87848663330078 83.05390167236328 78.96625518798828 78.96613311767578 C 83.05403900146484 74.87837982177734 86.2630615234375 70.11905670166016 88.50421142578125 64.82039642333984 C 90.82386016845703 59.33615112304688 92.00001525878906 53.50870513916016 92.00001525878906 47.49993515014648 C 92.00001525878906 41.49116516113281 90.82386016845703 35.66371917724609 88.50421142578125 30.17947387695312 C 86.2630615234375 24.88081359863281 83.05403900146484 20.12149047851562 78.96625518798828 16.03373718261719 C 74.87848663330078 11.94596862792969 70.11916351318359 8.7369384765625 64.82050323486328 6.495796203613281 C 59.33624267578125 4.1761474609375 53.50879669189453 3 47.5000114440918 3 M 47.5000114440918 0 C 73.73353576660156 0 95.00001525878906 21.26644134521484 95.00001525878906 47.49993515014648 C 95.00001525878906 73.73342895507812 73.73353576660156 94.99987030029297 47.5000114440918 94.99987030029297 C 21.26648712158203 94.99987030029297 7.62939453125e-06 73.73342895507812 7.62939453125e-06 47.49993515014648 C 7.62939453125e-06 21.26644134521484 21.26648712158203 0 47.5000114440918 0 Z" stroke="none" fill="#da53f2"/>
                                    </g>
                                  </g>
                                </g>
                              </g>
                            </g>
                          </g>
                        </g>
                      </g>
                    </g>
                  </g>
                </g>
              </g>
            </g>
          </g>
        </g>
      </g>
    </g>
    <g id="process_12964135" transform="translate(813.712 3044.671)">
      <g id="Grupo_1177331" data-name="Grupo 1177331" transform="translate(23.79 20.01)">
        <g id="Grupo_1177330" data-name="Grupo 1177330" transform="translate(0 18.808)">
          <path id="Trazado_1036095" data-name="Trazado 1036095" d="M159.27,162.6H133.683A2.681,2.681,0,0,0,131,165.284v25.185a2.489,2.489,0,0,0,2.489,2.489h25.972a2.489,2.489,0,0,0,2.489-2.489V165.285A2.682,2.682,0,0,0,159.27,162.6Z" transform="translate(-131.002 -162.603)" fill="#e19974"/>
          <path id="Trazado_1036096" data-name="Trazado 1036096" d="M318.606,165.282v25.185a2.488,2.488,0,0,1-2.489,2.489h-4.465a2.489,2.489,0,0,0,2.489-2.489V165.282a2.682,2.682,0,0,0-2.682-2.682h4.466A2.682,2.682,0,0,1,318.606,165.282Z" transform="translate(-287.657 -162.6)" fill="#dc8758"/>
          <rect id="Rectángulo_415941" data-name="Rectángulo 415941" width="5.819" height="9.787" transform="translate(12.565 0)" fill="#fee97d"/>
        </g>
        <path id="Trazado_1036097" data-name="Trazado 1036097" d="M378.725,31.8l-1.81-1.045a6.992,6.992,0,0,0,0-1.741l1.81-1.045a1.207,1.207,0,0,0,.442-1.649l-1.587-2.75a1.207,1.207,0,0,0-1.649-.441l-1.808,1.043a7.116,7.116,0,0,0-1.509-.873V21.218a1.208,1.208,0,0,0-1.207-1.208h-3.175a1.208,1.208,0,0,0-1.207,1.208V23.3a7.118,7.118,0,0,0-1.509.873l-1.808-1.043a1.207,1.207,0,0,0-1.649.441l-1.587,2.75a1.207,1.207,0,0,0,.442,1.649l1.81,1.045a6.992,6.992,0,0,0,0,1.741l-1.81,1.045a1.206,1.206,0,0,0-.442,1.649L362.06,36.2a1.206,1.206,0,0,0,1.649.442l1.808-1.045a7.118,7.118,0,0,0,1.509.873v2.087a1.207,1.207,0,0,0,1.207,1.207h3.175a1.207,1.207,0,0,0,1.207-1.207V36.471a7.116,7.116,0,0,0,1.509-.873l1.808,1.045a1.206,1.206,0,0,0,1.649-.442l1.587-2.749A1.206,1.206,0,0,0,378.725,31.8ZM369.819,33.1a3.209,3.209,0,1,1,3.21-3.209A3.21,3.21,0,0,1,369.819,33.1Z" transform="translate(-330.064 -20.01)" fill="#678d98"/>
        <path id="Trazado_1036098" data-name="Trazado 1036098" d="M378.725,31.8l-1.81-1.045a6.992,6.992,0,0,0,0-1.741l1.81-1.045a1.207,1.207,0,0,0,.442-1.649l-1.587-2.75a1.207,1.207,0,0,0-1.649-.441l-1.808,1.043a7.116,7.116,0,0,0-1.509-.873V21.218a1.208,1.208,0,0,0-1.207-1.208h-3.175a1.208,1.208,0,0,0-1.207,1.208V23.3a7.118,7.118,0,0,0-1.509.873l-1.808-1.043a1.207,1.207,0,0,0-1.649.441l-1.587,2.75a1.207,1.207,0,0,0,.442,1.649l1.81,1.045a6.992,6.992,0,0,0,0,1.741l-1.81,1.045a1.206,1.206,0,0,0-.442,1.649L362.06,36.2a1.206,1.206,0,0,0,1.649.442l1.808-1.045a7.118,7.118,0,0,0,1.509.873v2.087a1.207,1.207,0,0,0,1.207,1.207h3.175a1.207,1.207,0,0,0,1.207-1.207V36.471a7.116,7.116,0,0,0,1.509-.873l1.808,1.045a1.206,1.206,0,0,0,1.649-.442l1.587-2.749A1.206,1.206,0,0,0,378.725,31.8ZM369.819,33.1a3.209,3.209,0,1,1,3.21-3.209A3.21,3.21,0,0,1,369.819,33.1Z" transform="translate(-330.064 -20.01)" fill="#678d98"/>
        <path id="Trazado_1036099" data-name="Trazado 1036099" d="M423.883,31.8l-1.81-1.045a6.989,6.989,0,0,0,0-1.741l1.81-1.045a1.207,1.207,0,0,0,.442-1.649l-1.587-2.75a1.207,1.207,0,0,0-1.649-.441l-1.808,1.043a7.119,7.119,0,0,0-1.509-.873V21.218a1.208,1.208,0,0,0-1.207-1.208H413.39a1.209,1.209,0,0,0-.772.278,10.625,10.625,0,0,1,5.569,9.348c0,.053,0,.1,0,.157,0,.032,0,.063,0,.095,0,.09,0,.179-.012.268a10.629,10.629,0,0,1-5.846,8.979,1.206,1.206,0,0,0,1.06.63h3.175a1.208,1.208,0,0,0,1.207-1.207V36.471a7.119,7.119,0,0,0,1.509-.873l1.808,1.045a1.206,1.206,0,0,0,1.649-.442l1.587-2.749A1.206,1.206,0,0,0,423.883,31.8Z" transform="translate(-375.222 -20.01)" fill="#537983"/>
      </g>
      <g id="Grupo_1177336" data-name="Grupo 1177336" transform="translate(7.5 20.011)">
        <g id="Grupo_1177332" data-name="Grupo 1177332" transform="translate(16.29 18.808)">
          <path id="Trazado_1036100" data-name="Trazado 1036100" d="M138.926,162.6h-5.242A2.681,2.681,0,0,0,131,165.284v25.185a2.489,2.489,0,0,0,2.489,2.489h25.972a2.489,2.489,0,0,0,2.489-2.489V165.285a2.681,2.681,0,0,0-2.681-2.681h-15.7" transform="translate(-131.002 -162.603)" fill="none" stroke="#000" stroke-linecap="round" stroke-linejoin="round" stroke-miterlimit="10" stroke-width="2"/>
          <line id="Línea_989" data-name="Línea 989" x1="8.297" transform="translate(4.268 26.087)" fill="none" stroke="#000" stroke-linecap="round" stroke-linejoin="round" stroke-miterlimit="10" stroke-width="2"/>
          <rect id="Rectángulo_415942" data-name="Rectángulo 415942" width="5.819" height="9.787" transform="translate(12.565)" fill="none" stroke="#000" stroke-linecap="round" stroke-linejoin="round" stroke-miterlimit="10" stroke-width="2"/>
        </g>
        <g id="Grupo_1177335" data-name="Grupo 1177335" transform="translate(0 3.079)">
          <path id="Trazado_1036101" data-name="Trazado 1036101" d="M77.628,330.115a29.593,29.593,0,0,1-48.764-15.822" transform="translate(-26.046 -278.557)" fill="none" stroke="#000" stroke-linecap="round" stroke-linejoin="round" stroke-miterlimit="10" stroke-width="2"/>
          <path id="Trazado_1036102" data-name="Trazado 1036102" d="M428.784,314.292a29.472,29.472,0,0,1-5.925,12.438" transform="translate(-368.073 -278.556)" fill="none" stroke="#000" stroke-linecap="round" stroke-linejoin="round" stroke-miterlimit="10" stroke-width="2"/>
          <path id="Trazado_1036103" data-name="Trazado 1036103" d="M451.885,175.232a29.375,29.375,0,0,0-2.415-6.962" transform="translate(-391.173 -151.794)" fill="none" stroke="#000" stroke-linecap="round" stroke-linejoin="round" stroke-miterlimit="10" stroke-width="2"/>
          <path id="Trazado_1036104" data-name="Trazado 1036104" d="M28.86,66.8A29.6,29.6,0,0,1,72.585,47.309" transform="translate(-26.043 -43.36)" fill="none" stroke="#000" stroke-linecap="round" stroke-linejoin="round" stroke-miterlimit="10" stroke-width="2"/>
          <g id="Grupo_1177333" data-name="Grupo 1177333" transform="translate(0 17.173)">
            <path id="Trazado_1036105" data-name="Trazado 1036105" d="M7.5,173.557l2.818,6.264L16.582,177" transform="translate(-7.5 -173.557)" fill="none" stroke="#000" stroke-linecap="round" stroke-linejoin="round" stroke-miterlimit="10" stroke-width="2"/>
          </g>
          <g id="Grupo_1177334" data-name="Grupo 1177334" transform="translate(54.448 35.736)">
            <path id="Trazado_1036106" data-name="Trazado 1036106" d="M429.372,320.556l-2.818-6.264-6.264,2.818" transform="translate(-420.29 -314.292)" fill="none" stroke="#000" stroke-linecap="round" stroke-linejoin="round" stroke-miterlimit="10" stroke-width="2"/>
          </g>
        </g>
        <path id="Trazado_1036107" data-name="Trazado 1036107" d="M378.724,31.807l-1.81-1.045a7.039,7.039,0,0,0,0-1.741l1.81-1.045a1.207,1.207,0,0,0,.442-1.649l-1.587-2.749a1.207,1.207,0,0,0-1.649-.442l-1.808,1.044a7.147,7.147,0,0,0-1.509-.873V21.221a1.207,1.207,0,0,0-1.207-1.207h-3.174a1.207,1.207,0,0,0-1.207,1.207v2.086a7.137,7.137,0,0,0-1.509.873l-1.809-1.044a1.207,1.207,0,0,0-1.649.442l-1.587,2.749a1.207,1.207,0,0,0,.442,1.649l1.81,1.045a7.045,7.045,0,0,0,0,1.741l-1.81,1.045a1.207,1.207,0,0,0-.442,1.649l1.587,2.749a1.207,1.207,0,0,0,1.649.442l1.809-1.044a7.149,7.149,0,0,0,1.509.873v2.086a1.207,1.207,0,0,0,1.207,1.207h3.174a1.207,1.207,0,0,0,1.207-1.207V36.475a7.142,7.142,0,0,0,1.509-.873l1.808,1.044a1.207,1.207,0,0,0,1.649-.442l1.587-2.749A1.207,1.207,0,0,0,378.724,31.807Z" transform="translate(-313.772 -20.014)" fill="none" stroke="#000" stroke-linecap="round" stroke-linejoin="round" stroke-miterlimit="10" stroke-width="2"/>
        <circle id="Elipse_12447" data-name="Elipse 12447" cx="3.209" cy="3.209" r="3.209" transform="translate(52.836 6.668)" fill="none" stroke="#000" stroke-linecap="round" stroke-linejoin="round" stroke-miterlimit="10" stroke-width="2"/>
      </g>
    </g>
  </g>
</svg>
