<svg xmlns="http://www.w3.org/2000/svg" xmlns:xlink="http://www.w3.org/1999/xlink" width="113" height="113" viewBox="0 0 113 113">
  <defs>
    <filter id="Trazado_982547" x="0" y="0" width="113" height="113" filterUnits="userSpaceOnUse">
      <feOffset dy="3" input="SourceAlpha"/>
      <feGaussianBlur stdDeviation="3" result="blur"/>
      <feFlood flood-opacity="0.161"/>
      <feComposite operator="in" in2="blur"/>
      <feComposite in="SourceGraphic"/>
    </filter>
  </defs>
  <g id="Grupo_1177341" data-name="Grupo 1177341" transform="translate(-1313.436 -3048.308)">
    <g id="Grupo_1177182" data-name="Grupo 1177182" transform="translate(519.947 1558.873)">
      <g id="Grupo_1176922" data-name="Grupo 1176922" transform="translate(802.49 1495.435)">
        <g id="Grupo_1172322" data-name="Grupo 1172322" transform="translate(0 0)">
          <g id="Grupo_1164700" data-name="Grupo 1164700">
            <g id="Grupo_1160931" data-name="Grupo 1160931">
              <g id="Grupo_1160749" data-name="Grupo 1160749">
                <g id="Grupo_1158891" data-name="Grupo 1158891">
                  <g id="Grupo_1157406" data-name="Grupo 1157406">
                    <g id="Grupo_1155793" data-name="Grupo 1155793">
                      <g id="Grupo_1154704" data-name="Grupo 1154704">
                        <g id="Grupo_1150790" data-name="Grupo 1150790">
                          <g id="Grupo_1154214" data-name="Grupo 1154214">
                            <g id="Grupo_1152583" data-name="Grupo 1152583">
                              <g id="Grupo_1146973" data-name="Grupo 1146973">
                                <g id="Grupo_1146954" data-name="Grupo 1146954">
                                  <g transform="matrix(1, 0, 0, 1, -9, -6)" filter="url(#Trazado_982547)">
                                    <g id="Trazado_982547-2" data-name="Trazado 982547" transform="translate(9 6)" fill="#fbecfd">
                                      <path d="M 47.5000114440918 93.49987030029297 C 41.28938293457031 93.49987030029297 35.26534652709961 92.28384399414062 29.5951976776123 89.88558959960938 C 24.11773109436035 87.56881713867188 19.19814491271973 84.25183868408203 14.97310447692871 80.02680206298828 C 10.74805164337158 75.80176544189453 7.43107795715332 70.88218688964844 5.114304542541504 65.40472412109375 C 2.716038227081299 59.73458862304688 1.500011444091797 53.71054840087891 1.500011444091797 47.49993515014648 C 1.500011444091797 41.28932189941406 2.716038227081299 35.26528167724609 5.114304542541504 29.59514808654785 C 7.43107795715332 24.1176815032959 10.74805164337158 19.1981086730957 14.97310447692871 14.97306823730469 C 19.19814491271973 10.74802875518799 24.11773109436035 7.431055068969727 29.5951976776123 5.11428165435791 C 35.26534652709961 2.716028451919556 41.28938293457031 1.500001788139343 47.5000114440918 1.500001788139343 C 53.71063995361328 1.500001788139343 59.73467636108398 2.716028451919556 65.40482330322266 5.11428165435791 C 70.88229370117188 7.431055068969727 75.8018798828125 10.74802875518799 80.02691650390625 14.97306823730469 C 84.25196838378906 19.1981086730957 87.56894683837891 24.1176815032959 89.88571929931641 29.59514808654785 C 92.28398132324219 35.26528167724609 93.50001525878906 41.28932189941406 93.50001525878906 47.49993515014648 C 93.50001525878906 53.71054840087891 92.28398132324219 59.73458862304688 89.88571929931641 65.40472412109375 C 87.56894683837891 70.88218688964844 84.25196838378906 75.80176544189453 80.02691650390625 80.02680206298828 C 75.8018798828125 84.25183868408203 70.88229370117188 87.56881713867188 65.40482330322266 89.88558959960938 C 59.73467636108398 92.28384399414062 53.71063995361328 93.49987030029297 47.5000114440918 93.49987030029297 Z" stroke="none"/>
                                      <path d="M 47.5000114440918 3 C 41.49122619628906 3 35.66378021240234 4.1761474609375 30.17951965332031 6.495796203613281 C 24.880859375 8.7369384765625 20.12153625488281 11.94596862792969 16.03376770019531 16.03373718261719 C 11.94598388671875 20.12149047851562 8.736968994140625 24.88081359863281 6.495811462402344 30.17947387695312 C 4.176162719726562 35.66371917724609 3.000007629394531 41.49116516113281 3.000007629394531 47.49993515014648 C 3.000007629394531 53.50870513916016 4.176162719726562 59.33615112304688 6.495811462402344 64.82039642333984 C 8.736968994140625 70.11905670166016 11.94598388671875 74.87837982177734 16.03376770019531 78.96613311767578 C 20.12153625488281 83.05390167236328 24.880859375 86.26293182373047 30.17951965332031 88.50407409667969 C 35.66378021240234 90.82372283935547 41.49122619628906 91.99987030029297 47.5000114440918 91.99987030029297 C 53.50879669189453 91.99987030029297 59.33624267578125 90.82372283935547 64.82050323486328 88.50407409667969 C 70.11916351318359 86.26293182373047 74.87848663330078 83.05390167236328 78.96625518798828 78.96613311767578 C 83.05403900146484 74.87837982177734 86.2630615234375 70.11905670166016 88.50421142578125 64.82039642333984 C 90.82386016845703 59.33615112304688 92.00001525878906 53.50870513916016 92.00001525878906 47.49993515014648 C 92.00001525878906 41.49116516113281 90.82386016845703 35.66371917724609 88.50421142578125 30.17947387695312 C 86.2630615234375 24.88081359863281 83.05403900146484 20.12149047851562 78.96625518798828 16.03373718261719 C 74.87848663330078 11.94596862792969 70.11916351318359 8.7369384765625 64.82050323486328 6.495796203613281 C 59.33624267578125 4.1761474609375 53.50879669189453 3 47.5000114440918 3 M 47.5000114440918 0 C 73.73353576660156 0 95.00001525878906 21.26644134521484 95.00001525878906 47.49993515014648 C 95.00001525878906 73.73342895507812 73.73353576660156 94.99987030029297 47.5000114440918 94.99987030029297 C 21.26648712158203 94.99987030029297 7.62939453125e-06 73.73342895507812 7.62939453125e-06 47.49993515014648 C 7.62939453125e-06 21.26644134521484 21.26648712158203 0 47.5000114440918 0 Z" stroke="none" fill="#da53f2"/>
                                    </g>
                                  </g>
                                </g>
                              </g>
                            </g>
                          </g>
                        </g>
                      </g>
                    </g>
                  </g>
                </g>
              </g>
            </g>
          </g>
        </g>
      </g>
    </g>
    <g id="standard_18145619" transform="translate(1314.441 3057.743)">
      <g id="Grupo_1177340" data-name="Grupo 1177340" transform="translate(25.793 15.073)">
        <path id="Trazado_1036136" data-name="Trazado 1036136" d="M137.74,79.59h28.128a1.445,1.445,0,0,1,1.44,1.44v39.657a1.442,1.442,0,0,1-1.44,1.44H137.74a1.442,1.442,0,0,1-1.44-1.44V81.03a1.444,1.444,0,0,1,1.44-1.44Z" transform="translate(-122.378 -71.799)" fill="#bcd2d2" fill-rule="evenodd"/>
        <path id="Trazado_1036137" data-name="Trazado 1036137" d="M136.48,79.59H165.8a1.591,1.591,0,0,1,1.5,1.658v40.386c-8.588-.918-17.926-7.507-24.3-18.2a45.775,45.775,0,0,1-6.7-23.827,1.45,1.45,0,0,1,.183-.016Z" transform="translate(-122.37 -71.799)" fill="#e6f4f4" fill-rule="evenodd"/>
        <path id="Trazado_1036138" data-name="Trazado 1036138" d="M31.87,302.11l13.742,5.581v16.95L31.87,319.058Z" transform="translate(-31.869 -264.657)" fill="#765532" fill-rule="evenodd"/>
        <path id="Trazado_1036139" data-name="Trazado 1036139" d="M46.884,310.79l10.893,4.424v15.459a15.158,15.158,0,0,1-4.957-2.327C46.858,324.132,44.361,316.5,46.884,310.79Z" transform="translate(-44.034 -272.18)" fill="#91683d" fill-rule="evenodd"/>
        <path id="Trazado_1036140" data-name="Trazado 1036140" d="M66.735,319.227,65.3,325.5l-4.546-2.109.934-6.144Z" transform="translate(-56.899 -277.779)" fill="#ffe400" fill-rule="evenodd"/>
        <path id="Trazado_1036141" data-name="Trazado 1036141" d="M148.7,302.11l-13.743,5.581v16.95l13.743-5.584Z" transform="translate(-121.217 -264.657)" fill="#765532" fill-rule="evenodd"/>
        <path id="Trazado_1036142" data-name="Trazado 1036142" d="M157.541,302.11l-12.333,5.011a11.279,11.279,0,0,0,.336,4,11.62,11.62,0,0,0,10.607,8.5l1.39-.562Z" transform="translate(-130.054 -264.657)" fill="#91683d" fill-rule="evenodd"/>
        <path id="Trazado_1036143" data-name="Trazado 1036143" d="M59.355,265.163,45.612,259.48,31.87,265.163l13.742,5.581Z" transform="translate(-31.869 -227.709)" fill="#91683d" fill-rule="evenodd"/>
        <path id="Trazado_1036144" data-name="Trazado 1036144" d="M32.624,296.211l-.764.317L45.6,302.11l12.961-5.264a94.268,94.268,0,0,0-15.315-1.176A101.556,101.556,0,0,0,32.624,296.211Z" transform="translate(-31.86 -259.075)" fill="#765532" fill-rule="evenodd"/>
        <path id="Trazado_1036145" data-name="Trazado 1036145" d="M85.47,272.381l-5.157-2.131-12.413,6.2,5.2,2.113Z" transform="translate(-63.096 -237.044)" fill="#ffe400" fill-rule="evenodd"/>
        <path id="Trazado_1036146" data-name="Trazado 1036146" d="M310.616,21.14h1.757a.936.936,0,0,1,.933.933v.684a.925.925,0,0,0,.692.9,9.524,9.524,0,0,1,2.327.964.921.921,0,0,0,1.126-.148l.484-.484a.94.94,0,0,1,1.322,0l1.244,1.244a.935.935,0,0,1,0,1.318l-.484.484a.926.926,0,0,0-.151,1.13,9.622,9.622,0,0,1,.968,2.323.918.918,0,0,0,.9.692h.684a.936.936,0,0,1,.933.933v1.761a.935.935,0,0,1-.933.933h-.684a.92.92,0,0,0-.9.692,9.569,9.569,0,0,1-.968,2.323.929.929,0,0,0,.151,1.13l.484.484a.935.935,0,0,1,0,1.318L319.258,42a.94.94,0,0,1-1.322,0l-.484-.484a.923.923,0,0,0-1.126-.148,9.721,9.721,0,0,1-2.323.964.921.921,0,0,0-.7.9v.684a.936.936,0,0,1-.933.933h-1.757a.935.935,0,0,1-.933-.933V43.23a.92.92,0,0,0-.692-.9,9.751,9.751,0,0,1-2.327-.964.921.921,0,0,0-1.126.148l-.484.484a.935.935,0,0,1-1.318,0l-1.244-1.244a.935.935,0,0,1,0-1.318l.484-.484a.928.928,0,0,0,.148-1.13,9.614,9.614,0,0,1-.964-2.323.919.919,0,0,0-.9-.692h-.684a.936.936,0,0,1-.933-.933V32.113a.936.936,0,0,1,.933-.933h.684a.919.919,0,0,0,.9-.692,9.561,9.561,0,0,1,.964-2.323.926.926,0,0,0-.148-1.13l-.484-.484a.935.935,0,0,1,0-1.318l1.244-1.244a.935.935,0,0,1,1.318,0l.484.484a.923.923,0,0,0,1.126.148,9.642,9.642,0,0,1,2.327-.964.919.919,0,0,0,.692-.9v-.68a.934.934,0,0,1,.933-.934Z" transform="translate(-263.945 -21.14)" fill="#555" fill-rule="evenodd"/>
        <path id="Trazado_1036147" data-name="Trazado 1036147" d="M340.049,21.14h1.757a.936.936,0,0,1,.933.933v.684a.925.925,0,0,0,.692.9,9.523,9.523,0,0,1,2.327.964.921.921,0,0,0,1.126-.148l.484-.484a.94.94,0,0,1,1.322,0l1.244,1.244a.935.935,0,0,1,0,1.318l-.484.484a.926.926,0,0,0-.151,1.13,9.622,9.622,0,0,1,.968,2.323.918.918,0,0,0,.9.692h.684a.936.936,0,0,1,.933.933v1.761a.935.935,0,0,1-.933.933h-.684a.92.92,0,0,0-.9.692,9.775,9.775,0,0,1-.748,1.928c-.51.049-1.032.076-1.557.076-7.931,0-14.363-5.773-14.363-12.9,0-.291.011-.583.035-.869a.944.944,0,0,1,.854.253l.484.484a.923.923,0,0,0,1.126.148,9.642,9.642,0,0,1,2.327-.964.919.919,0,0,0,.692-.9v-.68a.931.931,0,0,1,.93-.936Z" transform="translate(-293.378 -21.14)" fill="gray" fill-rule="evenodd"/>
        <path id="Trazado_1036148" data-name="Trazado 1036148" d="M347.9,63.15A6.253,6.253,0,1,1,341.64,69.4,6.253,6.253,0,0,1,347.9,63.15Z" transform="translate(-300.346 -57.55)" fill="#b3b4b4" fill-rule="evenodd"/>
        <path id="Trazado_1036149" data-name="Trazado 1036149" d="M359.748,76.727a6.255,6.255,0,0,1-10.527,6.521,6.255,6.255,0,0,1,10.527-6.521Z" transform="translate(-306.465 -67.378)" fill="#e6e6e6" fill-rule="evenodd"/>
        <path id="Trazado_1036150" data-name="Trazado 1036150" d="M164.47,107.2h6.964v6.968H164.47Z" transform="translate(-146.793 -95.728)" fill="#ffc908" fill-rule="evenodd"/>
        <path id="Trazado_1036151" data-name="Trazado 1036151" d="M164.515,107.2h6.918v6.284c-3.922-.336-6.964-2.747-6.964-5.672A4.269,4.269,0,0,1,164.515,107.2Z" transform="translate(-146.793 -95.728)" fill="#ffe400" fill-rule="evenodd"/>
        <path id="Trazado_1036152" data-name="Trazado 1036152" d="M164.47,193.35h6.964v6.968H164.47Z" transform="translate(-146.793 -170.395)" fill="#ffc908" fill-rule="evenodd"/>
        <path id="Trazado_1036153" data-name="Trazado 1036153" d="M164.515,193.35h6.918v6.284c-3.922-.336-6.964-2.747-6.964-5.672A4.255,4.255,0,0,1,164.515,193.35Z" transform="translate(-146.793 -170.395)" fill="#ffe400" fill-rule="evenodd"/>
      </g>
      <path id="Trazado_1036154" data-name="Trazado 1036154" d="M59.907,60.511a.933.933,0,0,1,0,1.866h-2.9a.933.933,0,0,1,0-1.866Zm8.339,0a.933.933,0,0,1,0,1.866H62.772a.933.933,0,1,1,0-1.866Zm-2.906-2.2a.933.933,0,1,1,0-1.866h2.906a.933.933,0,0,1,0,1.866Zm-8.335,0a.933.933,0,0,1,0-1.866h5.108a.933.933,0,0,1,0,1.866Zm1.961-5.932a.933.933,0,0,1,0,1.866H57.005a.933.933,0,0,1,0-1.866Zm9.28,0a.933.933,0,0,1,0,1.866H61.577a.933.933,0,1,1,0-1.866Zm-3.438-2.2a.933.933,0,0,1,0-1.866h3.439a.933.933,0,0,1,0,1.866Zm-9.871,0a.933.933,0,1,1,0-1.866H62.08a.933.933,0,1,1,0,1.866ZM53.831,40.163a.933.933,0,0,1,0-1.866h8.924a.933.933,0,1,1,0,1.866Zm0,3.8a.933.933,0,0,1,0-1.866h12.3a.933.933,0,1,1,0,1.866Zm0-15.28a.933.933,0,0,1,0-1.866H57.02a.933.933,0,1,1,0,1.866Zm0,3.8a.933.933,0,1,1,0-1.866h6.85a.933.933,0,1,1,0,1.866Zm-8.615,9.544A.932.932,0,0,1,46.534,40.7l.431.427,2.169-2.169H44.4v5.1h5.1v-2.83l-1.882,1.878a.935.935,0,0,1-1.318,0Zm5.668-4.809L51.5,36.6a.932.932,0,0,1,1.318,1.318l-1.448,1.448V45a.931.931,0,0,1-.933.933H43.47A.931.931,0,0,1,42.537,45V38.03a.929.929,0,0,1,.933-.929h6.964A.925.925,0,0,1,50.884,37.213ZM45.216,30.54a.932.932,0,0,1,1.318-1.318l.431.427,2.169-2.169H44.4v5.1h5.1v-2.83l-1.882,1.878a.935.935,0,0,1-1.318,0Zm5.668-4.811.612-.612a.932.932,0,1,1,1.318,1.318l-1.448,1.448v5.631a.931.931,0,0,1-.933.933H43.47a.931.931,0,0,1-.933-.933V26.545a.93.93,0,0,1,.933-.929h6.964A.941.941,0,0,1,50.884,25.729Zm18.8,1.228a.93.93,0,0,1,1.545-1.036l.869,1.3,3.571-2.663a.933.933,0,0,1,1.114,1.5L72.429,29.3v0a.932.932,0,0,1-1.33-.227Zm3.658-7.217a7.188,7.188,0,1,1-7.19,7.188A7.187,7.187,0,0,1,73.344,19.74Zm3.763,3.423a5.323,5.323,0,1,0,0,7.527A5.324,5.324,0,0,0,77.107,23.163ZM72.464,14.14h1.757a1.864,1.864,0,0,1,1.318.548,2.365,2.365,0,0,1,.548,2l1.312.445a10.188,10.188,0,0,1,1.24.612l.488-.484a1.864,1.864,0,0,1,2.638,0l1.244,1.24a1.867,1.867,0,0,1,0,2.641l-.484.484a10.88,10.88,0,0,1,.612,1.244,10.273,10.273,0,0,1,.445,1.308,2.381,2.381,0,0,1,2,.548,1.874,1.874,0,0,1,.548,1.318v1.761a1.872,1.872,0,0,1-1.866,1.862h-.684a10.909,10.909,0,0,1-1.058,2.554l.484.484a1.864,1.864,0,0,1,0,2.638l-1.244,1.244a1.864,1.864,0,0,1-2.638,0l-.488-.484a10.82,10.82,0,0,1-1.24.612,10.329,10.329,0,0,1-1.312.445,2.355,2.355,0,0,1-.552,2,1.841,1.841,0,0,1-1.314.548H72.463a1.873,1.873,0,0,1-.809-.185V63.958a2.376,2.376,0,0,1-2.373,2.373H54.212v3.141a.933.933,0,0,1-.583.865L39.932,75.9a.9.9,0,0,1-.789,0l-13.7-5.56a.943.943,0,0,1-.583-.865V52.526a.933.933,0,0,1,.65-.892l13.27-5.487V24.3a2.373,2.373,0,0,1,2.373-2.369H63.994l.171-.307v0l0,0c-.544-.548-1.028-.929-1.028-1.8a1.843,1.843,0,0,1,.548-1.318h0l1.244-1.244a1.855,1.855,0,0,1,1.318-.544v0c.877,0,1.258.484,1.806,1.032a10.457,10.457,0,0,1,2.55-1.058v0H70.6v-.68h0a1.871,1.871,0,0,1,1.868-1.868ZM69.789,36.91a10.736,10.736,0,0,1-1.742-.805l-.484.484a1.867,1.867,0,0,1-2.641,0l-1.244-1.244a1.871,1.871,0,0,1,0-2.638l.488-.484a10.485,10.485,0,0,1-1.058-2.554,2.364,2.364,0,0,1-2.006-.548,1.868,1.868,0,0,1-.544-1.314V26.046A1.867,1.867,0,0,1,62.42,24.18h.688c.035-.125.068-.253.109-.381H41.154a.512.512,0,0,0-.507.507V46.3l2.653,1.1a1.31,1.31,0,0,1,.125.053l5.037,2.082c.041.015.083.031.125.049l4.976,2.059a.935.935,0,0,1,.65.892v11.94H69.285a.512.512,0,0,0,.507-.507V36.91Zm4.432-20.9H72.464c-.011-.015,0,.585,0,.68h0a1.86,1.86,0,0,1-1.384,1.8,8.763,8.763,0,0,0-2.1.869,1.862,1.862,0,0,1-2.255-.291l-.48-.484L65,19.824v0l.48.484a1.852,1.852,0,0,1,.295,2.251,8.576,8.576,0,0,0-.869,2.1,1.86,1.86,0,0,1-1.8,1.382H62.42v1.761a2.566,2.566,0,0,1,1.821.381c.718.552.647,1.205,1.013,2.037l.521,1.065a1.857,1.857,0,0,1-.295,2.251l-.48.484,1.24,1.244a2.572,2.572,0,0,1,1.565-1.013,1.827,1.827,0,0,1,1.176.239,8.942,8.942,0,0,0,2.1.869,1.855,1.855,0,0,1,1.384,1.8v.684h1.757a2.562,2.562,0,0,1,.385-1.817,1.864,1.864,0,0,1,1-.665A9.3,9.3,0,0,0,76.685,35l1.024-.5a1.861,1.861,0,0,1,2.251.291l.484.484,1.244-1.244a2.539,2.539,0,0,1-1.013-1.561,1.85,1.85,0,0,1,.235-1.176,8.533,8.533,0,0,0,.869-2.1,1.859,1.859,0,0,1,1.8-1.382v0h.684V26.045a2.56,2.56,0,0,1-1.817-.381,1.863,1.863,0,0,1-.669-1,8.172,8.172,0,0,0-.363-1.077l-.507-1.024A1.862,1.862,0,0,1,81.2,20.31l.484-.484-1.244-1.244A2.567,2.567,0,0,1,78.884,19.6a1.827,1.827,0,0,1-1.176-.239,9.346,9.346,0,0,0-1.024-.5,8.374,8.374,0,0,0-1.077-.367,1.858,1.858,0,0,1-1.386-1.8ZM35.755,55.568l10.168-5.079L43.047,49.3,32.857,54.388Zm12.454-4.134L38.059,56.5l1.477.6,11.29-4.587ZM30.556,53.453l10.209-5.1-1.228-.507L28.251,52.516Zm21.79.457L40.471,58.735V73.672l11.876-4.825ZM38.6,58.735,36.294,57.8,35.1,63a.931.931,0,0,1-1.3.639l-4.546-2.113a.93.93,0,0,1-.533-.982l.832-5.491-2.826-1.149V68.845L38.6,73.67Zm-4.058-1.648L31.334,55.78l-.661,4.356,2.869,1.33Z"/>
    </g>
  </g>
</svg>
