<svg xmlns="http://www.w3.org/2000/svg" xmlns:xlink="http://www.w3.org/1999/xlink" width="113" height="113" viewBox="0 0 113 113">
  <defs>
    <filter id="Trazado_982547" x="0" y="0" width="113" height="113" filterUnits="userSpaceOnUse">
      <feOffset dy="3" input="SourceAlpha"/>
      <feGaussianBlur stdDeviation="3" result="blur"/>
      <feFlood flood-opacity="0.161"/>
      <feComposite operator="in" in2="blur"/>
      <feComposite in="SourceGraphic"/>
    </filter>
  </defs>
  <g id="Grupo_1177339" data-name="Grupo 1177339" transform="translate(-1113.49 -3042.308)">
    <g id="Grupo_1177181" data-name="Grupo 1177181" transform="translate(4 1552.873)">
      <g id="Grupo_1176923" data-name="Grupo 1176923" transform="translate(1118.49 1495.435)">
        <g id="Grupo_1172323" data-name="Grupo 1172323" transform="translate(0 0)">
          <g id="Grupo_1166163" data-name="Grupo 1166163">
            <g id="Grupo_1164700" data-name="Grupo 1164700">
              <g id="Grupo_1160931" data-name="Grupo 1160931">
                <g id="Grupo_1160749" data-name="Grupo 1160749">
                  <g id="Grupo_1158891" data-name="Grupo 1158891">
                    <g id="Grupo_1157406" data-name="Grupo 1157406">
                      <g id="Grupo_1155793" data-name="Grupo 1155793">
                        <g id="Grupo_1154704" data-name="Grupo 1154704">
                          <g id="Grupo_1150790" data-name="Grupo 1150790">
                            <g id="Grupo_1154214" data-name="Grupo 1154214">
                              <g id="Grupo_1152583" data-name="Grupo 1152583">
                                <g id="Grupo_1146973" data-name="Grupo 1146973">
                                  <g id="Grupo_1146954" data-name="Grupo 1146954">
                                    <g transform="matrix(1, 0, 0, 1, -9, -6)" filter="url(#Trazado_982547)">
                                      <g id="Trazado_982547-2" data-name="Trazado 982547" transform="translate(9 6)" fill="#fbecfd">
                                        <path d="M 47.5000114440918 93.49987030029297 C 41.28938293457031 93.49987030029297 35.26534652709961 92.28384399414062 29.5951976776123 89.88558959960938 C 24.11773109436035 87.56881713867188 19.19814491271973 84.25183868408203 14.97310447692871 80.02680206298828 C 10.74805164337158 75.80176544189453 7.43107795715332 70.88218688964844 5.114304542541504 65.40472412109375 C 2.716038227081299 59.73458862304688 1.500011444091797 53.71054840087891 1.500011444091797 47.49993515014648 C 1.500011444091797 41.28932189941406 2.716038227081299 35.26528167724609 5.114304542541504 29.59514808654785 C 7.43107795715332 24.1176815032959 10.74805164337158 19.1981086730957 14.97310447692871 14.97306823730469 C 19.19814491271973 10.74802875518799 24.11773109436035 7.431055068969727 29.5951976776123 5.11428165435791 C 35.26534652709961 2.716028451919556 41.28938293457031 1.500001788139343 47.5000114440918 1.500001788139343 C 53.71063995361328 1.500001788139343 59.73467636108398 2.716028451919556 65.40482330322266 5.11428165435791 C 70.88229370117188 7.431055068969727 75.8018798828125 10.74802875518799 80.02691650390625 14.97306823730469 C 84.25196838378906 19.1981086730957 87.56894683837891 24.1176815032959 89.88571929931641 29.59514808654785 C 92.28398132324219 35.26528167724609 93.50001525878906 41.28932189941406 93.50001525878906 47.49993515014648 C 93.50001525878906 53.71054840087891 92.28398132324219 59.73458862304688 89.88571929931641 65.40472412109375 C 87.56894683837891 70.88218688964844 84.25196838378906 75.80176544189453 80.02691650390625 80.02680206298828 C 75.8018798828125 84.25183868408203 70.88229370117188 87.56881713867188 65.40482330322266 89.88558959960938 C 59.73467636108398 92.28384399414062 53.71063995361328 93.49987030029297 47.5000114440918 93.49987030029297 Z" stroke="none"/>
                                        <path d="M 47.5000114440918 3 C 41.49122619628906 3 35.66378021240234 4.1761474609375 30.17951965332031 6.495796203613281 C 24.880859375 8.7369384765625 20.12153625488281 11.94596862792969 16.03376770019531 16.03373718261719 C 11.94598388671875 20.12149047851562 8.736968994140625 24.88081359863281 6.495811462402344 30.17947387695312 C 4.176162719726562 35.66371917724609 3.000007629394531 41.49116516113281 3.000007629394531 47.49993515014648 C 3.000007629394531 53.50870513916016 4.176162719726562 59.33615112304688 6.495811462402344 64.82039642333984 C 8.736968994140625 70.11905670166016 11.94598388671875 74.87837982177734 16.03376770019531 78.96613311767578 C 20.12153625488281 83.05390167236328 24.880859375 86.26293182373047 30.17951965332031 88.50407409667969 C 35.66378021240234 90.82372283935547 41.49122619628906 91.99987030029297 47.5000114440918 91.99987030029297 C 53.50879669189453 91.99987030029297 59.33624267578125 90.82372283935547 64.82050323486328 88.50407409667969 C 70.11916351318359 86.26293182373047 74.87848663330078 83.05390167236328 78.96625518798828 78.96613311767578 C 83.05403900146484 74.87837982177734 86.2630615234375 70.11905670166016 88.50421142578125 64.82039642333984 C 90.82386016845703 59.33615112304688 92.00001525878906 53.50870513916016 92.00001525878906 47.49993515014648 C 92.00001525878906 41.49116516113281 90.82386016845703 35.66371917724609 88.50421142578125 30.17947387695312 C 86.2630615234375 24.88081359863281 83.05403900146484 20.12149047851562 78.96625518798828 16.03373718261719 C 74.87848663330078 11.94596862792969 70.11916351318359 8.7369384765625 64.82050323486328 6.495796203613281 C 59.33624267578125 4.1761474609375 53.50879669189453 3 47.5000114440918 3 M 47.5000114440918 0 C 73.73353576660156 0 95.00001525878906 21.26644134521484 95.00001525878906 47.49993515014648 C 95.00001525878906 73.73342895507812 73.73353576660156 94.99987030029297 47.5000114440918 94.99987030029297 C 21.26648712158203 94.99987030029297 7.62939453125e-06 73.73342895507812 7.62939453125e-06 47.49993515014648 C 7.62939453125e-06 21.26644134521484 21.26648712158203 0 47.5000114440918 0 Z" stroke="none" fill="#da53f2"/>
                                      </g>
                                    </g>
                                  </g>
                                </g>
                              </g>
                            </g>
                          </g>
                        </g>
                      </g>
                    </g>
                  </g>
                </g>
              </g>
            </g>
          </g>
        </g>
      </g>
    </g>
    <g id="procurement_18558193" transform="translate(1135.728 3031.087)">
      <path id="Trazado_1036108" data-name="Trazado 1036108" d="M196.111,45.627h26.651l4.475,4.471v35.37H196.111Z" transform="translate(-169.867 -6.074)" fill="#d5e3f2" fill-rule="evenodd"/>
      <path id="Trazado_1036109" data-name="Trazado 1036109" d="M362.325,240.564a8.4,8.4,0,0,1,2.289.949l2-1.154a9.031,9.031,0,0,1,1.966,1.966l-1.158,2a8.148,8.148,0,0,1,.949,2.285l2.232.6a8.991,8.991,0,0,1,0,2.782l-2.232.6a8.172,8.172,0,0,1-.949,2.289l1.158,2a8.944,8.944,0,0,1-1.966,1.966l-2-1.158a8.167,8.167,0,0,1-2.289.949l-.6,2.236a9,9,0,0,1-2.782,0l-.6-2.236a8.213,8.213,0,0,1-2.289-.949l-2,1.158a8.944,8.944,0,0,1-1.966-1.966l1.154-2a8.275,8.275,0,0,1-.945-2.289l-2.236-.6a9,9,0,0,1,0-2.782l2.232-.6a8.257,8.257,0,0,1,.949-2.285l-1.154-2a8.946,8.946,0,0,1,1.966-1.966l2,1.154a8.45,8.45,0,0,1,2.289-.949l.6-2.232a8.991,8.991,0,0,1,2.782,0Z" transform="translate(-303.114 -172.884)" fill="#3f5163" fill-rule="evenodd"/>
      <path id="Trazado_1036110" data-name="Trazado 1036110" d="M395.9,289.052a4.883,4.883,0,1,0-4.881-4.885A4.883,4.883,0,0,0,395.9,289.052Z" transform="translate(-338.679 -208.447)" fill="#d5e3f2" fill-rule="evenodd"/>
      <path id="Trazado_1036111" data-name="Trazado 1036111" d="M224.968,92.568h6.354v6.35h-6.354Z" transform="translate(-194.86 -46.73)" fill="#69a7ff"/>
      <path id="Trazado_1036112" data-name="Trazado 1036112" d="M224.968,166.865h6.354v6.35h-6.354Z" transform="translate(-194.86 -111.079)" fill="#ffab02"/>
      <path id="Trazado_1036113" data-name="Trazado 1036113" d="M135.818,329.97h12.563v12.563H135.818Z" transform="translate(-117.647 -252.345)" fill="#fbbd80"/>
      <path id="Trazado_1036114" data-name="Trazado 1036114" d="M171,329.97h3.139v4.555H171Z" transform="translate(-148.115 -252.345)" fill="#fb4455"/>
      <path id="Trazado_1036115" data-name="Trazado 1036115" d="M229.645,329.97h12.563v12.563H229.645Z" transform="translate(-198.911 -252.345)" fill="#f5ad65"/>
      <path id="Trazado_1036116" data-name="Trazado 1036116" d="M264.823,329.97h3.139v4.555h-3.139Z" transform="translate(-229.379 -252.345)" fill="#fb4455"/>
      <path id="Trazado_1036117" data-name="Trazado 1036117" d="M135.818,236.143h12.563v12.563H135.818Z" transform="translate(-117.647 -171.081)" fill="#f5ad65"/>
      <path id="Trazado_1036118" data-name="Trazado 1036118" d="M171,236.143h3.139V240.7H171Z" transform="translate(-148.115 -171.081)" fill="#fb4455"/>
      <g id="Grupo_1177338" data-name="Grupo 1177338" transform="translate(0.925 39.553)">
        <path id="Trazado_1036119" data-name="Trazado 1036119" d="M54.825,117.075H58.8a2.43,2.43,0,0,1,2.421,2.421v37.51a1.552,1.552,0,0,0,1.552,1.552H92.89a1.552,1.552,0,1,0,0-3.1H64.325V119.5A5.54,5.54,0,0,0,58.8,113.97H54.825a1.552,1.552,0,1,0,0,3.1Z" transform="translate(-47.079 -104.819)" fill="#3f5163" fill-rule="evenodd"/>
        <path id="Trazado_1036120" data-name="Trazado 1036120" d="M97.047,404.332a4.8,4.8,0,1,0-4.8-4.793A4.8,4.8,0,0,0,97.047,404.332Z" transform="translate(-80.836 -347.997)" fill="#69a7ff" fill-rule="evenodd"/>
        <path id="Trazado_1036121" data-name="Trazado 1036121" d="M115.411,419.857a1.957,1.957,0,1,0-1.958-1.955,1.957,1.957,0,0,0,1.958,1.955Z" transform="translate(-99.201 -366.361)" fill="#d5e3f2" fill-rule="evenodd"/>
        <path id="Trazado_1036122" data-name="Trazado 1036122" d="M9.039,110.427H17.73v4.057H9.039a2.028,2.028,0,0,1,0-4.057Z" transform="translate(-7.012 -101.751)" fill="#ffd23b" fill-rule="evenodd"/>
        <path id="Trazado_1036123" data-name="Trazado 1036123" d="M395.16,45.627l4.475,4.471H395.16Z" transform="translate(-343.189 -45.627)" fill="#b7cfe8" fill-rule="evenodd"/>
        <path id="Trazado_1036124" data-name="Trazado 1036124" d="M13.644,115.843H9.788a2.034,2.034,0,0,1-2.026-2.031,1.979,1.979,0,0,1,.133-.721,2.028,2.028,0,0,0,1.146,3.7h8.691v-.949Z" transform="translate(-7.014 -104.058)" fill="#e8bd31" fill-rule="evenodd"/>
        <path id="Trazado_1036125" data-name="Trazado 1036125" d="M186.375,439.227H160.292a4.874,4.874,0,0,1-.383,1.006h25.339a1.549,1.549,0,0,0,1.465-1.044A1.617,1.617,0,0,1,186.375,439.227Z" transform="translate(-139.437 -386.493)" fill="#334454" fill-rule="evenodd"/>
        <path id="Trazado_1036126" data-name="Trazado 1036126" d="M91.619,165.232V132.067a2.437,2.437,0,0,0-2.425-2.421H87.065v1.006h1a2.43,2.43,0,0,1,2.421,2.421v32.534a4.773,4.773,0,0,1,1.131-.376Z" transform="translate(-76.346 -118.396)" fill="#334454" fill-rule="evenodd"/>
        <path id="Trazado_1036127" data-name="Trazado 1036127" d="M93.674,399.537a4.8,4.8,0,0,1,4.084-4.744,4.915,4.915,0,0,0-.714-.054,4.8,4.8,0,1,0,0,9.591,4.958,4.958,0,0,0,.717-.054,4.811,4.811,0,0,1-4.088-4.74Z" transform="translate(-80.834 -347.995)" fill="#5f96e6" fill-rule="evenodd"/>
      </g>
      <path id="Trazado_1036128" data-name="Trazado 1036128" d="M135.818,236.143h1.256v12.563h-1.256Z" transform="translate(-117.647 -171.081)" fill="#e89f56"/>
      <path id="Trazado_1036129" data-name="Trazado 1036129" d="M137.073,339.227V329.97h-1.256v8.786A4.717,4.717,0,0,1,137.073,339.227Z" transform="translate(-117.646 -252.345)" fill="#f5ad65" fill-rule="evenodd"/>
      <path id="Trazado_1036130" data-name="Trazado 1036130" d="M229.645,329.97H230.9v12.563h-1.256Z" transform="translate(-198.911 -252.345)" fill="#e89f56"/>
      <path id="Trazado_1036131" data-name="Trazado 1036131" d="M196.111,45.627h1.662V71.136h-1.662Z" transform="translate(-169.867 -6.074)" fill="#b7cfe8"/>
      <path id="Trazado_1036132" data-name="Trazado 1036132" d="M404.47,240.569l.6-2.232h.015c.2-.034.406-.057.611-.076-.2-.015-.41-.027-.611-.03a9.033,9.033,0,0,0-1.537.106l-.6,2.232a8.315,8.315,0,0,0-1.5.528l.729.421a8.449,8.449,0,0,1,2.289-.949Z" transform="translate(-347.715 -172.889)" fill="#334454" fill-rule="evenodd"/>
      <path id="Trazado_1036133" data-name="Trazado 1036133" d="M354.776,258.14l-1.154-2a8.8,8.8,0,0,1,1.329-1.457l-.884-.509a8.945,8.945,0,0,0-1.966,1.966l1.154,2a8.256,8.256,0,0,0-.949,2.285l-2.232.6a9,9,0,0,0,0,2.782l2.236.6a8.28,8.28,0,0,0,.615,1.685q.154.307.33.6l-1.154,2a8.944,8.944,0,0,0,1.966,1.966l.884-.509a8.991,8.991,0,0,1-1.328-1.458l1.154-2q-.177-.3-.33-.6a8.283,8.283,0,0,1-.619-1.685l-2.232-.6a9,9,0,0,1,0-2.782l2.232-.6a8.142,8.142,0,0,1,.949-2.285Z" transform="translate(-303.122 -186.694)" fill="#334454" fill-rule="evenodd"/>
      <path id="Trazado_1036134" data-name="Trazado 1036134" d="M404.47,369.64a8.215,8.215,0,0,1-2.289-.949l-.729.421a8.038,8.038,0,0,0,1.5.528l.6,2.236a9.139,9.139,0,0,0,2.156.076c-.213-.019-.421-.046-.634-.076Z" transform="translate(-347.715 -285.882)" fill="#334454" fill-rule="evenodd"/>
      <path id="Trazado_1036135" data-name="Trazado 1036135" d="M36.458,44.9h-6.35a.937.937,0,0,0-.937.937v6.35a.937.937,0,0,0,.937.937h6.35a.937.937,0,0,0,.937-.937v-6.35a.937.937,0,0,0-.937-.938Zm-.937,6.35H31.046V46.775h4.475ZM53.5,61.672H39.555a.937.937,0,1,1,0-1.875H53.5a.937.937,0,1,1,0,1.875ZM68.42,74.185a.937.937,0,0,0-.683-.76l-1.716-.461a9.056,9.056,0,0,0-.628-1.513l.89-1.54a.937.937,0,0,0-.057-1.025,10.009,10.009,0,0,0-2.169-2.169.937.937,0,0,0-1.019-.054l-1.543.888a9.368,9.368,0,0,0-1.513-.627l-.458-1.717a.937.937,0,0,0-.763-.685c-.151-.023-.3-.042-.454-.059V44.023a.937.937,0,0,0-.275-.663L53.56,38.889a.937.937,0,0,0-.663-.275H26.244a.937.937,0,0,0-.937.937V64.124h-6.2V54.23a6.477,6.477,0,0,0-6.464-6.464h-.187a.937.937,0,0,0-.815-.475H2.95a2.966,2.966,0,1,0,0,5.933h8.692a.937.937,0,0,0,.817-.478h.185a1.5,1.5,0,0,1,1.484,1.484V86.214a5.731,5.731,0,0,0,3,10.613h0a5.73,5.73,0,0,0,4.794-2.6H46.737a2.49,2.49,0,1,0,0-4.98h-2.5V80.328h4.626l-.694,1.206a.937.937,0,0,0,.056,1.021,9.913,9.913,0,0,0,2.171,2.171.937.937,0,0,0,1.021.054l1.537-.89a9.126,9.126,0,0,0,1.515.628l.461,1.72a.937.937,0,0,0,.762.684,10.093,10.093,0,0,0,1.54.119,9.877,9.877,0,0,0,1.532-.119.937.937,0,0,0,.759-.684l.458-1.719a9.142,9.142,0,0,0,1.515-.628l1.541.89a.937.937,0,0,0,1.022-.055,9.91,9.91,0,0,0,2.171-2.171.937.937,0,0,0,.054-1.02l-.89-1.541a9.105,9.105,0,0,0,.628-1.515l1.715-.458a.937.937,0,0,0,.685-.763,9.986,9.986,0,0,0,0-3.07ZM10.7,51.348H2.95a1.091,1.091,0,0,1,0-2.182H10.7Zm43.129-9.533,1.27,1.27h-1.27ZM23.819,66h1.264v2.68H23.819Zm-4.71,0h2.835v3.617a.937.937,0,0,0,.937.937h3.139a.937.937,0,0,0,.937-.937V66H29.8V76.688H19.108Zm5.974,12.564v2.68H23.819v-2.68ZM12.644,50.87H12.58V49.64h.065a4.6,4.6,0,0,1,4.589,4.589V85.363l-.1,0A5.737,5.737,0,0,0,16,85.473V54.229A3.374,3.374,0,0,0,12.644,50.87Zm4.492,44.082a3.858,3.858,0,1,1,3.785-4.584l0,.013a3.853,3.853,0,0,1-3.787,4.571Zm1.972-9.241V78.563h2.835V82.18a.937.937,0,0,0,.937.937H26.02a.937.937,0,0,0,.937-.937V78.563H29.8V89.251H22.561A5.761,5.761,0,0,0,19.108,85.711Zm27.628,5.415a.615.615,0,1,1,0,1.23H22.725a5.726,5.726,0,0,0,.141-1.23ZM35.445,83.118h3.139a.937.937,0,0,0,.937-.937V78.563h2.839V89.251H31.672V78.563h2.835V82.18a.937.937,0,0,0,.938.938Zm.937-1.875v-2.68h1.264v2.68Zm7.853-2.79v-.827a.937.937,0,0,0-.937-.937H31.672V65.062a.937.937,0,0,0-.937-.937H27.182V40.489H51.959v3.534a.937.937,0,0,0,.937.937H56.43V64.436q-.372.03-.741.087a.937.937,0,0,0-.76.683l-.461,1.719a9.373,9.373,0,0,0-1.514.627l-1.54-.888a.937.937,0,0,0-1.02.054,9.848,9.848,0,0,0-2.173,2.173.937.937,0,0,0-.054,1.02l.887,1.538a9.124,9.124,0,0,0-.629,1.516l-1.716.461a.937.937,0,0,0-.683.762,9.967,9.967,0,0,0,0,3.071.937.937,0,0,0,.684.76l1.626.434Zm22.4-2.082-1.617.432a.937.937,0,0,0-.669.683,7.241,7.241,0,0,1-.84,2.026.938.938,0,0,0-.01.955l.841,1.455a8.033,8.033,0,0,1-.918.917L61.971,82a.936.936,0,0,0-.954.01,7.269,7.269,0,0,1-2.028.841.937.937,0,0,0-.682.669l-.432,1.622a8.091,8.091,0,0,1-1.3,0l-.435-1.622a.937.937,0,0,0-.681-.667,7.267,7.267,0,0,1-2.027-.841.937.937,0,0,0-.955-.01l-1.451.84a8.047,8.047,0,0,1-.917-.918l.838-1.455a.937.937,0,0,0-.009-.951q-.145-.241-.27-.49a.907.907,0,0,0-.04-.083,7.238,7.238,0,0,1-.532-1.457.937.937,0,0,0-.669-.683l-1.618-.432a8.067,8.067,0,0,1,0-1.3l1.619-.435a.937.937,0,0,0,.667-.681,7.277,7.277,0,0,1,.841-2.028.937.937,0,0,0,.01-.954l-.837-1.452a7.964,7.964,0,0,1,.918-.918l1.452.837a.937.937,0,0,0,.951-.008,7.5,7.5,0,0,1,2.035-.844.937.937,0,0,0,.677-.666l.435-1.619a8.068,8.068,0,0,1,1.3,0l.432,1.617a.937.937,0,0,0,.678.668,7.5,7.5,0,0,1,2.035.844.937.937,0,0,0,.951.009l1.455-.838a8.153,8.153,0,0,1,.917.92l-.84,1.453a.937.937,0,0,0,.011.956,7.2,7.2,0,0,1,.84,2.022.937.937,0,0,0,.667.681l1.62.435a8.1,8.1,0,0,1,0,1.3ZM38.618,57.186a.937.937,0,0,1,.937-.937H53.5a.937.937,0,1,1,0,1.875H39.555a.937.937,0,0,1-.938-.937ZM57.224,69.9a5.821,5.821,0,1,0,5.823,5.819A5.821,5.821,0,0,0,57.224,69.9Zm0,9.766a3.946,3.946,0,1,1,3.947-3.947A3.946,3.946,0,0,1,57.224,79.667ZM38.618,50.786a.937.937,0,0,1,.937-.937H53.5a.937.937,0,1,1,0,1.875H39.555a.937.937,0,0,1-.938-.937Zm0-3.549a.937.937,0,0,1,.937-.937H53.5a.937.937,0,1,1,0,1.875H39.555a.937.937,0,0,1-.938-.937ZM31.671,59.62a.937.937,0,1,1,1.3-1.354l.6-.6a.937.937,0,1,1,1.326,1.326l-1.264,1.264a.938.938,0,0,1-.663.275h0a.937.937,0,0,1-.663-.277Zm4.787-4.772h-6.35a.937.937,0,0,0-.937.937v6.35a.937.937,0,0,0,.937.937h6.35a.937.937,0,0,0,.937-.937v-6.35a.937.937,0,0,0-.937-.938Zm-.937,6.35H31.046V56.724h4.475Zm-3.85-11.527a.937.937,0,1,1,1.3-1.354l.6-.6a.937.937,0,1,1,1.326,1.326l-1.264,1.264a.937.937,0,0,1-.663.275h0a.937.937,0,0,1-.663-.276ZM17.135,88.2a2.894,2.894,0,1,0,0,5.789h0a2.894,2.894,0,1,0,0-5.789Zm0,3.913A1.019,1.019,0,1,1,18.152,91.1,1.019,1.019,0,0,1,17.136,92.113Z" transform="translate(0)"/>
    </g>
  </g>
</svg>
