<svg xmlns="http://www.w3.org/2000/svg" xmlns:xlink="http://www.w3.org/1999/xlink" width="113" height="113" viewBox="0 0 113 113">
  <defs>
    <filter id="Trazado_982547" x="0" y="0" width="113" height="113" filterUnits="userSpaceOnUse">
      <feOffset dy="3" input="SourceAlpha"/>
      <feGaussianBlur stdDeviation="3" result="blur"/>
      <feFlood flood-opacity="0.161"/>
      <feComposite operator="in" in2="blur"/>
      <feComposite in="SourceGraphic"/>
    </filter>
  </defs>
  <g id="Grupo_1177368" data-name="Grupo 1177368" transform="translate(-1631.426 -3488.308)">
    <g id="Grupo_1177184" data-name="Grupo 1177184" transform="translate(837.936 1998.873)">
      <g id="Grupo_1176922" data-name="Grupo 1176922" transform="translate(802.49 1495.435)">
        <g id="Grupo_1172322" data-name="Grupo 1172322" transform="translate(0 0)">
          <g id="Grupo_1164700" data-name="Grupo 1164700">
            <g id="Grupo_1160931" data-name="Grupo 1160931">
              <g id="Grupo_1160749" data-name="Grupo 1160749">
                <g id="Grupo_1158891" data-name="Grupo 1158891">
                  <g id="Grupo_1157406" data-name="Grupo 1157406">
                    <g id="Grupo_1155793" data-name="Grupo 1155793">
                      <g id="Grupo_1154704" data-name="Grupo 1154704">
                        <g id="Grupo_1150790" data-name="Grupo 1150790">
                          <g id="Grupo_1154214" data-name="Grupo 1154214">
                            <g id="Grupo_1152583" data-name="Grupo 1152583">
                              <g id="Grupo_1146973" data-name="Grupo 1146973">
                                <g id="Grupo_1146954" data-name="Grupo 1146954">
                                  <g transform="matrix(1, 0, 0, 1, -9, -6)" filter="url(#Trazado_982547)">
                                    <g id="Trazado_982547-2" data-name="Trazado 982547" transform="translate(9 6)" fill="#fbecfd">
                                      <path d="M 47.5000114440918 93.49987030029297 C 41.28938293457031 93.49987030029297 35.26534652709961 92.28384399414062 29.5951976776123 89.88558959960938 C 24.11773109436035 87.56881713867188 19.19814491271973 84.25183868408203 14.97310447692871 80.02680206298828 C 10.74805164337158 75.80176544189453 7.43107795715332 70.88218688964844 5.114304542541504 65.40472412109375 C 2.716038227081299 59.73458862304688 1.500011444091797 53.71054840087891 1.500011444091797 47.49993515014648 C 1.500011444091797 41.28932189941406 2.716038227081299 35.26528167724609 5.114304542541504 29.59514808654785 C 7.43107795715332 24.1176815032959 10.74805164337158 19.1981086730957 14.97310447692871 14.97306823730469 C 19.19814491271973 10.74802875518799 24.11773109436035 7.431055068969727 29.5951976776123 5.11428165435791 C 35.26534652709961 2.716028451919556 41.28938293457031 1.500001788139343 47.5000114440918 1.500001788139343 C 53.71063995361328 1.500001788139343 59.73467636108398 2.716028451919556 65.40482330322266 5.11428165435791 C 70.88229370117188 7.431055068969727 75.8018798828125 10.74802875518799 80.02691650390625 14.97306823730469 C 84.25196838378906 19.1981086730957 87.56894683837891 24.1176815032959 89.88571929931641 29.59514808654785 C 92.28398132324219 35.26528167724609 93.50001525878906 41.28932189941406 93.50001525878906 47.49993515014648 C 93.50001525878906 53.71054840087891 92.28398132324219 59.73458862304688 89.88571929931641 65.40472412109375 C 87.56894683837891 70.88218688964844 84.25196838378906 75.80176544189453 80.02691650390625 80.02680206298828 C 75.8018798828125 84.25183868408203 70.88229370117188 87.56881713867188 65.40482330322266 89.88558959960938 C 59.73467636108398 92.28384399414062 53.71063995361328 93.49987030029297 47.5000114440918 93.49987030029297 Z" stroke="none"/>
                                      <path d="M 47.5000114440918 3 C 41.49122619628906 3 35.66378021240234 4.1761474609375 30.17951965332031 6.495796203613281 C 24.880859375 8.7369384765625 20.12153625488281 11.94596862792969 16.03376770019531 16.03373718261719 C 11.94598388671875 20.12149047851562 8.736968994140625 24.88081359863281 6.495811462402344 30.17947387695312 C 4.176162719726562 35.66371917724609 3.000007629394531 41.49116516113281 3.000007629394531 47.49993515014648 C 3.000007629394531 53.50870513916016 4.176162719726562 59.33615112304688 6.495811462402344 64.82039642333984 C 8.736968994140625 70.11905670166016 11.94598388671875 74.87837982177734 16.03376770019531 78.96613311767578 C 20.12153625488281 83.05390167236328 24.880859375 86.26293182373047 30.17951965332031 88.50407409667969 C 35.66378021240234 90.82372283935547 41.49122619628906 91.99987030029297 47.5000114440918 91.99987030029297 C 53.50879669189453 91.99987030029297 59.33624267578125 90.82372283935547 64.82050323486328 88.50407409667969 C 70.11916351318359 86.26293182373047 74.87848663330078 83.05390167236328 78.96625518798828 78.96613311767578 C 83.05403900146484 74.87837982177734 86.2630615234375 70.11905670166016 88.50421142578125 64.82039642333984 C 90.82386016845703 59.33615112304688 92.00001525878906 53.50870513916016 92.00001525878906 47.49993515014648 C 92.00001525878906 41.49116516113281 90.82386016845703 35.66371917724609 88.50421142578125 30.17947387695312 C 86.2630615234375 24.88081359863281 83.05403900146484 20.12149047851562 78.96625518798828 16.03373718261719 C 74.87848663330078 11.94596862792969 70.11916351318359 8.7369384765625 64.82050323486328 6.495796203613281 C 59.33624267578125 4.1761474609375 53.50879669189453 3 47.5000114440918 3 M 47.5000114440918 0 C 73.73353576660156 0 95.00001525878906 21.26644134521484 95.00001525878906 47.49993515014648 C 95.00001525878906 73.73342895507812 73.73353576660156 94.99987030029297 47.5000114440918 94.99987030029297 C 21.26648712158203 94.99987030029297 7.62939453125e-06 73.73342895507812 7.62939453125e-06 47.49993515014648 C 7.62939453125e-06 21.26644134521484 21.26648712158203 0 47.5000114440918 0 Z" stroke="none" fill="#da53f2"/>
                                    </g>
                                  </g>
                                </g>
                              </g>
                            </g>
                          </g>
                        </g>
                      </g>
                    </g>
                  </g>
                </g>
              </g>
            </g>
          </g>
        </g>
      </g>
    </g>
    <g id="risk-management_12166486" transform="translate(1652.665 3486.15)">
      <g id="Grupo_1177367" data-name="Grupo 1177367" transform="translate(4.722 31.303)">
        <path id="Trazado_1036188" data-name="Trazado 1036188" d="M33.158,84.18h1.254a.9.9,0,0,0,.9-.9v-3.33a.9.9,0,0,0-.9-.9H33.158A10.749,10.749,0,0,0,31.892,76l.887-.887a.9.9,0,0,0,0-1.268l-2.355-2.355a.9.9,0,0,0-1.268,0l-.887.887a10.741,10.741,0,0,0-3.054-1.266V69.861a.9.9,0,0,0-.9-.9h-3.33a.9.9,0,0,0-.9.9v1.254a10.749,10.749,0,0,0-3.054,1.266l-.887-.887a.9.9,0,0,0-1.268,0l-2.355,2.355a.9.9,0,0,0,0,1.268l.887.887a10.741,10.741,0,0,0-1.266,3.054H10.9a.9.9,0,0,0-.9.9v3.33a.9.9,0,0,0,.9.9H12.15a10.747,10.747,0,0,0,1.266,3.054l-.887.887a.9.9,0,0,0,0,1.268l2.355,2.355a.9.9,0,0,0,1.268,0l.888-.888a10.746,10.746,0,0,0,3.053,1.266v1.254a.9.9,0,0,0,.9.9h3.33a.9.9,0,0,0,.9-.9V92.123a10.751,10.751,0,0,0,3.054-1.266l.887.887a.9.9,0,0,0,1.268,0l2.355-2.355a.9.9,0,0,0,0-1.268l-.888-.888a10.747,10.747,0,0,0,1.266-3.053Zm-10.5-9.123a6.561,6.561,0,1,1-6.561,6.561A6.561,6.561,0,0,1,22.654,75.057Z" transform="translate(-10 -65.075)" fill="#5f7080" fill-rule="evenodd"/>
        <path id="Trazado_1036189" data-name="Trazado 1036189" d="M25.216,71.115V69.862a.9.9,0,0,0-.9-.9h-3.33a.9.9,0,0,0-.9.9v1.254a10.748,10.748,0,0,0-3.054,1.266l-.887-.887a.9.9,0,0,0-1.268,0l-2.355,2.355a.9.9,0,0,0,0,1.268l.887.887a10.741,10.741,0,0,0-1.266,3.054H10.9a.9.9,0,0,0-.9.9v3.33a.9.9,0,0,0,.9.9H12.15a10.747,10.747,0,0,0,1.266,3.054l-.887.887a.9.9,0,0,0,0,1.268l2.355,2.355a.9.9,0,0,0,1.268,0l.888-.888a10.747,10.747,0,0,0,3.053,1.266v1.254a.9.9,0,0,0,.9.9h3.33a.9.9,0,0,0,.9-.9V92.124a10.515,10.515,0,1,1,0-21.009Z" transform="translate(-10 -65.075)" fill="#566573" fill-rule="evenodd"/>
        <path id="Trazado_1036190" data-name="Trazado 1036190" d="M0,0H8.147V5.422H0Z" transform="translate(16.169 39.085) rotate(-45)" fill="#5f7080"/>
        <path id="Trazado_1036191" data-name="Trazado 1036191" d="M0,0H8.147V2.711H0Z" transform="translate(16.169 39.085) rotate(-45)" fill="#566573"/>
        <circle id="Elipse_12448" data-name="Elipse 12448" cx="21.244" cy="21.244" r="21.244" transform="translate(16.61 0)" fill="#5c85da"/>
        <circle id="Elipse_12449" data-name="Elipse 12449" cx="17.408" cy="17.408" r="17.408" transform="translate(20.446 3.836)" fill="#dbe2ec"/>
        <path id="Trazado_1036192" data-name="Trazado 1036192" d="M238.31,74.41a17.407,17.407,0,0,1-10.372,29.609,17.407,17.407,0,0,1,0-34.6A17.333,17.333,0,0,1,238.31,74.41Z" transform="translate(-188.147 -65.476)" fill="#f3f5fb" fill-rule="evenodd"/>
        <rect id="Rectángulo_415943" data-name="Rectángulo 415943" width="13.819" height="8.044" rx="4.022" transform="translate(5.836 47.564) rotate(-45)" fill="#5c85da"/>
        <path id="Trazado_1036193" data-name="Trazado 1036193" d="M75.238,358.081l-1.917-1.917a1.315,1.315,0,0,0-1.854,0l-7.918,7.918a1.315,1.315,0,0,0,0,1.854l1.917,1.917Z" transform="translate(-56.781 -317.44)" fill="#4677d5" fill-rule="evenodd"/>
        <path id="Trazado_1036194" data-name="Trazado 1036194" d="M238.09,198.357h5.271v12.7H238.09Z" transform="translate(-210.692 -178.925)" fill="#80e0b7"/>
        <path id="Trazado_1036195" data-name="Trazado 1036195" d="M303.2,220.656h5.271v10.019H303.2Z" transform="translate(-267.983 -198.546)" fill="#ffe54e"/>
        <path id="Trazado_1036196" data-name="Trazado 1036196" d="M368.313,251.156h5.271v6.356h-5.271Z" transform="translate(-325.273 -225.382)" fill="#fd7a6e"/>
        <path id="Trazado_1036197" data-name="Trazado 1036197" d="M238.09,198.357h2.376v12.7H238.09Z" transform="translate(-210.692 -178.925)" fill="#60daa8"/>
        <path id="Trazado_1036198" data-name="Trazado 1036198" d="M303.2,220.656h2.376v10.019H303.2Z" transform="translate(-267.983 -198.546)" fill="#fad51b"/>
        <path id="Trazado_1036199" data-name="Trazado 1036199" d="M368.313,251.156h2.376v6.356h-2.376Z" transform="translate(-325.273 -225.382)" fill="#fb695b"/>
        <g id="Grupo_1177366" data-name="Grupo 1177366" transform="translate(27.547 8.764)">
          <path id="Trazado_1036200" data-name="Trazado 1036200" d="M244.076,112.545a.721.721,0,1,1-1.441,0,.532.532,0,0,0-.2-.4,1,1,0,0,0-1.233,0,.531.531,0,0,0-.2.4c0,.413.508.525,1.027.64,1.124.248,2.275.5,2.275,2.216a2.139,2.139,0,0,1-.768,1.623,2.563,2.563,0,0,1-1,.528v.322a.721.721,0,0,1-1.441,0v-.322a2.565,2.565,0,0,1-1-.528,2.139,2.139,0,0,1-.768-1.623.721.721,0,0,1,1.441,0,.716.716,0,0,0,.267.536,1.257,1.257,0,0,0,1.556,0,.716.716,0,0,0,.267-.536c0-.561-.578-.689-1.143-.814-1.092-.241-2.159-.477-2.159-2.042a1.953,1.953,0,0,1,.7-1.483,2.32,2.32,0,0,1,.836-.459v-.333a.721.721,0,0,1,1.441,0v.333a2.32,2.32,0,0,1,.836.459,1.954,1.954,0,0,1,.7,1.483Z" transform="translate(-239.333 -109.549)" fill="#80e0b7" fill-rule="evenodd"/>
          <path id="Trazado_1036201" data-name="Trazado 1036201" d="M289.206,147.674a.721.721,0,0,1,1.019-1.019l4.822,4.823,3.03-1.749a.718.718,0,0,1,.865.115l0,0,4.128,4.128v-.479a.721.721,0,0,1,1.441,0v2.218a.721.721,0,0,1-.721.721h-2.218a.721.721,0,1,1,0-1.441h.478l-3.739-3.739-2.971,1.715a.721.721,0,0,1-.926-.079Z" transform="translate(-283.03 -142.012)" fill="#fd7a6e" fill-rule="evenodd"/>
          <path id="Trazado_1036202" data-name="Trazado 1036202" d="M299.335,287.144l4.988,8.639,4.988,8.639a2.751,2.751,0,0,1-2.382,4.126H286.977a2.751,2.751,0,0,1-2.382-4.126l4.988-8.639,4.988-8.639a2.751,2.751,0,0,1,4.765,0Z" transform="translate(-278.825 -264.602)" fill="#fad51b" fill-rule="evenodd"/>
          <path id="Trazado_1036203" data-name="Trazado 1036203" d="M323.839,291.215l4.988,8.639,4.988,8.639a2.751,2.751,0,0,1-2.382,4.126H314.826a2.751,2.751,0,0,1-2.382-4.126l4.988-8.639,4.988-8.639a2.792,2.792,0,0,1,.71-.82,2.8,2.8,0,0,1,.71.82Z" transform="translate(-303.329 -268.672)" fill="#ffe54e" fill-rule="evenodd"/>
          <path id="Trazado_1036204" data-name="Trazado 1036204" d="M379.562,431.069a1.517,1.517,0,0,1-1.03-.384,1.342,1.342,0,0,1-.441-1.073,1.436,1.436,0,0,1,1.451-1.444,1.43,1.43,0,0,1,1.04.421,1.483,1.483,0,0,1,0,2.093,1.484,1.484,0,0,1-1.017.387Z" transform="translate(-361.424 -389.896)" fill="#fd7a6e" fill-rule="evenodd"/>
          <path id="Trazado_1036205" data-name="Trazado 1036205" d="M378.489,333.2l-.311-4.644c-.056-.9-.086-1.557-.086-1.951a1.765,1.765,0,0,1,.421-1.255,1.44,1.44,0,0,1,1.106-.45,1.112,1.112,0,0,1,1.113.576,3.885,3.885,0,0,1,.282,1.663c0,.427-.023.861-.066,1.3l-.417,4.78a3.781,3.781,0,0,1-.291,1.312.757.757,0,0,1-.735.454.731.731,0,0,1-.725-.441,4.453,4.453,0,0,1-.288-1.345Z" transform="translate(-361.425 -299.029)" fill="#fd7a6e" fill-rule="evenodd"/>
        </g>
      </g>
      <path id="Trazado_1036206" data-name="Trazado 1036206" d="M51.073,69.412,50.655,74.2a2.916,2.916,0,0,1-.222,1.056.232.232,0,0,1-.021.04.213.213,0,0,1-.064.007.327.327,0,0,1-.064-.005s-.005-.006-.005-.01a3.688,3.688,0,0,1-.228-1.107l-.312-4.631c-.053-.916-.085-1.539-.085-1.906a1.076,1.076,0,0,1,.228-.763.714.714,0,0,1,.582-.222c.381,0,.439.118.466.173a3.147,3.147,0,0,1,.206,1.345c0,.391-.021.805-.064,1.239Zm-.609-4.2a2.177,2.177,0,0,0-1.635.679,2.469,2.469,0,0,0-.614,1.747c0,.4.026,1.05.09,2l.312,4.644V74.3a5.059,5.059,0,0,0,.349,1.58,1.54,1.54,0,0,0,2.762,0,4.468,4.468,0,0,0,.365-1.566l.413-4.772a13.707,13.707,0,0,0,.069-1.372,4.5,4.5,0,0,0-.349-1.976,1.809,1.809,0,0,0-1.762-.984Zm.482,15.1a.759.759,0,0,1-.54.206.8.8,0,0,1-.556-.209.616.616,0,0,1-.2-.528.685.685,0,0,1,.212-.514.673.673,0,0,1,.519-.21.717.717,0,0,1,.54.215.657.657,0,0,1,.212.508.648.648,0,0,1-.191.53Zm-.561-2.7a2.154,2.154,0,0,0-2.17,2.165A2.046,2.046,0,0,0,48.9,81.4a2.248,2.248,0,0,0,1.5.563,2.194,2.194,0,0,0,1.5-.572,2.207,2.207,0,0,0,.026-3.146,2.134,2.134,0,0,0-1.545-.625Zm11.748,4.66a1.968,1.968,0,0,0,0-2.029L52.158,62.97a2.032,2.032,0,0,0-3.519,0L38.663,80.248a2.03,2.03,0,0,0,1.757,3.044h19.95A1.967,1.967,0,0,0,62.133,82.278ZM52.311,57.8v3.278a3.549,3.549,0,0,0-3.831,0V57.8Zm.72-1.442a.717.717,0,0,1,.72.721v5.779l.773,1.337a16.682,16.682,0,1,0-11.155,5.021l3.673-6.359V57.076a.721.721,0,0,1,.72-.721Zm-24.967,10.7a20.476,20.476,0,0,0,13.108,5.962l1.355-2.346A18.128,18.128,0,1,1,55.4,65.365c-.042.04-.085.08-.122.121L56.5,67.619q.3-.275.587-.561A20.524,20.524,0,1,0,23.645,44.6a.737.737,0,0,1-.064.144,20.574,20.574,0,0,0,4.482,22.317Zm-2.969,5.782L22.28,70.026l3.419-3.42c.429.506.873,1,1.344,1.471s.963.92,1.471,1.344l-3.419,3.42ZM24.587,75.2,16.67,83.122a.593.593,0,0,1-.836,0L12,79.288a.6.6,0,0,1,0-.835l7.922-7.918a.589.589,0,0,1,.831,0l3.837,3.834a.6.6,0,0,1,0,.835ZM20.613,52.546v.161a5.778,5.778,0,0,1-3.239.98,5.841,5.841,0,1,1,4.768-9.22,21.892,21.892,0,0,0-1.529,8.079Zm-.847,5.1a.721.721,0,0,0-.55.7V59.6a.177.177,0,0,1-.175.176H15.713a.182.182,0,0,1-.18-.176V58.35a.716.716,0,0,0-.55-.7,10.089,10.089,0,0,1-2.847-1.181.719.719,0,0,0-.884.106l-.889.887a.171.171,0,0,1-.122.051.182.182,0,0,1-.127-.051L7.759,55.107a.186.186,0,0,1,0-.249l.889-.887a.722.722,0,0,0,.106-.885,9.976,9.976,0,0,1-1.18-2.849.724.724,0,0,0-.7-.55H5.616a.181.181,0,0,1-.175-.176v-3.33a.181.181,0,0,1,.175-.176H6.87a.724.724,0,0,0,.7-.55,9.993,9.993,0,0,1,1.18-2.849.721.721,0,0,0-.106-.884l-.889-.887a.186.186,0,0,1,0-.249l2.355-2.355a.182.182,0,0,1,.127-.051.17.17,0,0,1,.122.051l.889.887a.718.718,0,0,0,.884.106,10.117,10.117,0,0,1,2.847-1.181.715.715,0,0,0,.55-.7V36.089a.182.182,0,0,1,.18-.176h3.329a.177.177,0,0,1,.175.176v1.253a.722.722,0,0,0,.55.7,10.052,10.052,0,0,1,2.852,1.181.72.72,0,0,0,.884-.106l.889-.887a.163.163,0,0,1,.122-.051.181.181,0,0,1,.127.051l.7.7a21.9,21.9,0,0,0-2.545,4.047,7.279,7.279,0,1,0-2.106,11.357,20.983,20.983,0,0,0,.423,2.886,10.326,10.326,0,0,1-1.344.43ZM57.243,68.9c.291-.266.582-.539.863-.82A21.965,21.965,0,0,0,27.042,37.015c-.265.265-.519.537-.773.812l-.614-.616a1.619,1.619,0,0,0-2.286,0l-.5.5a11.413,11.413,0,0,0-2.212-.918v-.7a1.619,1.619,0,0,0-1.619-1.617H15.713a1.619,1.619,0,0,0-1.619,1.617v.7a11.4,11.4,0,0,0-2.212.918l-.5-.5a1.619,1.619,0,0,0-2.286,0L6.743,39.566a1.611,1.611,0,0,0,0,2.287l.5.5a11.27,11.27,0,0,0-.921,2.214h-.7A1.619,1.619,0,0,0,4,46.182v3.33a1.618,1.618,0,0,0,1.614,1.617h.7a11.252,11.252,0,0,0,.921,2.214l-.5.5a1.611,1.611,0,0,0,0,2.287L9.1,58.481a1.618,1.618,0,0,0,2.286,0l.5-.5a11.41,11.41,0,0,0,2.212.918v.7a1.619,1.619,0,0,0,1.619,1.617h3.329A1.619,1.619,0,0,0,20.661,59.6v-.7c.27-.08.54-.171.8-.271a21.567,21.567,0,0,0,3.344,6.831L21.169,69.1a2.044,2.044,0,0,0-.836-.178,2.014,2.014,0,0,0-1.434.594l-7.917,7.918a2.036,2.036,0,0,0,0,2.872l3.831,3.834a2.036,2.036,0,0,0,1.439.594,2.015,2.015,0,0,0,1.434-.594L25.6,76.223a2.021,2.021,0,0,0,.418-2.269l3.641-3.641A21.878,21.878,0,0,0,40.373,74.4l-2.958,5.128a3.471,3.471,0,0,0,3.006,5.207h19.95a3.471,3.471,0,0,0,3.006-5.207L57.243,68.9ZM53.75,53.763a1.123,1.123,0,0,1-.011.135v0a.968.968,0,0,1-.037.128s-.005,0-.005.007a.53.53,0,0,1-.064.12v.005a.726.726,0,0,1-.2.2l-.011,0a.675.675,0,0,1-.116.062s-.005,0-.011,0a.594.594,0,0,1-.122.038h-.011a.7.7,0,0,1-.132.013H50.814a.721.721,0,0,1,0-1.442H51.3l-3.741-3.737-3.027,1.749a.717.717,0,0,1-.868-.115l-5.212-5.211a.72.72,0,1,1,1.016-1.02l4.821,4.82,3.032-1.748a.717.717,0,0,1,.868.114l4.128,4.128v-.478a.72.72,0,1,1,1.439,0v2.218Zm-21.48-7.846a.72.72,0,1,1,1.439,0,1.08,1.08,0,0,0,2.09,0c0-.48-.159-.594-1.143-.811-.81-.178-2.159-.476-2.159-2.045a2.081,2.081,0,0,1,1.535-1.94v-.334a.722.722,0,0,1,1.445,0v.334a2.081,2.081,0,0,1,1.535,1.94.72.72,0,1,1-1.439,0c0-.33-.376-.608-.82-.608s-.815.278-.815.608.042.42,1.032.637c.847.188,2.27.5,2.27,2.218a2.288,2.288,0,0,1-1.762,2.151v.322a.722.722,0,0,1-1.445,0v-.322a2.294,2.294,0,0,1-1.762-2.151Zm4.4,16.793H32.842V51.455h3.826Zm.72-12.7a.722.722,0,0,1,.725.721v12.7a.722.722,0,0,1-.725.721H32.117a.721.721,0,0,1-.72-.721v-12.7a.721.721,0,0,1,.72-.721Zm7.1,12.7H40.658V54.133H44.49Zm.72-10.019a.717.717,0,0,1,.72.721V63.432a.717.717,0,0,1-.72.721H39.939a.721.721,0,0,1-.72-.721V53.413a.721.721,0,0,1,.72-.721Z" transform="translate(0 0)" fill="#242222" fill-rule="evenodd"/>
    </g>
  </g>
</svg>
