<svg xmlns="http://www.w3.org/2000/svg" xmlns:xlink="http://www.w3.org/1999/xlink" width="113" height="113" viewBox="0 0 113 113">
  <defs>
    <filter id="Trazado_982547" x="0" y="0" width="113" height="113" filterUnits="userSpaceOnUse">
      <feOffset dy="3" input="SourceAlpha"/>
      <feGaussianBlur stdDeviation="3" result="blur"/>
      <feFlood flood-opacity="0.161"/>
      <feComposite operator="in" in2="blur"/>
      <feComposite in="SourceGraphic"/>
    </filter>
  </defs>
  <g id="Grupo_1177344" data-name="Grupo 1177344" transform="translate(-1631.426 -3048.308)">
    <g id="Grupo_1177343" data-name="Grupo 1177343">
      <g id="Grupo_1177183" data-name="Grupo 1177183" transform="translate(837.936 1558.873)">
        <g id="Grupo_1176922" data-name="Grupo 1176922" transform="translate(802.49 1495.435)">
          <g id="Grupo_1172322" data-name="Grupo 1172322" transform="translate(0 0)">
            <g id="Grupo_1164700" data-name="Grupo 1164700">
              <g id="Grupo_1160931" data-name="Grupo 1160931">
                <g id="Grupo_1160749" data-name="Grupo 1160749">
                  <g id="Grupo_1158891" data-name="Grupo 1158891">
                    <g id="Grupo_1157406" data-name="Grupo 1157406">
                      <g id="Grupo_1155793" data-name="Grupo 1155793">
                        <g id="Grupo_1154704" data-name="Grupo 1154704">
                          <g id="Grupo_1150790" data-name="Grupo 1150790">
                            <g id="Grupo_1154214" data-name="Grupo 1154214">
                              <g id="Grupo_1152583" data-name="Grupo 1152583">
                                <g id="Grupo_1146973" data-name="Grupo 1146973">
                                  <g id="Grupo_1146954" data-name="Grupo 1146954">
                                    <g transform="matrix(1, 0, 0, 1, -9, -6)" filter="url(#Trazado_982547)">
                                      <g id="Trazado_982547-2" data-name="Trazado 982547" transform="translate(9 6)" fill="#fbecfd">
                                        <path d="M 47.5000114440918 93.49987030029297 C 41.28938293457031 93.49987030029297 35.26534652709961 92.28384399414062 29.5951976776123 89.88558959960938 C 24.11773109436035 87.56881713867188 19.19814491271973 84.25183868408203 14.97310447692871 80.02680206298828 C 10.74805164337158 75.80176544189453 7.43107795715332 70.88218688964844 5.114304542541504 65.40472412109375 C 2.716038227081299 59.73458862304688 1.500011444091797 53.71054840087891 1.500011444091797 47.49993515014648 C 1.500011444091797 41.28932189941406 2.716038227081299 35.26528167724609 5.114304542541504 29.59514808654785 C 7.43107795715332 24.1176815032959 10.74805164337158 19.1981086730957 14.97310447692871 14.97306823730469 C 19.19814491271973 10.74802875518799 24.11773109436035 7.431055068969727 29.5951976776123 5.11428165435791 C 35.26534652709961 2.716028451919556 41.28938293457031 1.500001788139343 47.5000114440918 1.500001788139343 C 53.71063995361328 1.500001788139343 59.73467636108398 2.716028451919556 65.40482330322266 5.11428165435791 C 70.88229370117188 7.431055068969727 75.8018798828125 10.74802875518799 80.02691650390625 14.97306823730469 C 84.25196838378906 19.1981086730957 87.56894683837891 24.1176815032959 89.88571929931641 29.59514808654785 C 92.28398132324219 35.26528167724609 93.50001525878906 41.28932189941406 93.50001525878906 47.49993515014648 C 93.50001525878906 53.71054840087891 92.28398132324219 59.73458862304688 89.88571929931641 65.40472412109375 C 87.56894683837891 70.88218688964844 84.25196838378906 75.80176544189453 80.02691650390625 80.02680206298828 C 75.8018798828125 84.25183868408203 70.88229370117188 87.56881713867188 65.40482330322266 89.88558959960938 C 59.73467636108398 92.28384399414062 53.71063995361328 93.49987030029297 47.5000114440918 93.49987030029297 Z" stroke="none"/>
                                        <path d="M 47.5000114440918 3 C 41.49122619628906 3 35.66378021240234 4.1761474609375 30.17951965332031 6.495796203613281 C 24.880859375 8.7369384765625 20.12153625488281 11.94596862792969 16.03376770019531 16.03373718261719 C 11.94598388671875 20.12149047851562 8.736968994140625 24.88081359863281 6.495811462402344 30.17947387695312 C 4.176162719726562 35.66371917724609 3.000007629394531 41.49116516113281 3.000007629394531 47.49993515014648 C 3.000007629394531 53.50870513916016 4.176162719726562 59.33615112304688 6.495811462402344 64.82039642333984 C 8.736968994140625 70.11905670166016 11.94598388671875 74.87837982177734 16.03376770019531 78.96613311767578 C 20.12153625488281 83.05390167236328 24.880859375 86.26293182373047 30.17951965332031 88.50407409667969 C 35.66378021240234 90.82372283935547 41.49122619628906 91.99987030029297 47.5000114440918 91.99987030029297 C 53.50879669189453 91.99987030029297 59.33624267578125 90.82372283935547 64.82050323486328 88.50407409667969 C 70.11916351318359 86.26293182373047 74.87848663330078 83.05390167236328 78.96625518798828 78.96613311767578 C 83.05403900146484 74.87837982177734 86.2630615234375 70.11905670166016 88.50421142578125 64.82039642333984 C 90.82386016845703 59.33615112304688 92.00001525878906 53.50870513916016 92.00001525878906 47.49993515014648 C 92.00001525878906 41.49116516113281 90.82386016845703 35.66371917724609 88.50421142578125 30.17947387695312 C 86.2630615234375 24.88081359863281 83.05403900146484 20.12149047851562 78.96625518798828 16.03373718261719 C 74.87848663330078 11.94596862792969 70.11916351318359 8.7369384765625 64.82050323486328 6.495796203613281 C 59.33624267578125 4.1761474609375 53.50879669189453 3 47.5000114440918 3 M 47.5000114440918 0 C 73.73353576660156 0 95.00001525878906 21.26644134521484 95.00001525878906 47.49993515014648 C 95.00001525878906 73.73342895507812 73.73353576660156 94.99987030029297 47.5000114440918 94.99987030029297 C 21.26648712158203 94.99987030029297 7.62939453125e-06 73.73342895507812 7.62939453125e-06 47.49993515014648 C 7.62939453125e-06 21.26644134521484 21.26648712158203 0 47.5000114440918 0 Z" stroke="none" fill="#da53f2"/>
                                      </g>
                                    </g>
                                  </g>
                                </g>
                              </g>
                            </g>
                          </g>
                        </g>
                      </g>
                    </g>
                  </g>
                </g>
              </g>
            </g>
          </g>
        </g>
      </g>
      <g id="road-trip_18288544" transform="translate(1653.887 3066.891)">
        <path id="Trazado_1036155" data-name="Trazado 1036155" d="M11.019,243.127H35.1v21.557H11.019Z" transform="translate(-6.184 -209.744)" fill="#f5d38e"/>
        <g id="Grupo_1177342" data-name="Grupo 1177342" transform="translate(8.383 37.637)">
          <path id="Trazado_1036156" data-name="Trazado 1036156" d="M213.03,278.811h5.693a1.4,1.4,0,0,1,1.211.738l3.978,6.548a2.978,2.978,0,0,1,.435,1.6v8.414H213.03v-17.3Z" transform="translate(-192.496 -278.811)" fill="#ff6969" fill-rule="evenodd"/>
          <path id="Trazado_1036157" data-name="Trazado 1036157" d="M244.978,300.061l2.887,4.753h-7.639v-4.753Z" transform="translate(-216.45 -297.528)" fill="#ebf1f5" fill-rule="evenodd"/>
          <path id="Trazado_1036158" data-name="Trazado 1036158" d="M239.835,413.515a2.432,2.432,0,1,0-2.432-2.432A2.436,2.436,0,0,0,239.835,413.515Z" transform="translate(-213.964 -393.173)" fill="#a3a3ad" fill-rule="evenodd"/>
          <path id="Trazado_1036159" data-name="Trazado 1036159" d="M43.213,413.515a2.432,2.432,0,1,0-2.432-2.432A2.436,2.436,0,0,0,43.213,413.515Z" transform="translate(-40.781 -393.173)" fill="#a3a3ad" fill-rule="evenodd"/>
        </g>
        <path id="Trazado_1036160" data-name="Trazado 1036160" d="M51.858,316.7h7.173v7.173H51.858Z" transform="translate(-42.155 -274.551)" fill="#f29988"/>
        <path id="Trazado_1036161" data-name="Trazado 1036161" d="M112.025,316.7H119.2v7.173h-7.173Z" transform="translate(-95.149 -274.551)" fill="#f0e3df"/>
        <path id="Trazado_1036162" data-name="Trazado 1036162" d="M401.787,67.575l1.694,5.02,1.694,5.02H398.4l1.694-5.02Z" transform="translate(-347.384 -55.12)" fill="#b8e739" fill-rule="evenodd"/>
        <path id="Trazado_1036163" data-name="Trazado 1036163" d="M196.567,67.575l1.694,5.02,1.694,5.02h-6.776l1.694-5.02Z" transform="translate(-166.629 -55.12)" fill="#b8e739" fill-rule="evenodd"/>
        <path id="Trazado_1036164" data-name="Trazado 1036164" d="M340.268,222.983l1.694,5.02,1.694,5.02H336.88l1.694-5.02Z" transform="translate(-293.199 -192.002)" fill="#b8e739" fill-rule="evenodd"/>
        <path id="Trazado_1036165" data-name="Trazado 1036165" d="M10.535,48.492h5.5v-5.5H14.122v1.45H12.453v-1.45H10.535Zm12.676-5.5H21.295v1.45H19.625v-1.45H17.708v5.5h5.5ZM8.867,49.327V42.154a.834.834,0,0,1,.834-.834H24.046a.834.834,0,0,1,.835.834v7.173a.835.835,0,0,1-.835.835H9.7a.835.835,0,0,1-.834-.835Zm-3.2,4.779V34.217H28.08V54.106H13.743a3.265,3.265,0,0,0-5.861,0ZM29.749,38.471V54.106h1.573a3.265,3.265,0,0,1,5.86,0H39.4v-3.9H37.731V48.541H39.4V46.525a2.281,2.281,0,0,0-.122-.769H32.156a.834.834,0,0,1-.834-.835V40.17a.834.834,0,0,1,.834-.834h3.269l-.321-.528c-.2-.336-.425-.336-.5-.336H29.749ZM36.439,41l1.874,3.083H32.991V41Zm-.59,14.541a1.6,1.6,0,1,1-1.6-1.6A1.6,1.6,0,0,1,35.849,55.546Zm-23.44,0a1.6,1.6,0,1,0-1.6,1.6A1.6,1.6,0,0,0,12.41,55.546ZM48.193,40.187l-.237-1.1s0,0,0-.007l-.888-4.127-.888,4.127a.014.014,0,0,1,0,.007l-.237,1.1ZM4,54.94V33.382a.835.835,0,0,1,.834-.834H28.914a.835.835,0,0,1,.834.834V36.8h4.859a2.238,2.238,0,0,1,1.924,1.138l3.977,6.548a3.8,3.8,0,0,1,.557,2.036v5.664h8.512a1.876,1.876,0,0,0,1.853-1.853V41.6a1.878,1.878,0,0,0-1.62-1.836l.232,1.082a.834.834,0,0,1-.815,1.01H47.9V44H46.232V41.856H44.907a.835.835,0,0,1-.816-1.01l.237-1.1h-4.24a.835.835,0,1,1,0-1.669h4.6l1.564-7.271a.835.835,0,0,1,1.632,0l1.564,7.271h.13A3.548,3.548,0,0,1,53.1,41.6v8.737a3.545,3.545,0,0,1-3.522,3.522H41.065V54.94a.834.834,0,0,1-.834.834H37.509a3.265,3.265,0,0,1-6.515,0H14.07a3.265,3.265,0,0,1-6.515,0H4.832A.835.835,0,0,1,4,54.94Zm51.529-33.28-1.006-4.678s0,0,0-.007l-.12-.552-.118.552s0,0,0,.007l-1.006,4.678h2.253Zm-24.464,0-1.006-4.678,0-.007-.119-.552-.119.552a.031.031,0,0,1,0,.007l-1.007,4.678Zm32.183-4.016H56.37l1.006,4.676a.835.835,0,0,1-.815,1.01H55.235v2.148H53.566V23.329H52.241a.834.834,0,0,1-.817-1.01l1.006-4.676H31.906l1,4.676a.834.834,0,0,1-.815,1.01H30.77v2.148H29.1V23.329H27.776a.834.834,0,0,1-.816-1.01l1.006-4.676H21.832A1.879,1.879,0,0,0,19.979,19.5v5.745A1.877,1.877,0,0,0,21.832,27.1H49.577a14.527,14.527,0,0,1,14.5,14.5v8.737a14.529,14.529,0,0,1-14.5,14.5H4.832a.835.835,0,0,1,0-1.669H49.577A12.858,12.858,0,0,0,62.411,50.336V41.6A12.858,12.858,0,0,0,49.577,28.765H21.832a3.548,3.548,0,0,1-3.522-3.523V19.5a3.548,3.548,0,0,1,3.522-3.523h6.494l.795-3.7a.835.835,0,0,1,1.632,0l.8,3.7H52.789l.8-3.7a.835.835,0,0,1,1.632,0l.794,3.7h7.235a.834.834,0,1,1,0,1.669ZM8.564,31.091a.837.837,0,0,0,.764.5.825.825,0,0,0,.337-.072.834.834,0,0,0,.426-1.1A12.708,12.708,0,0,1,9,25.243V19.5A12.859,12.859,0,0,1,21.832,6.664H63.246a.834.834,0,1,0,0-1.669H21.832a14.526,14.526,0,0,0-14.5,14.5v5.745a14.371,14.371,0,0,0,1.235,5.848Z" fill-rule="evenodd"/>
      </g>
    </g>
  </g>
</svg>
