<svg xmlns="http://www.w3.org/2000/svg" xmlns:xlink="http://www.w3.org/1999/xlink" width="118" height="118" viewBox="0 0 118 118">
  <defs>
    <filter id="Trazado_982547" x="0" y="0" width="118" height="118" filterUnits="userSpaceOnUse">
      <feOffset dy="3" input="SourceAlpha"/>
      <feGaussianBlur stdDeviation="3" result="blur"/>
      <feFlood flood-opacity="0.161"/>
      <feComposite operator="in" in2="blur"/>
      <feComposite in="SourceGraphic"/>
    </filter>
  </defs>
  <g id="Grupo_1177322" data-name="Grupo 1177322" transform="translate(-899 -4125.328)">
    <g id="Grupo_1176858" data-name="Grupo 1176858" transform="translate(0 -5533)">
      <g id="Grupo_1176358" data-name="Grupo 1176358" transform="translate(908 9664.328)">
        <g id="Grupo_1172970" data-name="Grupo 1172970" transform="translate(0)">
          <g id="Grupo_1171971" data-name="Grupo 1171971" transform="translate(0)">
            <g id="Grupo_1167337" data-name="Grupo 1167337">
              <g id="Grupo_1166720" data-name="Grupo 1166720">
                <g id="Grupo_1164305" data-name="Grupo 1164305">
                  <g id="Grupo_1163948" data-name="Grupo 1163948">
                    <g id="Grupo_1158168" data-name="Grupo 1158168">
                      <g id="Grupo_1152576" data-name="Grupo 1152576">
                        <g id="Grupo_1148633" data-name="Grupo 1148633">
                          <g id="Grupo_1148525" data-name="Grupo 1148525">
                            <g transform="matrix(1, 0, 0, 1, -9, -6)" filter="url(#Trazado_982547)">
                              <g id="Trazado_982547-2" data-name="Trazado 982547" transform="translate(9 6)" fill="#fbecfd">
                                <path d="M 50 98.5 C 43.45188522338867 98.5 37.10042953491211 97.21787261962891 31.12207221984863 94.68923950195312 C 25.34691429138184 92.24655914306641 20.15995788574219 88.74932861328125 15.70532894134521 84.29468536376953 C 11.2506856918335 79.84004211425781 7.753442764282227 74.65309906005859 5.310757160186768 68.87794494628906 C 2.782128572463989 62.89958572387695 1.5 56.54813003540039 1.5 50 C 1.5 43.45188522338867 2.782128572463989 37.10042953491211 5.310757160186768 31.12207221984863 C 7.753442764282227 25.34691429138184 11.2506856918335 20.15997123718262 15.70532894134521 15.70532894134521 C 20.15997123718262 11.2506856918335 25.34691429138184 7.753442764282227 31.12207221984863 5.310757160186768 C 37.10042953491211 2.782128572463989 43.45188522338867 1.5 50 1.5 C 56.54813003540039 1.5 62.89958572387695 2.782128572463989 68.87794494628906 5.310757160186768 C 74.65309906005859 7.753442764282227 79.84004211425781 11.2506856918335 84.29468536376953 15.70532894134521 C 88.74932861328125 20.15995788574219 92.24655914306641 25.34691429138184 94.68923950195312 31.12207221984863 C 97.21787261962891 37.10042953491211 98.5 43.45188522338867 98.5 50 C 98.5 56.54813003540039 97.21787261962891 62.89958572387695 94.68923950195312 68.87794494628906 C 92.24655914306641 74.65309906005859 88.74932861328125 79.84004211425781 84.29468536376953 84.29468536376953 C 79.84004211425781 88.74932861328125 74.65309906005859 92.24655914306641 68.87794494628906 94.68923950195312 C 62.89958572387695 97.21787261962891 56.54813003540039 98.5 50 98.5 Z" stroke="none"/>
                                <path d="M 50 3 C 43.65372467041016 3 37.49886322021484 4.242263793945312 31.70639801025391 6.6922607421875 C 26.11003112792969 9.059326171875 21.08335113525391 12.44861602783203 16.76598358154297 16.76598358154297 C 12.44861602783203 21.08335113525391 9.059326171875 26.11003112792969 6.6922607421875 31.70639801025391 C 4.242263793945312 37.49886322021484 3 43.65372467041016 3 50 C 3 56.34629058837891 4.242263793945312 62.50115203857422 6.6922607421875 68.29361724853516 C 9.059326171875 73.88998413085938 12.44861602783203 78.91666412353516 16.76598358154297 83.23403167724609 C 21.08335113525391 87.55138397216797 26.11003112792969 90.940673828125 31.70639801025391 93.3077392578125 C 37.49886322021484 95.75773620605469 43.65372467041016 97 50 97 C 56.34629058837891 97 62.50115203857422 95.75773620605469 68.29361724853516 93.3077392578125 C 73.88998413085938 90.940673828125 78.91666412353516 87.55138397216797 83.23403167724609 83.23403167724609 C 87.55138397216797 78.91666412353516 90.940673828125 73.88998413085938 93.3077392578125 68.29361724853516 C 95.75773620605469 62.50115203857422 97 56.34629058837891 97 50 C 97 43.65372467041016 95.75773620605469 37.49886322021484 93.3077392578125 31.70639801025391 C 90.940673828125 26.11003112792969 87.55138397216797 21.08335113525391 83.23403167724609 16.76598358154297 C 78.91666412353516 12.44861602783203 73.88998413085938 9.059326171875 68.29361724853516 6.6922607421875 C 62.50115203857422 4.242263793945312 56.34629058837891 3 50 3 M 50 0 C 77.6142578125 0 100 22.38577270507812 100 50 C 100 77.6142578125 77.6142578125 100 50 100 C 22.38577270507812 100 0 77.6142578125 0 50 C 0 22.38577270507812 22.38577270507812 0 50 0 Z" stroke="none" fill="#772d84"/>
                              </g>
                            </g>
                          </g>
                        </g>
                      </g>
                    </g>
                  </g>
                </g>
              </g>
            </g>
          </g>
        </g>
      </g>
    </g>
    <g id="interview_901407" transform="translate(924.613 4149.441)">
      <g id="Grupo_1177317" data-name="Grupo 1177317" transform="translate(7.663 7.663)">
        <path id="Trazado_1036045" data-name="Trazado 1036045" d="M81.18,63.663a25.186,25.186,0,0,1,24.89,21.348,25.18,25.18,0,1,0-49.78,0A25.186,25.186,0,0,1,81.18,63.663Z" transform="translate(-56 -56)" fill="#d4c8b8"/>
        <path id="Trazado_1036046" data-name="Trazado 1036046" d="M81.18,289.348A25.186,25.186,0,0,1,56.29,268a25.18,25.18,0,1,0,49.78,0A25.186,25.186,0,0,1,81.18,289.348Z" transform="translate(-56 -238.988)" fill="#d4c8b8"/>
      </g>
      <ellipse id="Elipse_12441" data-name="Elipse 12441" cx="24.89" cy="21.348" rx="24.89" ry="21.348" transform="translate(7.954 15.327)" fill="#ebe5dd"/>
      <path id="Trazado_1036047" data-name="Trazado 1036047" d="M136.422,144h0a10.948,10.948,0,0,0-10.948,10.948v7.663H120a6.776,6.776,0,0,0,2.19,4.379h0a19.422,19.422,0,0,0,28.464,0h0a6.776,6.776,0,0,0,2.19-4.379h-5.474v-7.663A10.948,10.948,0,0,0,136.422,144h0" transform="translate(-103.578 -124.294)" fill="#ff9811"/>
      <path id="Trazado_1036048" data-name="Trazado 1036048" d="M179.706,190.569a2.1,2.1,0,0,1,2.189,2.012c0,.008,0,.016,0,.025h0a2.189,2.189,0,0,1-2.19,2.19h-.186a8.857,8.857,0,0,1-17.188,0h-.142A2.19,2.19,0,0,1,160,192.6h0a2.1,2.1,0,0,1,2.165-2.037h5.5A6.569,6.569,0,0,0,174.232,184h2.19v4.379a2.189,2.189,0,0,0,2.19,2.19Z" transform="translate(-138.104 -158.82)" fill="#ffb398"/>
      <path id="Trazado_1036049" data-name="Trazado 1036049" d="M144,320.758v-4.379A4.379,4.379,0,0,1,148.379,312H165.9a4.379,4.379,0,0,1,4.379,4.379v4.379Z" transform="translate(-124.294 -269.304)" fill="#f072ae"/>
      <g id="Grupo_1177318" data-name="Grupo 1177318" transform="translate(26.275 42.696)">
        <path id="Trazado_1036050" data-name="Trazado 1036050" d="M196.264,321.248l-1.959-.979,2-3.993-2.8,1.12a1.1,1.1,0,0,1-1.5-1.017V312h2.19v2.763l3.972-1.59a1.1,1.1,0,0,1,1.386,1.506Z" transform="translate(-192 -312)" fill="#ed539d"/>
        <path id="Trazado_1036051" data-name="Trazado 1036051" d="M235.4,321.248l-3.284-6.569a1.1,1.1,0,0,1,1.386-1.506l3.972,1.59V312h2.19v4.379a1.1,1.1,0,0,1-1.5,1.017l-2.8-1.12,2,3.993Z" transform="translate(-226.526 -312)" fill="#ed539d"/>
      </g>
      <path id="Trazado_1036052" data-name="Trazado 1036052" d="M329.517,64.758h-8.758l-4.379,4.379V64.758H312V56h17.517Z" transform="translate(-269.304 -48.337)" fill="#ffd422"/>
      <g id="Grupo_1177319" data-name="Grupo 1177319" transform="translate(45.981 10.948)">
        <rect id="Rectángulo_415927" data-name="Rectángulo 415927" width="2.19" height="2.19" fill="#5aaae7"/>
        <rect id="Rectángulo_415928" data-name="Rectángulo 415928" width="2.19" height="2.19" transform="translate(4.379)" fill="#5aaae7"/>
        <rect id="Rectángulo_415929" data-name="Rectángulo 415929" width="2.19" height="2.19" transform="translate(8.758)" fill="#5aaae7"/>
      </g>
      <rect id="Rectángulo_415930" data-name="Rectángulo 415930" width="6.193" height="6.193" transform="translate(56.927 52.549) rotate(135)" fill="#e7b900"/>
      <rect id="Rectángulo_415931" data-name="Rectángulo 415931" width="12.386" height="9.289" transform="translate(65.685 56.93) rotate(135)" fill="#ffd422"/>
      <g id="Grupo_1177320" data-name="Grupo 1177320" transform="translate(14.232 14.232)">
        <path id="Trazado_1036053" data-name="Trazado 1036053" d="M135.621,112.349l-1.707-1.371A18.535,18.535,0,0,1,148.432,104v2.19A16.357,16.357,0,0,0,135.621,112.349Z" transform="translate(-129.82 -104)" fill="#fff"/>
        <path id="Trazado_1036054" data-name="Trazado 1036054" d="M106.19,203.309H104a18.541,18.541,0,0,1,.931-5.817l2.079.686A16.338,16.338,0,0,0,106.19,203.309Z" transform="translate(-104 -184.698)" fill="#fff"/>
        <path id="Trazado_1036055" data-name="Trazado 1036055" d="M240,348.291V346.1a16.386,16.386,0,0,0,8.209-2.2l1.1,1.895A18.571,18.571,0,0,1,240,348.291Z" transform="translate(-221.389 -311.069)" fill="#fff"/>
        <path id="Trazado_1036056" data-name="Trazado 1036056" d="M328.652,317.526l-1.589-1.508q.469-.494.9-1.026l1.707,1.371Q329.183,316.966,328.652,317.526Z" transform="translate(-296.537 -286.118)" fill="#fff"/>
      </g>
      <path id="Trazado_1036057" data-name="Trazado 1036057" d="M12.379,8h0A4.379,4.379,0,0,0,8,12.379h8.758A4.379,4.379,0,0,0,12.379,8Z" transform="translate(-6.905 -6.905)" fill="#1e81ce"/>
      <path id="Trazado_1036058" data-name="Trazado 1036058" d="M54.232,8H40a4.379,4.379,0,0,1,4.379,4.379V29.9a4.379,4.379,0,0,0,4.379,4.379h9.853v-21.9A4.379,4.379,0,0,0,54.232,8Z" transform="translate(-34.526 -6.905)" fill="#5aaae7"/>
      <g id="Grupo_1177321" data-name="Grupo 1177321" transform="translate(13.137 8.758)">
        <path id="Trazado_1036059" data-name="Trazado 1036059" d="M96,172.379h12.043A4.379,4.379,0,0,0,112.422,168H100.379A4.379,4.379,0,0,1,96,172.379Z" transform="translate(-96 -153.768)" fill="#1e81ce"/>
        <rect id="Rectángulo_415932" data-name="Rectángulo 415932" width="7.663" height="2.19" transform="translate(0 4.379)" fill="#1e81ce"/>
        <rect id="Rectángulo_415933" data-name="Rectángulo 415933" width="7.663" height="2.19" fill="#1e81ce"/>
        <rect id="Rectángulo_415934" data-name="Rectángulo 415934" width="7.663" height="2.19" transform="translate(0 8.758)" fill="#1e81ce"/>
      </g>
      <path id="Trazado_1036060" data-name="Trazado 1036060" d="M128.421,136v2.19h1.095a9.864,9.864,0,0,1,9.853,9.853v.171a3.3,3.3,0,0,0-1.116-.171h-1.074a1.1,1.1,0,0,1-1.095-1.095v-4.379a1.094,1.094,0,0,0-1.095-1.095H132.8a1.094,1.094,0,0,0-1.095,1.095,5.48,5.48,0,0,1-5.474,5.474h-5.465a3.645,3.645,0,0,0-1.1.183v-.182h-2.19v6.569h-4.379A1.094,1.094,0,0,0,112,155.706a6.6,6.6,0,0,0,2.627,5.255l1.314-1.751a4.4,4.4,0,0,1-1.611-2.409h4.239a1.094,1.094,0,0,0,1.095-1.095v-1.445a3.234,3.234,0,0,0,.395.122,9.91,9.91,0,0,0,3.242,4.607h-2.541a5.48,5.48,0,0,0-5.474,5.474v4.379h2.19v-4.379a3.288,3.288,0,0,1,3.284-3.284h2.19v3.284a1.1,1.1,0,0,0,1.5,1.017l2.8-1.121-2,3.993,1.959.979,2.3-4.61,2.305,4.61,1.959-.979-2-3.993,2.8,1.121a1.1,1.1,0,0,0,1.5-1.017V161.18h2.19a3.288,3.288,0,0,1,3.284,3.284v4.379h2.19v-4.379a5.48,5.48,0,0,0-5.474-5.474H135.7a9.89,9.89,0,0,0,3.229-4.6,3.21,3.21,0,0,0,.442-.131v1.444a1.094,1.094,0,0,0,1.095,1.095h4.14a5.658,5.658,0,0,1-1.591,2.474l1.472,1.621a7.854,7.854,0,0,0,2.543-5.087,1.095,1.095,0,0,0-1.09-1.2h-4.379v-6.569A12.056,12.056,0,0,0,129.516,136Zm5.474,26.848-3.972-1.59c-.03-.012-.061-.012-.091-.021a1.1,1.1,0,0,0-.148-.034,1.087,1.087,0,0,0-.171-.013,1.076,1.076,0,0,0-.315.048c-.029.009-.059.009-.088.02l-3.973,1.59V161.18h8.758Zm4.379-10.579h-.186a1.1,1.1,0,0,0-1.062.83,7.762,7.762,0,0,1-15.064,0,1.1,1.1,0,0,0-1.062-.83h-.142a1.09,1.09,0,0,1-1.095-1.059v0a1,1,0,0,1,.316-.7,1.031,1.031,0,0,1,.734-.273h5.518a7.676,7.676,0,0,0,7.585-6.569h.078v3.284a3.288,3.288,0,0,0,3.284,3.284h1.141a1.034,1.034,0,0,1,.723.265.991.991,0,0,1,.325.678A1.1,1.1,0,0,1,138.274,152.269Z" transform="translate(-96.672 -117.389)"/>
      <path id="Trazado_1036061" data-name="Trazado 1036061" d="M62.187,347.892a24.07,24.07,0,0,1-3.084-6.314l-2.087.663A26.289,26.289,0,0,0,96.908,355.95l-1.238-1.807A24.112,24.112,0,0,1,62.187,347.892Z" transform="translate(-49.214 -294.834)"/>
      <path id="Trazado_1036062" data-name="Trazado 1036062" d="M204.111,51.29l.662-2.087a26.376,26.376,0,0,0-14.847-.331l.568,2.115A24.217,24.217,0,0,1,204.111,51.29Z" transform="translate(-163.935 -41.4)"/>
      <path id="Trazado_1036063" data-name="Trazado 1036063" d="M305.095,58.948h3.284v3.284a1.095,1.095,0,0,0,1.869.774l4.058-4.058h8.3a1.094,1.094,0,0,0,1.095-1.095V49.095A1.094,1.094,0,0,0,322.611,48H305.095A1.094,1.094,0,0,0,304,49.095v8.758A1.094,1.094,0,0,0,305.095,58.948Zm1.095-8.758h15.327v6.569h-7.663a1.1,1.1,0,0,0-.774.321l-2.51,2.51V57.853a1.094,1.094,0,0,0-1.095-1.095H306.19Z" transform="translate(-262.398 -41.431)"/>
      <rect id="Rectángulo_415935" data-name="Rectángulo 415935" width="2.19" height="2.19" transform="translate(45.981 10.948)"/>
      <rect id="Rectángulo_415936" data-name="Rectángulo 415936" width="2.19" height="2.19" transform="translate(50.36 10.948)"/>
      <rect id="Rectángulo_415937" data-name="Rectángulo 415937" width="2.19" height="2.19" transform="translate(54.739 10.948)"/>
      <path id="Trazado_1036064" data-name="Trazado 1036064" d="M204.111,107.29l.662-2.087a26.377,26.377,0,0,0-14.847-.331l.568,2.115A24.227,24.227,0,0,1,204.111,107.29Z" transform="translate(-163.935 -89.737)"/>
      <path id="Trazado_1036065" data-name="Trazado 1036065" d="M101.33,163.084a1.094,1.094,0,0,0-1.548,0L98.366,164.5l-2.8-2.8a26.319,26.319,0,0,0,.415-30.212l-1.809,1.234a24.085,24.085,0,1,1-43.154,7.331l-2.115-.569A26.282,26.282,0,0,0,89.1,168.007c.183-.125.357-.258.536-.386l2.807,2.807-1.416,1.416a1.094,1.094,0,0,0,0,1.548l6.569,6.569,1.548-1.548-5.795-5.795,1.416-1.416,4.379-4.379,1.415-1.415,5.795,5.795,1.548-1.548Zm-7.343,5.795-2.617-2.617a26.088,26.088,0,0,0,2.834-2.828l2.614,2.614Z" transform="translate(-41.438 -113.499)"/>
      <path id="Trazado_1036066" data-name="Trazado 1036066" d="M5.474,2.19A3.288,3.288,0,0,1,8.758,5.474V22.99a5.48,5.48,0,0,0,5.474,5.474H25.18a5.48,5.48,0,0,0,5.474-5.474A1.094,1.094,0,0,0,29.559,21.9H18.611a1.094,1.094,0,0,0-1.095,1.095,3.284,3.284,0,0,1-6.569,0V5.474A5.42,5.42,0,0,0,9.825,2.19h9.881A3.288,3.288,0,0,1,22.99,5.474V19.706h2.19V5.474A5.48,5.48,0,0,0,19.706,0H5.474A5.48,5.48,0,0,0,0,5.474,1.094,1.094,0,0,0,1.095,6.569H6.569V4.379H2.377A3.29,3.29,0,0,1,5.474,2.19ZM19.6,24.085h8.681a3.29,3.29,0,0,1-3.1,2.19H18.609A5.455,5.455,0,0,0,19.6,24.085Z"/>
      <rect id="Rectángulo_415938" data-name="Rectángulo 415938" width="7.663" height="2.19" transform="translate(13.137 13.137)"/>
      <rect id="Rectángulo_415939" data-name="Rectángulo 415939" width="7.663" height="2.19" transform="translate(13.137 8.758)"/>
      <rect id="Rectángulo_415940" data-name="Rectángulo 415940" width="7.663" height="2.19" transform="translate(13.137 17.516)"/>
    </g>
  </g>
</svg>
