<svg xmlns="http://www.w3.org/2000/svg" xmlns:xlink="http://www.w3.org/1999/xlink" width="118" height="118" viewBox="0 0 118 118">
  <defs>
    <filter id="Trazado_982547" x="0" y="0" width="118" height="118" filterUnits="userSpaceOnUse">
      <feOffset dy="3" input="SourceAlpha"/>
      <feGaussianBlur stdDeviation="3" result="blur"/>
      <feFlood flood-opacity="0.161"/>
      <feComposite operator="in" in2="blur"/>
      <feComposite in="SourceGraphic"/>
    </filter>
  </defs>
  <g id="Grupo_1177328" data-name="Grupo 1177328" transform="translate(-1214 -4125.328)">
    <g id="Grupo_1176876" data-name="Grupo 1176876" transform="translate(0 -5533)">
      <g id="Grupo_1176359" data-name="Grupo 1176359" transform="translate(1223 9664.328)">
        <g id="Grupo_1172970" data-name="Grupo 1172970" transform="translate(0)">
          <g id="Grupo_1171971" data-name="Grupo 1171971" transform="translate(0)">
            <g id="Grupo_1167337" data-name="Grupo 1167337">
              <g id="Grupo_1166720" data-name="Grupo 1166720">
                <g id="Grupo_1164305" data-name="Grupo 1164305">
                  <g id="Grupo_1163948" data-name="Grupo 1163948">
                    <g id="Grupo_1158168" data-name="Grupo 1158168">
                      <g id="Grupo_1152576" data-name="Grupo 1152576">
                        <g id="Grupo_1148633" data-name="Grupo 1148633">
                          <g id="Grupo_1148525" data-name="Grupo 1148525">
                            <g transform="matrix(1, 0, 0, 1, -9, -6)" filter="url(#Trazado_982547)">
                              <g id="Trazado_982547-2" data-name="Trazado 982547" transform="translate(9 6)" fill="#fbecfd">
                                <path d="M 50 98.5 C 43.45188522338867 98.5 37.10042953491211 97.21787261962891 31.12207221984863 94.68923950195312 C 25.34691429138184 92.24655914306641 20.15995788574219 88.74932861328125 15.70532894134521 84.29468536376953 C 11.2506856918335 79.84004211425781 7.753442764282227 74.65309906005859 5.310757160186768 68.87794494628906 C 2.782128572463989 62.89958572387695 1.5 56.54813003540039 1.5 50 C 1.5 43.45188522338867 2.782128572463989 37.10042953491211 5.310757160186768 31.12207221984863 C 7.753442764282227 25.34691429138184 11.2506856918335 20.15997123718262 15.70532894134521 15.70532894134521 C 20.15997123718262 11.2506856918335 25.34691429138184 7.753442764282227 31.12207221984863 5.310757160186768 C 37.10042953491211 2.782128572463989 43.45188522338867 1.5 50 1.5 C 56.54813003540039 1.5 62.89958572387695 2.782128572463989 68.87794494628906 5.310757160186768 C 74.65309906005859 7.753442764282227 79.84004211425781 11.2506856918335 84.29468536376953 15.70532894134521 C 88.74932861328125 20.15995788574219 92.24655914306641 25.34691429138184 94.68923950195312 31.12207221984863 C 97.21787261962891 37.10042953491211 98.5 43.45188522338867 98.5 50 C 98.5 56.54813003540039 97.21787261962891 62.89958572387695 94.68923950195312 68.87794494628906 C 92.24655914306641 74.65309906005859 88.74932861328125 79.84004211425781 84.29468536376953 84.29468536376953 C 79.84004211425781 88.74932861328125 74.65309906005859 92.24655914306641 68.87794494628906 94.68923950195312 C 62.89958572387695 97.21787261962891 56.54813003540039 98.5 50 98.5 Z" stroke="none"/>
                                <path d="M 50 3 C 43.65372467041016 3 37.49886322021484 4.242263793945312 31.70639801025391 6.6922607421875 C 26.11003112792969 9.059326171875 21.08335113525391 12.44861602783203 16.76598358154297 16.76598358154297 C 12.44861602783203 21.08335113525391 9.059326171875 26.11003112792969 6.6922607421875 31.70639801025391 C 4.242263793945312 37.49886322021484 3 43.65372467041016 3 50 C 3 56.34629058837891 4.242263793945312 62.50115203857422 6.6922607421875 68.29361724853516 C 9.059326171875 73.88998413085938 12.44861602783203 78.91666412353516 16.76598358154297 83.23403167724609 C 21.08335113525391 87.55138397216797 26.11003112792969 90.940673828125 31.70639801025391 93.3077392578125 C 37.49886322021484 95.75773620605469 43.65372467041016 97 50 97 C 56.34629058837891 97 62.50115203857422 95.75773620605469 68.29361724853516 93.3077392578125 C 73.88998413085938 90.940673828125 78.91666412353516 87.55138397216797 83.23403167724609 83.23403167724609 C 87.55138397216797 78.91666412353516 90.940673828125 73.88998413085938 93.3077392578125 68.29361724853516 C 95.75773620605469 62.50115203857422 97 56.34629058837891 97 50 C 97 43.65372467041016 95.75773620605469 37.49886322021484 93.3077392578125 31.70639801025391 C 90.940673828125 26.11003112792969 87.55138397216797 21.08335113525391 83.23403167724609 16.76598358154297 C 78.91666412353516 12.44861602783203 73.88998413085938 9.059326171875 68.29361724853516 6.6922607421875 C 62.50115203857422 4.242263793945312 56.34629058837891 3 50 3 M 50 0 C 77.6142578125 0 100 22.38577270507812 100 50 C 100 77.6142578125 77.6142578125 100 50 100 C 22.38577270507812 100 0 77.6142578125 0 50 C 0 22.38577270507812 22.38577270507812 0 50 0 Z" stroke="none" fill="#772d84"/>
                              </g>
                            </g>
                          </g>
                        </g>
                      </g>
                    </g>
                  </g>
                </g>
              </g>
            </g>
          </g>
        </g>
      </g>
    </g>
    <g id="improvement_11695064" transform="translate(1233.347 4140.711)">
      <g id="Grupo_1177323" data-name="Grupo 1177323" transform="translate(42.515 43.313)">
        <path id="Trazado_1036067" data-name="Trazado 1036067" d="M300.305,283.6l4.109,1.1-.72,2.682a10.977,10.977,0,0,1,3.637,2.8l2.408-1.387,2.12,3.664-2.394,1.387a11.3,11.3,0,0,1,.589,4.553l2.682.707-1.1,4.109-2.682-.72a11.115,11.115,0,0,1-2.787,3.637l1.387,2.408-3.69,2.12-1.374-2.408a11.266,11.266,0,0,1-4.54.589l-.72,2.682-4.109-1.1.72-2.682a11.115,11.115,0,0,1-3.637-2.787l-2.408,1.374-2.12-3.664,2.408-1.387a11.08,11.08,0,0,1-.6-4.553l-2.682-.707,1.1-4.109,2.682.72a10.976,10.976,0,0,1,2.8-3.637l-1.387-2.408,3.664-2.12,1.387,2.394a11.3,11.3,0,0,1,4.553-.589Zm.288,7.118a7.076,7.076,0,1,1-8.662,5.011A7.08,7.08,0,0,1,300.593,290.718Z" transform="translate(-283.911 -282.679)" fill="#ffca01" fill-rule="evenodd"/>
        <path id="Trazado_1036068" data-name="Trazado 1036068" d="M291.323,306.279a1.444,1.444,0,0,1-.236-.026l-4.109-1.1a.9.9,0,0,1-.536-.419.945.945,0,0,1-.092-.68l.536-1.989a12.3,12.3,0,0,1-2.774-2.12l-1.793,1.021a.891.891,0,0,1-1.2-.327L279,296.976a.945.945,0,0,1-.092-.68.9.9,0,0,1,.419-.536l1.779-1.021a11.854,11.854,0,0,1-.458-3.467l-1.989-.523a.9.9,0,0,1-.536-.419.945.945,0,0,1-.092-.68l1.1-4.109a.9.9,0,0,1,.419-.536.945.945,0,0,1,.68-.092l1.989.536a11.8,11.8,0,0,1,2.133-2.774l-1.034-1.793a.886.886,0,0,1,.327-1.217l3.664-2.12a.886.886,0,0,1,1.217.327l1.034,1.779a11.9,11.9,0,0,1,3.467-.445l.523-1.989a.9.9,0,0,1,.419-.536.884.884,0,0,1,.68-.092l4.109,1.1a.9.9,0,0,1,.536.419.945.945,0,0,1,.092.68l-.536,1.989a11.8,11.8,0,0,1,2.774,2.133l1.793-1.034a.9.9,0,0,1,1.217.327l2.12,3.664a.886.886,0,0,1-.327,1.217l-1.779,1.034a11.9,11.9,0,0,1,.445,3.467l1.989.523a.9.9,0,0,1,.536.419.945.945,0,0,1,.092.68l-1.1,4.109a.9.9,0,0,1-.419.536.945.945,0,0,1-.68.092l-1.989-.536a12.3,12.3,0,0,1-2.12,2.774l1.034,1.793a.886.886,0,0,1-.327,1.217l-3.69,2.12a.886.886,0,0,1-1.217-.327l-1.034-1.779a12.274,12.274,0,0,1-3.454.445l-.536,1.989A.9.9,0,0,1,291.323,306.279Zm-3.023-2.6,2.394.641.5-1.819a.9.9,0,0,1,.929-.654,10.563,10.563,0,0,0,4.187-.536.881.881,0,0,1,1.06.393l.916,1.609,2.146-1.23-.942-1.636a.9.9,0,0,1,.183-1.112,10.238,10.238,0,0,0,2.565-3.35.871.871,0,0,1,1.034-.471l1.819.484.641-2.381-1.819-.484a.87.87,0,0,1-.654-.929,10.6,10.6,0,0,0-.536-4.2.881.881,0,0,1,.393-1.06l1.622-.942-1.23-2.133-1.636.942a.883.883,0,0,1-1.112-.2,10.184,10.184,0,0,0-3.35-2.578.871.871,0,0,1-.471-1.034l.484-1.819-2.381-.641-.484,1.819a.883.883,0,0,1-.929.654,10.366,10.366,0,0,0-4.2.536.881.881,0,0,1-1.06-.393l-.942-1.622-2.133,1.23.942,1.636a.883.883,0,0,1-.2,1.112,10.184,10.184,0,0,0-2.578,3.35.871.871,0,0,1-1.034.471l-1.819-.484-.641,2.381,1.819.484a.87.87,0,0,1,.654.929,10.25,10.25,0,0,0,.55,4.187.9.9,0,0,1-.393,1.073l-1.636.942,1.23,2.133,1.636-.929a.9.9,0,0,1,1.112.183,10.237,10.237,0,0,0,3.35,2.565.871.871,0,0,1,.471,1.034Zm4.566-4.279a7.963,7.963,0,1,1,3.978-1.073A7.828,7.828,0,0,1,292.867,299.4Zm-.013-14.144a6.2,6.2,0,0,0-5.352,9.29,6.187,6.187,0,1,0,6.961-9.068A5.686,5.686,0,0,0,292.854,285.252Z" transform="translate(-278.003 -276.559)"/>
      </g>
      <g id="Grupo_1177324" data-name="Grupo 1177324" transform="translate(9.045 29.017)">
        <path id="Trazado_1036069" data-name="Trazado 1036069" d="M48.928,177.383a14.506,14.506,0,0,1,5.666,2.342l2.394-1.819,3.14,3.14L58.3,183.441a14.357,14.357,0,0,1,2.355,5.652l2.983.406v4.436l-2.983.406a14.552,14.552,0,0,1-2.355,5.652l1.832,2.394c-1.047,1.047-2.094,2.107-3.14,3.14l-2.394-1.819a14.473,14.473,0,0,1-5.666,2.342l-.393,2.983H44.1l-.406-2.983a14.506,14.506,0,0,1-5.666-2.342l-2.394,1.819c-1.034-1.034-2.094-2.094-3.127-3.14l1.819-2.394a14.336,14.336,0,0,1-2.342-5.652L29,193.935V189.5l2.983-.406a14.53,14.53,0,0,1,2.342-5.652l-1.819-2.394c1.034-1.047,2.094-2.107,3.127-3.14l2.394,1.819a14.473,14.473,0,0,1,5.666-2.342L44.1,174.4h4.436Zm-.641,11.24a3.657,3.657,0,1,1-3.912,0v-4.959a8.269,8.269,0,1,0,3.9,0v4.959Z" transform="translate(-28.11 -173.471)" fill="#686868" fill-rule="evenodd"/>
        <path id="Trazado_1036070" data-name="Trazado 1036070" d="M42.625,203.74H38.189a.878.878,0,0,1-.877-.772l-.327-2.355a15.415,15.415,0,0,1-4.841-2L30.26,200.05a.88.88,0,0,1-1.165-.079c-1.034-1.034-2.094-2.094-3.127-3.153a.9.9,0,0,1-.079-1.165l1.439-1.884a15.167,15.167,0,0,1-2-4.828l-2.355-.327a.888.888,0,0,1-.772-.877V183.3a.878.878,0,0,1,.772-.877l2.355-.327a15.167,15.167,0,0,1,2-4.828l-1.439-1.884a.9.9,0,0,1,.079-1.165C26.976,173.2,28,172.181,29,171.173l.1-.1a.9.9,0,0,1,1.165-.079l1.884,1.439a15.414,15.414,0,0,1,4.841-2l.327-2.355a.888.888,0,0,1,.877-.772h4.436a.878.878,0,0,1,.877.772l.314,2.355a15.414,15.414,0,0,1,4.841,2l1.884-1.439a.9.9,0,0,1,1.165.079l3.14,3.14a.88.88,0,0,1,.079,1.165l-1.452,1.884a15.024,15.024,0,0,1,2.015,4.828l2.355.327a.888.888,0,0,1,.772.877v4.436a.878.878,0,0,1-.772.877l-2.355.327a15.147,15.147,0,0,1-2.015,4.828l1.452,1.884a.88.88,0,0,1-.079,1.165l-1.06,1.06c-.693.693-1.387,1.4-2.094,2.094a.9.9,0,0,1-1.165.079L48.657,198.6a15.415,15.415,0,0,1-4.841,2l-.314,2.355A.879.879,0,0,1,42.625,203.74Zm-3.664-1.766H41.84l.288-2.211a.889.889,0,0,1,.72-.759,13.625,13.625,0,0,0,5.325-2.2.884.884,0,0,1,1.047.026L51,198.179l1.531-1.531.51-.51-1.361-1.779a.884.884,0,0,1-.026-1.047,13.471,13.471,0,0,0,2.211-5.3.875.875,0,0,1,.759-.72l2.211-.3V184.1l-2.211-.3a.9.9,0,0,1-.759-.72,13.392,13.392,0,0,0-2.211-5.3.884.884,0,0,1,.026-1.047l1.361-1.779L51,172.913l-1.779,1.348a.9.9,0,0,1-1.047.026,13.277,13.277,0,0,0-5.325-2.2.889.889,0,0,1-.72-.759l-.288-2.211H38.961l-.3,2.211a.9.9,0,0,1-.72.759,13.625,13.625,0,0,0-5.325,2.2.884.884,0,0,1-1.047-.026l-1.779-1.348-2.041,2.041,1.348,1.779a.9.9,0,0,1,.026,1.047,13.4,13.4,0,0,0-2.2,5.3.875.875,0,0,1-.759.72l-2.211.3v2.892l2.211.3a.9.9,0,0,1,.759.72,13.512,13.512,0,0,0,2.2,5.3.884.884,0,0,1-.026,1.047l-1.348,1.779c.68.68,1.361,1.361,2.028,2.041l1.806-1.348a.9.9,0,0,1,1.047-.026,13.276,13.276,0,0,0,5.325,2.2.875.875,0,0,1,.72.759Zm1.439-7.249a9.179,9.179,0,0,1-2.172-18.1.881.881,0,0,1,.759.17.894.894,0,0,1,.34.693v4.959a.873.873,0,0,1-.419.746,2.765,2.765,0,1,0,4.239,2.342,2.781,2.781,0,0,0-1.282-2.355.89.89,0,0,1-.406-.746V177.48a.894.894,0,0,1,.34-.693.925.925,0,0,1,.759-.17A9.188,9.188,0,0,1,40.4,194.725ZM37.561,178.71a7.4,7.4,0,1,0,5.692.013v3.284a4.539,4.539,0,1,1-5.692-.013Z" transform="translate(-22.2 -167.3)"/>
      </g>
      <g id="Grupo_1177325" data-name="Grupo 1177325" transform="translate(39.698 17.451)">
        <path id="Trazado_1036071" data-name="Trazado 1036071" d="M273.959,96.992v11.083H267.6V96.992h-4.2l3.69-5.652,3.69-5.639,3.69,5.639,3.7,5.652Z" transform="translate(-262.493 -84.81)" fill="#00a550" fill-rule="evenodd"/>
        <path id="Trazado_1036072" data-name="Trazado 1036072" d="M267.935,103.054h-6.359a.891.891,0,0,1-.89-.89V91.971h-3.323a.9.9,0,0,1-.785-.471.862.862,0,0,1,.039-.9l7.393-11.292a.89.89,0,0,1,.746-.406.908.908,0,0,1,.746.406L272.894,90.6a.863.863,0,0,1,.039.9.9.9,0,0,1-.785.471h-3.323v10.193A.891.891,0,0,1,267.935,103.054Zm-5.469-1.779h4.58V91.082a.891.891,0,0,1,.89-.89H270.5l-5.757-8.78L259,90.192h2.565a.891.891,0,0,1,.89.89v10.193Z" transform="translate(-256.469 -78.9)" fill="#010101"/>
      </g>
      <g id="Grupo_1177326" data-name="Grupo 1177326" transform="translate(53.973 8.2)">
        <path id="Trazado_1036073" data-name="Trazado 1036073" d="M382.972,26.292V46.625h-6.359V26.292H372.4l3.7-5.639L379.793,15l3.69,5.652,3.7,5.639Z" transform="translate(-371.506 -14.11)" fill="#00a550" fill-rule="evenodd"/>
        <path id="Trazado_1036074" data-name="Trazado 1036074" d="M377.035,41.6h-6.359a.891.891,0,0,1-.89-.89V21.271h-3.323a.9.9,0,0,1-.785-.471.862.862,0,0,1,.039-.9L373.11,8.606a.888.888,0,0,1,1.492,0l7.38,11.292a.863.863,0,0,1,.039.9.9.9,0,0,1-.785.471h-3.31V40.715A.9.9,0,0,1,377.035,41.6Zm-5.469-1.779h4.58V20.382a.891.891,0,0,1,.89-.89H379.6l-5.744-8.78-5.757,8.78h2.565a.891.891,0,0,1,.89.89V39.825Z" transform="translate(-365.569 -8.2)" fill="#010101"/>
      </g>
      <g id="Grupo_1177327" data-name="Grupo 1177327" transform="translate(7.064 10.689)">
        <path id="Trazado_1036075" data-name="Trazado 1036075" d="M21.219,34l-2.735,1.047.68,1.779a7.822,7.822,0,0,0-2.3,2.185l-1.74-.785-1.2,2.682,1.74.785a7.74,7.74,0,0,0-.092,3.153l-1.766.667,1.034,2.735,1.793-.68a7.738,7.738,0,0,0,2.159,2.3L18,51.612l2.682,1.2.785-1.74a7.747,7.747,0,0,0,3.153.092l.693,1.793,2.735-1.047-.68-1.779a7.984,7.984,0,0,0,2.3-2.185l1.727.785,1.2-2.682-1.74-.785a7.747,7.747,0,0,0,.092-3.153l1.793-.68-1.034-2.748-1.793.693a7.509,7.509,0,0,0-2.185-2.3l.785-1.74-2.669-1.2-.785,1.74a7.81,7.81,0,0,0-3.166-.092Zm.3,4.92a4.878,4.878,0,1,0,6.294,2.826A4.9,4.9,0,0,0,21.52,38.92Z" transform="translate(-12.919 -33.113)" fill="#bbbdbf" fill-rule="evenodd"/>
        <path id="Trazado_1036076" data-name="Trazado 1036076" d="M19.46,47.958a.874.874,0,0,1-.824-.563l-.445-1.138a8.314,8.314,0,0,1-2.054-.065l-.5,1.1a.924.924,0,0,1-.5.471.879.879,0,0,1-.68-.026l-2.682-1.2a.893.893,0,0,1-.445-1.178l.5-1.1a8.077,8.077,0,0,1-1.413-1.5l-1.125.432a.88.88,0,0,1-1.138-.51L7.121,39.938a.88.88,0,0,1,.51-1.138l1.112-.432a8.314,8.314,0,0,1,.065-2.054l-1.1-.5a.924.924,0,0,1-.471-.5.876.876,0,0,1,.026-.68l1.2-2.682a.893.893,0,0,1,1.178-.445l1.1.5a8.175,8.175,0,0,1,1.5-1.426l-.432-1.112a.88.88,0,0,1,.51-1.138l2.735-1.047a.876.876,0,0,1,.68.013.924.924,0,0,1,.471.5l.432,1.125a8.44,8.44,0,0,1,2.067.065l.5-1.1a.924.924,0,0,1,.5-.471.876.876,0,0,1,.68.026l2.656,1.2a.893.893,0,0,1,.445,1.178l-.5,1.1a8.662,8.662,0,0,1,1.426,1.5L25.544,32a.884.884,0,0,1,1.151.51l1.034,2.748a.88.88,0,0,1-.51,1.138l-1.125.432a8.334,8.334,0,0,1-.065,2.054l1.1.5a.924.924,0,0,1,.471.5.879.879,0,0,1-.026.68l-1.2,2.682a.924.924,0,0,1-.5.471.879.879,0,0,1-.68-.026l-1.086-.5A8.966,8.966,0,0,1,22.613,44.6l.432,1.125a.88.88,0,0,1-.51,1.138L19.8,47.906a1.8,1.8,0,0,1-.34.052Zm-.693-3.572a.88.88,0,0,1,.824.563l.366.968,1.086-.419-.366-.942a.892.892,0,0,1,.353-1.073,7.025,7.025,0,0,0,2.041-1.937.886.886,0,0,1,1.086-.3l.916.419.471-1.06-.929-.419a.868.868,0,0,1-.5-1.008,6.751,6.751,0,0,0,.079-2.8.894.894,0,0,1,.563-.994l.955-.366-.406-1.086-.955.366a.877.877,0,0,1-1.073-.366A6.352,6.352,0,0,0,21.357,31.9a.884.884,0,0,1-.314-1.1l.419-.942-1.047-.471L20,30.32a.868.868,0,0,1-1.008.5,6.808,6.808,0,0,0-2.813-.079.894.894,0,0,1-.994-.563l-.366-.955-1.073.419.366.942a.882.882,0,0,1-.366,1.073A6.84,6.84,0,0,0,11.7,33.592a.886.886,0,0,1-1.086.3l-.929-.419-.471,1.06.929.419a.877.877,0,0,1,.5,1.021,6.683,6.683,0,0,0-.079,2.787.894.894,0,0,1-.563.994l-.942.366.406,1.086.955-.366a.868.868,0,0,1,1.073.379,6.7,6.7,0,0,0,1.91,2.028.886.886,0,0,1,.3,1.086l-.419.929,1.06.471.419-.929a.868.868,0,0,1,1.008-.5,6.751,6.751,0,0,0,2.8.079.962.962,0,0,0,.2,0Zm-1.361-1.021a5.793,5.793,0,0,1-5.391-3.729,5.809,5.809,0,0,1,3.337-7.445,5.668,5.668,0,0,1,4.409.131,5.79,5.79,0,0,1,2.918,7.628,5.69,5.69,0,0,1-3.219,3.036,5.883,5.883,0,0,1-2.054.379Zm-1.413-9.512a4.028,4.028,0,0,0-2.316,5.155,4,4,0,1,0,2.316-5.155Z" transform="translate(-7.064 -27.222)"/>
      </g>
    </g>
  </g>
</svg>
